<?xml version="1.0" encoding="UTF-8"?>
<svg xmlns="http://www.w3.org/2000/svg" id="Calque_1" data-name="Calque 1" viewBox="0 0 250 250">
  <defs>
    <style>.cls-1{fill:#ffdec1;}.cls-2{fill:#f04;}.cls-3{fill:#ffad64;}.cls-4{fill:#ffc802;}.cls-5{fill:#ffe473;}.cls-6{fill:#d78f29;}.cls-7{fill:#fff;}.cls-8{fill:#ff891f;}.cls-9{fill:#5091f2;}.cls-10{fill:#285aff;}.cls-11{fill:#ffc800;}.cls-12{fill:#27c896;}.cls-13{fill:#132d32;}</style>
  </defs>
  <title>250x250_service-client-prime</title>
  <path class="cls-1" d="M194.365,152.039c.591,1.064,2.349,1.587,3.624,2.342a12.6,12.6,0,0,0-3.856-4.75A4.323,4.323,0,0,0,194.365,152.039Z"></path>
  <path class="cls-1" d="M202.466,151.653a17.807,17.807,0,0,1,.6,2.243l1.441-2.344S203.61,151.648,202.466,151.653Z"></path>
  <path class="cls-1" d="M250,125a124.428,124.428,0,0,0-22.994-72.263l-.254,9.592a1.2,1.2,0,0,1-1.963.9l-14.459-11.7a1.205,1.205,0,0,0-1.1-.219l-17.837,5.28a1.205,1.205,0,0,1-1.467-1.587l6.66-17.368a1.2,1.2,0,0,0-.132-1.114L185.922,21.194a1.2,1.2,0,0,1,1.056-1.886l5.215.271A125.049,125.049,0,0,0,54.1,22.05,52.289,52.289,0,0,1,65.2,44.7S53.811,35.971,42.27,31.3A125.754,125.754,0,0,0,30.237,43.486a29.533,29.533,0,0,1,12.044,4.866s-10.07.8-16.831,3.874a24.83,24.83,0,0,0-3.416,1.9A125.017,125.017,0,0,0,52.886,227.11c-11.2-22.058-8.375-51.574-4.47-71.237a19.346,19.346,0,0,0-1.276-6.263c-.823-1.869-4.745-10.829-5.527-12.028a11.644,11.644,0,0,0-4.159-3.3A65.7,65.7,0,0,1,23.368,123.2c-.664-.688-1.312-1.858-.482-2.457a1.259,1.259,0,0,1,1.3-.068L38.123,127.8a211.385,211.385,0,0,1-9.653-22.784c-.331-.93-.648-2.015.1-2.814a1.933,1.933,0,0,1,1.842-.508c1.359.307,2.146,1.45,2.869,2.535l4.388,6.585-1.261-14.14a2.452,2.452,0,0,1,.679-2.425,2.131,2.131,0,0,1,2.262-.129c1.417.733,1.914,2.273,2.345,3.711l6.059,20.2c2.27-6.2,10.9-8.974,16.356-5.268a1.515,1.515,0,0,1,.878,1.553,1.739,1.739,0,0,1-.773,1.148,5.96,5.96,0,0,1-2.925.59c-3.481.291-6.975,2.964-6.586,6.786a4.414,4.414,0,0,0,3.792,4.028c2.959.331,4.915-2.466,5.563-5.152.581-2.41.5-4.977,1.376-7.295.2-.515.475-1.056,1.155-1.084a1.6,1.6,0,0,1,1.455.914,20.366,20.366,0,0,1,2.031,7.029c9.019-7.032,11.01-8.368,17.742-11.722a1.026,1.026,0,0,1,.257-.124,77.246,77.246,0,0,1,15.788-5.494c3.786-4.88,7.311-15.032.192-34.91l31.315-2.986c.2,12.827,6.488,31.458,8.756,37.775a173.7,173.7,0,0,1,17.4,4.88,36.9,36.9,0,0,1,9.822,5.536,48.419,48.419,0,0,1,6.554,6.116l6.083.737a3.6,3.6,0,0,1,3.117,2.973,3.42,3.42,0,0,1-.273,2.079h.006c-.037.083-.087.157-.13.236-.022.039-.041.079-.064.117a3.554,3.554,0,0,1-.216.32h0a3.592,3.592,0,0,1-.818.789c-.047.033-.093.065-.141.1-.07.044-.139.087-.212.126a3.453,3.453,0,0,1-1.6.435,41.871,41.871,0,0,1,4.923,12.79c4.56-.536,8.674,1.984,11.406,5.762,1.834-.847,8.388-1.587,10.115-.464a4.2,4.2,0,0,1,1.336,5.409c-.942,1.979-4.757,4.911-6.624,5.466,1.608,1.385,2.6,3.069,1.667,4.282,1.411,1.159,2.2,2.064.455,5.222,1.593,1.614.641,4.2-.217,5.36a6.06,6.06,0,0,1-.343.823c-.135.264-.266.526-.382.788a15.745,15.745,0,0,1-3.644,4.853l-.025.023c-.555.517-1.433,1.5-2.527,2.715,4.017,12.206,7.384,25.686,7.837,37.493A124.691,124.691,0,0,0,250,125ZM54.907,69.506c-3.051,2.262-5.844,1.075-8.088.121-2.061-.876-3.19-1.284-4.346-.222-1.519,1.394-1.078,2.789-.17,5.133.769,1.983,1.726,4.452-.007,6.7A4.381,4.381,0,0,1,39.136,83a5.421,5.421,0,0,1-1.633-.128,11.36,11.36,0,0,1-4.626-2.587A1.194,1.194,0,1,1,34.5,78.54c.628.584,2.79,2.218,4.437,2.084a1.977,1.977,0,0,0,1.465-.849c.866-1.121.439-2.392-.329-4.373-.85-2.191-2.013-5.191.781-7.756,2.343-2.152,4.868-1.078,6.9-.217s3.778,1.606,5.731.158c2.131-1.579,1.107-6.455.532-8.2a1.194,1.194,0,0,1,2.268-.751C56.552,59.444,58.792,66.626,54.907,69.506ZM194.513,98.356l-6.048,3.932a.448.448,0,0,0-.2.364l-.191,7.211a.448.448,0,0,1-.73.336l-5.608-4.538a.448.448,0,0,0-.409-.081l-6.918,2.048a.448.448,0,0,1-.546-.59l2.583-6.736a.448.448,0,0,0-.049-.414l-4.085-5.946a.448.448,0,0,1,.393-.7l7.2.375a.448.448,0,0,0,.379-.175l4.393-5.722a.448.448,0,0,1,.788.157l1.869,6.968a.448.448,0,0,0,.283.306l6.8,2.41A.448.448,0,0,1,194.513,98.356Zm16.83-5.621a.667.667,0,0,0-.609-.121l-10.3,3.048a.667.667,0,0,1-.812-.878l3.845-10.027a.667.667,0,0,0-.073-.617l-6.081-8.851a.667.667,0,0,1,.584-1.044l10.725.558a.667.667,0,0,0,.564-.26l6.539-8.518a.667.667,0,0,1,1.173.233l2.783,10.373a.667.667,0,0,0,.421.456l10.122,3.587a.667.667,0,0,1,.141,1.188l-9,5.853a.667.667,0,0,0-.3.542l-.284,10.734a.667.667,0,0,1-1.086.5Z"></path>
  <path class="cls-1" d="M76.611,240.286c1.322.556,2.659,1.084,4,1.595l-.118-3.3A19.185,19.185,0,0,1,76.611,240.286Z"></path>
  <path class="cls-1" d="M183.634,231.089l-.774-.162-3.759,6.666.006.12q3.755-1.806,7.364-3.856A18.039,18.039,0,0,1,183.634,231.089Z"></path>
  <path class="cls-2" d="M179.007,237.76l.1-.047-.006-.12Z"></path>
  <path class="cls-2" d="M159.23,242.523a1.874,1.874,0,0,1-3.294.773l-4.751-5.932-12.1-1.466-4.572,1.765a1.874,1.874,0,0,1-2.484-2.237l.1-.371-30.868-3.74a1,1,0,0,1,0-1.994l18.593-3.51,3.148-27.313c-7.622-4.078-14.258-12.161-18.618-24.116-22.417,6.028-44.542-27.649-23.38-43.706,5.337-4.471,19.414-.016,13.219,4.123-1.485.569-3.141.19-4.729.144-5-.142-9.7,3.353-11.685,7.942-4.279,10.177,2.845,22.061,12.659,25.846,3.932,2.083,8.406,1.474,12.554,1.5-3.977-13.275-5.355-30.671-2.709-52.024l-.262-.032a3.609,3.609,0,0,1-.639-.143c-.076-.024-.148-.054-.221-.083a3.544,3.544,0,0,1-.387-.176c-.067-.036-.133-.071-.2-.111a3.572,3.572,0,0,1-.418-.3c-.028-.023-.059-.043-.086-.067a3.613,3.613,0,0,1-.448-.477c-.016-.021-.029-.043-.045-.064a3.6,3.6,0,0,1-.3-.471c-.027-.05-.051-.1-.075-.152a3.555,3.555,0,0,1-.171-.437c-.021-.063-.043-.125-.06-.189-.007-.028-.019-.054-.026-.082l.011,0a3.474,3.474,0,0,1-.08-1.256,3.586,3.586,0,0,1,3.764-3.145,3.511,3.511,0,0,1,.742-4.556,15.465,15.465,0,0,0,2.445-2.521,77.246,77.246,0,0,0-15.788,5.494,1.026,1.026,0,0,0-.257.124c-6.732,3.354-8.723,4.69-17.742,11.722.506,4.4-.084,9.03-.707,13.468a35.622,35.622,0,0,1-2.084,9.037,52.428,52.428,0,0,0-2.382,5.352c-.86,2.893,5.916,10.182,6.281,13.178.5,4.1-15.358,10.261-22.758,7.837a129.924,129.924,0,0,0-.014-14.283c-3.905,19.663-6.729,49.179,4.47,71.237a54.954,54.954,0,0,0,3.095,5.347c5.294,8.041,13.549,10.033,20.63,7.829a19.185,19.185,0,0,0,3.886-1.7l.118,3.3a125.356,125.356,0,0,0,91.235-.966l-8.292-18.3Z"></path>
  <path class="cls-2" d="M197.755,183.531c.281,1.628,1.5,3.576.938,4.875-.72,1.673-4.149,1.935-5.07,3.456-.943,1.553.417,4.7-.695,6.1-1.128,1.4-4.493.776-5.789,2.033-1.224,1.188-.871,4.242-2.04,5.49l12.925,25.142a2.086,2.086,0,0,1-2.283,2.995l-12.108-2.538a18.039,18.039,0,0,0,2.837,2.768c8.9,6.893,21.419,2.163,21.2-13.354-.008-.567-.025-1.139-.047-1.714-.453-11.807-3.82-25.287-7.837-37.493C199.172,181.98,198.489,182.738,197.755,183.531Z"></path>
  <path class="cls-2" d="M183.116,128.241l-.221-.027q-.578,4.826-1.352,9.325c1.593.047,3.575-.476,4.613.344.82.659.949,2.079,1.163,3.406a10.916,10.916,0,0,1,1.253-.231,41.871,41.871,0,0,0-4.923-12.79A3.4,3.4,0,0,1,183.116,128.241Z"></path>
  <path class="cls-2" d="M144.936,106.019s4.942,6.876-13.267,8.734l46.231,5.6a48.419,48.419,0,0,0-6.554-6.116,36.9,36.9,0,0,0-9.822-5.536,173.7,173.7,0,0,0-17.4-4.88C144.629,105.216,144.936,106.019,144.936,106.019Z"></path>
  <path class="cls-3" d="M101.422,106.466a3.511,3.511,0,0,0-.742,4.556c.081,0,.161,0,.243.005l30.747,3.726c18.209-1.858,13.267-8.734,13.267-8.734s-.307-.8-.807-2.2c-2.268-6.317-8.559-24.947-8.756-37.775l-31.315,2.986c7.12,19.878,3.594,30.031-.192,34.91A15.465,15.465,0,0,1,101.422,106.466Z"></path>
  <path class="cls-3" d="M48.43,170.156c7.4,2.424,23.259-3.739,22.758-7.837-.366-3-7.141-10.285-6.281-13.178a52.428,52.428,0,0,1,2.382-5.352,35.622,35.622,0,0,0,2.084-9.037c.623-4.438,1.214-9.066.707-13.468a20.366,20.366,0,0,0-2.031-7.029,1.6,1.6,0,0,0-1.455-.914c-.68.028-.96.569-1.155,1.084-.88,2.318-.8,4.885-1.376,7.295-.648,2.687-2.6,5.483-5.563,5.152a4.414,4.414,0,0,1-3.792-4.028c-.389-3.822,3.105-6.495,6.586-6.786a5.96,5.96,0,0,0,2.925-.59,1.739,1.739,0,0,0,.773-1.148,1.515,1.515,0,0,0-.878-1.553c-5.459-3.706-14.087-.927-16.356,5.268L41.7,97.832c-.431-1.438-.928-2.978-2.345-3.711a2.131,2.131,0,0,0-2.262.129,2.452,2.452,0,0,0-.679,2.425l1.261,14.14-4.388-6.585c-.723-1.085-1.509-2.227-2.869-2.535a1.933,1.933,0,0,0-1.842.508c-.753.8-.436,1.884-.1,2.814A211.385,211.385,0,0,0,38.123,127.8L24.19,120.679a1.259,1.259,0,0,0-1.3.068c-.83.6-.181,1.769.482,2.457a65.7,65.7,0,0,0,14.086,11.083,11.644,11.644,0,0,1,4.159,3.3c.782,1.2,4.7,10.16,5.527,12.028a19.346,19.346,0,0,1,1.276,6.263A129.924,129.924,0,0,1,48.43,170.156Z"></path>
  <path class="cls-4" d="M147.431,232.677l-8.342,3.221,12.1,1.466Z"></path>
  <path class="cls-4" d="M138.949,205.434c-1.553-.943-4.7.417-6.1-.695-1.4-1.128-.776-4.493-2.034-5.789s-4.635-.8-5.715-2.245c-1.063-1.44.408-4.539-.461-6.123-.871-1.567-4.271-1.958-4.933-3.649-.665-1.674,1.561-4.279,1.134-6.038-.429-1.742-3.612-3-3.826-4.8-.2-1.776,2.617-3.7,2.667-5.53.042-1.775-2.711-3.816-2.438-5.625s3.505-2.948,3.988-4.657c.507-1.757-1.632-4.431-.919-6.071.72-1.673,4.149-1.935,5.069-3.456.943-1.553-.416-4.7.7-6.1,1.127-1.4,4.492-.776,5.789-2.034s.8-4.635,2.245-5.715c1.44-1.063,4.539.407,6.122-.461,1.568-.87,1.958-4.271,3.65-4.933,1.674-.665,4.279,1.561,6.038,1.135,1.742-.429,3-3.612,4.8-3.826,1.777-.2,3.7,2.633,5.531,2.667,1.775.043,3.816-2.711,5.626-2.438s2.949,3.505,4.657,3.987c1.757.507,4.431-1.632,6.07-.919,1.674.719,1.936,4.149,3.457,5.07a3.042,3.042,0,0,0,1.491.351q.772-4.5,1.352-9.325l-82.578-10.008c-2.646,21.352-1.268,38.749,2.709,52.024-4.148-.027-8.623.583-12.554-1.5-9.813-3.784-16.938-15.669-12.659-25.846,1.982-4.59,6.685-8.084,11.685-7.942,1.589.046,3.245.425,4.729-.144,6.2-4.138-7.882-8.593-13.219-4.123-21.162,16.057.962,49.734,23.38,43.706,4.361,11.954,11,20.038,18.618,24.116l-3.148,27.313-18.593,3.51a1,1,0,0,0,0,1.994l30.868,3.74,7.72-28.611A2.815,2.815,0,0,0,138.949,205.434Zm-18.455-68.645a2.422,2.422,0,0,1,3.282-.861,2.459,2.459,0,0,1,.861,3.282,2.7,2.7,0,0,0-.108,1.818,2.461,2.461,0,0,1-.861,3.282,2.415,2.415,0,0,1-3.282-.861A7.543,7.543,0,0,1,120.494,136.789Zm-5.77,25.29a40.925,40.925,0,0,1-3.64-32.655c.908-2.947,5.538-1.682,4.627,1.276a36.1,36.1,0,0,0,3.156,28.958C120.4,162.346,116.255,164.76,114.725,162.079Z"></path>
  <path class="cls-4" d="M188.189,143.671c1.258,1.3,4.635.8,5.716,2.245.64.868.362,2.337.229,3.715a12.6,12.6,0,0,1,3.856,4.75,3.709,3.709,0,0,1,1.027.838,14.821,14.821,0,0,1,3,.376l1.045-1.7a17.807,17.807,0,0,0-.6-2.243c-1.82.007-4.268-.22-4.76-1.455-.8-2.011.466-2.479,2.183-3.341.025-.013.061-.025.088-.037-2.731-3.778-6.846-6.3-11.406-5.762a10.916,10.916,0,0,0-1.253.231A4.471,4.471,0,0,0,188.189,143.671Z"></path>
  <path class="cls-5" d="M185.605,127.61c-.047.033-.093.066-.141.1C185.512,127.675,185.559,127.643,185.605,127.61Z"></path>
  <path class="cls-5" d="M186.423,126.82h0Z"></path>
  <path class="cls-5" d="M186.7,126.383c-.021.039-.042.079-.064.117C186.662,126.462,186.682,126.422,186.7,126.383Z"></path>
  <path class="cls-5" d="M183.116,128.241a3.4,3.4,0,0,0,.533.026,3.453,3.453,0,0,0,1.6-.435A3.586,3.586,0,0,1,183.116,128.241Z"></path>
  <path class="cls-5" d="M98.192,117.361c-.028-.023-.059-.043-.086-.067C98.133,117.318,98.164,117.338,98.192,117.361Z"></path>
  <path class="cls-5" d="M99.415,118.031c-.076-.024-.148-.054-.221-.083C99.267,117.977,99.339,118.007,99.415,118.031Z"></path>
  <path class="cls-5" d="M97.069,115.692c-.02-.063-.043-.125-.06-.189C97.026,115.568,97.049,115.629,97.069,115.692Z"></path>
  <path class="cls-5" d="M97.315,116.281c-.027-.05-.051-.1-.075-.152C97.265,116.181,97.289,116.231,97.315,116.281Z"></path>
  <path class="cls-5" d="M97.658,116.817c-.016-.02-.029-.043-.045-.064C97.629,116.773,97.642,116.8,97.658,116.817Z"></path>
  <path class="cls-5" d="M98.807,117.773c-.067-.035-.133-.071-.2-.111C98.674,117.7,98.74,117.737,98.807,117.773Z"></path>
  <path class="cls-5" d="M100.922,111.027c-.082-.01-.161,0-.243-.005a3.586,3.586,0,0,0-3.764,3.145,3.474,3.474,0,0,0,.08,1.256c29.841,4.042,59.883,7.761,89.833,10.724a3.42,3.42,0,0,0,.273-2.079,3.6,3.6,0,0,0-3.117-2.973l-6.083-.737-46.231-5.6Z"></path>
  <path class="cls-6" d="M96.995,115.423l-.011,0c.007.028.019.054.026.082.017.064.04.126.06.189a3.555,3.555,0,0,0,.171.437c.024.051.049.1.075.152a3.6,3.6,0,0,0,.3.471c.016.021.028.044.045.064a3.613,3.613,0,0,0,.448.477c.027.024.058.044.086.067a3.572,3.572,0,0,0,.418.3c.064.039.13.075.2.111a3.544,3.544,0,0,0,.387.176c.073.028.146.059.221.083a3.609,3.609,0,0,0,.639.143l.262.032L182.9,128.214l.221.027a3.586,3.586,0,0,0,2.136-.409c.073-.039.142-.082.212-.126.048-.03.094-.064.141-.1a3.592,3.592,0,0,0,.818-.789h0a3.554,3.554,0,0,0,.216-.32c.023-.038.043-.078.064-.117.043-.079.093-.154.13-.236h-.006C156.877,123.183,126.836,119.465,96.995,115.423Z"></path>
  <path class="cls-7" d="M118.868,159.657a36.1,36.1,0,0,1-3.156-28.958c.912-2.957-3.718-4.222-4.627-1.276a40.925,40.925,0,0,0,3.64,32.655C116.255,164.76,120.4,162.346,118.868,159.657Z"></path>
  <path class="cls-7" d="M123.668,144.311a2.461,2.461,0,0,0,.861-3.282,2.7,2.7,0,0,1,.108-1.818,2.459,2.459,0,0,0-.861-3.282,2.422,2.422,0,0,0-3.282.861,7.543,7.543,0,0,0-.108,6.661A2.415,2.415,0,0,0,123.668,144.311Z"></path>
  <path class="cls-3" d="M197.706,150.2c.491,1.235,2.94,1.462,4.76,1.455,1.144,0,2.042-.1,2.042-.1l-1.441,2.344-1.045,1.7a14.821,14.821,0,0,0-3-.376,1.834,1.834,0,0,1,.282.468c.44,1.11-.388,2.63-.873,4.041a16.283,16.283,0,0,1,5.756.95.648.648,0,1,1-.442,1.219,15.009,15.009,0,0,0-5.622-.858,2.217,2.217,0,0,0,.047.686c.332,1.346,2.3,2.4,3.282,3.643a15.036,15.036,0,0,1,2.922.7.649.649,0,0,1-.426,1.225,13.679,13.679,0,0,0-1.949-.5c-.071,1.455-1.942,3-2.507,4.5l4.287-.289a.649.649,0,0,1,.087,1.294l-4.465.3c.415,1.64,2.612,3.454,2.366,5.082-.273,1.809-3.505,2.948-3.988,4.657a2.682,2.682,0,0,0-.019,1.2c.734-.793,1.418-1.55,2.033-2.234,1.094-1.216,1.972-2.2,2.527-2.715l.025-.023a15.745,15.745,0,0,0,3.644-4.853c.116-.262.248-.524.382-.788a6.06,6.06,0,0,0,.343-.823c.857-1.163,1.81-3.747.217-5.36,1.745-3.158.956-4.062-.455-5.222.933-1.213-.059-2.9-1.667-4.282,1.867-.554,5.682-3.487,6.624-5.466a4.2,4.2,0,0,0-1.336-5.409c-1.727-1.123-8.281-.383-10.115.464-.027.012-.063.025-.088.037C198.172,147.719,196.906,148.186,197.706,150.2Z"></path>
  <path class="cls-8" d="M203.739,161.9a.648.648,0,1,0,.442-1.219,16.283,16.283,0,0,0-5.756-.95,5.364,5.364,0,0,0-.308,1.312A15.009,15.009,0,0,1,203.739,161.9Z"></path>
  <path class="cls-8" d="M201.99,166.523a1.641,1.641,0,0,1,0,.265,13.679,13.679,0,0,1,1.949.5.649.649,0,0,0,.426-1.225,15.036,15.036,0,0,0-2.922-.7A2.342,2.342,0,0,1,201.99,166.523Z"></path>
  <path class="cls-8" d="M199.323,172.053a2.036,2.036,0,0,0,.072.544l4.465-.3a.649.649,0,0,0-.087-1.294l-4.287.289A2.3,2.3,0,0,0,199.323,172.053Z"></path>
  <path class="cls-9" d="M182.861,230.927l.774.162,12.108,2.538a2.086,2.086,0,0,0,2.283-2.995L185.1,205.49a1.763,1.763,0,0,1-.2.225c-1.44,1.063-4.54-.407-6.124.461-1.566.871-1.958,4.271-3.649,4.933-1.674.665-4.279-1.561-6.038-1.135-1.742.43-3,3.612-4.8,3.826-1.776.2-3.7-2.633-5.53-2.666-1.774-.043-3.815,2.711-5.625,2.438s-2.949-3.505-4.657-3.987c-1.756-.507-4.431,1.632-6.071.919-1.276-.549-1.732-2.673-2.553-4.06l-7.72,28.611-.1.371a1.874,1.874,0,0,0,2.484,2.237l4.572-1.765,8.342-3.221,3.753,4.687,4.751,5.932a1.874,1.874,0,0,0,3.294-.773l4.328-19.911,8.292,18.3.7,1.544a2.086,2.086,0,0,0,3.717.164l2.742-4.862.094-.167Z"></path>
  <path class="cls-10" d="M197.774,182.335c.482-1.709,3.715-2.848,3.988-4.657.245-1.627-1.952-3.441-2.366-5.082a2.036,2.036,0,0,1-.072-.544,2.3,2.3,0,0,1,.162-.763c.565-1.5,2.436-3.048,2.507-4.5a1.641,1.641,0,0,0,0-.265,2.342,2.342,0,0,0-.544-1.154c-.98-1.239-2.95-2.3-3.282-3.643a2.217,2.217,0,0,1-.047-.686,5.364,5.364,0,0,1,.308-1.312c.485-1.411,1.314-2.93.873-4.041a1.834,1.834,0,0,0-.282-.468,3.709,3.709,0,0,0-1.027-.838c-1.275-.755-3.033-1.278-3.624-2.342a4.323,4.323,0,0,1-.232-2.407c.133-1.378.412-2.848-.229-3.715-1.081-1.442-4.458-.948-5.716-2.245a4.471,4.471,0,0,1-.87-2.383c-.214-1.327-.343-2.747-1.163-3.406-1.037-.82-3.02-.3-4.613-.344a3.042,3.042,0,0,1-1.491-.351c-1.521-.921-1.783-4.35-3.457-5.07-1.639-.714-4.313,1.426-6.07.919-1.708-.482-2.847-3.715-4.657-3.987s-3.85,2.481-5.626,2.438c-1.828-.033-3.754-2.866-5.531-2.667-1.8.214-3.054,3.4-4.8,3.826-1.759.427-4.364-1.8-6.038-1.135-1.691.662-2.082,4.062-3.65,4.933-1.583.868-4.682-.6-6.122.461-1.443,1.08-.948,4.458-2.245,5.715s-4.661.63-5.789,2.034c-1.112,1.406.248,4.552-.7,6.1-.921,1.522-4.35,1.783-5.069,3.456-.713,1.639,1.426,4.314.919,6.071-.482,1.709-3.715,2.848-3.988,4.657s2.481,3.85,2.438,5.625c-.05,1.826-2.865,3.754-2.667,5.53.214,1.8,3.4,3.054,3.826,4.8.427,1.759-1.8,4.364-1.134,6.038.661,1.691,4.062,2.082,4.933,3.649.869,1.584-.6,4.683.461,6.123,1.08,1.442,4.457.948,5.715,2.245s.63,4.661,2.034,5.789c1.406,1.111,4.551-.248,6.1.695a2.815,2.815,0,0,1,.9,1.01c.82,1.386,1.276,3.511,2.553,4.06,1.64.714,4.314-1.425,6.071-.919,1.709.482,2.847,3.715,4.657,3.987s3.85-2.481,5.625-2.438c1.829.033,3.754,2.866,5.53,2.666,1.8-.214,3.055-3.4,4.8-3.826,1.759-.426,4.364,1.8,6.038,1.135,1.691-.662,2.083-4.062,3.649-4.933,1.584-.868,4.683.6,6.124-.461a1.763,1.763,0,0,0,.2-.225c1.169-1.249.816-4.3,2.04-5.49,1.3-1.258,4.661-.629,5.789-2.033,1.111-1.407-.248-4.551.695-6.1.921-1.522,4.35-1.783,5.07-3.456.565-1.3-.657-3.247-.938-4.875A2.682,2.682,0,0,1,197.774,182.335Zm-9.592,11.847c-.968,1.2-3.855.666-4.968,1.745s-.688,3.977-1.925,4.9-3.895-.349-5.254.4c-1.344.747-1.68,3.665-3.131,4.232s-3.671-1.339-5.18-.974-2.574,3.1-4.116,3.283c-1.524.171-3.176-2.259-4.745-2.288-1.523-.037-3.274,2.326-4.826,2.092s-2.53-3.008-4-3.421c-1.507-.435-3.8,1.4-5.209.788-1.435-.617-1.66-3.559-2.965-4.35-1.333-.809-4.031.358-5.237-.6s-.666-3.855-1.745-4.967-3.977-.688-4.9-1.926.35-3.895-.4-5.253-3.665-1.68-4.232-3.131,1.339-3.671.973-5.181-3.1-2.574-3.283-4.116c-.17-1.524,2.245-3.179,2.288-4.745.036-1.523-2.326-3.274-2.092-4.827s3.008-2.53,3.422-4c.435-1.507-1.4-3.8-.788-5.209.617-1.436,3.559-1.66,4.35-2.966.809-1.332-.357-4.031.6-5.238s3.854-.666,4.967-1.745.688-3.977,1.926-4.9,3.894.349,5.253-.4,1.68-3.664,3.131-4.232c1.436-.57,3.671,1.34,5.181.974s2.574-3.1,4.115-3.283c1.525-.171,3.177,2.259,4.745,2.288,1.523.037,3.274-2.326,4.827-2.092s2.53,3.008,4,3.421c1.508.435,3.8-1.4,5.208-.788,1.436.617,1.661,3.56,2.966,4.35,1.332.809,4.031-.357,5.237.6s.666,3.855,1.745,4.967,3.977.688,4.9,1.926c.912,1.236-.35,3.895.4,5.253s3.665,1.68,4.233,3.131-1.34,3.672-.974,5.181,3.1,2.574,3.283,4.116c.17,1.524-2.259,3.176-2.288,4.745-.036,1.523,2.326,3.274,2.092,4.827s-3.008,2.53-3.422,4c-.435,1.507,1.4,3.8.789,5.209-.617,1.436-3.56,1.66-4.35,2.966C187.969,190.277,189.136,192.975,188.182,194.182Z"></path>
  <path class="cls-9" d="M188.778,188.944c.79-1.305,3.732-1.53,4.35-2.966.612-1.406-1.223-3.7-.789-5.209.414-1.466,3.188-2.443,3.422-4s-2.129-3.3-2.092-4.827c.029-1.569,2.458-3.221,2.288-4.745-.183-1.541-2.915-2.621-3.283-4.116s1.543-3.745.974-5.181-3.486-1.787-4.233-3.131.517-4.018-.4-5.253c-.927-1.238-3.825-.814-4.9-1.926s-.54-4-1.745-4.967-3.905.213-5.237-.6c-1.305-.79-1.53-3.733-2.966-4.35-1.406-.612-3.7,1.223-5.208.788-1.466-.414-2.443-3.187-4-3.421s-3.3,2.129-4.827,2.092c-1.568-.028-3.221-2.459-4.745-2.288-1.541.183-2.62,2.915-4.115,3.283s-3.745-1.544-5.181-.974c-1.451.568-1.786,3.485-3.131,4.232s-4.018-.516-5.253.4-.813,3.825-1.926,4.9-4,.54-4.967,1.745.213,3.905-.6,5.238c-.79,1.305-3.732,1.53-4.35,2.966-.612,1.407,1.224,3.7.788,5.209-.414,1.466-3.188,2.443-3.422,4s2.129,3.3,2.092,4.827c-.043,1.566-2.458,3.221-2.288,4.745.184,1.541,2.914,2.621,3.283,4.116s-1.544,3.744-.973,5.181,3.485,1.786,4.232,3.131-.517,4.018.4,5.253,3.824.814,4.9,1.926.541,4,1.745,4.967,3.9-.213,5.237.6c1.306.791,1.53,3.733,2.965,4.35,1.407.612,3.7-1.223,5.209-.788,1.466.414,2.443,3.187,4,3.421s3.3-2.129,4.826-2.092c1.569.029,3.221,2.459,4.745,2.288,1.542-.183,2.621-2.914,4.116-3.283s3.744,1.544,5.18.974,1.787-3.485,3.131-4.232c1.359-.745,4.018.516,5.254-.4s.813-3.825,1.925-4.9,4-.54,4.968-1.745S187.969,190.277,188.778,188.944Zm-20.315,8.909-8.444-4.7.506-.908A20.449,20.449,0,0,1,152,189.72l-14.086-7.845a4.406,4.406,0,0,1-1.66-6,4.452,4.452,0,0,1,2.37-2.024,4.463,4.463,0,0,1,1.948-6.989,4.462,4.462,0,0,1,1.948-6.988,4.443,4.443,0,0,1,5.551-6.711l9.584,5.338,1.007-5.406a.924.924,0,0,1,.057-.189l1.551-3.643a6.522,6.522,0,0,1,9.328-3.2.905.905,0,0,1,.432,1.034l-.852,3.061a20.869,20.869,0,0,0,.781,13.418l2.762,6.763.6-1.076,8.444,4.7Z"></path>
  <path class="cls-9" d="M160.96,190.454l.546.027,10.084-18.107-3.31-8.105a22.687,22.687,0,0,1-.85-14.589l.648-2.329a4.709,4.709,0,0,0-3.288-.1,4.792,4.792,0,0,0-2.854,2.724l-1.512,3.552-1.219,6.546a.905.905,0,0,1-1.332.625l-10.685-5.951a2.621,2.621,0,0,0-2.55,4.579l1.484.827a.906.906,0,0,1-.882,1.583,2.621,2.621,0,0,0-2.55,4.578l1.484.827a.906.906,0,0,1-.882,1.583,2.621,2.621,0,0,0-2.55,4.578l1.484.827a.906.906,0,0,1-.882,1.583,2.621,2.621,0,0,0-2.55,4.579l14.086,7.845A18.619,18.619,0,0,0,160.96,190.454Z"></path>
  <path class="cls-7" d="M181.763,173.974l-8.444-4.7-.6,1.076-2.762-6.763a20.869,20.869,0,0,1-.781-13.418l.852-3.061a.905.905,0,0,0-.432-1.034,6.522,6.522,0,0,0-9.328,3.2l-1.551,3.643a.924.924,0,0,0-.057.189l-1.007,5.406-9.584-5.338a4.443,4.443,0,0,0-5.551,6.711,4.462,4.462,0,0,0-1.948,6.988,4.463,4.463,0,0,0-1.948,6.989,4.452,4.452,0,0,0-2.37,2.024,4.406,4.406,0,0,0,1.66,6L152,189.72a20.449,20.449,0,0,0,8.526,2.521l-.506.908,8.444,4.7Zm-42.968,6.318a2.621,2.621,0,0,1,2.55-4.579.906.906,0,0,0,.882-1.583l-1.484-.827a2.621,2.621,0,0,1,2.55-4.578.906.906,0,0,0,.882-1.583l-1.484-.827a2.621,2.621,0,0,1,2.55-4.578.906.906,0,0,0,.882-1.583l-1.484-.827a2.621,2.621,0,0,1,2.55-4.579l10.685,5.951a.905.905,0,0,0,1.332-.625l1.219-6.546,1.512-3.552a4.792,4.792,0,0,1,2.854-2.724,4.709,4.709,0,0,1,3.288.1l-.648,2.329a22.687,22.687,0,0,0,.85,14.589l3.31,8.105-10.084,18.107-.546-.027a18.619,18.619,0,0,1-8.079-2.317Z"></path>
  <path class="cls-4" d="M220.777,98.99l.284-10.734a.667.667,0,0,1,.3-.542l9-5.853a.667.667,0,0,0-.141-1.188l-10.122-3.587a.667.667,0,0,1-.421-.456L216.9,66.258a.667.667,0,0,0-1.173-.233l-6.539,8.518a.667.667,0,0,1-.564.26L197.9,74.245a.667.667,0,0,0-.584,1.044L203.4,84.14a.667.667,0,0,1,.073.617l-3.845,10.027a.667.667,0,0,0,.812.878l10.3-3.048a.667.667,0,0,1,.609.121l8.348,6.755A.667.667,0,0,0,220.777,98.99Z"></path>
  <path class="cls-4" d="M194.418,97.558l-6.8-2.41a.448.448,0,0,1-.283-.306l-1.869-6.968a.448.448,0,0,0-.788-.157l-4.393,5.722a.448.448,0,0,1-.379.175l-7.2-.375a.448.448,0,0,0-.393.7l4.085,5.946a.448.448,0,0,1,.049.414l-2.583,6.736a.448.448,0,0,0,.546.59l6.918-2.048a.448.448,0,0,1,.409.081l5.608,4.538a.448.448,0,0,0,.73-.336l.191-7.211a.448.448,0,0,1,.2-.364l6.048-3.932A.448.448,0,0,0,194.418,97.558Z"></path>
  <path class="cls-4" d="M185.922,21.194l10.532,15.331a1.2,1.2,0,0,1,.132,1.114l-6.66,17.368a1.205,1.205,0,0,0,1.467,1.587l17.837-5.28a1.205,1.205,0,0,1,1.1.219l14.459,11.7a1.2,1.2,0,0,0,1.963-.9l.254-9.592.238-9a1.2,1.2,0,0,1,.548-.978l15.6-10.137a1.2,1.2,0,0,0-.254-2.146L225.6,24.262a1.205,1.205,0,0,1-.761-.824l-4.82-17.966a1.2,1.2,0,0,0-2.12-.422L206.573,19.8a1.205,1.205,0,0,1-1.018.47l-13.361-.695-5.215-.271A1.2,1.2,0,0,0,185.922,21.194Z"></path>
  <path class="cls-11" d="M42.281,48.352a29.533,29.533,0,0,0-12.044-4.866,28.206,28.206,0,0,0-6.035-.374C12.982,43.644,6,52.3,6,52.3l9.232,8.36a25.289,25.289,0,0,1,6.8-6.536,24.83,24.83,0,0,1,3.416-1.9C32.21,49.15,42.281,48.352,42.281,48.352Z"></path>
  <path class="cls-12" d="M54.1,22.05a48.8,48.8,0,0,0-6.425-6.365C32.084,2.908,12.036,6.451,12.036,6.451l1.885,22.666A46.636,46.636,0,0,1,38,29.777c1.413.429,2.845.949,4.274,1.527C53.811,35.971,65.2,44.7,65.2,44.7A52.289,52.289,0,0,0,54.1,22.05Z"></path>
  <path class="cls-2" d="M54.775,57.876a1.194,1.194,0,0,0-.758,1.509c.575,1.747,1.6,6.622-.532,8.2-1.953,1.448-3.7.7-5.731-.158s-4.552-1.935-6.9.217c-2.794,2.565-1.63,5.566-.781,7.756.768,1.981,1.194,3.252.329,4.373a1.977,1.977,0,0,1-1.465.849c-1.647.134-3.809-1.5-4.437-2.084a1.194,1.194,0,1,0-1.626,1.749A11.36,11.36,0,0,0,37.5,82.877,5.421,5.421,0,0,0,39.136,83a4.381,4.381,0,0,0,3.16-1.77c1.734-2.245.777-4.714.007-6.7-.909-2.344-1.35-3.739.17-5.133,1.156-1.062,2.285-.654,4.346.222,2.243.954,5.036,2.141,8.088-.121,3.885-2.879,1.645-10.062,1.377-10.871A1.194,1.194,0,0,0,54.775,57.876Z"></path>
  <path class="cls-13" d="M121.986,10.44s20.512.181,27.733,13.526a57.057,57.057,0,0,0,9.22,12.35c26,26.959,12.762,25.016,10.238,39.631.3,11.325-25.99,11.247-25.99,11.247L113.9,75.394l6.966-56.739Z"></path>
  <path class="cls-8" d="M143.293,54.544c2.645-.651,4.085-4.038,3.217-7.565s-3.718-5.858-6.362-5.206-4.085,4.038-3.216,7.565,3.716,5.857,6.361,5.206"></path>
  <path class="cls-3" d="M141.418,47.336c4.463,18.123-4.44,35.355-16.435,38.01S96.07,76.731,91.608,58.608s.052-34.971,17.212-38.9c18.591-4.18,28.136,9.5,32.6,27.627"></path>
  <path class="cls-13" d="M105.155,54.574a1.647,1.647,0,1,0-1.9-1.227,1.6,1.6,0,0,0,1.9,1.227"></path>
  <path class="cls-13" d="M132.584,45.03a1.55,1.55,0,1,1-1.9-1.226,1.612,1.612,0,0,1,1.9,1.226"></path>
  <path class="cls-7" d="M131.563,61.914c.763,3.1-3.31,10.056-8.568,11.351s-9.847-3.629-10.588-6.634c-.763-3.1,4.229-1.838,9.487-3.133s8.907-4.683,9.669-1.585"></path>
  <path class="cls-8" d="M130.887,53.914a4.544,4.544,0,0,0,4.934,4.263,4.615,4.615,0,0,0,4.264-4.934,4.545,4.545,0,0,0-4.935-4.263,4.612,4.612,0,0,0-4.263,4.934"></path>
  <path class="cls-8" d="M99.822,63.656a4.544,4.544,0,0,0,4.934,4.263,4.613,4.613,0,0,0,4.263-4.934,4.543,4.543,0,0,0-4.934-4.263,4.719,4.719,0,0,0-4.263,4.934"></path>
  <path class="cls-8" d="M118.574,47.186l-2.915,8.785a1.439,1.439,0,0,0,1.564,1.906l4.9-.71Z"></path>
  <path class="cls-8" d="M138.4,73.469s-5.227,11.719-25.288,11.443c0,0,17.423,13.1,25.288-11.443"></path>
  <path class="cls-13" d="M125.278,10.712s-5.352-7.537-21.67-3.261S77.138,24.44,75.284,38.138c-1.788,13.209-7.5,12.349-11.551,29.314-3.115,13.056,6.185,13.709,4.086,19.965-4.321,12.876,9.519,7.472,11.045,13.015C80.413,106.4,91.355,112.811,98,109c6.56-3.793,20.8-13.036,17.395-23.913C109.544,69.8,94.884,65.9,92.129,51.429c-1.7-9.167,7.525-24.755,15.313-26.967,6.036-1.681,12.109-3.6,14.373-5.472C123.924,17.23,125.278,10.712,125.278,10.712Z"></path>
  <path class="cls-7" d="M144.378,50.742c2.831-1.9,5.711,1.044,5.6,3.916-.114,2.843-2.749,5.123-5.584,3.918-.265-.113-.5.277-.229.391a4.546,4.546,0,0,0,6.265-4.309c.063-3.24-3.059-6.469-6.277-4.308-.241.162-.014.554.229.391Z"></path>
</svg>
