<?xml version="1.0" encoding="UTF-8"?>
<svg xmlns="http://www.w3.org/2000/svg" id="Calque_1" data-name="Calque 1" viewBox="0 0 300 300">
  <defs>
    <style>.cls-1{fill:#ffdec1;}.cls-2{fill:#fff;}.cls-3{fill:#2859ff;}.cls-4{fill:#ffad63;}.cls-5{fill:#27c896;}.cls-6{fill:#132d32;}.cls-7{fill:#ff8920;}.cls-8{fill:#ffc802;}.cls-9{fill:#ffc800;}.cls-10{fill:#d1d3d4;}.cls-11{fill:#f04;}.cls-12{fill:#5091f2;}.cls-13{fill:#0039a9;}.cls-14{fill:#122d32;}</style>
  </defs>
  <title>300x300-avantage-carburant</title>
  <path class="cls-1" d="M293.648,118.18h-.093l.513,72.855a150.849,150.849,0,0,0-.42-83.485v10.63Z"></path>
  <path class="cls-1" d="M8.391,182.276a31.934,31.934,0,0,1,9.777-13.411c12.093-9.246,42.2-15.119,54.765-16.153.229,2.463.393,4.831.5,7.126a231.073,231.073,0,0,1,23.959-.6l-1.929-4.165c42.869,2.681,53.973,22.171,61.047,44.239.079.226.158.453.223.679q1.578,5.026,2.77,9.935c.329,1.291.634,2.593.9,3.911.026.119.052.238.077.356s.048.212.069.32h-.006c.289,1.375.563,2.745.805,4.1.267,1.491.5,2.97.713,4.441,2.1-3.152,4.49-7.048,6.962-11.676l.248-58.536-.124-.011.032-6.107a34.184,34.184,0,0,0-5.24,2.184,25.607,25.607,0,0,0-9.625,9.117l-9.575-8.124s6.417-9.191,17.468-10.265a27.134,27.134,0,0,1,7.009.243l.046-8.816a61.46,61.46,0,0,0-9.473.674,47.33,47.33,0,0,0-22.286,10.11L125.629,122s16.723-12.156,36.691-7.426a49.631,49.631,0,0,1,6.836,2.157V95.037a35.019,35.019,0,0,1-30.435-8.14,28.74,28.74,0,0,1-6.1,11.7H33.44S21.779,70.263,49.4,71.729c0,0-2.9-36.02,31.108-34.542C99.089,38,104.341,54.56,104.341,54.56a31.607,31.607,0,0,1,23.083.766,34.849,34.849,0,0,1,7.5-16.731H130.22c-4.916-5.284-6.39-18.427,1.01-22.735a17.268,17.268,0,0,1,14.452-1.343,14.423,14.423,0,0,1,13.033-9.5c18.593-.808,17.009,18.886,17.009,18.886a18.154,18.154,0,0,1,2.653.042,16.985,16.985,0,0,1,7.22-1.915c.226-.009.43-.015.64-.015h41.777A150.071,150.071,0,0,0,5.273,190.444Q6.737,186.344,8.391,182.276ZM34.271,116a12,12,0,1,1-12,12A12,12,0,0,1,34.271,116Z"></path>
  <path class="cls-1" d="M163.085,280.2c-5.556.9-11.614-1.314-16.724-6.978l-11.156-12.381c.246,14.65,1.06,28.756,2.611,38.056l.11.638q5.852.456,11.823.462a151.458,151.458,0,0,0,18.913-1.183l.09-21.221A10.632,10.632,0,0,1,163.085,280.2Z"></path>
  <path class="cls-2" d="M127,60.772a35.244,35.244,0,0,1,.424-5.446,31.607,31.607,0,0,0-23.083-.766S99.089,38,80.5,37.188C46.5,35.709,49.4,71.729,49.4,71.729,21.779,70.263,33.44,98.6,33.44,98.6H132.62a28.74,28.74,0,0,0,6.1-11.7A34.908,34.908,0,0,1,127,60.772Z"></path>
  <path class="cls-2" d="M162,25.772a34.921,34.921,0,0,1,11.519,1.95c.145-.162.277-.332.429-.489a17.089,17.089,0,0,1,4.429-3.286,18.154,18.154,0,0,0-2.653-.042s1.584-19.695-17.009-18.886a14.423,14.423,0,0,0-13.033,9.5,17.268,17.268,0,0,0-14.452,1.343c-7.4,4.307-5.927,17.45-1.01,22.735h4.706A34.93,34.93,0,0,1,162,25.772Z"></path>
  <path class="cls-3" d="M181.265,261.05l-3.963,5.711c-3.978,5.3-6.149,8.728-8.551,10.835l-.09,21.221q3.83-.482,7.6-1.153c.685-4.555,1.308-9.119,1.948-13.667C179.282,276.355,180.281,268.7,181.265,261.05Z"></path>
  <path class="cls-4" d="M194.911,229.957c1.336-1.762,2.266-3.839,2.79-7.538,1.768-12.471-16.184-18.111-18.148-16.062a27.408,27.408,0,0,0-3.624,6.06C182.012,220.37,189.755,226.33,194.911,229.957Z"></path>
  <path class="cls-5" d="M135.206,260.844l11.156,12.381c5.11,5.664,11.168,7.881,16.724,6.978a10.632,10.632,0,0,0,5.667-2.607c2.4-2.107,4.572-5.53,8.551-10.835l3.963-5.711q.622-4.837,1.244-9.675a4.389,4.389,0,0,1,4.506-4.095,4.505,4.505,0,0,1,2.875,1.34l10.368-14.942c-.676-.574-2.662-1.834-5.346-3.722-5.157-3.626-12.9-9.587-18.981-17.539a52.755,52.755,0,0,1-4.19-6.335c-.907,1.87-1.812,3.623-2.708,5.3-2.472,4.628-4.858,8.524-6.962,11.676-.213-1.471-.446-2.95-.713-4.441-.242-1.358-.516-2.728-.805-4.1h.006c-.021-.107-.048-.213-.069-.32s-.052-.238-.077-.356c-.27-1.318-.574-2.62-.9-3.911q-1.2-4.909-2.77-9.935c-.066-.226-.144-.453-.223-.679-7.074-22.068-18.178-41.558-61.047-44.239L97.4,159.24a231.073,231.073,0,0,0-23.959.6c-.112-2.295-.275-4.663-.5-7.126-12.566,1.034-42.672,6.906-54.765,16.153a31.934,31.934,0,0,0-9.777,13.411q-1.66,4.064-3.119,8.169A150.1,150.1,0,0,0,137.927,299.538l-.11-.638C136.266,289.6,135.452,275.493,135.206,260.844Zm-25.718-28.387c-4.722,5.907-22.639,11.264-24.862,11.376a19.236,19.236,0,0,0-6.1,1.7l-18.292,7.348c-4.24-5.981-8.2-14.556-10.926-21.367a47.312,47.312,0,0,0,12.234-5.48c5.2-3.362,4.76-3.974,6.828-8.876,1.81-4.29,5.586-8.039,7.37-11.537,1.6-3.146.358-5.943-.357-8.961s-4.367-5.408-1.791-7.125c6.613-1.251,10.994,8.432,12.891,13.978,2.318.521,4.623-.754,6.655-1.989s4.392-2.817,6.643-2.058c3.666,1.235,4.286,6.342,2.447,7.851,2.378-.5,4.242-.487,5.25,1.73s1.649,5.261-.284,6.737c3.884,1.535,4.4,5.852,1.7,9.055,1.633-.22,2.935,1.632,2.809,3.279A8.357,8.357,0,0,1,109.488,232.456Z"></path>
  <path class="cls-6" d="M191.1,251.8a3.848,3.848,0,0,0-1.21-3.184,4.505,4.505,0,0,0-2.875-1.34,4.389,4.389,0,0,0-4.506,4.095q-.617,4.838-1.244,9.675c-.985,7.654-1.983,15.305-3.057,22.947-.639,4.549-1.263,9.113-1.948,13.667,2.991-.533,5.948-1.166,8.875-1.874,1.372-9.068,2.62-18.156,3.811-27.25Q190.043,260.175,191.1,251.8Z"></path>
  <path class="cls-4" d="M108.9,224.837c2.692-3.2,2.179-7.52-1.7-9.055,1.934-1.476,1.292-4.52.284-6.737s-2.871-2.228-5.25-1.73c1.839-1.509,1.219-6.616-2.447-7.851-2.252-.759-4.612.822-6.643,2.058s-4.337,2.51-6.655,1.989c-1.9-5.546-6.278-15.229-12.891-13.978-2.576,1.716,1.077,4.107,1.791,7.125s1.961,5.814.357,8.961c-1.784,3.5-5.56,7.247-7.37,11.537-2.068,4.9-1.633,5.515-6.828,8.876a47.312,47.312,0,0,1-12.234,5.48C52.039,238.322,56,246.9,60.238,252.879L78.53,245.53a19.236,19.236,0,0,1,6.1-1.7c2.223-.112,20.14-5.469,24.862-11.376a8.357,8.357,0,0,0,2.224-4.34C111.837,226.469,110.535,224.618,108.9,224.837Zm-5.881-5.318a3.57,3.57,0,0,1,1.937,5c-.379.739-1.436-.006-1.06-.738a2.263,2.263,0,0,0-1.3-3.038A.648.648,0,0,1,103.022,219.519Zm-4-8.224a3.844,3.844,0,0,1,3.141,5.367c-.327.763-1.547.338-1.218-.429a2.54,2.54,0,0,0-2.023-3.646C98.1,212.482,98.194,211.191,99.02,211.3Zm-3.84-6.407a2.81,2.81,0,0,1,2.539,1.814,4.607,4.607,0,0,1-.26,3.492c-.323.765-1.543.339-1.218-.429.514-1.217.784-3.584-1.162-3.585C94.247,206.179,94.354,204.887,95.18,204.888Zm9.986,26.185c-.508.656-1.571-.078-1.06-.738a2.384,2.384,0,0,0,.416-2.187c-.225-.8,1.047-1.027,1.27-.231A3.6,3.6,0,0,1,105.166,231.073Z"></path>
  <path class="cls-7" d="M95.079,206.179c1.946,0,1.676,2.369,1.162,3.585-.324.768.9,1.194,1.218.429a4.607,4.607,0,0,0,.26-3.492,2.81,2.81,0,0,0-2.539-1.814C94.354,204.887,94.247,206.179,95.079,206.179Z"></path>
  <path class="cls-7" d="M98.919,212.587a2.54,2.54,0,0,1,2.023,3.646c-.329.766.891,1.192,1.218.429A3.844,3.844,0,0,0,99.02,211.3C98.194,211.191,98.1,212.482,98.919,212.587Z"></path>
  <path class="cls-7" d="M102.594,220.741a2.263,2.263,0,0,1,1.3,3.038c-.375.732.682,1.477,1.06.738a3.57,3.57,0,0,0-1.937-5A.648.648,0,0,0,102.594,220.741Z"></path>
  <path class="cls-7" d="M104.521,228.148a2.384,2.384,0,0,1-.416,2.187c-.511.66.553,1.394,1.06.738a3.6,3.6,0,0,0,.625-3.156C105.568,227.12,104.3,227.345,104.521,228.148Z"></path>
  <path class="cls-8" d="M169.156,39.1a16.975,16.975,0,0,1,4.364-11.375,35,35,0,1,0-4.364,67.315V39.1Z"></path>
  <path class="cls-2" d="M185.636,23.1a16.006,16.006,0,0,0-15.408,16v71.379h122.35V39.1A16.03,16.03,0,0,0,277.619,23.13c-.354-.027-.706-.042-1.054-.042H186.238C186.03,23.088,185.811,23.1,185.636,23.1ZM272.8,69.743H190.472a4.854,4.854,0,0,1-4.855-4.855V47.174a4.856,4.856,0,0,1,4.855-4.857H272.8a4.856,4.856,0,0,1,4.855,4.857V64.888A4.854,4.854,0,0,1,272.8,69.743Zm-9.322,32.422H199.04a5.229,5.229,0,1,1,0-10.459h64.437a5.229,5.229,0,0,1,0,10.459ZM193.809,85.1V80.361a1.73,1.73,0,0,1,1.73-1.728h5.012a1.728,1.728,0,0,1,1.728,1.728v5.013A1.728,1.728,0,0,1,200.55,87.1h-5.012a1.73,1.73,0,0,1-1.73-1.728ZM217.157,87.1h-5.011a1.73,1.73,0,0,1-1.73-1.728V80.361a1.73,1.73,0,0,1,1.73-1.728h5.011a1.728,1.728,0,0,1,1.728,1.728v5.013A1.728,1.728,0,0,1,217.157,87.1Zm16.606,0h-5.011a1.728,1.728,0,0,1-1.728-1.728V80.361a1.728,1.728,0,0,1,1.728-1.728h5.011a1.728,1.728,0,0,1,1.728,1.728v5.013A1.728,1.728,0,0,1,233.764,87.1Zm16.607,0h-5.012a1.73,1.73,0,0,1-1.73-1.728V80.361a1.73,1.73,0,0,1,1.73-1.728h5.012a1.728,1.728,0,0,1,1.728,1.728v5.013A1.728,1.728,0,0,1,250.371,87.1ZM268.706,85.1v.277a1.728,1.728,0,0,1-1.728,1.728h-5.011a1.73,1.73,0,0,1-1.73-1.728V80.361a1.73,1.73,0,0,1,1.73-1.728h5.011a1.728,1.728,0,0,1,1.728,1.728Z"></path>
  <path class="cls-3" d="M185.6,22.032a17.236,17.236,0,0,0-11.649,5.2c-.152.157-.284.327-.429.489A16.975,16.975,0,0,0,169.156,39.1v77.629a53.481,53.481,0,0,1,22.177,16.532,125.863,125.863,0,0,0-22.062-2.192l-.046,8.816a28.668,28.668,0,0,1,11.129,4.269,68.4,68.4,0,0,0-11.165,2.577l-.032,6.107.124.011-.248,58.536c.9-1.678,1.8-3.431,2.708-5.3a52.755,52.755,0,0,0,4.19,6.335,27.408,27.408,0,0,1,3.624-6.06c1.964-2.049,19.916,3.591,18.148,16.062-.524,3.7-1.454,5.776-2.79,7.538,2.684,1.887,4.67,3.148,5.346,3.722L189.89,248.62a3.848,3.848,0,0,1,1.21,3.184q-1.067,8.369-2.153,16.736c-1.191,9.094-2.439,18.182-3.811,27.25A149.968,149.968,0,0,0,264.156,247a32.883,32.883,0,0,1-5.044-7.408,42.759,42.759,0,0,1-3.31-27.459s6.984,13.026,15.19,20.223c.892.783,1.8,1.484,2.707,2.135a149.319,149.319,0,0,0,20.368-43.456l-.513-72.855h.093V39.1A17.08,17.08,0,0,0,277.7,22.06c-.376-.027-.755-.042-1.13-.042H186.238C186.028,22.018,185.824,22.023,185.6,22.032Zm90.968,1.056c.348,0,.7.015,1.054.042A16.03,16.03,0,0,1,292.577,39.1v71.379H170.228V39.1a16.006,16.006,0,0,1,15.408-16c.175-.005.394-.015.6-.015Z"></path>
  <path class="cls-3" d="M277.654,47.174a4.856,4.856,0,0,0-4.855-4.857H190.472a4.856,4.856,0,0,0-4.855,4.857V64.888a4.854,4.854,0,0,0,4.855,4.855H272.8a4.854,4.854,0,0,0,4.855-4.855V47.174Z"></path>
  <path class="cls-9" d="M195.539,87.1h5.012a1.728,1.728,0,0,0,1.728-1.728V80.361a1.728,1.728,0,0,0-1.728-1.728h-5.012a1.73,1.73,0,0,0-1.73,1.728v5.013A1.73,1.73,0,0,0,195.539,87.1Z"></path>
  <path class="cls-9" d="M218.885,80.361a1.728,1.728,0,0,0-1.728-1.728h-5.011a1.73,1.73,0,0,0-1.73,1.728v5.013a1.73,1.73,0,0,0,1.73,1.728h5.011a1.728,1.728,0,0,0,1.728-1.728V80.361Z"></path>
  <path class="cls-9" d="M235.492,80.361a1.728,1.728,0,0,0-1.728-1.728h-5.011a1.728,1.728,0,0,0-1.728,1.728v5.013a1.728,1.728,0,0,0,1.728,1.728h5.011a1.728,1.728,0,0,0,1.728-1.728V80.361Z"></path>
  <path class="cls-9" d="M252.1,80.361a1.728,1.728,0,0,0-1.728-1.728h-5.012a1.73,1.73,0,0,0-1.73,1.728v5.013a1.73,1.73,0,0,0,1.73,1.728h5.012a1.728,1.728,0,0,0,1.728-1.728V80.361Z"></path>
  <path class="cls-9" d="M266.978,78.633h-5.011a1.73,1.73,0,0,0-1.73,1.728v5.013a1.73,1.73,0,0,0,1.73,1.728h5.011a1.728,1.728,0,0,0,1.728-1.728V80.361A1.728,1.728,0,0,0,266.978,78.633Z"></path>
  <path class="cls-10" d="M263.477,91.706H199.04a5.229,5.229,0,1,0,0,10.459h64.437a5.229,5.229,0,0,0,0-10.459Z"></path>
  <path class="cls-11" d="M180.353,144.152a28.668,28.668,0,0,0-11.129-4.269,27.134,27.134,0,0,0-7.009-.243c-11.051,1.074-17.468,10.265-17.468,10.265l9.575,8.124a25.607,25.607,0,0,1,9.625-9.117,34.184,34.184,0,0,1,5.24-2.184A68.4,68.4,0,0,1,180.353,144.152Z"></path>
  <path class="cls-9" d="M191.332,133.259a53.481,53.481,0,0,0-22.177-16.532,49.631,49.631,0,0,0-6.836-2.157C142.352,109.84,125.629,122,125.629,122l11.883,19.856a47.33,47.33,0,0,1,22.286-10.11,61.46,61.46,0,0,1,9.473-.674A125.863,125.863,0,0,1,191.332,133.259Z"></path>
  <path class="cls-11" d="M255.8,212.134a42.759,42.759,0,0,0,3.31,27.459A32.883,32.883,0,0,0,264.156,247a40.988,40.988,0,0,0,18.3,11.415l6.173-17.492a37.921,37.921,0,0,1-14.928-6.433c-.907-.651-1.815-1.352-2.707-2.135C262.786,225.159,255.8,212.134,255.8,212.134Z"></path>
  <circle class="cls-3" cx="34.271" cy="128" r="12"></circle>
  <path class="cls-4" d="M182.073,166.378c-.563-1.2,1.992-1.711,3.257-1.332,6.943,2.073,4.507,11.677,5.411,16.192a170.057,170.057,0,0,0,16.4-4.759c1.707-.551,4.957,22.714,3.363,24.538-7.531,9.6-16.3,13.6-22.557,11.98-1.918-.494-4.107-.763-5.81-1.778-5-2.982-9.683-18.14-3.256-28.875,3.492-5.83,5.553-10.958,3.195-15.967"></path>
  <path class="cls-6" d="M233.363,139.589,249.788,120l17.378-7.2a5.484,5.484,0,0,0-5.507-9.484l-17.729,7.685a20.589,20.589,0,0,0-2.627,2.154l-16.117,19.12Z"></path>
  <path class="cls-6" d="M185.4,225.981l12.634,2.537-4.1,20.287a5.036,5.036,0,0,1-5.955,3.933l-2.757-.57a5.036,5.036,0,0,1-3.916-5.929Z"></path>
  <path class="cls-6" d="M211.238,210.866a3.77,3.77,0,0,1-1.812.134l-.5-.077c-1.65-5.769-4.335-13.2-4.911-17.678a15.908,15.908,0,0,1,1.512-9.677c1.929-4.345,6.492-7.611,6.492-7.611l5.556-.062c.92.208,2.89.544,3.445,1.316.606.836,2.173.292,2.01,1.311l-.411,1.567c-2.544.845-9.625,6.045-10.7,7.729a6.15,6.15,0,0,0-.787,5.1c.856,3.307,3.814,14.2,3.814,14.2-.233,1.44-2.319,3.3-3.709,3.75"></path>
  <path class="cls-12" d="M229.27,146.627a5.616,5.616,0,0,0-3.087-2.46L213.2,140.488l7.9-8.153a2.813,2.813,0,0,1,3.893-.139l8.666,7.749a2.812,2.812,0,0,1,.09,4.108l-3.762,3.669c-.255-.412-.5-.794-.717-1.094"></path>
  <path class="cls-12" d="M183.26,224.816,185.445,217a7.888,7.888,0,0,0,2.913,1.1l15.461.2L201.2,228.412a2.182,2.182,0,0,1-2.57,1.713l-13.656-2.733a2.188,2.188,0,0,1-1.713-2.576"></path>
  <path class="cls-13" d="M187.44,165.109l12.142-25.53a4.507,4.507,0,0,1,6-2.13l23.3,6.6c2.193.351,9.3,16.8,8.944,18.992l-8.611,53.588a4.019,4.019,0,0,1-4.611,3.336l-37.524-.477a4.028,4.028,0,0,1-3.335-4.613l7.092-40.854s-4.473-6.673-3.4-8.917m22.76,49.845,4.295.352c3.585.575,6.779-3.441,7.355-7.03l3.657-22.738A6.581,6.581,0,0,0,220.052,178l-5.04.154a6.581,6.581,0,0,0-7.543,5.45l-2.719,23.81a6.58,6.58,0,0,0,5.45,7.541"></path>
  <path class="cls-4" d="M205.656,212.351a16.186,16.186,0,0,1-5.5-3.477,1.984,1.984,0,0,1-.74-1.278c-.055-.915.789-1.643,1.521-2.145a13.085,13.085,0,0,1-1.559-1.848,2.829,2.829,0,0,1-.5-2.919c.663-1.164,2.14-.944,3.235-1.516l-1.629-2.119a2.663,2.663,0,0,1,.232-4.067,5,5,0,0,1,3.934-1.587,4.632,4.632,0,0,1-2.17-3.481,2.228,2.228,0,0,1,.038-.913,2.2,2.2,0,0,1,.938-1.128c2.117-1.435,4.627-.973,6.871-.459a36.937,36.937,0,0,1,4.56,1.043c6.752,2.486,3.844,22.662-3.5,26.312a8.508,8.508,0,0,1-3.406,1.049,3.2,3.2,0,0,1-2.932-1.458Z"></path>
  <path class="cls-7" d="M211.71,186.315a22.461,22.461,0,0,0-6.939-.328c-3.346.589-1.261,4.087.68,4.919.488.21.223,1.233-.318,1.208a7.05,7.05,0,0,0-2.848.481,2.575,2.575,0,0,0-.782,4.613c.615.445,1.692.528,2.157,1.176a.645.645,0,0,1,.122.6c-.365.991-1.176.734-1.926.8-1.351.123-3.573.975-2.552,2.876.48.89,1.939,1.564,2.7,2.177.372.3.305,1.227-.318,1.208l-1.851,1.3.224.681c.092.66.941,1.335,1.347,1.687a7.225,7.225,0,0,0,4.375,1.585c.705.056.371,1.3-.325,1.25-2.493-.194-5.775-1.333-6.583-4.327a2.74,2.74,0,0,1,2.862-3.439c-.108.4-.213.8-.319,1.209-1.268-1.019-4.077-2.227-3.6-4.533a3.925,3.925,0,0,1,2.319-2.644,5.263,5.263,0,0,1,1.555-.289c.353-.029,2,.376.9.673-.728.2-2.317-1.212-2.764-1.761a3.558,3.558,0,0,1-.78-2.935c.5-2.917,4.067-3.742,6.13-3.648-.106.4-.213.8-.318,1.208-1.684-.723-4.485-3.767-2.539-6.243,1.978-2.513,7.585-1.041,9.715-.746.7.1.367,1.346-.328,1.249"></path>
  <path class="cls-7" d="M202.008,204.835c2.219,1.02,4.683,1.4,6.9,2.423.638.292.043,1.437-.588,1.146-2.221-1.019-4.683-1.4-6.9-2.422-.638-.292-.043-1.437.59-1.147"></path>
  <path class="cls-7" d="M203.415,198.239c2.443.483,5.03.713,7.26,1.868.623.322.031,1.47-.59,1.147-2.137-1.108-4.655-1.3-7-1.766-.69-.136-.36-1.385.328-1.249"></path>
  <path class="cls-7" d="M205.32,190.856c2.6.646,5.15,1.457,7.748,2.1.681.17.355,1.418-.325,1.25-2.6-.645-5.15-1.457-7.75-2.1-.68-.168-.353-1.419.328-1.249"></path>
  <path class="cls-4" d="M62.509,125.967s.622,32.637-2.128,37.8c-1.355,2.546,43.066.5,40.184-3.24s-7.3-15.453-6.625-24.623-31.432-9.942-31.432-9.942"></path>
  <path class="cls-7" d="M65.706,138.352s6.057,10.806,13.47,13.114,17.566,1.275,17.566,1.275l-2.557-9.359s-20.1,1.918-28.479-5.03"></path>
  <path class="cls-7" d="M108.722,97.441l-1.8,10.614a6.583,6.583,0,0,0,7.459-4.928c1.923-6.021.374-12.671-4.931-13.135Z"></path>
  <path class="cls-4" d="M110.11,85.135s2.678,9.357,1.684,27.648-5.609,25.349-16.707,32.561S63.91,137.4,57.723,121.883s-10.438-21.042-.561-42.726,46.3-27.533,52.948,5.977"></path>
  <polygon class="cls-7" points="93.396 94.93 90.398 110.823 100.237 110.647 93.396 94.93"></polygon>
  <path class="cls-6" d="M100.443,97.862a1.064,1.064,0,0,0,.969,1.341,1.494,1.494,0,0,0,1.509-1.16,1.065,1.065,0,0,0-.969-1.341,1.494,1.494,0,0,0-1.509,1.16"></path>
  <path class="cls-6" d="M81.035,97.654A1.064,1.064,0,0,0,82,98.994a1.494,1.494,0,0,0,1.509-1.16,1.065,1.065,0,0,0-.969-1.341,1.494,1.494,0,0,0-1.509,1.16"></path>
  <path class="cls-7" d="M71.885,107.034a4.611,4.611,0,1,0,4.932-4.281,4.619,4.619,0,0,0-4.932,4.281"></path>
  <path class="cls-7" d="M112.378,103.451a4.3,4.3,0,0,0-.593-.28,4.37,4.37,0,0,0-3.122,8.163,4.444,4.444,0,0,0,3.11.015c.264-2.942.446-5.183.6-7.9"></path>
  <path class="cls-14" d="M110.11,85.135s-6.2-14.278-11.128-16.714C93.02,65.471,90.393,72.042,84.7,70.4S73.322,65.93,67.461,70.31c-6.416,4.794-16.954,36.646-17.53,30.2-.746-8.358-.989-18.5.915-24.415,1.6-4.985,4.469-8.415,9.59-12.183,8.082-5.948,19.122-6,26.613-5.184S110.891,72.262,110.11,85.135Z"></path>
  <path class="cls-14" d="M111.945,116.293s-4.118-2.716-14.458-3.391c-16.448-1.075-19.973,6.743-24.126,9.881s-13.915-4.55-15.764-20.635c-1.1-9.553,4.11-21.034,7.179-24.271s6.133-1.6,20.564,1.421,25.619.952,28.572-1.918c7.968-7.744,2.822-24.553-13.457-20.351-5.126-6.377-15.839-6.809-22.449-2.192-18.243-3.7-34.79,19.745-25.539,39.6,1.05,2.253,3.7,2.109,1.919,17.284,1.037,11.381,4.791,20.638,9.091,25.689,9.176,10.78,17.919,10.771,26.72,10.9,15.773.229,21.846-13.894,21.749-32.018"></path>
  <path class="cls-7" d="M54.9,100.69l.812,10.366s-5.689,2.16-7.061-3.546.819-12.714,6.215-14.2Z"></path>
  <path class="cls-2" d="M97.974,124.2a10.294,10.294,0,0,1-7.9-1.834c-3.583-2.792-4.846-1.1-3.8.966a8.92,8.92,0,0,0,8.081,4.571c4.156-.1,6.583-4.338,3.616-3.7"></path>
</svg>
