<?xml version="1.0" encoding="UTF-8"?>
<svg xmlns="http://www.w3.org/2000/svg" xmlns:xlink="http://www.w3.org/1999/xlink" id="Calque_1" data-name="Calque 1" viewBox="0 0 476 520">
  <defs>
    <style>.cls-1{fill:none;}.cls-2{fill:#ffdec1;}.cls-3{clip-path:url(#clip-path);}.cls-4{fill:#132d32;}.cls-16,.cls-5{fill:#fff;}.cls-6{fill:#ffad63;}.cls-7{fill:#15915e;}.cls-8{fill:#7ddebf;}.cls-9{fill:#ff8920;}.cls-10{fill:#122d32;}.cls-11{fill:#fe0043;}.cls-12,.cls-20{fill:#ffc802;}.cls-13{fill:#ffc800;}.cls-14{fill:#ffe473;}.cls-15{fill:#077546;}.cls-16,.cls-20{fill-rule:evenodd;}.cls-17{fill:#980023;}.cls-18{fill:#ffad64;}.cls-19{fill:#ff891f;}</style>
    <clipPath id="clip-path">
      <path class="cls-1" d="M457,273.382C457,399.918,357.349,502.5,234.429,502.5S11.857,399.918,11.857,273.382,111.508,44.265,234.429,44.265,457,146.846,457,273.382"></path>
    </clipPath>
  </defs>
  <title>476x520_parrainage-booste</title>
  <path class="cls-2" d="M457,273.382C457,399.918,357.349,502.5,234.429,502.5S11.857,399.918,11.857,273.382,111.508,44.265,234.429,44.265,457,146.846,457,273.382"></path>
  <g class="cls-3">
    <path class="cls-4" d="M219.948,165.257c-3.51-5.513-9.671-8.589-15.773-10.585a73.385,73.385,0,0,0-51.957,2.578,76.374,76.374,0,0,0-37.7,36.889c-10.786,22.7-10.113,49.315-17.464,73.427-8.774,28.78-28.793,52.873-52.308,70.87A53.565,53.565,0,0,0,81.8,347.25q-4.337,16.806-7.2,33.967c-.417,2.5-.748,5.3.689,7.359a8.8,8.8,0,0,0,4.244,2.8c22.885,8.922,49.68,2.446,69.288-12.627s32.709-37.688,40.987-61.394a142.672,142.672,0,0,0,6.3-23.85c1.194-7.274,1.651-14.651,2.386-21.989,3.443-34.335,12.987-67.67,22.6-100.738Z"></path>
    <path class="cls-5" d="M240.689,108.405a4.434,4.434,0,0,0-4.392-4.477l-20.347.1-8.413-8.577,8.333-8.662,20.343-.1a4.439,4.439,0,0,0,4.35-4.522h0a4.436,4.436,0,0,0-4.393-4.478l-11.6.06,11.023-11.457a4.591,4.591,0,0,0-.03-6.361h0a4.281,4.281,0,0,0-6.179.031L218.36,71.421,218.3,59.474a4.372,4.372,0,1,0-8.741.043l.1,20.944-8.333,8.662-8.415-8.58-.1-20.945a4.371,4.371,0,1,0-8.739.042l.054,11.949L173,60.243a4.281,4.281,0,0,0-6.179.031h0a4.592,4.592,0,0,0,.03,6.361l11.129,11.346-11.606.059a4.5,4.5,0,0,0,.042,8.995l20.345-.1,8.416,8.58-8.334,8.662-20.347.1a4.5,4.5,0,0,0,.042,8.994l11.608-.057-11.024,11.458a4.592,4.592,0,0,0,.03,6.361,4.281,4.281,0,0,0,6.179-.031l11.023-11.457.055,11.946a4.372,4.372,0,1,0,8.74-.043l-.1-20.943,8.334-8.662,8.413,8.578.1,20.944a4.372,4.372,0,1,0,8.74-.044l-.057-11.947,11.132,11.349a4.281,4.281,0,0,0,6.179-.031,4.592,4.592,0,0,0-.03-6.361l-11.132-11.349,11.607-.058A4.438,4.438,0,0,0,240.689,108.405Z"></path>
    <path class="cls-5" d="M92.157,254.325a3.177,3.177,0,0,0-3.667-2.65L77.3,253.691l4.835-7.09a3.323,3.323,0,0,0-.773-4.545,3.112,3.112,0,0,0-4.414.8l-8.477,12.429-8.458,1.524L58.535,248.1l8.477-12.429a3.323,3.323,0,0,0-.773-4.544,3.111,3.111,0,0,0-4.413.8l-4.837,7.09-1.958-11.517a3.178,3.178,0,0,0-3.667-2.65,3.254,3.254,0,0,0-2.574,3.775l1.958,11.516-6.888-4.977a3.111,3.111,0,0,0-4.413.8,3.322,3.322,0,0,0,.772,4.543l12.073,8.726,1.481,8.709-8.459,1.524-12.075-8.726a3.111,3.111,0,0,0-4.413.8,3.322,3.322,0,0,0,.773,4.542l6.889,4.979L25.3,263.062a3.254,3.254,0,0,0-2.574,3.775,3.178,3.178,0,0,0,3.667,2.65l11.188-2.016-4.836,7.089a3.323,3.323,0,0,0,.771,4.543,3.111,3.111,0,0,0,4.415-.794l8.477-12.428,8.459-1.524,1.481,8.706-8.476,12.43a3.323,3.323,0,0,0,.772,4.543,3.111,3.111,0,0,0,4.415-.795l4.835-7.09,1.959,11.519a3.178,3.178,0,0,0,3.667,2.65,3.254,3.254,0,0,0,2.574-3.775l-1.959-11.519L71.022,286a3.112,3.112,0,0,0,4.415-.8,3.324,3.324,0,0,0-.773-4.544l-12.075-8.726-1.48-8.706,8.458-1.524,12.073,8.725a3.112,3.112,0,0,0,4.416-.8,3.324,3.324,0,0,0-.774-4.545L78.4,260.116,89.583,258.1A3.254,3.254,0,0,0,92.157,254.325Z"></path>
    <path class="cls-5" d="M173.828,312.931c1.838-7.052,19.577-8.395,22.4-14.866,2.894-6.647-8.073-20.752-4.251-26.718,3.9-6.076,21.21-1.833,25.94-7.143,4.784-5.355-1.3-22.16,4.22-26.667,5.55-4.525,20.74,4.861,26.914,1.272s5.528-21.435,12.206-24.024c6.645-2.572,18.237,11.027,25.264,9.523,6.943-1.5,11.823-18.64,19.027-19.022,7.08-.368,13.907,16.142,21.113,16.911,7.021.748,16.962-14.012,24-12.122s8.48,19.7,14.945,22.57c6.64,2.944,20.633-7.978,26.6-4.105,6.073,3.941,1.95,21.289,7.27,26.073,5.365,4.827,22.076-1.177,26.6,4.394,4.543,5.594-4.724,20.783-1.107,27s21.388,5.679,24,12.392c2.6,6.685-10.88,18.244-9.338,25.3,1.533,6.982,18.642,11.981,19.062,19.21.41,7.106-16,13.863-16.723,21.09-.7,7.04,14.06,17.1,12.218,24.158s-19.577,8.395-22.4,14.865c-2.9,6.647,8.069,20.753,4.25,26.72-3.9,6.075-21.21,1.833-25.943,7.141-4.776,5.355,1.3,22.16-4.22,26.669-5.55,4.523-20.739-4.861-26.911-1.268s-5.528,21.431-12.209,24.019c-6.638,2.573-18.237-11.028-25.26-9.522-6.946,1.5-11.827,18.64-19.03,19.016-7.077.374-13.908-16.136-21.113-16.906-7.021-.748-16.957,14.01-24,12.122s-8.48-19.7-14.945-22.57c-6.641-2.946-20.632,7.976-26.6,4.105-6.077-3.941-1.95-21.3-7.27-26.073-5.364-4.831-22.071,1.172-26.595-4.394-4.543-5.6,4.724-20.782,1.1-27s-21.389-5.676-24-12.394c-2.6-6.684,10.878-18.238,9.338-25.3-1.53-6.978-18.639-11.976-19.063-19.206-.41-7.108,16-13.863,16.724-21.09C186.751,330.047,171.987,319.983,173.828,312.931Z"></path>
    <path class="cls-4" d="M137.752,144c23.692-3.863,49.155-.948,69.335,12.4s33.864,38.286,30.4,62.72c-1.2,8.481-4.316,16.531-6.566,24.783a125.711,125.711,0,0,0,11.405,93.283c-30.4,15.4-68.416,13.555-97.274-4.714-7.076-4.48-13.816-10.121-17.491-17.79-4.8-10.027-3.679-21.881-2-32.927,5.94-39.113,17.393-77.232,22.137-116.517.645-5.343.781-11.7-3.344-15.016Z"></path>
    <path class="cls-6" d="M225.356,300.258s-92,19.158-91.115,23.825S181.551,347.673,206,336.99,225.356,300.258,225.356,300.258Z"></path>
    <path class="cls-7" d="M220.167,306.794l-1.837,9.682q-.224,1.507-.442,3.018c5.261-5.232,6.932-9.972,7.274-13.411Z"></path>
    <path class="cls-7" d="M271.354,336.9c-.526,2.277-1.079,6.259-1.484,9.515-.361,2.9-.6,5.225-.6,5.225a40.3,40.3,0,0,1,6.85,2.634,46.642,46.642,0,0,1,12.193,8.406,146.019,146.019,0,0,0,28.252-12.55,7.3,7.3,0,0,0,3.174-2.792c1.189-2.394-.336-5.212-1.809-7.433-8.585-12.942-17.825-26.471-31.63-33.079-7.756-3.712-16.18-4.865-24.767-4.8,4.674,10.69,10.408,33.143,10.408,33.143A5.592,5.592,0,0,0,271.354,336.9Z"></path>
    <path class="cls-7" d="M296.568,409.875s3.924-4.546,4.369-14.012c-2.094,1.386-4.234,2.649-6.192,3.815a162.091,162.091,0,0,1-16.887,8.525c-25.3,11.314-51.722,19.193-78.542,25.654-5.438,1.31-10.876,2.7-16.337,3.981a12.5,12.5,0,0,0,1.344-2.643,22.342,22.342,0,0,0,.961-4.2q13.639-3.376,27.187-7.056a344.891,344.891,0,0,0,39.446-13.67c12.3-4.994,24.85-10.139,36.413-16.786a123.956,123.956,0,0,0,11.727-8.192,58.859,58.859,0,0,0-1.8-6.8,38.428,38.428,0,0,0-1.846-4.581c-4.931-2.582-9.822-5.291-14.483-8.247-1.195-.758-4.174-3.4-5.561-3.138-2.05.388-3.76,5.034-4.6,6.733-3.167,6.4-5.441,13.226-8.214,19.808a77.692,77.692,0,0,1-4.463,9.172c-1.791,3.053-3.271,4.973-6.728,5.508a1.58,1.58,0,0,1-.706-.066c-3.661,4.7-15.751-2.895-19.1-4.719a90.3,90.3,0,0,1-10.877-6.356c-3.886-2.882-7.263-6.389-10.972-9.486-2.394,2.835-3.636,7.135-4.854,10.381-1.4,3.738-3.156,7.3-4.585,11.019-2.475,6.44-4.765,15.9-10.493,20.172a8.361,8.361,0,0,1-5.159,1.684,60.362,60.362,0,0,0-.4-7.237c1.969-.129,3.555-4.15,4.553-6.354,1.951-4.311,3.4-8.845,5.171-13.234,1.731-4.285,3.531-8.536,5.255-12.83,1.88-4.682,4.136-9.317,8.383-12.155a3.677,3.677,0,0,1,3.892-.051c4.546,3.41,8.428,7.6,12.911,11.071,3.406,2.637,7.308,4.311,11.141,6.157a90.7,90.7,0,0,0,11.186,4.689A10.587,10.587,0,0,1,251.4,398.3c.108-.257.2-.5.35-.8.814-1.576,1.719-3.1,2.5-4.693A106.132,106.132,0,0,0,258.7,381.8c2.63-7.366,4.9-15.412,9.269-21.932,1.877-2.8,4.342-5.343,7.823-5.591.108-.008.213,0,.32,0a40.3,40.3,0,0,0-6.85-2.634s.243-2.322.6-5.225c-9.963,4.522-19.769,9.351-30.038,13.212-15.227,5.725-30.624,10.663-46.621,13.544-6.42,1.156-12.8,2.549-19.155,4.022l-1.528-5.813c.638-.186,1.275-.375,1.913-.56,7.414-2.15,14.885-3.541,22.413-5.16a230.475,230.475,0,0,0,43.629-14.048c10.45-4.561,20.523-9.94,30.87-14.712a5.592,5.592,0,0,1,.583-1.731s-5.733-22.453-10.408-33.143a16.74,16.74,0,0,0-2.98-5.1c-4.707-4.245-34.033,3.544-34.033,3.544a11.656,11.656,0,0,1,.646,5.608c-.342,3.439-2.013,8.179-7.274,13.411a53.289,53.289,0,0,1-10.455,7.873c-16.95,10.066-38.161-.6-48.328-7.056L156.05,308.69c7.942-11.773-21.283,3.477-38.394,24.669C104.639,349.48,104.322,398,106.663,435.979c.436,21.78,3.156,67.656,18.113,78.492,15.9,11.519,25.71-2.381,36.279-14.565q.876-1.01,1.76-2c3.651-.446,7.232-1.142,10.491-1.735,12.284-2.234,23.717-6.341,35.379-10.841,14.887-5.745,30.282-9.784,45.055-15.932,14.555-6.057,28.374-13.465,42.289-20.9a130,130,0,0,0,16.164-10.3c1.452,2.666,2.973,5.468,4.545,8.375A147.023,147.023,0,0,1,297.3,458.658a485.213,485.213,0,0,1-46.185,21.122q-11.9,4.635-24.168,8.116c-8.256,2.342-16.375,5.123-24.614,7.523a189.067,189.067,0,0,1-35.258,6.266c-1.834.17-3.682.314-5.533.4,8.442,37.645,15.065,66.379,15.065,66.379s221.85-18.49,228.754-29.3S296.568,409.875,296.568,409.875Zm-14.295-33.063,1.245.522a5.32,5.32,0,0,1,1.924,1.928L286,380.6a4.19,4.19,0,0,1,.106,2.134,4.139,4.139,0,0,1-.594,1.978,4.022,4.022,0,0,1-1.339,1.545,3.927,3.927,0,0,1-1.83,1.008,5.089,5.089,0,0,1-2.749.019l-1.245-.522a5.326,5.326,0,0,1-1.924-1.928l-.555-1.335a4.189,4.189,0,0,1-.106-2.134,4.144,4.144,0,0,1,.594-1.978,4.022,4.022,0,0,1,1.339-1.545,3.926,3.926,0,0,1,1.831-1.008A5.089,5.089,0,0,1,282.273,376.812Zm-68.439,29.315a2.973,2.973,0,0,1,.366-1.437,4.413,4.413,0,0,1,1.138-1.881l1.148-.937.039-.026a5.481,5.481,0,0,1,5.658-.074,5.7,5.7,0,0,1,2.057,2.062,5.961,5.961,0,0,1,.8,2.965l0,.051a4.487,4.487,0,0,1-.46,2.185,2.943,2.943,0,0,1-.705,1.285,4.31,4.31,0,0,1-1.581,1.533l-1.393.614c-.093.023-1.42.216-1.521.218h-.078c-.04,0-.079,0-.119,0a5.131,5.131,0,0,1-2.6-.7l-1.077-.828-.847-1.1-.01-.018-.038-.06-.045-.067-.017-.025a1.9,1.9,0,0,1-.306-.727l-.306-.734A4.5,4.5,0,0,1,213.834,406.127Zm33.152-30.772a4.655,4.655,0,0,1-1.114,2.029l-.906.74a4.4,4.4,0,0,1-2.286.654A3.283,3.283,0,0,1,241,378.4a3.365,3.365,0,0,1-1.443-.925,4.6,4.6,0,0,1-1.19-2.066l-.164-1.22a4.7,4.7,0,0,1,.578-2.27,3.411,3.411,0,0,1,1.137-1.311,3.331,3.331,0,0,1,1.554-.855,2.463,2.463,0,0,1,1.186-.169,4.351,4.351,0,0,1,2.2.6,4.522,4.522,0,0,1,1.633,1.637,4.73,4.73,0,0,1,.635,2.353Zm32.977,39.051a3.826,3.826,0,0,1,.549-1.826,3.71,3.71,0,0,1,1.237-1.426,3.624,3.624,0,0,1,1.69-.93,4.7,4.7,0,0,1,2.538-.018l1.15.482a4.918,4.918,0,0,1,1.776,1.78l.513,1.232a3.872,3.872,0,0,1,.1,1.97,3.825,3.825,0,0,1-.549,1.826,3.71,3.71,0,0,1-1.236,1.426,3.621,3.621,0,0,1-1.69.93,4.7,4.7,0,0,1-2.538.018l-1.15-.482a4.917,4.917,0,0,1-1.777-1.78l-.513-1.232A3.873,3.873,0,0,1,279.963,414.407Zm-55.687,17.519.018,0a4.091,4.091,0,0,1,2.2-.116,2.734,2.734,0,0,1,1.38.373,4.2,4.2,0,0,1,1.806,1.158l.9,1.168.012.016a4.462,4.462,0,0,1,.7,2.192,4.381,4.381,0,0,1,.06,1.569,97.426,97.426,0,0,0-8.658-5.6c.071-.046.127-.108.2-.15Zm-58.4,22.391a4,4,0,0,1-.075,1.982l-.011.064,0,.015a5.249,5.249,0,0,1-.509,1.432,5.067,5.067,0,0,1-1.778,1.88,5.137,5.137,0,0,1-.687.346c.176-1.711.354-3.465.532-5.24q1.156-.773,2.275-1.546A2.583,2.583,0,0,1,165.879,454.317Zm32.008-9.247c1.281.734,2.532,1.52,3.776,2.318l-4.7,3.852c-.832-.518-1.67-1.027-2.524-1.507A12.606,12.606,0,0,0,191,448.09l-.118-.022c-.144.227-.542.614-.6.737a87.654,87.654,0,0,0-3.212,8.568c-.3.932-.631,1.853-.982,2.767l-9.781,8.012c1.38-2.658,2.7-5.344,3.906-8.072,2.218-5.006,2.677-11.57,6.358-15.784C189.913,440.481,194.31,443.02,197.887,445.07ZM179,386.987a3.109,3.109,0,0,1,1.547.492l.867.667a3.253,3.253,0,0,1,.905,1.422,3.379,3.379,0,0,1,.379,1.695.949.949,0,0,0,0,.133,4.528,4.528,0,0,1-.124,1.272,3.353,3.353,0,0,1-.738,1.489,3.754,3.754,0,0,1-1.776,1.446c-.969-3.229-1.926-6.129-2.745-8.5a3.107,3.107,0,0,1,.581-.11A2.048,2.048,0,0,1,179,386.987Zm18.412,90.169a4.074,4.074,0,0,1-1.063-.141c1.571-.692,3.159-1.384,4.753-2.074A4.264,4.264,0,0,1,197.414,477.155Zm67.236-23.762a2.072,2.072,0,0,1-.255,1,3.073,3.073,0,0,1-.791,1.308l-.8.652-.969.427-1.045.149-1.011-.134-.932-.391-.805-.62-.633-.822c-.049-.074-.094-.15-.138-.227a3.963,3.963,0,0,1-.533-1.973,2.973,2.973,0,0,1,.3-1.447,2.925,2.925,0,0,1,.753-1.245,3.7,3.7,0,0,1,1.683-1.027c.084-.018.167-.038.249-.062a2.88,2.88,0,0,1,1.55-.082,1.922,1.922,0,0,1,.971.262,1.96,1.96,0,0,1,.868.505,1.991,1.991,0,0,1,.72.721,2.028,2.028,0,0,1,.524.91,4.162,4.162,0,0,1,.287,2.095Zm30.439-9.821c-6.523,4.651-14.676.7-21.05-2.105-6.141-2.7-11.827-6.282-17.729-9.449-3.179,4.782-4.164,11.275-5.72,16.639-1.881,6.483-4.406,13.687-10.237,17.5-5.11,3.343-11.406,1.534-16.655-.453-.238-.09-.472-.19-.708-.283,3.349-1.524,6.425-3,9.079-4.393a8.86,8.86,0,0,0,7.333-4.262c.138-.215.268-.434.4-.653a9.147,9.147,0,0,0,1.33-1.407,5.045,5.045,0,0,0,.99-3.466c3.409-8.993,3.675-19.526,10.526-26.754a3.778,3.778,0,0,1,4.521-.669c5.762,2.861,11.2,6.378,16.974,9.216a41.27,41.27,0,0,0,9.77,3.5c1.987.423,4.656,1.056,6.324-.022,2.514-1.624,4-5.893,5.23-8.519,1.6-3.405,2.924-7,4.845-10.238.111-.187.23-.369.344-.554,1.354,2.441,3,5.421,4.891,8.85C302.783,432.4,300.671,439.593,295.09,443.572Z"></path>
    <path class="cls-8" d="M240.483,351.615a230.475,230.475,0,0,1-43.629,14.048c-7.528,1.618-15,3.009-22.413,5.16-.638.185-1.275.374-1.913.56l1.528,5.813c6.36-1.473,12.736-2.866,19.155-4.022,16-2.881,31.393-7.819,46.621-13.544,10.269-3.861,20.074-8.69,30.038-13.212.4-3.256.958-7.238,1.484-9.515C261.006,341.675,250.933,347.054,240.483,351.615Z"></path>
    <path class="cls-8" d="M251.915,410.265a344.891,344.891,0,0,1-39.446,13.67q-13.524,3.669-27.187,7.056a22.342,22.342,0,0,1-.961,4.2,12.5,12.5,0,0,1-1.344,2.643c5.462-1.277,10.9-2.671,16.337-3.981,26.82-6.461,53.239-14.34,78.542-25.654a162.091,162.091,0,0,0,16.887-8.525c1.958-1.166,4.1-2.429,6.192-3.815a43.449,43.449,0,0,0-.882-10.577,123.956,123.956,0,0,1-11.727,8.192C276.765,400.125,264.219,405.271,251.915,410.265Z"></path>
    <path class="cls-8" d="M202.336,495.419c8.239-2.4,16.358-5.181,24.614-7.523q12.266-3.48,24.168-8.116A485.213,485.213,0,0,0,297.3,458.658a147.023,147.023,0,0,0,19.436-12.087c-1.572-2.907-3.093-5.708-4.545-8.375a130,130,0,0,1-16.164,10.3c-13.915,7.438-27.734,14.846-42.289,20.9-14.773,6.147-30.168,10.186-45.055,15.932-11.662,4.5-23.095,8.608-35.379,10.841-3.259.593-6.841,1.289-10.491,1.735q-.885.987-1.76,2l.488,2.178c1.851-.084,3.7-.228,5.533-.4A189.067,189.067,0,0,0,202.336,495.419Z"></path>
    <path class="cls-8" d="M275.795,354.278c-3.481.249-5.945,2.791-7.823,5.591-4.371,6.521-6.639,14.567-9.269,21.932a106.132,106.132,0,0,1-4.456,11.014c-.781,1.6-1.687,3.117-2.5,4.693-.152.3-.242.538-.35.8a10.587,10.587,0,0,0-3.694-1.877,90.7,90.7,0,0,1-11.186-4.689c-3.833-1.847-7.734-3.521-11.141-6.157-4.483-3.47-8.365-7.661-12.911-11.071a3.677,3.677,0,0,0-3.892.051c-4.247,2.838-6.5,7.473-8.383,12.155-1.724,4.294-3.524,8.544-5.255,12.83-1.773,4.389-3.22,8.923-5.171,13.234-1,2.2-2.584,6.226-4.553,6.354a60.362,60.362,0,0,1,.4,7.237,8.361,8.361,0,0,0,5.159-1.684c5.728-4.273,8.018-13.732,10.493-20.172,1.43-3.721,3.182-7.281,4.585-11.019,1.218-3.246,2.46-7.546,4.854-10.381,3.709,3.1,7.086,6.6,10.972,9.486a90.3,90.3,0,0,0,10.877,6.356c3.347,1.824,15.437,9.415,19.1,4.719a1.58,1.58,0,0,0,.706.066c3.457-.535,4.938-2.454,6.728-5.508a77.692,77.692,0,0,0,4.463-9.172c2.773-6.582,5.048-13.406,8.214-19.808.841-1.7,2.551-6.344,4.6-6.733,1.387-.263,4.366,2.38,5.561,3.138,4.661,2.956,9.552,5.665,14.483,8.247a38.863,38.863,0,0,0-8.1-11.221,46.642,46.642,0,0,0-12.193-8.406C276.008,354.281,275.9,354.27,275.795,354.278Z"></path>
    <path class="cls-8" d="M214.254,409.155a1.9,1.9,0,0,0,.306.727l.017.025.045.067.038.06.01.018.847,1.1,1.077.828a5.131,5.131,0,0,0,2.6.7c.039,0,.079,0,.119,0h.078c.1,0,1.428-.195,1.521-.218l1.393-.614a4.31,4.31,0,0,0,1.581-1.533,2.943,2.943,0,0,0,.705-1.285,4.487,4.487,0,0,0,.46-2.185l0-.051a5.961,5.961,0,0,0-.8-2.965,5.7,5.7,0,0,0-2.057-2.062,5.481,5.481,0,0,0-5.658.074l-.039.026-1.148.937a4.413,4.413,0,0,0-1.138,1.881,2.973,2.973,0,0,0-.366,1.437,4.5,4.5,0,0,0,.114,2.294Z"></path>
    <path class="cls-8" d="M277.693,377.839a4.022,4.022,0,0,0-1.339,1.545,4.144,4.144,0,0,0-.594,1.978,4.189,4.189,0,0,0,.106,2.134l.555,1.335a5.326,5.326,0,0,0,1.924,1.928l1.245.522a5.089,5.089,0,0,0,2.749-.019,3.927,3.927,0,0,0,1.83-1.008,4.022,4.022,0,0,0,1.339-1.545,4.139,4.139,0,0,0,.594-1.978A4.19,4.19,0,0,0,286,380.6l-.555-1.334a5.32,5.32,0,0,0-1.924-1.928l-1.245-.522a5.089,5.089,0,0,0-2.749.02A3.926,3.926,0,0,0,277.693,377.839Z"></path>
    <path class="cls-8" d="M180.06,395.6a3.754,3.754,0,0,0,1.776-1.446,3.353,3.353,0,0,0,.738-1.489,4.528,4.528,0,0,0,.124-1.272.949.949,0,0,1,0-.133,3.379,3.379,0,0,0-.379-1.695,3.253,3.253,0,0,0-.905-1.422l-.867-.667a3.109,3.109,0,0,0-1.547-.492,2.048,2.048,0,0,0-1.106.008,3.107,3.107,0,0,0-.581.11C178.134,389.474,179.091,392.374,180.06,395.6Z"></path>
    <path class="cls-8" d="M244.865,370.184a4.351,4.351,0,0,0-2.2-.6,2.463,2.463,0,0,0-1.186.169,3.331,3.331,0,0,0-1.554.855,3.411,3.411,0,0,0-1.137,1.311,4.7,4.7,0,0,0-.578,2.27l.164,1.22a4.6,4.6,0,0,0,1.19,2.066A3.365,3.365,0,0,0,241,378.4a3.283,3.283,0,0,0,1.676.374,4.4,4.4,0,0,0,2.286-.654l.906-.74a4.655,4.655,0,0,0,1.114-2.029l.148-1.181a4.73,4.73,0,0,0-.635-2.353A4.522,4.522,0,0,0,244.865,370.184Z"></path>
    <path class="cls-8" d="M176.316,468.151l9.781-8.012c.35-.914.682-1.835.982-2.767a87.654,87.654,0,0,1,3.212-8.568c.054-.123.451-.51.6-.737l.118.022a12.606,12.606,0,0,1,3.432,1.644c.854.48,1.692.988,2.524,1.507l4.7-3.852c-1.244-.8-2.5-1.585-3.776-2.318-3.577-2.049-7.974-4.589-11.306-.774-3.681,4.213-4.14,10.778-6.358,15.784C179.014,462.807,177.7,465.494,176.316,468.151Z"></path>
    <path class="cls-8" d="M300.311,417.758c-1.921,3.233-3.247,6.833-4.845,10.238-1.233,2.627-2.717,6.9-5.23,8.519-1.668,1.078-4.337.445-6.324.022a41.27,41.27,0,0,1-9.77-3.5c-5.779-2.839-11.212-6.355-16.974-9.216a3.778,3.778,0,0,0-4.521.669c-6.851,7.228-7.117,17.76-10.526,26.754a5.045,5.045,0,0,1-.99,3.466,9.147,9.147,0,0,1-1.33,1.407c-.131.219-.261.438-.4.653a8.86,8.86,0,0,1-7.333,4.262c-2.655,1.4-5.731,2.869-9.079,4.393.237.093.47.193.708.283,5.249,1.988,11.545,3.8,16.655.453,5.831-3.815,8.356-11.02,10.237-17.5,1.557-5.364,2.542-11.857,5.72-16.639,5.9,3.167,11.588,6.744,17.729,9.449,6.374,2.807,14.527,6.756,21.05,2.105,5.581-3.979,7.694-11.173,10.455-17.518-1.888-3.43-3.537-6.41-4.891-8.85C300.541,417.389,300.422,417.571,300.311,417.758Z"></path>
    <path class="cls-8" d="M162.816,460.036a5.137,5.137,0,0,0,.687-.346,5.067,5.067,0,0,0,1.778-1.88,5.249,5.249,0,0,0,.509-1.432l0-.015.011-.064a4,4,0,0,0,.075-1.982,2.583,2.583,0,0,0-.256-1.068q-1.121.773-2.275,1.546C163.17,456.57,162.992,458.324,162.816,460.036Z"></path>
    <path class="cls-8" d="M231.349,438.281a4.381,4.381,0,0,0-.06-1.569,4.462,4.462,0,0,0-.7-2.192l-.012-.016-.9-1.168a4.2,4.2,0,0,0-1.806-1.158,2.734,2.734,0,0,0-1.38-.373,4.091,4.091,0,0,0-2.2.116l-.018,0-1.384.61c-.075.043-.13.1-.2.15A97.426,97.426,0,0,1,231.349,438.281Z"></path>
    <path class="cls-8" d="M280.574,417.609a4.917,4.917,0,0,0,1.777,1.78l1.15.482a4.7,4.7,0,0,0,2.538-.018,3.621,3.621,0,0,0,1.69-.93,3.71,3.71,0,0,0,1.236-1.426,3.825,3.825,0,0,0,.549-1.826,3.872,3.872,0,0,0-.1-1.97l-.513-1.232a4.918,4.918,0,0,0-1.776-1.78l-1.15-.482a4.7,4.7,0,0,0-2.538.018,3.624,3.624,0,0,0-1.69.93,3.71,3.71,0,0,0-1.237,1.426,3.826,3.826,0,0,0-.549,1.826,3.873,3.873,0,0,0,.1,1.97Z"></path>
    <path class="cls-8" d="M196.351,477.014a4.074,4.074,0,0,0,1.063.141,4.264,4.264,0,0,0,3.69-2.215C199.51,475.63,197.922,476.322,196.351,477.014Z"></path>
    <path class="cls-8" d="M264.363,451.3a2.028,2.028,0,0,0-.524-.91,1.991,1.991,0,0,0-.72-.721,1.96,1.96,0,0,0-.868-.505,1.922,1.922,0,0,0-.971-.262,2.88,2.88,0,0,0-1.55.082c-.083.024-.166.044-.249.062a3.7,3.7,0,0,0-1.683,1.027,2.925,2.925,0,0,0-.753,1.245,2.973,2.973,0,0,0-.3,1.447,3.963,3.963,0,0,0,.533,1.973c.044.077.089.153.138.227l.633.822.805.62.932.391,1.011.134,1.045-.149.969-.427.8-.652a3.073,3.073,0,0,0,.791-1.308,4.135,4.135,0,0,0-.032-3.095Z"></path>
    <path class="cls-6" d="M206.052,261.191c.7,15.808,2.214,29.119,16.87,39.983,0,0-7.9,23.813-27.239,25.826s-43.692-10.966-43.692-10.966,8.725-20.106,8.925-40.545,1.838-12.408,1.838-12.408Z"></path>
    <path class="cls-9" d="M201.967,270.553s-22.391,4.97-40.4-10.266l.023.494a34.34,34.34,0,0,0,3.486,4.817c1.531,1.72,24.468,31.513,46.219,21.461l-4.7-18.717C205.062,268.945,201.967,270.553,201.967,270.553Z"></path>
    <path class="cls-4" d="M122.879,201.417c6.634,4.852,13.379,9.814,18.263,16.508s9.064,23.231,6.79,31.266c-2.878,10.17-14.561,9.644-15.51,20.189a10.967,10.967,0,0,1-.36,2.516c-1.247,3.727-6.651,3.507-9.873,1.371-5.312-3.522-8.3-9.924-9.242-16.348s-.111-12.967.724-19.408l4.449-34.32Z"></path>
    <path class="cls-6" d="M133.374,205s14.066,59.468,32.847,64.457c32.437,8.614,56.51,7.616,59.392-24.261,2.517-27.842-10.372-62.18-24.888-75.789-21.908-20.539-75.139-14.32-67.35,35.593"></path>
    <path class="cls-10" d="M212.118,212.373a2.785,2.785,0,0,1-2.231,3.213,2.724,2.724,0,0,1-3.124-2.292,2.781,2.781,0,0,1,2.229-3.212,2.723,2.723,0,0,1,3.126,2.291"></path>
    <path class="cls-9" d="M197.752,211.6l4.853,24.658,10.467-2.2a2.772,2.772,0,0,0,1.487-4.272Z"></path>
    <path class="cls-9" d="M176.707,243.9a7.512,7.512,0,1,1,7.271-7.55,7.407,7.407,0,0,1-7.271,7.55"></path>
    <path class="cls-4" d="M172,221.384c.431-1.3,1.508-4.335,4.208-5.068s7.541,2.119,6.8,3.222c-.58.86-1.728-.277-2.935-.783a5.05,5.05,0,0,0-3.941-.2,4.721,4.721,0,0,0-2.436,3.12c-.633,1.56-2.124,1.01-1.693-.294"></path>
    <path class="cls-4" d="M179.752,159.3a165,165,0,0,0,53.738,44.94A63.823,63.823,0,0,0,211.3,167.535c-8.183-6.609-18.821-11.165-29.022-8.936Z"></path>
    <path class="cls-5" d="M192.517,243.524s8.6,2.974,16.668-.108,7.548-.858,7.522,2.806c-.073,10.541-7.753,14.363-16.24,12.767s-13.86-17.474-7.95-15.465"></path>
    <path class="cls-4" d="M209.394,172.517c-1.674,4.392-3.38,8.843-6.123,12.621s-6.7,6.868-11.248,7.457a12.177,12.177,0,0,0-6.675-10.895l-9.75,17.192c-2.315,4.082-5.333,8.639-9.912,8.987a29.947,29.947,0,0,0-3.552-7.286c-5.09,9.056-11.447,17.473-19.446,23.928s-17.726,10.872-27.871,11.507a39.058,39.058,0,0,0,7.086-15.74c1.5-7.415.856-15.16,2.4-22.567,3.633-17.463,19.467-30.418,36.481-33.912s34.779,1.138,50.388,8.931Z"></path>
    <path class="cls-5" d="M160.574,224.181a38.855,38.855,0,0,1-4.163.335l-.048-1.974a36.764,36.764,0,0,0,6.566-.765l.383,1.935Q161.954,223.995,160.574,224.181Z"></path>
    <path class="cls-5" d="M181.207,236.371c-8.694,1.173-17.093-4.875-19.191-14.145-2.228-9.844,3.483-19.653,12.729-21.866a16.453,16.453,0,0,1,13.057,2.4,18.549,18.549,0,0,1,7.752,11.44c2.228,9.844-3.483,19.653-12.729,21.866A16.326,16.326,0,0,1,181.207,236.371Zm-4.581-34.358a14.628,14.628,0,0,0-1.446.27c-8.214,1.966-13.28,10.711-11.292,19.5h0c1.987,8.783,10.274,14.335,18.5,12.367s13.28-10.711,11.292-19.5a16.582,16.582,0,0,0-6.927-10.231A14.622,14.622,0,0,0,176.626,202.013Z"></path>
    <path class="cls-5" d="M218.518,228.258a12.069,12.069,0,0,1-9.558-3.286,21.786,21.786,0,0,1-6.583-11.62,22.219,22.219,0,0,1,.919-13.415c1.7-4.035,4.6-6.726,8.158-7.577s7.311.249,10.571,3.1a21.783,21.783,0,0,1,6.584,11.62c2.226,9.845-1.845,19.262-9.077,20.992A10.271,10.271,0,0,1,218.518,228.258Zm-5.811-34.128a8.309,8.309,0,0,0-.819.153c-2.949.705-5.375,2.992-6.829,6.439a20.184,20.184,0,0,0-.81,12.182h0a19.792,19.792,0,0,0,5.956,10.563c2.785,2.433,5.942,3.384,8.892,2.678,6.2-1.483,9.626-9.836,7.639-18.621a19.792,19.792,0,0,0-5.957-10.563A10.237,10.237,0,0,0,212.707,194.131Z"></path>
    <path class="cls-5" d="M203.2,215.525a4.79,4.79,0,0,0-3.718-1.116,5.379,5.379,0,0,0-3.819,1.91l-1.514-1.216a7.273,7.273,0,0,1,5.181-2.663,6.668,6.668,0,0,1,5.179,1.638Z"></path>
    <path class="cls-11" d="M216.513,147.459l-.172-.13.134.164Z"></path>
    <path class="cls-11" d="M100.246,191.806l.243-.254a10.66,10.66,0,0,1,1.167-1.027c.2-.159.417-.308.63-.456.254-.17.508-.34.763-.489.193-.117.4-.234.59-.34s.386-.223.58-.319c.651-.351,1.292-.66,1.872-.948.224-.117.438-.224.641-.33s.4-.223.58-.33c0,0,4.184-1.868,10.76-4.824.2-.086.417-.182.631-.278.478-.214.967-.437,1.476-.662.255-.117.509-.235.764-.341,7.686-3.458,17.835-8.026,28.259-12.742.692-.31,1.384-.63,2.087-.95,1.038-.47,2.087-.939,3.135-1.419s2.1-.95,3.135-1.419q3.13-1.424,6.2-2.817c.244-.107.489-.224.733-.331,1.109-.512,2.219-1.014,3.308-1.515.662-.3,1.323-.6,1.975-.907q1.115-.5,2.2-.992c.885-.416,1.751-.811,2.616-1.206.2-.1.417-.192.621-.288h.01c12.52-5.75,22.179-10.294,23.725-11.3.122-.085.254-.159.376-.234a19.375,19.375,0,0,1,2.033-1.1c-11.23-5.435-23.97-12.147-28.412-15.369-8.153-5.911-20.973-16.563-32.542-12.9s-31.252,7.374-40.518,8.631-19.683,3.715-21.97,8.5S65.339,160.382,61.9,166.372c-2.912,5.08-19.092,16.229-23.3,14.444-2.581,2.4-4.723,4.567-6.519,6.477a58.6,58.6,0,0,0-7.623,9.682,10.847,10.847,0,0,0-.6,1.1s5.277,5.728,10.15,2.806a28.168,28.168,0,0,1,5.412-2.03c9.163-2.772,26.145-6.552,35.753-12.286,12.183-7.279,8.29-15.892,17.4-11.993,7.854,3.361,6.135,11.864,6.658,18.519.023-.034.042-.071.066-.1A8.9,8.9,0,0,1,100.246,191.806Z"></path>
    <path class="cls-5" d="M216.475,147.494l-.134-.164a22.2,22.2,0,0,0-3.4-3.526,6.4,6.4,0,0,0-.964-.582c-2.284-1.109-5.449-1.087-8.647-.025a18.565,18.565,0,0,0-1.977.789,19.375,19.375,0,0,0-2.033,1.1c-.122.074-.254.149-.376.234-1.545,1.009-11.2,5.552-23.725,11.3h-.01c-.2.1-.417.192-.621.288-.865.395-1.73.79-2.616,1.206q-1.084.5-2.2.992c-.651.309-1.313.608-1.975.907-1.089.5-2.2,1-3.308,1.515-.244.107-.489.224-.733.331q-3.069,1.393-6.2,2.817c-1.038.47-2.087.95-3.135,1.419s-2.1.95-3.135,1.419c-.7.32-1.395.64-2.087.95-10.424,4.717-20.573,9.284-28.259,12.742-.255.107-.509.224-.764.341-.509.224-1,.448-1.476.662-.214.1-.428.192-.631.278-6.576,2.956-10.76,4.824-10.76,4.824-.183.106-.376.223-.58.33s-.417.213-.641.33c-.58.288-1.221.6-1.872.948q-.29.144-.58.319c-.193.106-.4.223-.59.34-.254.149-.508.319-.763.489-.214.149-.427.3-.63.456a10.66,10.66,0,0,0-1.167,1.027l-.243.254a8.9,8.9,0,0,0-.942,1.184c-.024.033-.042.07-.066.1a2.889,2.889,0,0,0-.187.3,2.717,2.717,0,0,0-.192.327c-.111.179-.2.369-.3.559-.09.211-.191.422-.271.643-.06.148-.121.3-.171.453-.08.242-.16.506-.23.769-.05.169-.09.337-.129.516-.04.158-.069.326-.1.505-.049.263-.1.547-.127.831-.87,7.457-2.935,21.26,5.7,24.69a1.542,1.542,0,0,0,.235.072c1.728.43,6.182-.662,12.417-2.786l.041-.021c2.516-.869,5.317-1.9,8.352-3.063l.01-.011q2.49-.963,5.183-2.043c.3-.118.6-.246.9-.363.458-.192.916-.374,1.385-.567.366-.15.743-.3,1.12-.46s.753-.32,1.14-.47c.02,0,.031-.011.051-.021,1.884-.791,3.818-1.6,5.783-2.436l.01-.011c2.79-1.2,5.661-2.445,8.582-3.727l1.527-.673c.743-.341,1.5-.672,2.25-1q2.5-1.136,5.059-2.284c1.415-.64,2.82-1.281,4.224-1.931.7-.331,1.4-.651,2.117-.971.9-.416,1.781-.832,2.667-1.248.855-.395,1.7-.8,2.565-1.195s1.7-.8,2.555-1.205c2.545-1.195,5.069-2.4,7.552-3.6,1.14-.554,2.27-1.1,3.389-1.642.509-.245,1.028-.5,1.537-.746.763-.373,1.516-.746,2.269-1.119.845-.416,1.679-.831,2.5-1.236.784-.394,1.567-.778,2.33-1.161s1.537-.767,2.29-1.151c.376-.192.743-.373,1.119-.565.743-.373,1.475-.746,2.208-1.119,6.289-3.206,11.874-6.177,16.289-8.687a.037.037,0,0,0,.031-.011c5.757-3.266,9.539-5.741,10.348-6.934C226.843,162.989,220.96,153.042,216.475,147.494Z"></path>
    <path class="cls-12" d="M143.934,336.777c-1.064,2.292-2.045,4.641-2.909,7.042-7.83,21.761-6.892,46.965-18.786,66.746-4.515,7.509-10.93,13.269-16.584,17.325-3.806,2.73-7.573,3.738-11.42,5.3a10.377,10.377,0,0,0-6.657,9.686,176.513,176.513,0,0,0,.634,25.966c.516,5.127.911,11.687,2.64,16.173.9,2.33,2.155,4.1,3.976,4.821a4.668,4.668,0,0,0,3.106-.152c6.05-1.882,11.085-5.538,16.01-9.14,13.537-9.9,27.339-20.072,36.026-34,8.261-13.24,11.37-29.071,13.042-44.833s2.034-31.818,5.34-47.2a98.086,98.086,0,0,1,4.034-13.907q-9.3-.237-18.564-1.246C150.468,339,146.866,338.383,143.934,336.777Z"></path>
    <path class="cls-13" d="M146.475,303.521c34.408,3.878,62.556-12.841,93.737-24.505a17.709,17.709,0,0,1,7.667-1.284,72.7,72.7,0,0,0-.622-13.406c-.318-2.258-.793-4.605-2.331-6.34-2.3-2.592-6.484-3.158-10.1-2.356s-6.852,2.727-10.092,4.484a128.647,128.647,0,0,1-79.7,13.954c-12.775-1.965-6.361,22.285-4.209,27.289a17.252,17.252,0,0,0,1.115,2.153A17.888,17.888,0,0,1,146.475,303.521Z"></path>
    <path class="cls-14" d="M259.177,292.6c-1.045-8.83-4.86-14.321-11.3-14.873a17.709,17.709,0,0,0-7.667,1.284c-31.181,11.664-59.329,28.383-93.737,24.505a17.888,17.888,0,0,0-4.537-.012c-4.7.683-5.986,3.849-6.011,8.005a66.737,66.737,0,0,0-25.161,19.116c-12.4,15.37-17.681,36.56-33.292,48.913-5.926,4.689-13.151,7.286-19.272,8.729-4.12.972-7.785.53-11.658.52a8.31,8.31,0,0,0-8.4,5.766A136.951,136.951,0,0,0,32.4,416.278c-.779,4.421-2.015,9.987-1.537,14.289a7.716,7.716,0,0,0,2.437,5.34,5.013,5.013,0,0,0,2.857.927c5.951.491,11.411-.831,16.76-2.145,14.7-3.61,29.7-7.361,40.978-15.949,10.721-8.167,17.4-20.224,22.747-32.711s9.587-25.661,16.329-37.279a69.689,69.689,0,0,1,9.49-12.909,12.73,12.73,0,0,0,1.472.937c2.932,1.606,6.534,2.219,9.887,2.59q9.256,1.024,18.564,1.246A221.51,221.51,0,0,0,244.7,330.418c4.182-1.322,8.574-2.945,11.262-6.548,2.248-3.013,2.955-6.97,3.354-10.784A92.6,92.6,0,0,0,259.177,292.6Z"></path>
    <path class="cls-15" d="M230.505,422.6S102.243,465.091,118.476,509.69s129.062-37.755,137.515-44.654S230.505,422.6,230.505,422.6Z"></path>
  </g>
  <path class="cls-16" d="M36.4,213.093c11.161-.077,20.2-9.51,20.129-21s-9.238-20.8-20.4-20.721-20.2,9.51-20.13,21S25.239,213.17,36.4,213.093Z"></path>
  <path class="cls-1" d="M377.471,257.725c1.877-.028,6.419-.453,8.034-3.732,1.636-3.323-.779-7.462-3.346-10-3.808-3.761-8.841-6.679-15.837-9.184a73.063,73.063,0,0,0-29-4.328C343.98,245.087,362.322,257.967,377.471,257.725Z"></path>
  <path class="cls-1" d="M343.977,264.716a46.913,46.913,0,0,0-17.681.947l30.687,3.681A35.407,35.407,0,0,0,343.977,264.716Z"></path>
  <path class="cls-17" d="M318.73,319.523c9.9-.434,18.5-2.721,25.555-6.8,1.641-.951,6.938-4.4,6.158-8.855-.666-3.8-5.249-5.547-9.317-5.912a38.849,38.849,0,0,0-28.75,9.362,26.569,26.569,0,0,0-7.763,10.6c.108.038.217.076.325.112C308.705,319.295,313.088,319.769,318.73,319.523Z"></path>
  <path class="cls-17" d="M248.453,336.81l.14.51,50.628,11.794,7.251-4.459a61.646,61.646,0,0,1-3.6-9.826c-1.662-6.106-1.922-11.219-.793-15.629l.011-.042a20.192,20.192,0,0,1-9.5-8.3c-2.7-4.761-2.759-10.038-2.335-13.627A35.148,35.148,0,0,1,301.18,276.22a44.029,44.029,0,0,1,7.016-5.442,38.944,38.944,0,0,1-2.927-6.647l-111.3,60.463,46.285,10.783Z"></path>
  <path class="cls-17" d="M364.791,272.956c2.283,2.409,4.9,6.173,4.4,10.418a10.764,10.764,0,0,1-5.31,7.692,21.206,21.206,0,0,1-8.568,2.569,50.886,50.886,0,0,1-21.818-2.22,45.57,45.57,0,0,1-24.242-18.845,42,42,0,0,0-6.687,5.186,33.034,33.034,0,0,0-10.292,19.732,20.374,20.374,0,0,0,2.073,12.318,18.081,18.081,0,0,0,8.372,7.35,28.664,28.664,0,0,1,8.348-11.444,40.865,40.865,0,0,1,30.237-9.846c4.816.433,10.273,2.664,11.143,7.628.991,5.658-4.68,9.614-7.164,11.052-7.332,4.247-16.236,6.624-26.466,7.071-5.893.257-10.5-.25-14.509-1.594l-.308-.106c-.98,4-.708,8.7.831,14.347a59.5,59.5,0,0,0,3.4,9.311l44.256-27.212-.061-.25,14.021-8.334,50.76-31.211L361.4,269.874A31.38,31.38,0,0,1,364.791,272.956Z"></path>
  <path class="cls-17" d="M334.116,289.421a48.909,48.909,0,0,0,20.964,2.133,19.386,19.386,0,0,0,7.767-2.293,8.665,8.665,0,0,0,4.322-6.14c.4-3.422-1.862-6.622-3.834-8.7a30.306,30.306,0,0,0-6.351-5.074L326.3,265.663c-1.384.323-2.776.683-4.187,1.118a55.52,55.52,0,0,0-11.1,4.737A43.516,43.516,0,0,0,334.116,289.421Z"></path>
  <path class="cls-17" d="M320.834,265.008l-13.673-1.64a36.765,36.765,0,0,0,2.788,6.36A57.1,57.1,0,0,1,320.834,265.008Z"></path>
  <path class="cls-10" d="M301.18,276.22a35.148,35.148,0,0,0-10.928,21.014c-.424,3.589-.363,8.866,2.335,13.627a20.192,20.192,0,0,0,9.5,8.3l-.011.042c-1.128,4.41-.869,9.522.793,15.629a61.646,61.646,0,0,0,3.6,9.826l1.756-1.08a59.5,59.5,0,0,1-3.4-9.311c-1.538-5.652-1.811-10.348-.831-14.347l.308.106c4.005,1.344,8.616,1.851,14.509,1.594,10.229-.448,19.134-2.824,26.466-7.071,2.484-1.438,8.155-5.394,7.164-11.052-.871-4.964-6.327-7.2-11.143-7.628a40.865,40.865,0,0,0-30.237,9.846,28.664,28.664,0,0,0-8.348,11.444,18.081,18.081,0,0,1-8.372-7.35,20.374,20.374,0,0,1-2.073-12.318,33.034,33.034,0,0,1,10.292-19.732,42,42,0,0,1,6.687-5.186,45.57,45.57,0,0,0,24.242,18.845,50.886,50.886,0,0,0,21.818,2.22,21.206,21.206,0,0,0,8.568-2.569,10.764,10.764,0,0,0,5.31-7.692c.5-4.245-2.115-8.009-4.4-10.418a31.38,31.38,0,0,0-3.4-3.082,36.555,36.555,0,0,0-17.125-7.23,51.043,51.043,0,0,0-22.747,2.132c-.235.073-.458.158-.69.233a57.1,57.1,0,0,0-10.885,4.719,36.765,36.765,0,0,1-2.788-6.36,33.7,33.7,0,0,1-1.485-6.773,21.814,21.814,0,0,1,1.442-11.55c3.035-6.652,10.274-10.151,15.812-11.915a58.851,58.851,0,0,1,12.236-2.475c6.74,15.556,26.255,29.421,42.336,29.164,4.752-.075,8.328-1.853,9.818-4.879,2.137-4.34-.537-9.279-3.752-12.455-4.028-3.977-9.3-7.044-16.577-9.651a74.846,74.846,0,0,0-30.521-4.391,29.049,29.049,0,0,1-.911-2.849c-2.367-9.013,1.279-20.41,8.3-25.945,3.536-2.789,9.344-5.163,16.906-.625l1.025-1.81c-6.662-4-13.47-3.721-19.169.772-7.628,6.014-11.593,18.382-9.026,28.155q.327,1.248.772,2.49a60.687,60.687,0,0,0-12.039,2.5c-8.5,2.708-14.4,7.212-17.051,13.025a23.91,23.91,0,0,0-1.623,12.68,35.754,35.754,0,0,0,1.615,7.3,38.944,38.944,0,0,0,2.927,6.647A44.029,44.029,0,0,0,301.18,276.22Zm11.2,31.093a38.849,38.849,0,0,1,28.75-9.362c4.067.366,8.651,2.11,9.317,5.912.78,4.455-4.517,7.9-6.158,8.855-7.052,4.083-15.65,6.37-25.555,6.8-5.643.246-10.025-.228-13.792-1.493-.109-.036-.218-.074-.325-.112A26.569,26.569,0,0,1,312.376,307.314Zm9.733-40.532c1.411-.436,2.8-.8,4.187-1.118a46.913,46.913,0,0,1,17.681-.947,35.407,35.407,0,0,1,13.006,4.628,30.306,30.306,0,0,1,6.351,5.074c1.972,2.082,4.238,5.281,3.834,8.7a8.665,8.665,0,0,1-4.322,6.14,19.386,19.386,0,0,1-7.767,2.293,48.909,48.909,0,0,1-20.964-2.133,43.516,43.516,0,0,1-23.109-17.9A55.52,55.52,0,0,1,322.109,266.782Zm44.213-31.968c7,2.5,12.028,5.423,15.837,9.184,2.567,2.534,4.983,6.672,3.346,10-1.615,3.279-6.156,3.7-8.034,3.732-15.149.242-33.491-12.638-40.152-27.24A73.063,73.063,0,0,1,366.322,234.814Z"></path>
  <polygon class="cls-11" points="240.256 335.377 193.971 324.595 224.612 429.986 258.896 441.846 227.445 333.139 240.256 335.377"></polygon>
  <polygon class="cls-11" points="372.371 304.257 396.222 417.79 440.175 382.803 417.204 276.568 366.445 307.779 372.371 304.257"></polygon>
  <polygon class="cls-11" points="352.485 316.363 308.229 343.575 306.472 344.655 299.221 349.114 248.593 337.32 279.251 448.888 333.556 467.674 380.094 430.628 352.485 316.363"></polygon>
  <polygon class="cls-5" points="372.371 304.257 366.445 307.779 352.424 316.113 352.485 316.363 380.094 430.628 380.372 431.778 396.523 419.222 396.222 417.79 372.371 304.257"></polygon>
  <polygon class="cls-5" points="248.453 336.81 240.256 335.377 227.445 333.139 258.896 441.846 259.687 444.579 279.932 451.368 279.251 448.888 248.593 337.32 248.453 336.81"></polygon>
  <path class="cls-18" d="M417.177,321.767s-4.646-7.06,7.069-10.887c7.922-2.588,8.627.991,9.3,3.925S432.041,321,432.041,321a5.05,5.05,0,0,1,5.033,4.406c.975,4.613-4.351,6.519-4.351,6.519s6.337,1.094,6.053,6-6.738,4.661-6.738,4.661,5.081-.008,4.162,4.353-6.058,4.493-9.512,3.755-5.991-.791-6.381-3.476a5.519,5.519,0,0,1,1.226-4.381s-4.412-2.46-4.913-4.658,1.222-4.383,1.222-4.383a10.449,10.449,0,0,1-3.343-5.577C413.884,324.869,417.177,321.767,417.177,321.767Z"></path>
  <path class="cls-18" d="M419.747,313.314c-3.512-.9-4.51-4.432-2.141-8.312s10.932-5.626,11.183.164S423.264,314.218,419.747,313.314Z"></path>
  <path class="cls-19" d="M420,313.836a60.235,60.235,0,0,1,7.487-3.295l.013,0-.193-1.144-.013,0c-1.547.285-7.152,3.077-7.79,3.4Z"></path>
  <path class="cls-19" d="M429.647,321.633l-.049-1.159c-3.406.151-11.724.751-11.807.758l.076,1.16C417.953,322.385,426.256,321.788,429.647,321.633Z"></path>
  <path class="cls-19" d="M429.046,333.2a20.41,20.41,0,0,0,2.6-.636l-.339-1.106c-4.132,1.333-11.628,1.365-11.7,1.365v1.163A61.491,61.491,0,0,0,429.046,333.2Z"></path>
  <path class="cls-19" d="M431.349,343.32c.266-.049.536-.1.808-.163l-.235-1.136a21.336,21.336,0,0,1-9.044.082l-.277,1.124A21.865,21.865,0,0,0,431.349,343.32Z"></path>
  <path class="cls-6" d="M231.632,438.42s7.376-25.493,14.493-39.5c10.573-20.807,23.863-32.889,31.908-32.015s5.32,6.463,1.552,10.867c-3.644,4.259-9.676,4.038-14.568,10.626q-.251.337-.5.7l-3.139,5.031s17.958-7.392,23.521-4.671.286,8.189.286,8.189,8.5,1.19,1.974,9.573c0,0,2.432,2.563-1,6.856s-19.845,6.315-20.442,6.57-3.729,7.883-5.4,18.261c-1.972,12.278-13.736,23.454-13.736,23.454Z"></path>
  <path class="cls-9" d="M285.384,398.119c-8.446-.437-18.171.551-25.115,5.989-.611.478-1.312-.512-.7-.99,7.208-5.644,17.239-6.663,26-6.21.764.04.575,1.25-.184,1.211Z"></path>
  <path class="cls-9" d="M287.266,407.88a61.823,61.823,0,0,0-12.656.536,59.459,59.459,0,0,0-6.085,1.209,9.016,9.016,0,0,0-5.013,2.614.6.6,0,0,1-.923-.775,8.9,8.9,0,0,1,4.494-2.707,51.324,51.324,0,0,1,6.531-1.427,63.262,63.262,0,0,1,13.837-.661c.764.046.575,1.256-.184,1.211Z"></path>
  <path class="cls-9" d="M281.648,389.87a47.982,47.982,0,0,0-26.485,8.217c-.639.432-1.344-.556-.7-.99a49.07,49.07,0,0,1,27.051-8.445c.759-.005.9,1.212.135,1.218Z"></path>
  <path class="cls-15" d="M230.505,422.6s-32.685,10.827-62.967,27.287c-29.706,16.147,59.651,35.355,67.528,30.07,11.054-7.417,18.921-13.29,20.924-14.925C264.444,458.136,230.505,422.6,230.505,422.6Z"></path>
  <path class="cls-14" d="M30.865,430.567c-.478-4.3.758-9.868,1.537-14.289a136.951,136.951,0,0,1,5.741-21.719,8.31,8.31,0,0,1,8.4-5.766c3.873.01,7.538.452,11.658-.52,6.12-1.444,13.346-4.04,19.272-8.729C93.084,367.19,98.362,346,110.765,330.63c8.128-10.072,19.362-17.493,29.375-20.688,8.642-2.758,13.911,4.35,19.238,9.034,1.57,1.381,2.748,4.274-.68,5.705a42.289,42.289,0,0,0-12.861,7.858,65.787,65.787,0,0,0-12.865,16.21C126.23,360.367,122,373.54,116.644,386.028S104.618,410.572,93.9,418.739c-11.274,8.588-26.281,12.339-40.978,15.949-5.348,1.314-10.809,2.636-16.76,2.145a5.012,5.012,0,0,1-2.857-.927A7.716,7.716,0,0,1,30.865,430.567Z"></path>
  <path class="cls-12" d="M90.852,485.015c-1.729-4.487-2.124-11.046-2.64-16.173a176.516,176.516,0,0,1-.633-25.966,10.377,10.377,0,0,1,6.657-9.686c3.848-1.562,7.614-2.569,11.42-5.3,5.654-4.056,12.069-9.816,16.584-17.325,11.894-19.781,42.444-24.61,40.772-8.848s-4.781,31.593-13.042,44.833c-8.687,13.924-22.489,24.1-36.026,34-4.926,3.6-9.96,7.258-16.01,9.139a4.668,4.668,0,0,1-3.106.152C93.007,489.116,91.75,487.345,90.852,485.015Z"></path>
  <path class="cls-20" d="M448.032,200.842C473,173.613,471.8,130.71,445.355,105.017a64.531,64.531,0,0,0-93.088,2.777c-24.967,27.23-23.768,70.133,2.677,95.828a64.531,64.531,0,0,0,93.087-2.78"></path>
  <path class="cls-16" d="M374.258,165.547l3.171-3.458c-5.55-10.819-4.7-23.628,4.945-34.15,6.745-7.357,13.071-9.559,19.858-9.92a6.084,6.084,0,0,1,4.551,1.639c2.49,2.42,2.322,6.709-.309,9.579a6.735,6.735,0,0,1-4.863,2.37,13.987,13.987,0,0,0-10.973,4.779,13.449,13.449,0,0,0-2.752,14.3l9.039-9.859a4.514,4.514,0,0,1,6.437-.564,4.773,4.773,0,0,1-.176,6.647L392.595,158.46c.644.765,1.426,1.525,2.137,2.216a25.659,25.659,0,0,0,2.131,1.931l10.592-11.55a4.515,4.515,0,0,1,6.436-.565,4.773,4.773,0,0,1-.175,6.648l-9.174,10.006c5.246,1.759,10.278.526,14.461-4.035,3.238-3.532,4.049-7.057,3.853-11.977a7.027,7.027,0,0,1,1.879-5.13c2.428-2.648,6.373-2.989,8.72-.709a6.311,6.311,0,0,1,1.759,3.657c.551,7.908-1.2,15.249-7.745,22.386-9.916,10.816-22.492,12.645-33.523,7.216l-2.968,3.237a4.511,4.511,0,0,1-6.434.563,4.84,4.84,0,0,1,.174-6.646l1.957-2.133a24.192,24.192,0,0,1-1.988-1.792c-.712-.692-1.565-1.522-2.209-2.286l-1.957,2.133a4.514,4.514,0,0,1-6.436.563,4.84,4.84,0,0,1,.175-6.646"></path>
  <polygon class="cls-11" points="350.695 59.02 346.836 36.462 319.341 17.897 320.638 42.011 350.695 59.02"></polygon>
  <polygon class="cls-11" points="323.193 89.525 285.907 135.618 319.658 154.577 358.972 107.4 352.927 72.064 321.373 55.672 323.193 89.525"></polygon>
  <polygon class="cls-11" points="241.234 190.843 274.14 209.2 308.261 168.254 274.043 150.284 241.234 190.843"></polygon>
  <polygon class="cls-17" points="321.373 55.672 321.184 55.574 284.251 103.199 285.687 135.495 285.907 135.618 323.193 89.525 321.373 55.672"></polygon>
  <polygon class="cls-17" points="271.009 82.523 247.402 114.089 245.565 136.941 271.938 103.57 271.009 82.523"></polygon>
  <polygon class="cls-17" points="273.998 150.26 272.585 118.243 244.179 154.873 244.38 151.694 241.234 190.843 274.043 150.284 273.998 150.26"></polygon>
  <polygon class="cls-17" points="320.603 41.991 320.638 42.011 319.341 17.897 282.64 66.971 283.611 88.799 320.603 41.991"></polygon>
  <polygon class="cls-5" points="285.907 135.618 285.687 135.495 284.251 103.199 321.184 55.574 321.373 55.672 352.927 72.064 350.814 59.088 350.695 59.02 320.638 42.011 320.603 41.991 283.611 88.799 282.64 66.971 282.634 66.827 271.003 82.381 271.009 82.523 271.938 103.57 245.565 136.941 245.29 137.29 244.38 151.694 244.179 154.873 272.585 118.243 273.998 150.26 274.043 150.284 308.261 168.254 308.429 168.343 319.673 154.586 319.658 154.577 285.907 135.618"></polygon>
</svg>
