<svg xmlns="http://www.w3.org/2000/svg" id="Calque_1" data-name="Calque 1" viewBox="0 0 544 300"><defs><style>.cls-1{fill:#d7ebff}.cls-2{fill:#ffc802}.cls-3{fill:#27c896}.cls-4{fill:#fff}.cls-7{fill:#132d32}.cls-10{fill:#b6503a}.cls-11{fill:#a2290f}.cls-13{fill:#ffad63}.cls-14{fill:#ff8920}.cls-15{fill:#285aff}</style></defs><path d="M325.31 57.46c-12.46 1.44-20 12-16.21 39.39 3 21.73 5.64 61.74-35 77.62-56.55 22.09-101 5.21-159-7.39-62.77-13.63-95.16 16.21-28.31 62s237.65 76.32 340.53-.71c76.1-57-17.88-180.65-102-170.92" class="cls-1"/><path d="M496.67 144.91c16.59 55.62-13.44 89.48-39.55 103.48-16.5 8.85-25.22 3.93-17.24-6.48 7.26-9.47 20.52-24.69 28.23-41.81 8.34-18.51 9.17-41.08 9.74-53.74.83-18.6 15.24-13.46 18.82-1.45M45 88.7c-5.14 13.21-7.94 42.79 27.9 59.18 9.38 4.29 28.38 5.94 19.63-2.45-6-5.71-15.19-31.77-13.86-43.93S87.88 72.1 96.12 63c11.25-12.45.24-11.24-10.3-7.4S52 70.85 45 88.7m59.52-37.53s6.38-5.25 11.16-2-14.37 9.77-11.16 2" class="cls-1"/><path d="M177.64 127.91c-7.15-28.15 22.39-39.63 46-37.14 51.42 5.4 69 21.31 71.26 5.17s-56.36-47.75-119.6-44.15c-68.21 3.88-99.6 49.71-37.2 89.59 24.65 15.76 46.36 13.28 39.56-13.47" class="cls-1"/><path d="M247.52 206.16s1.25-6.75-7.79-22.52c-41.51 6-78.85-6.62-124.61-16.56-3.16-.68-6.23-1.25-9.23-1.72a13.2 13.2 0 0 0 0 7.23s33.34 21.89 46.58 34.78A356 356 0 0 1 177 234.2l6.92-2.73a12.4 12.4 0 0 0-1.95 2.49c-5.95 9.22-7.94 21.3-8.49 30.48a402 402 0 0 0 85.18 10.94c5.63-17.17 12.31-38.85 14.72-52-7.88-5.78-17.7-13.22-25.86-17.22" class="cls-2"/><path d="M391.23 115.4c-13.89-12.32-32.31-15.6-41.12-13.33-6.86 1.68-26.28 4.84-39.67 8.08 1.21 22-3 51.21-36.19 64.26.91 16.52 1.31 35.8-.66 47.58-.08.43-.16.88-.24 1.34-2.41 13.2-9.09 34.88-14.72 52 49.16.95 99.95-7.53 142.88-30.58 10.69-20.8 30-51.25 32-60.78 2.47-11.51.28-27-3.41-36s-24.98-20.24-38.87-32.57" class="cls-3"/><path d="M336.68 172.62a2 2 0 0 1-.22-.15l.49.86a2.3 2.3 0 0 1-.27-.71m19.02 82.72-.14-.1.33.58a1.7 1.7 0 0 1-.19-.48" class="cls-4"/><path d="M245.41 170.08h.13z" style="fill:#ffc800"/><path d="m360.83 201.6-.22-.15.48.86a2.5 2.5 0 0 1-.26-.71" class="cls-4"/><path d="M153.85 117.68a13.65 13.65 0 0 0 10.53 6.32 10.55 10.55 0 0 0 9.22-3.89c2-2.82 1.91-7.21-.73-9.48a22.5 22.5 0 0 0 8.11-2.1 8.69 8.69 0 0 0 4.82-6.5 6.76 6.76 0 0 0-5.32-7 7.08 7.08 0 0 0-7.86-11.7 7.12 7.12 0 0 0-13.16-5.2c.12-2.08-1.91-3.85-4-4a7.3 7.3 0 0 0-5.46 2.55 9 9 0 0 0-11.6 12.45 2.55 2.55 0 0 1 .44 1.25 2.43 2.43 0 0 1-.8 1.45 14.22 14.22 0 0 0 1.79 20.32 3.2 3.2 0 0 1 .93 1 3.6 3.6 0 0 1 .21 1.27 8.11 8.11 0 0 0 11.24 7Z" class="cls-7"/><path d="M181.94 234a12.4 12.4 0 0 1 1.95-2.49L177 234.2a356 356 0 0 0-24.55-26.83c-13.24-12.89-46.58-34.78-46.58-34.78s-2.88-8.26 5.67-15.79 14.28-12.8 14.28-12.8l40.46-30.37c10.46-4.91 26.45-12.5 39.19-2.66l-2.88 25.41s25.92 28.45 36.1 45.5 8.83 24.31 8.83 24.31c13.46 6.6 7.3 16.66 13.48 18.84s-.18-.49-10 3 .65.05-18 11-26.22 22.31-27 11c-.62-9-35.09 1-24.06-16" class="cls-2"/><path d="M143.56 97.23s-7.5 12.74-23.89 8.63c0 0 17.09 15.45 23.89-8.63" style="fill:#ff891f"/><path d="M103.06 93.28a13.69 13.69 0 0 0-11.93-3 10.55 10.55 0 0 0-7.66 6.44c-1.11 3.3.3 7.45 3.49 8.85a22.5 22.5 0 0 0-7.13 4.43 8.72 8.72 0 0 0-2.69 7.63 6.77 6.77 0 0 0 7.16 5.14 7.09 7.09 0 0 0 11 8.87 7.11 7.11 0 0 0 14.09 1.08c.51 2 3 3.12 5 2.63a7.32 7.32 0 0 0 4.52-4.05 9 9 0 0 0 7.38-15.3 2.6 2.6 0 0 1-.8-1.07 2.5 2.5 0 0 1 .34-1.62 14.23 14.23 0 0 0-7.7-18.89 3.2 3.2 0 0 1-1.18-.66 3.4 3.4 0 0 1-.57-1.15 8.12 8.12 0 0 0-12.8-3.35Z" class="cls-7"/><path d="M145.33 224.42s-3.62-1.49-6-2.79c.1.52.21 1 .31 1.53 2.68.43 5.69 1.26 5.69 1.26m7.09-17.05a195 195 0 0 0-18-14.75l-1.05-.32c1.57 7.91 3.66 18.15 5.51 27.16a25.1 25.1 0 0 1 7 1.45 77.4 77.4 0 0 1 14.83 6.78c2.08-1.5 4.28-3.08 6.59-4.71-4.17-4.66-9.36-10.22-14.88-15.61m-12.09 19.04.12.6c1.92.37 3.71.89 3.71.89s-1.85-.65-3.83-1.49m1.67 7.84c.81 3.91 1.32 6.35 1.32 6.35s1.89-1.45 5.12-3.87c-1.44-.5-4.16-1.47-6.44-2.48m-.9-4.09c0 .17.08.34.11.51a28 28 0 0 1 3.41.66s-1.62-.5-3.52-1.17" style="fill:none"/><path d="M210.43 230c29.17-1.15 79.85-9.77 75.49-11.31-5.71-2-22.19-5.34-35.28-11.05-9.63 9.5-22.75 15.43-33.33 19.76-2.17.86-4.5 1.73-6.88 2.6" class="cls-2"/><path d="M217.31 227.36C227.89 223 241 217.1 250.64 207.6a43.8 43.8 0 0 0 11.45-18.32c5.7-18.41-22.95-50.19-41.4-66.38L209.6 149c2.84 3.17 6.4 7.2 10.72 12.16A172 172 0 0 1 239.66 188c-1.35-.37-12.56-2.75-37.39 12-11.57 6.86-24.3 15.49-35 23-2.31 1.63-4.51 3.21-6.59 4.71a77.4 77.4 0 0 0-14.83-6.78 25.1 25.1 0 0 0-7-1.45c-1.85-9-3.94-19.25-5.51-27.16l-26.26-8c3.67 27 13.41 77.85 29.61 80.23 7.83 1.15 26.59-11.54 46-26.9a277 277 0 0 0 27.74-7.65c2.38-.87 4.71-1.74 6.88-2.64m-72-2.94s-3-.83-5.67-1.26c-.1-.5-.21-1-.31-1.53 2.38 1.3 6 2.79 6 2.79Zm-5 2c2 .84 3.83 1.49 3.83 1.49s-1.79-.52-3.71-.89Zm.77 3.75c1.87.67 3.52 1.17 3.52 1.17a28 28 0 0 0-3.41-.66c-.01-.18-.05-.35-.09-.52Zm.85 4.09c2.33 1 5 2 6.44 2.48-3.23 2.42-5.12 3.87-5.12 3.87s-.49-2.45-1.25-6.36Z" class="cls-10"/><path d="M134.44 192.62a195 195 0 0 1 18 14.75c5.52 5.39 10.71 10.95 14.89 15.61 10.66-7.55 23.39-16.18 35-23 24.83-14.74 36-12.36 37.39-12a172 172 0 0 0-19.34-26.84c-4.32-5-7.88-9-10.72-12.16l11.09-26 1.67-3.93c-19.41-21.16-44.09-13-55.36-7.57 0 0 6.94 22.65-14.29 34.29s-32.3-.54-32.36-.6c-8.86 7.8-20.62 21.69-16.74 38.19l3.52 1.06 26.26 8Zm32.26-81.08.27-.13Z" class="cls-2"/><path d="M152.71 145.69C173.94 134.05 167 111.41 167 111.4l-.27.13c-1.68.81-10 4.65-12.86 2.72-3.2-2.16-7.94-11.88-10.5-18.06l-31.29 1.52s13.18 23.58 16 30.68-7.71 16.69-7.71 16.69c.04.07 11.26 12.18 32.34.61" class="cls-10"/><ellipse cx="121.39" cy="73.03" class="cls-7" rx="32.99" ry="36.78" transform="rotate(-18.57 121.356 73.033)"/><path d="M151.86 86.08c2.62-.6 4.1-3.93 3.3-7.43s-3.59-5.84-6.21-5.24-4.1 3.93-3.29 7.43 3.58 5.84 6.2 5.24M104 102.15c2.62-.6 4.1-3.92 3.3-7.42s-3.59-5.84-6.21-5.24-4.09 3.93-3.29 7.42 3.58 5.85 6.2 5.24" class="cls-11"/><path d="M150.12 78.93c4.13 18-4.93 34.86-16.82 37.3s-28.43-9-32.56-26.93.58-34.55 17.6-38.16C136.77 47.29 146 61 150.12 78.93" class="cls-10"/><path d="M114.18 85.52a1.62 1.62 0 1 0-1.85-1.24 1.58 1.58 0 0 0 1.85 1.24m27.25-9a1.53 1.53 0 1 1-1.86-1.24 1.59 1.59 0 0 1 1.86 1.24" class="cls-7"/><path d="M140.16 93.18c.71 3.07-3 6.48-8.24 7.68s-10.07-.33-10.76-3.31 4.21-1.75 9.42-3 8.87-4.49 9.58-1.42" class="cls-4"/><path d="M139.61 85.27a4.5 4.5 0 0 0 4.81 4.28 4.55 4.55 0 0 0 4.29-4.81 4.48 4.48 0 0 0-4.81-4.28 4.56 4.56 0 0 0-4.29 4.81m-30.84 9.15a4.5 4.5 0 0 0 4.81 4.28 4.56 4.56 0 0 0 4.29-4.81 4.48 4.48 0 0 0-4.81-4.28 4.67 4.67 0 0 0-4.29 4.81m18.78-15.99-3 8.64a1.41 1.41 0 0 0 1.51 1.9l4.86-.62Zm19.19 26.27s-5.35 11.5-25.16 10.92c0 0 17 13.2 25.16-10.92" class="cls-11"/><path d="M119.86 52.39s-8.28-.17-8.51 7.93-3.41 24.37-10.35 28.37-15.89-31.88 4.46-42.14 42.24 8.3 44.06 20.22-2.41 3.77-2.41 3.77-10-8.17-15.1-15.46-12.15-2.69-12.15-2.69" class="cls-7"/><path d="M124.88 42S114 81.31 101 88.69s-5.89-30.43-5.89-30.43Z" class="cls-7"/><path d="M262.17 100a9.92 9.92 0 0 1 .5-6.83q3.06-7.75 7.92-11.81a70 70 0 0 1 12.78-8.13 65 65 0 0 0 9.09-5.46 14.36 14.36 0 0 0 4.7-6.32 8.91 8.91 0 0 0-.45-8q-2.13-3.74-7.45-5.83a22.6 22.6 0 0 0-9.83-1.6q-4.95.33-13.57 1.68-5.37.69-8.26-.45a7.11 7.11 0 0 1-4.28-4.94 11.44 11.44 0 0 1 .46-7.64 10.76 10.76 0 0 1 2.82-4.25 12.2 12.2 0 0 1 4.53-2.34 54.3 54.3 0 0 1 18.7-2.19 58.3 58.3 0 0 1 18.72 4 44.4 44.4 0 0 1 15.64 10 30.1 30.1 0 0 1 8.07 13.82 23.8 23.8 0 0 1-1 14.8 25.36 25.36 0 0 1-6.26 9.42 36.7 36.7 0 0 1-8.42 6q-4.4 2.22-11.54 5.2a97 97 0 0 0-12.18 5.47 18.4 18.4 0 0 0-6.79 6.54 8.36 8.36 0 0 1-4.28 3.5 7.52 7.52 0 0 1-5.27-.23 7 7 0 0 1-4.35-4.36m-16.59 31.14a14.83 14.83 0 0 1 7.42-18.7 13.35 13.35 0 0 1 10.75-.07 13.2 13.2 0 0 1 7.65 7.32 14.84 14.84 0 0 1-7.38 18.7 13.13 13.13 0 0 1-10.59.13 13.35 13.35 0 0 1-7.81-7.39m-14.14-44.51a5 5 0 0 1-2.2-2.68 14.6 14.6 0 0 1-1.22-7.08 35.3 35.3 0 0 1 1.85-7.43 34 34 0 0 0 1.42-5.16 7.25 7.25 0 0 0-.48-3.95 4.49 4.49 0 0 0-2.95-2.77 7.05 7.05 0 0 0-4.76.46A11.25 11.25 0 0 0 219 60.9q-1.71 1.85-4.39 5.34a8.7 8.7 0 0 1-3.18 2.76 3.59 3.59 0 0 1-3.3-.31 5.78 5.78 0 0 1-2.49-3 5.44 5.44 0 0 1-.45-2.53 6.4 6.4 0 0 1 .84-2.44 27.9 27.9 0 0 1 6.08-7.32 29.6 29.6 0 0 1 8.24-5.07 22.4 22.4 0 0 1 9.21-1.78 15.23 15.23 0 0 1 7.77 2.24 12 12 0 0 1 4.79 5.77 12.9 12.9 0 0 1 1 5.62 18.7 18.7 0 0 1-1 5.12c-.56 1.57-1.36 3.54-2.41 5.93a47.4 47.4 0 0 0-2.55 6.24 9.4 9.4 0 0 0-.21 4.76 4.18 4.18 0 0 1-.35 2.77 3.78 3.78 0 0 1-2 1.75 3.52 3.52 0 0 1-3.11-.07m4.78 17.17a7.51 7.51 0 0 1-3.82-9.41 6.76 6.76 0 0 1 3.91-3.77 6.68 6.68 0 0 1 5.35 0 7.5 7.5 0 0 1 3.82 9.42 6.6 6.6 0 0 1-3.83 3.73 6.7 6.7 0 0 1-5.43 0" style="fill:#f04"/><path d="M270.82 143.27c12.48-21.4 18.26-26.35 29.15-30.42s40.35-8.66 49.14-10.82 27.23 1 41.12 13.34S425.43 139 429.12 148s5.88 24.48 3.41 36-30.06 53.51-37.34 72.2-4.07 7.75-4.07 7.75-23.22-1.53-61.89-10.07c-37.47-8.39-59.81-16.62-59.81-16.62s-.82 8.5 3.17-15.28-1.77-78.71-1.77-78.71" class="cls-3"/><path d="M356.54 81.62c-2.27 10.17-11.07 27.16-11.07 27.16s3.31 20.9 21.3 24.34c14.25 2.73 23.72-12.94 23.72-12.94s-.4-19.4 2.82-29.85Z" class="cls-13"/><path d="M356 84.47s3.69 17.87 28.1 13.8c0 0-25.05 16.39-28.1-13.8" class="cls-14"/><path d="M270.82 143.27a66.6 66.6 0 0 1 12.73 6.22c5.92 3.86 11.31 11.77 11.31 11.77a239 239 0 0 0-12.81 26.61 176 176 0 0 0-7.11 23.68s68.53 15.63 83.13 25.18-1.59 15.57-15.35 16.78-72.79-4-87.35-19.5-8.54-35.14-5.29-46.59c4.65-15.88 20.74-44.15 20.74-44.15" class="cls-3"/><path d="M402.79 183.11a67.4 67.4 0 0 1 16.67-1.11c9.23.52 13.09 1.92 13.09 1.92s-5 42.69-19.57 63.86S381.62 268 368.75 264s-27.83-12.39-50.3-29.26S275 211.57 275 211.57s1.27-8.5 3-12.3c0 0 37.59 4.06 60.87 14.58s42 26.55 44 25.52c1.85-.96 11.66-22.03 19.92-56.26" class="cls-3"/><path d="M408.2 71.2s6.86.7 4.1 9.17-10 4.54-10 4.54Zm-51.67-19.03s-5.67-3.91-9.07 4.33 4.65 9.92 4.65 9.92Z" class="cls-14"/><path d="M407.66 74.65c-6.9 18.72-25.38 28.52-37.88 23.55s-21.1-25.2-14.21-43.92 16.86-31.66 39.16-23.81c25.67 9.09 19.79 25.53 12.93 44.18" class="cls-13"/><path d="M356.58 52.28s6.32-20.12 14.07-25.57 22.1-5 28.63-2.41c9.44 3.84 16.29 15.48 16.71 22 .35 6-2.63 14.81-3.72 17.52S408.55 72 408.55 72s1.18-4.68 3.08-12.56 2.86-14.46-3.76-18.54-11.32.76-15.88-.73-4.86-7.63-10.68-9.41-12.13-.27-16.51 7.42c-4.49 7.45-8.22 14.1-8.22 14.1m-1.28 3s-4.84 6.7-6.65 17.8-1.44 18.27-5.06 21.68-5.84 3-3.82 5.9 8.35.88 8.35.88-9.34 4.78-10.05 7 3.31 2.41 8.74 1c0 0-11 5.61-7.38 8.14s10.7-1.54 10.7-1.54-9 5.55-5.6 7.52 12 .67 20.39-2.35 22.14-12.28 27-18.26a85.5 85.5 0 0 0 11.65-20c1.22-2.83 3.69-7.31 3.69-7.31s-7.77 8.73-11.95 11.39-8.69 5.28-8.69 5.28-.2-2.44-3.17-6.27a33 33 0 0 1-4.6-9.55L375.68 75a15.5 15.5 0 0 1-5.68 2.57c-3.46.73-10.27 1.14-12.62 3.56 0 0-2.12-6.89-3.17-12.21-1.13-4.92 1.09-13.64 1.09-13.64" class="cls-15"/><path d="m382.32 62.67-9.78 10.45 3.52 2.58a4.7 4.7 0 0 0 2.5.91l4.49.2Z" class="cls-14"/><path d="M370.27 57.23a1.44 1.44 0 0 1-1.87.86 1.38 1.38 0 0 1-.86-1.86 1.45 1.45 0 0 1 1.87-.87 1.4 1.4 0 0 1 .86 1.87m24.66 11.09a1.46 1.46 0 1 0-.86-1.87 1.46 1.46 0 0 0 .86 1.87" class="cls-7"/><path d="M361.73 73.25a4.62 4.62 0 1 0-2.73-5.94 4.64 4.64 0 0 0 2.73 5.94m27.64 10.18a4.63 4.63 0 1 0-2.74-5.94 4.63 4.63 0 0 0 2.74 5.94" class="cls-14"/><path d="M380.73 91.6c-1.16 2.7-5.88 3.09-10.39 1.07s-7.3-5.85-6.14-8.55 4.07 1 8.6 3.14c4.65 2 9.23 1.63 7.93 4.34" class="cls-4"/><path d="M386.43 229.71a5.12 5.12 0 0 0 4.16 8.62h.2c6.09-.79 11.5-3.61 14-6a15.8 15.8 0 0 0 3.61-5c.11-.27.24-.54.37-.81a6.14 6.14 0 0 0-.64-6.41c-5.06-6.58-10.67 3.25-10.67 3.25-.37-.36-6.65 1.73-11.03 6.35M283.92 206a5.12 5.12 0 0 1-8.6 4.19l-.15-.14c-4.3-4.39-6.79-9.95-7.24-13.36a16.1 16.1 0 0 1 .28-6.18c.08-.28.15-.57.21-.86a6.14 6.14 0 0 1 4.48-4.64c8-2 6.36 9.16 6.36 9.16.46-.03 4.08 5.51 4.66 11.83" class="cls-13"/><path d="M391.25 246.65a65 65 0 0 0-60.2-105.35 65 65 0 1 0 39.15 122.23l18.32 5.34a4.9 4.9 0 0 0 6.19-5.71Zm-70.54-44.43a11.12 11.12 0 1 1-8.42-13.28 11.13 11.13 0 0 1 8.42 13.28m31 6.95a11.12 11.12 0 1 1-8.42-13.28 11.12 11.12 0 0 1 8.41 13.28Zm9.3 2.08a11.12 11.12 0 1 1 8.41 13.28 11.12 11.12 0 0 1-8.42-13.28Z" class="cls-15"/><circle cx="371.84" cy="213.69" r="11.12" class="cls-4" transform="rotate(-6.06 371.664 213.573)"/><circle cx="340.85" cy="206.74" r="11.12" class="cls-4" transform="rotate(-16.09 340.94 206.77)"/><circle cx="309.86" cy="199.79" r="11.12" class="cls-4" transform="rotate(-32.36 309.9 199.812)"/><path d="M406.38 204.73s-6.09.8-6.95-1.23.42-2.53 2.15-3.45 8.57-1.86 10.38-.73a4.28 4.28 0 0 1 1.48 5.48c-.92 2-4.74 5.1-6.63 5.71 1.67 1.37 2.72 3.07 1.79 4.32 1.47 1.15 2.29 2.06.58 5.31 2.16 2.09 0 6-.77 6.09s-12 .51-14-.92-1.56-2.76-1-3.64c-2.35-1.54-2.27-4.26.59-6.21-1.53-1.41-1.72-4.06 1.83-5.84s8-.71 8-.71Z" class="cls-13"/><path d="M394.7 215.55a.63.63 0 0 1-.29-.33.66.66 0 0 1 .36-.86 16.84 16.84 0 0 1 11.48-.33.66.66 0 1 1-.42 1.26 15.4 15.4 0 0 0-10.56.3.64.64 0 0 1-.57-.04m-.01 6.09a.62.62 0 0 1-.26-.27.66.66 0 0 1 .28-.89 15.6 15.6 0 0 1 11.85-1 .66.66 0 0 1 .43.83.65.65 0 0 1-.83.42 14.28 14.28 0 0 0-10.84.88.64.64 0 0 1-.63.03m1.52 5.01a.66.66 0 0 1-.34-.52.67.67 0 0 1 .6-.72l9.59-.85a.66.66 0 1 1 .12 1.31l-9.59.86a.7.7 0 0 1-.38-.08" class="cls-14"/><path d="M283.72 174.05s4.29 4.4 6.22 3.34 1.24-2.25.45-4-5.57-6.77-7.69-7a4.29 4.29 0 0 0-4.56 3.39c-.54 2.17.56 6.94 1.67 8.59-2.16.05-4 .73-4.09 2.28-1.86 0-3.06.2-3.74 3.81-3 .31-3.66 4.7-3.16 5.27s9.1 7.82 11.53 7.92 2.94-1.2 3-2.26c2.8.25 4.42-1.94 3.38-5.24 2.08-.16 3.87-2.13 2.19-5.72s-5.87-5.54-5.87-5.54Z" class="cls-13"/><path d="M286.19 189.78a.63.63 0 0 1-.46-.32 15.45 15.45 0 0 0-8.11-6.78.67.67 0 0 1-.4-.85.66.66 0 0 1 .84-.4 16.77 16.77 0 0 1 8.81 7.37.66.66 0 0 1-.24.9.68.68 0 0 1-.44.08m-3.76 4.78a.65.65 0 0 1-.5-.37 14.26 14.26 0 0 0-8-7.41.65.65 0 0 1-.39-.85.66.66 0 0 1 .85-.39 15.65 15.65 0 0 1 8.7 8.1.65.65 0 0 1-.32.87.64.64 0 0 1-.34.05m-4.29 3a.62.62 0 0 1-.35-.18l-7-6.61a.66.66 0 0 1 .9-1l7 6.61a.67.67 0 0 1-.56 1.14Z" class="cls-14"/></svg>