<?xml version="1.0" encoding="UTF-8"?>
<svg xmlns="http://www.w3.org/2000/svg" width="80" height="80" viewBox="0 0 80 80" fill="none">
  <path d="M56.9932 37.9879H42.0014V23.0068C42.0014 21.9014 41.1 21 39.9946 21C38.8893 21 37.9879 21.9014 37.9879 23.0068V37.9986H23.0068C21.9014 37.9986 21 38.9 21 40.0054C21 41.1107 21.9014 42.0121 23.0068 42.0121H37.9986V56.9932C37.9986 58.0986 38.9 59 40.0054 59C41.1107 59 42.0121 58.0986 42.0121 56.9932V42.0014H56.9932C58.0986 42.0014 59 41.1 59 39.9946C59 38.8893 58.0986 37.9879 56.9932 37.9879Z" fill="#374649"></path>
</svg>
