<svg xmlns="http://www.w3.org/2000/svg" id="Layer_1" data-name="Layer 1" viewBox="0 0 993.86 335.45"><defs><style>.cls-2{stroke-width:0;fill:#0073ff}</style></defs><path d="M414.28 121.06h48.52l10.73 31.98h24.99L452.97 23.55h-28.8l-45.63 129.49h25.07l10.68-31.98Zm23.68-70.91H439l17.5 52.14h-35.95zm106.37 102.89 34.53-97.15h-24.12l-22.3 72.21h-1.04l-22.47-72.21h-24.38l34.44 97.15zm43.64-97.15h22.82v97.16h-22.82zm11.45-13.65c3.59 0 6.68-1.22 9.28-3.65s3.9-5.39 3.9-8.87-1.3-6.34-3.9-8.78c-2.6-2.43-5.7-3.65-9.28-3.65s-6.77 1.22-9.37 3.65-3.9 5.39-3.9 8.86 1.3 6.34 3.9 8.78c2.6 2.43 5.73 3.65 9.37 3.65Zm101.5 97.86c3.53-4.69 5.29-10.08 5.29-16.16 0-6.89-2.26-12.51-6.77-16.86s-11.31-7.47-20.39-9.38l-16.57-3.48c-4.92-1.1-8.43-2.56-10.54-4.39-2.11-1.82-3.17-4.16-3.17-7 0-3.24 1.6-5.91 4.82-7.99 3.21-2.09 7.19-3.13 11.93-3.13 5.26 0 9.34 1.23 12.23 3.69s4.77 5.29 5.64 8.47l20.74-2.17c-1.56-8.23-5.6-14.79-12.1-19.68-6.51-4.89-15.46-7.34-26.85-7.34-7.75 0-14.58 1.22-20.48 3.65s-10.5 5.85-13.79 10.26c-3.3 4.4-4.94 9.62-4.94 15.64 0 7.07 2.23 12.88 6.68 17.43s11.34 7.84 20.65 9.86l16.57 3.48c8.68 1.97 13.01 5.68 13.01 11.12 0 3.25-1.65 5.98-4.94 8.21-3.3 2.23-7.67 3.35-13.1 3.35s-9.47-1.11-12.8-3.35c-3.33-2.23-5.48-5.52-6.46-9.86l-22.3 2.09c1.45 8.92 5.77 15.89 12.97 20.9s16.73 7.52 28.59 7.52c8.1 0 15.25-1.3 21.47-3.91s11.09-6.26 14.62-10.95Zm-228.09 40.55L439.26 282.5h-1.39L404.3 180.65h-25.77l45.63 129.48h28.81l45.55-129.48zm53.28 20.25h16.57l17.52-25.64h-22.03zm40.56 22.59c-4.14-4-8.88-6.95-14.23-8.86s-11-2.87-16.96-2.87c-9.26 0-17.29 2.12-24.12 6.34-6.83 4.23-12.12 10.13-15.88 17.69s-5.64 16.35-5.64 26.38 1.89 18.94 5.68 26.42 9.21 13.25 16.27 17.34c7.06 4.08 15.44 6.13 25.16 6.13 7.52 0 14.18-1.14 20-3.43 5.81-2.29 10.58-5.53 14.31-9.73q5.595-6.3 7.68-14.73l-21.34-2.52c-1.04 2.78-2.53 5.12-4.47 7s-4.25 3.29-6.94 4.21c-2.69.93-5.65 1.39-8.89 1.39-4.98 0-9.33-1.1-13.06-3.3s-6.62-5.4-8.68-9.6c-1.85-3.78-2.86-8.26-3.04-13.43h67.46v-7.13c0-8.52-1.19-15.86-3.56-22.03s-5.63-11.25-9.76-15.25Zm-43.6 9.56c3.47-2.32 7.66-3.48 12.58-3.48s9.02 1.16 12.32 3.48 5.78 5.52 7.46 9.6c1.2 2.92 1.96 6.21 2.3 9.86h-45.12c.3-3.65 1.14-7.03 2.56-10.12 1.79-3.91 4.43-7.02 7.9-9.34m116.34-21.38c-5.55 0-10.5 1.52-14.84 4.56s-7.37 7.4-9.11 13.08h-1.04v-16.34H592.3v97.16h22.82v-57.01q0-6.255 2.82-10.95c1.88-3.13 4.47-5.59 7.77-7.39 3.3-1.79 7.06-2.69 11.28-2.69 1.91 0 3.9.12 5.99.35 2.08.23 3.61.52 4.6.87v-21.03c-1.04-.17-2.36-.32-3.95-.43s-2.99-.17-4.21-.17Zm28.2-37.28c-3.64 0-6.77 1.22-9.37 3.65s-3.9 5.39-3.9 8.86 1.3 6.34 3.9 8.78c2.6 2.43 5.73 3.65 9.37 3.65s6.68-1.22 9.28-3.65 3.9-5.39 3.9-8.87-1.3-6.34-3.9-8.78c-2.6-2.43-5.7-3.65-9.28-3.65Zm-11.45 38.59h22.82v97.16h-22.82zm76.26-38.42c-5.55 0-10.63 1.07-15.23 3.22-4.6 2.14-8.26 5.39-10.98 9.73-2.72 4.35-4.08 9.79-4.08 16.34v9.13H687.9v17.73h14.23v79.43h22.73v-79.43h20.22v-17.73h-20.22v-7.48c0-3.82.91-6.78 2.73-8.86 1.82-2.09 4.84-3.13 9.07-3.13q2.775 0 4.95.48c1.45.32 2.63.65 3.56 1l4.68-17.73q-2.175-.78-6.81-1.74c-3.09-.64-6.64-.96-10.63-.96Zm24.03 38.42h22.82v97.16h-22.82zm11.45-38.59c-3.64 0-6.77 1.22-9.37 3.65s-3.9 5.39-3.9 8.86 1.3 6.34 3.9 8.78c2.6 2.43 5.73 3.65 9.37 3.65s6.68-1.22 9.28-3.65 3.9-5.39 3.9-8.87-1.3-6.34-3.9-8.78c-2.6-2.43-5.7-3.65-9.28-3.65Zm94.39.87h-22.03L828.2 200.9h16.57zm6.47 48.23c-4.14-4-8.88-6.95-14.23-8.86s-11-2.87-16.96-2.87c-9.26 0-17.3 2.12-24.12 6.34-6.83 4.23-12.12 10.13-15.88 17.69s-5.64 16.35-5.64 26.38 1.89 18.94 5.68 26.42 9.21 13.25 16.27 17.34c7.06 4.08 15.44 6.13 25.16 6.13 7.52 0 14.18-1.14 20-3.43 5.81-2.29 10.58-5.53 14.31-9.73q5.595-6.3 7.68-14.73l-21.34-2.52c-1.04 2.78-2.53 5.12-4.47 7s-4.25 3.29-6.94 4.21c-2.69.93-5.65 1.39-8.89 1.39-4.98 0-9.33-1.1-13.06-3.3s-6.62-5.4-8.68-9.6c-1.85-3.78-2.86-8.26-3.04-13.43h67.46v-7.13c0-8.52-1.19-15.86-3.56-22.03s-5.63-11.25-9.76-15.25Zm-43.6 9.56c3.47-2.32 7.66-3.48 12.58-3.48s9.02 1.16 12.32 3.48 5.78 5.52 7.46 9.6c1.2 2.92 1.96 6.21 2.3 9.86H814.7c.3-3.65 1.14-7.03 2.56-10.12 1.79-3.91 4.43-7.02 7.89-9.34Zm141.07 31.11c-4.51-4.35-11.31-7.47-20.39-9.38l-16.57-3.48c-4.92-1.1-8.43-2.56-10.54-4.39-2.11-1.82-3.17-4.16-3.17-7 0-3.24 1.6-5.91 4.82-7.99 3.21-2.09 7.19-3.13 11.93-3.13 5.26 0 9.34 1.23 12.23 3.69s4.77 5.29 5.64 8.47l20.74-2.17c-1.56-8.23-5.6-14.79-12.1-19.68-6.51-4.9-15.46-7.34-26.85-7.34-7.75 0-14.58 1.22-20.48 3.65s-10.5 5.85-13.79 10.26c-3.3 4.4-4.94 9.62-4.94 15.64 0 7.07 2.23 12.88 6.68 17.43s11.34 7.84 20.65 9.86l16.57 3.48c8.68 1.97 13.01 5.68 13.01 11.12 0 3.25-1.65 5.98-4.94 8.21-3.3 2.23-7.66 3.35-13.1 3.35s-9.47-1.11-12.8-3.35c-3.33-2.23-5.48-5.52-6.46-9.86l-22.3 2.09c1.45 8.92 5.77 15.89 12.97 20.9s16.73 7.52 28.59 7.52c8.1 0 15.25-1.3 21.47-3.91s11.09-6.26 14.62-10.95 5.29-10.08 5.29-16.16c0-6.9-2.26-12.51-6.77-16.86Z" style="fill:#090912;stroke-width:0"/><path d="M89.74 64.17c-40.3 0-72.97 32.67-72.97 72.97H139l23.71-72.97zm150.86 3.57c-12.45-38.33-53.62-59.3-91.95-46.85l37.77 116.25h76.73z" class="cls-2"/><path d="M283.82 212.32c32.6-23.69 39.83-69.32 16.14-101.93l-98.89 71.85 23.71 72.97 59.03-42.89Z" class="cls-2"/><path d="M159.67 298.1c32.6 23.69 78.24 16.46 101.93-16.14l-98.89-71.85-62.07 45.1z" class="cls-2"/><path d="M39.73 206.54c-12.45 38.33 8.52 79.5 46.85 91.95l37.77-116.25-62.07-45.1z" class="cls-2"/></svg>