<?xml version="1.0" encoding="UTF-8"?>
<svg xmlns="http://www.w3.org/2000/svg" width="80" height="80" viewBox="0 0 80 80" fill="none">
  <path d="M19.9 21.61C21.11 21.62 22.03 21.29 22.86 20.57C22.98 20.48 23.18 20.25 23.18 19.91C23.18 19.44 22.78 19.05 22.31 19.05C22.11 19.05 21.91 19.12 21.75 19.25C21.16 19.72 20.67 19.9 19.96 19.9C18.59 19.9 17.57 18.73 17.57 17.29C17.57 15.85 18.62 14.72 19.96 14.72C20.57 14.72 21.1 14.9 21.64 15.31C21.78 15.39 21.95 15.49 22.2 15.49C22.72 15.49 23.12 15.09 23.12 14.58C23.12 14.23 22.94 13.98 22.76 13.84C21.97 13.26 21.12 13 19.98 13C17.49 13 15.63 14.88 15.63 17.33C15.63 19.78 17.47 21.61 19.9 21.61Z" fill="#374649"></path>
  <path d="M25.67 21.47H29.95C30.42 21.46 30.79 21.09 30.79 20.62C30.79 20.15 30.42 19.78 29.95 19.78H26.59V14.01C26.59 13.49 26.18 13.08 25.66 13.08C25.14 13.08 24.73 13.48 24.73 14.01V20.55C24.73 21.07 25.13 21.48 25.66 21.48L25.67 21.47Z" fill="#374649"></path>
  <path d="M35.3 21.6C37.66 21.61 38.95 20.27 38.95 17.85V14.01C38.95 13.49 38.54 13.08 38.02 13.08C37.5 13.08 37.09 13.48 37.09 14.01V17.92C37.09 19.17 36.45 19.89 35.32 19.89C34.19 19.89 33.55 19.15 33.55 17.86V14C33.55 13.48 33.14 13.07 32.62 13.07C32.1 13.07 31.69 13.47 31.69 14V17.89C31.69 20.25 33.01 21.6 35.3 21.6Z" fill="#374649"></path>
  <path d="M41.73 21.47H44.76C46.74 21.48 47.88 20.64 47.88 19.16C47.88 18.16 47.41 17.53 46.35 17.12C47.07 16.71 47.41 16.11 47.41 15.31C47.41 14.75 47.22 14.27 46.84 13.89C46.36 13.41 45.61 13.15 44.66 13.15H41.72C41.2 13.15 40.79 13.55 40.79 14.08V20.55C40.79 21.07 41.19 21.48 41.72 21.48L41.73 21.47ZM42.61 14.78H44.39C44.83 14.78 45.57 14.9 45.57 15.64C45.57 16.22 45.14 16.5 44.28 16.5H42.62V14.78H42.61ZM42.6 18.05H44.69C46.03 18.05 46.03 18.73 46.03 18.96C46.03 19.36 45.81 19.84 44.76 19.84H42.6V18.05Z" fill="#374649"></path>
  <path d="M60.55 37.28C61.58 38.44 63.02 39.1 64.5 39.1H66.99V36.21H64.5C63.85 36.21 63.22 35.93 62.78 35.42C59.82 32.01 55.84 31.74 51.34 31.74H49.82V27.8C49.82 26.08 48.43 24.69 46.71 24.69H17.11C15.39 24.69 14 26.09 14 27.8V46.09C14 47.81 15.4 49.2 17.11 49.2H27.07V51C27.2 53.66 28.64 55.44 30.91 55.87C30.49 56.66 30.24 57.62 30.24 58.73C30.24 59.71 30.6 60.74 31.35 61.9C33.37 65.05 36.93 66.71 41.62 66.71H49.07C54.19 66.72 59.47 63.38 61.72 61.96L62.21 61.65H66.98V58.74H62.02C61.6 58.74 61.19 58.86 60.83 59.09C58.63 60.5 53.06 63.81 49.06 63.81H41.61C37.89 63.81 35.25 62.64 33.77 60.34C33.21 59.48 33.13 58.96 33.13 58.74C33.13 56.56 34.69 55.99 35.51 55.99H44.47C44.91 55.99 45.32 56.17 45.62 56.5C45.91 56.82 46.05 57.26 46.01 57.69C45.93 58.46 45.22 59.07 44.4 59.07H40.05V59.78C40.05 60.99 41.03 61.98 42.24 61.98H44.47C45.69 61.98 46.87 61.46 47.71 60.57C48.56 59.66 48.98 58.48 48.9 57.23C48.8 55.76 47.95 54.49 46.72 53.76C47.17 53.01 47.45 52.09 47.5 51.03V49.09C48.83 48.73 49.81 47.53 49.81 46.1V45.54C51.76 48.13 54.83 49.74 58.15 49.74H58.34C59.55 49.74 60.53 48.75 60.53 47.54V46.83H58.15C55.21 46.83 52.53 45.1 51.3 42.44L49.37 38.25H40.56C38.71 38.25 37.13 36.81 36.97 34.96L36.95 34.64H51.24C55.19 34.64 58.38 34.83 60.55 37.28ZM44.61 50.62C44.61 52.28 43.94 53.08 42.55 53.08H32.03C30.64 53.08 29.97 52.27 29.97 50.62V49.2H44.61V50.62ZM46.93 31.74H36.98C35.4 31.74 34.1 33.01 34.07 34.57C34.05 36.33 34.71 37.97 35.94 39.22C37.17 40.47 38.81 41.16 40.56 41.16H46.91V46.3H16.89V27.59H46.92V31.74H46.93Z" fill="#374649"></path>
  <path d="M22.79 40.18C22.94 40.33 23.11 40.36 23.22 40.36H23.23C23.39 40.36 23.55 40.3 23.66 40.19C23.74 40.11 23.85 39.96 23.85 39.74V34.16C23.85 33.77 23.52 33.54 23.22 33.54C23.1 33.54 22.94 33.57 22.79 33.72L20 36.51C19.88 36.63 19.82 36.78 19.82 36.95C19.82 37.12 19.88 37.28 20 37.39L22.79 40.18Z" fill="#374649"></path>
</svg>
