<?xml version="1.0" encoding="UTF-8"?>
<svg xmlns="http://www.w3.org/2000/svg" id="Calque_1" data-name="Calque 1" viewBox="0 0 250 250">
  <defs>
    <style>.cls-1{fill:#ffdec1;}.cls-2{fill:#fff;}.cls-3{fill:#ffc802;}.cls-4{fill:#f04;}.cls-5{fill:#ffad64;}.cls-6{fill:#132d32;}.cls-7{fill:#ff891f;}.cls-8{fill:#ff8920;}.cls-9{fill:#27c896;}.cls-10{fill:#ffc800;}.cls-11{fill:#d78f29;}.cls-12{fill:#d6e1e6;}.cls-13{fill:#2859ff;}.cls-14{fill:#ffe473;}.cls-15{fill:#5091f2;}</style>
  </defs>
  <title>consommation-solaire</title>
  <path class="cls-1" d="M125,0A125,125,0,1,0,250,125,125,125,0,0,0,125,0Zm7,61H53.2S43.937,38.534,65.88,39.7c0,0-2.3-28.562,24.715-27.39,14.765.641,18.937,13.775,18.937,13.775a25.135,25.135,0,0,1,21,1.947C141.285,34.276,139.144,53.337,132,61Z"></path>
  <path class="cls-2" d="M130.532,28.029a25.135,25.135,0,0,0-21-1.947s-4.173-13.134-18.937-13.775C63.578,11.135,65.88,39.7,65.88,39.7,43.937,38.534,53.2,61,53.2,61H132C139.144,53.337,141.285,34.276,130.532,28.029Z"></path>
  <path class="cls-3" d="M39,10C37,2,56.947.913,61.792,1.769s9.291,3.167,13.65,5.447c2.981,1.559,6.41,3.872,6.168,7.227-.1,1.358-.826,2.614-.9,3.974-.169,3.038,2.841,5.249,5.671,6.365s6.075,1.934,7.795,4.444c2.086,3.045.991,7.188-.445,10.588s-3.185,7.075-2.164,10.622c1.637,5.689,9.208,7.464,12.072,12.645a5.419,5.419,0,0,1,.752,2.477,8.367,8.367,0,0,1-1.541,4.158,55.964,55.964,0,0,0-3.8,8.039,6.036,6.036,0,0,0-.552,2.991,8,8,0,0,0,1.6,3.067c4.394,6.552,2.741,16.415-3.549,21.176a3.3,3.3,0,0,0-1.332,1.461,3.71,3.71,0,0,0-.038,1.353c.222,3.475-2.143,6.769-5.237,8.367a16.475,16.475,0,0,1-10.2,1.163,28.92,28.92,0,0,1-19.971-13.968,31.215,31.215,0,0,1-2.686-24.34c1.167-3.866,3.087-7.677,2.778-11.7-.36-4.7-3.646-8.567-5.689-12.812-4.083-8.483-3.151-18.415-2.128-27.773l1.153-10.555a13.335,13.335,0,0,0-.218-5.782c-.633-1.84-13.038.443-14.977.6Z"></path>
  <path class="cls-3" d="M42.083,11.074c-.975-4.905-6.3-7.841-11.282-8.225-9.461-.73-18.647,5.65-22.62,14.267s-3.212,18.925.582,27.622a6.645,6.645,0,0,1,.756,2.574,5.066,5.066,0,0,1-1.239,2.976c-2.169,2.841-5.507,4.943-6.572,8.354-.934,2.992.172,6.276,1.891,8.9s4.026,4.8,5.875,7.334A9.052,9.052,0,0,1,11.127,78.1a8.409,8.409,0,0,1-.36,4.321C9.615,86.162,7.27,89.4,5.644,92.958s-2.475,7.865-.578,11.284c1.719,3.1,5.439,4.993,6.305,8.429,1.221,4.843-3.961,9.344-3.444,14.311.45,4.32,4.818,6.9,7.862,10a4.229,4.229,0,0,1,1.228,1.892,4.048,4.048,0,0,1-.21,2.115c-1.525,4.877-5.763,9.821-3.491,14.4,1.333,2.686,4.485,3.92,7.439,4.439a28.1,28.1,0,0,0,10.686-.192,10.726,10.726,0,0,1,3.61-.427,10.152,10.152,0,0,1,3.111,1.2c3.566,1.783,7.622,3.038,11.52,2.205s7.431-4.307,7.2-8.287c-.156-2.663-1.891-5.215-1.315-7.819.5-2.256,2.6-3.795,4.726-4.7s4.442-1.424,6.363-2.709c4.911-3.285,5.529-10.317,4.369-16.111s-3.59-11.512-2.929-17.384c.671-5.96,4.49-11.374,4.349-17.37-.094-3.992-1.945-7.714-3.9-11.195q-3.138-5.58-6.775-10.86a19.605,19.605,0,0,1-2.845-5.08,24.076,24.076,0,0,1-.7-5.351,38.41,38.41,0,0,0-5.362-16.71c-2.4-3.989-5.594-7.681-6.569-12.233-1.031-4.812.24-10.764-3.519-13.94Z"></path>
  <path class="cls-4" d="M85.556,220.682l-11.378-24.02s-8.72,29.987-32.464,7.146c0,0-8.748-69.409,1.8-85.567,10.109-15.48,29.945-24.278,29.945-24.278l8.426-6.218s7.669-1.481,23.375-7.71,33.155-.21,33.155-.21l39.253,93.41Z"></path>
  <path class="cls-4" d="M87.34,83.849s17.42-17.3,40.332-13.379c20.371,3.483,39.64,23.093,39.64,23.093L142.36,112.079,121.948,86.267Z"></path>
  <path class="cls-5" d="M46.454,72.293c5.462,5.955,15.127,17.432,15.857,22.036a35.6,35.6,0,0,1,.191,7.781,6.109,6.109,0,0,0,1.648,4.646c3.973,4.209,14.377,11.364,32.351-1.656,8.144-5.9,9.769-11.693,9.4-15.959a8.03,8.03,0,0,0-5.789-7.055c-1.974-.546-4.66-1.93-7.511-5.283-5.978-7.032-25.447-33.17-25.447-33.17Z"></path>
  <path class="cls-5" d="M77.392,35.175c10.3,17.424,6.474,38.1-5.176,44.487-11.595,6.482-32.692.045-42.939-17.287S18.42,26.122,34.993,16.7C52.857,6.509,67.091,17.751,77.392,35.175Z"></path>
  <path class="cls-2" d="M53.794,65.549c1.472,2.489,5.713,2.719,9.4.539s5.586-5.915,4.114-8.4-2.766,1.635-6.545,3.869C57.114,63.586,52.415,63.005,53.794,65.549Z"></path>
  <path class="cls-6" d="M41.83,53.139a1.863,1.863,0,1,1-2.552-.656A1.878,1.878,0,0,1,41.83,53.139Z"></path>
  <path class="cls-6" d="M65.72,39.015a1.863,1.863,0,1,1-2.552-.656A1.878,1.878,0,0,1,65.72,39.015Z"></path>
  <path class="cls-7" d="M51.923,45.753l1.541,11.655,3.441-.914a4.025,4.025,0,0,0,1.936-1.145l2.443-2.813Z"></path>
  <path class="cls-7" d="M48.251,67.954a5.033,5.033,0,1,0-6.894-1.77A5.032,5.032,0,0,0,48.251,67.954Z"></path>
  <path class="cls-7" d="M72.126,53.839a5.033,5.033,0,1,0-6.893-1.771A5.033,5.033,0,0,0,72.126,53.839Z"></path>
  <path class="cls-3" d="M30.45,62.678s-5.619-14.344-6.664-20.321S24.463,28.77,37.092,21.3s20.971-4.933,25.444-.735c4.527,4.291,13.111,14.393,13.111,14.393s-.152-7.623-8.154-16.95S46.518,1.051,31.286,10.43,14.808,30.746,18.133,41.843C21.748,53.64,30.45,62.678,30.45,62.678Z"></path>
  <path class="cls-8" d="M81.776,61.974s-1.319,13.477-21.5,19.908c0,0,21.818,7.28,21.5-19.908"></path>
  <path class="cls-7" d="M71.816,30.323s4.8-5.636,10.663,1.888-2.041,11.56-2.041,11.56Z"></path>
  <path class="cls-7" d="M27.957,56.272s-7.245,1.519-3.439,10.268,11.128,3.735,11.128,3.735Z"></path>
  <path class="cls-4" d="M111.643,92.842s-6.883-26.29,16.03-22.373c20.371,3.483,39.64,23.093,39.64,23.093L142.36,112.079,121.948,86.267Z"></path>
  <path class="cls-9" d="M187.649,141.588C157.385,151.85,95.18,164.975,24.725,199.641a125.009,125.009,0,0,0,224.349-59.41C231.321,135.044,211.534,133.49,187.649,141.588Z"></path>
  <path class="cls-10" d="M201.121,51.742a4.011,4.011,0,0,1,2.331.865l16.74,24.312a33.127,33.127,0,0,0,7.814-20.26A33.815,33.815,0,0,0,160.421,54.3a33.159,33.159,0,0,0,1.223,10.175l37.146-12.3A6.612,6.612,0,0,1,201.121,51.742Z"></path>
  <path class="cls-11" d="M195.571,16.658h.042a1.247,1.247,0,0,0,1.244-1.2L197.32,2.21a1.246,1.246,0,0,0-1.2-1.286,1.245,1.245,0,0,0-1.291,1.2l-.463,13.247A1.248,1.248,0,0,0,195.571,16.658Z"></path>
  <path class="cls-11" d="M165.688,27a1.239,1.239,0,0,0,.862.39h.046a1.245,1.245,0,0,0,.905-2.1l-9.131-9.7a1.239,1.239,0,0,0-.871-.39,1.245,1.245,0,0,0-.942,2.1Z"></path>
  <path class="cls-11" d="M231.868,93.648l-.583-.619.884,1.284A1.209,1.209,0,0,0,231.868,93.648Z"></path>
  <path class="cls-11" d="M140.338,54.842l13.372.467h.046a1.245,1.245,0,0,0,.043-2.49l-13.372-.467a1.225,1.225,0,0,0-1.291,1.2A1.248,1.248,0,0,0,140.338,54.842Z"></path>
  <path class="cls-11" d="M248.089,56.113l-13.373-.466a1.245,1.245,0,1,0-.089,2.489L248,58.6h.044a1.246,1.246,0,0,0,.044-2.491Z"></path>
  <path class="cls-11" d="M223.765,29.393h.046a1.246,1.246,0,0,0,.845-.331l9.788-9.039a1.25,1.25,0,0,0,.065-1.758,1.236,1.236,0,0,0-.864-.4,1.176,1.176,0,0,0-.9.33l-9.788,9.039a1.245,1.245,0,0,0,.8,2.156Z"></path>
  <polygon class="cls-2" points="87.952 201.164 88.173 201.121 87.952 201.011 87.952 201.164"></polygon>
  <path class="cls-2" d="M95.948,91.215,71.075,109.687l2.031,87.241,9.906,5.113V180.813h.013c0-.056.013-.11.016-.166a11.152,11.152,0,0,1,11.186-10.515c.022,0,.043,0,.065,0s.053,0,.08,0a11.507,11.507,0,0,1,2.439.261c-.032.007-.063.017-.095.025a11.125,11.125,0,0,1,8.716,10.376h.009V209.73h0v3.892L126.12,224.3l.062-.843,4.186-73.778Zm6.11,52.7-13.02-4.041-.184.032v-7.609h.009c0-.022.005-.042.006-.064a6.524,6.524,0,0,1,6.545-6.183l.039,0,.047,0a6.731,6.731,0,0,1,1.426.152c-.018,0-.034.012-.052.016a6.506,6.506,0,0,1,5.094,6.067h.013v9.838l.077.022Z"></path>
  <path class="cls-12" d="M137.764,162.243l-7.4-12.561-4.186,73.778-.064,1.129,32.268-17.931c-.036-.152-.081-.3-.115-.454A42.105,42.105,0,0,1,225.6,163.964l3.183-40.374Z"></path>
  <path class="cls-13" d="M130.369,149.681l7.4,12.561,91.015-38.652L247,115.852,232.169,94.313l-.884-1.284L220.191,76.918l-16.74-24.312a4.011,4.011,0,0,0-2.331-.865,6.612,6.612,0,0,0-2.331.431l-37.146,12.3-13.93,4.612c.344,1.444-.028,2.834-1.687,3.219a4.512,4.512,0,0,1-3.007-.324l-.089.033c.982,2.95-.688,3.646-2.1,4.268a5.553,5.553,0,0,1-3.855-.239,3.134,3.134,0,0,1-2.049,3.568c-2.633,1.106-4.371-1.945-4.371-1.945s.069,4-2.884,4.368c-2.78.343-3.459-3.152-3.53-3.569.057.364.393,3.062-2.124,2.986C120.295,81.4,119.4,80.1,119,78.593L93.595,87l-.024-.04-42.9,33.031,20.44-3.634-.341-6.45.3-.223L95.948,91.215Zm47.745-80.691.612-.388.1.153,15.758-5.217a4.972,4.972,0,0,1,1.753-.324,3.017,3.017,0,0,1,1.753.65l15.482,22.484.167-.063.255.676,16.846,24.465-19.693,8.363.424.67-1.225.775-.552-.871-61.1,25.95-16.368-27.8-.117.044-.256-.678L115.39,89.758Z"></path>
  <polygon class="cls-10" points="83.011 181.225 83.011 181.231 83.011 181.217 83.011 181.225"></polygon>
  <path class="cls-10" d="M105.441,180.792h-.009a11.125,11.125,0,0,0-8.716-10.376,11.2,11.2,0,0,0-8.753,10.4h-.011v20.2l.221.11,17.268,8.609h0Z"></path>
  <path class="cls-10" d="M94.291,170.134c-.022,0-.043,0-.065,0A11.152,11.152,0,0,0,83.04,180.646,11.3,11.3,0,0,1,94.291,170.134Z"></path>
  <path class="cls-14" d="M87.952,181.344v-.531h.011a11.2,11.2,0,0,1,8.753-10.4c.032-.007.063-.018.095-.025a11.507,11.507,0,0,0-2.439-.261c-.027,0-.053,0-.08,0A11.3,11.3,0,0,0,83.04,180.646c0,.056-.014.11-.016.166h-.013v21.363l4.941-.85V181.344Z"></path>
  <path class="cls-10" d="M95.454,126.048l-.039,0a6.524,6.524,0,0,0-6.545,6.183A6.611,6.611,0,0,1,95.454,126.048Z"></path>
  <path class="cls-10" d="M91.75,132.293h-.005v6.94l.176-.041,10.06,2.927v-9.838h-.013a6.506,6.506,0,0,0-5.094-6.067A6.551,6.551,0,0,0,91.75,132.293Z"></path>
  <polygon class="cls-10" points="88.854 132.534 88.854 132.537 88.854 132.531 88.854 132.534"></polygon>
  <path class="cls-14" d="M91.921,139.192l-.176.041v-6.94h.005a6.551,6.551,0,0,1,5.125-6.079c.018,0,.034-.012.052-.016a6.731,6.731,0,0,0-1.426-.152l-.047,0a6.611,6.611,0,0,0-6.584,6.181c0,.022-.005.042-.006.064h-.009V139.9l.184-.032,13.02,4.041v-1.771l-.077-.022Z"></path>
  <path class="cls-2" d="M93.291,214.651l-5.936-3.174a2.58,2.58,0,0,0-1.881-.212l-2.173.594a2.56,2.56,0,0,0-.729,4.613l6.053,3.966a2.557,2.557,0,0,0,2.835-.016l2.055-1.388A2.561,2.561,0,0,0,93.291,214.651Z"></path>
  <path class="cls-2" d="M72.739,218.254l-8.609-4.736a2.562,2.562,0,0,0-1.925-.219l-4.4,1.234a2.561,2.561,0,0,0-.739,4.589l9.156,6.169a2.563,2.563,0,0,0,2.891-.02l3.85-2.67A2.561,2.561,0,0,0,72.739,218.254Z"></path>
  <polygon class="cls-15" points="157.635 108.972 173.737 134.397 172.513 135.173 156.25 109.494 132.318 118.512 148.687 146.314 209.791 120.365 193.918 95.301 157.635 108.972"></polygon>
  <polygon class="cls-15" points="131.689 117.201 155.459 108.244 139.671 83.315 140.896 82.54 156.844 107.722 193.126 94.051 177.501 69.378 178.114 68.991 115.39 89.758 131.945 117.879 131.689 117.201"></polygon>
  <path class="cls-15" d="M213.567,86.349,198.086,63.864a3.017,3.017,0,0,0-1.753-.65,4.972,4.972,0,0,0-1.753.324l-15.758,5.217,15.689,24.773Z"></path>
  <polygon class="cls-15" points="195.303 94.779 211.143 119.79 230.836 111.427 213.99 86.962 214.246 87.641 195.303 94.779"></polygon>
  <polygon class="cls-2" points="193.126 94.051 156.844 107.722 140.896 82.54 139.671 83.315 155.459 108.244 131.689 117.201 131.945 117.879 132.201 118.556 132.318 118.512 156.25 109.494 172.513 135.173 173.737 134.397 157.635 108.972 193.918 95.301 209.791 120.365 210.343 121.236 211.567 120.46 211.143 119.79 195.303 94.779 214.246 87.641 213.99 86.962 213.734 86.286 213.567 86.349 194.511 93.529 178.822 68.756 178.726 68.603 178.114 68.991 177.501 69.378 193.126 94.051"></polygon>
  <path class="cls-2" d="M190.013,155.81A42.113,42.113,0,0,0,158.271,206.2c.035.153.079.3.115.454a42.1,42.1,0,1,0,31.627-50.847Zm27.295,35.132a3.367,3.367,0,0,1,3.008,3.628,3.309,3.309,0,0,1-1.1,2.354L189.374,230.98l7.9-27.276-15.889-.866a3.472,3.472,0,0,1-1.908-5.982l29.746-34.062-7.9,27.276Z"></path>
  <path class="cls-10" d="M179.477,196.856a3.472,3.472,0,0,0,1.908,5.982l15.889.866-7.9,27.276,29.843-34.057a3.309,3.309,0,0,0,1.1-2.354,3.367,3.367,0,0,0-3.008-3.628l-15.986-.872,7.9-27.276Z"></path>
  <path class="cls-5" d="M122.02,81.449c2.517.076,2.18-2.622,2.124-2.986.071.417.75,3.912,3.53,3.569,2.953-.368,2.884-4.368,2.884-4.368s1.738,3.05,4.371,1.945a3.134,3.134,0,0,0,2.049-3.568,5.553,5.553,0,0,0,3.855.239c1.409-.622,3.079-1.318,2.1-4.268l-.247.092,0-.008a38.083,38.083,0,0,0-2.81-4.22l.564-.419a38.414,38.414,0,0,1,2.9,4.395l0,.008-.323.12a4.512,4.512,0,0,0,3.007.324c1.659-.385,2.031-1.774,1.687-3.219a5.456,5.456,0,0,0-2.859-3.646c-2.488-.987-4.409-.077-4.663,2.011-2.882-2.861-5.357-.424-5.357-.424s-2.219-1.674-4.144-.927a6.309,6.309,0,0,0-2.938,2.662,3.553,3.553,0,0,0-2.746-.265c-1.25.549-2.213,3.522-2.213,3.522a3.28,3.28,0,0,0-2.745-.268c-1.553.535-1.3,2.094-1.343,4.29A9.27,9.27,0,0,0,119,78.593C119.4,80.1,120.295,81.4,122.02,81.449Zm13.2-14.107c.013.05,1.315,5.077,1.792,7.146l-.684.158c-.477-2.06-1.775-7.077-1.789-7.129Zm-6.688,2.391a32.355,32.355,0,0,0,2.141,7.016l-.619.329a13.024,13.024,0,0,1-.674-1.525,39.4,39.4,0,0,1-1.539-5.691Zm-5.848,2.98.7.046a13.667,13.667,0,0,0,1.076,5.528l-.649.269c-.067-.16-.129-.32-.188-.477A14.006,14.006,0,0,1,122.686,72.713Z"></path>
  <path class="cls-7" d="M143.34,71.852a38.414,38.414,0,0,0-2.9-4.395l-.564.419a38.083,38.083,0,0,1,2.81,4.22l0,.008.247-.092.089-.033.323-.12Z"></path>
  <path class="cls-7" d="M136.33,74.645l.684-.158c-.477-2.069-1.778-7.1-1.792-7.146l-.681.175C134.555,67.568,135.853,72.586,136.33,74.645Z"></path>
  <path class="cls-7" d="M129.382,75.553a13.024,13.024,0,0,0,.674,1.525l.619-.329a32.355,32.355,0,0,1-2.141-7.016l-.691.129A39.4,39.4,0,0,0,129.382,75.553Z"></path>
  <path class="cls-7" d="M123.813,78.556l.649-.269a13.667,13.667,0,0,1-1.076-5.528l-.7-.046a14.006,14.006,0,0,0,.938,5.366C123.684,78.237,123.746,78.4,123.813,78.556Z"></path>
  <path class="cls-5" d="M58.91,179.233c-2.58-.712-4.392.4-4.418,2.5-3.174-2.533-5.371.158-5.371.158s-2.387-1.424-4.22-.474a6.309,6.309,0,0,0-2.633,2.964,3.553,3.553,0,0,0-2.758.033c-1.183.681-1.819,3.74-1.819,3.74a3.28,3.28,0,0,0-2.758.031c-1.486.7-1.064,2.223-.871,4.41s1.189,5.234,3.879,5.02c2.506-.2,1.886-2.833,1.789-3.2.122.426,1.178,3.8,3.895,3.164,2.9-.685,2.4-4.654,2.4-4.654s2.058,2.845,4.556,1.461a3.134,3.134,0,0,0,1.652-3.768,5.553,5.553,0,0,0,3.859-.179c1.334-.771,2.919-1.643,1.623-4.47l-.236.118,0-.007a38.076,38.076,0,0,0-3.25-3.892l.516-.477a38.409,38.409,0,0,1,3.362,4.055l0,.007-.308.154a4.513,4.513,0,0,0,3.024,0C64.128,184.775,61.582,179.971,58.91,179.233Zm-19.5,15.316c-.084-.151-.163-.3-.239-.454a14.007,14.007,0,0,1-1.513-5.234l.7-.03a13.667,13.667,0,0,0,1.667,5.379Zm6.046-2.144a13.015,13.015,0,0,1-.835-1.443,39.4,39.4,0,0,1-2.145-5.492l.673-.2a32.348,32.348,0,0,0,2.887,6.743Zm5.975-3.1c-.7-2-2.529-6.844-2.549-6.894l.658-.247c.019.048,1.856,4.905,2.553,6.91Z"></path>
  <path class="cls-7" d="M58.1,185.773a38.409,38.409,0,0,0-3.362-4.055l-.516.477a38.076,38.076,0,0,1,3.25,3.892l0,.007.236-.118.085-.042.308-.154Z"></path>
  <path class="cls-7" d="M48.882,182.415c.02.05,1.852,4.9,2.549,6.894l.663-.231c-.7-2-2.535-6.862-2.553-6.91Z"></path>
  <path class="cls-7" d="M42.476,185.47a39.4,39.4,0,0,0,2.145,5.492,13.015,13.015,0,0,0,.835,1.443l.58-.394a32.348,32.348,0,0,1-2.887-6.743Z"></path>
  <path class="cls-7" d="M37.658,188.862a14.007,14.007,0,0,0,1.513,5.234c.076.15.155.3.239.454l.616-.338a13.667,13.667,0,0,1-1.667-5.379Z"></path>
  <path class="cls-3" d="M39.263,9.98a92.418,92.418,0,0,1,1.47,23.732c-.107,1.554-.357,3.29-1.544,4.083-1.36.908-3.284.1-4.645-1.059s-2.5-2.686-4.042-3.516a116.49,116.49,0,0,1,.436,13.369c-.082,3.249-.528,6.916-3.009,8.539a28.137,28.137,0,0,1-8.885-10.243,13.137,13.137,0,0,1-1.714-6.109A13.09,13.09,0,0,1,18.685,33.8,50.7,50.7,0,0,1,37.727,11.377Z"></path>
  <path class="cls-3" d="M39.233,19.587l20.234,6.685c4.39,1.45,9.074,2.915,13.349,1.778a1.792,1.792,0,0,0,.982-.521,1.878,1.878,0,0,0,.242-1.361c-.282-2.763-1.882-5.288-3.433-7.681a23.928,23.928,0,0,0-3.973-5.063c-2.782-2.465-6.491-3.44-10.047-3.89a22.823,22.823,0,0,0-10.375.691,11.086,11.086,0,0,0-7.106,6.867"></path>
</svg>
