<?xml version="1.0" encoding="UTF-8"?>
<svg xmlns="http://www.w3.org/2000/svg" xmlns:xlink="http://www.w3.org/1999/xlink" version="1.1" id="Calque_2" x="0px" y="0px" viewBox="0 0 40 40" style="enable-background:new 0 0 40 40;" xml:space="preserve">
<style type="text/css">
	.st0{fill:#4D7889;}
</style>
<path class="st0" d="M24.2,26.7V22c0-1.1,0-2.6-1.5-2.6c-1.6,0-1.8,1.2-1.8,2.5v4.8h-3v-9.6h2.9v1.3h0c0.3-0.5,0.7-0.9,1.2-1.2  c0.5-0.3,1.1-0.4,1.6-0.4c3,0,3.6,2,3.6,4.6v5.3H24.2z M16,26.7h-3v-9.6h3L16,26.7L16,26.7z M17.9,17.1L17.9,17.1L17.9,17.1z   M12.8,14c0-0.3,0.1-0.7,0.3-1c0.2-0.3,0.5-0.5,0.8-0.6c0.3-0.1,0.7-0.2,1-0.1c0.3,0.1,0.6,0.2,0.9,0.5c0.2,0.2,0.4,0.6,0.5,0.9  c0.1,0.3,0,0.7-0.1,1c-0.1,0.3-0.4,0.6-0.6,0.8c-0.3,0.2-0.6,0.3-1,0.3c-0.5,0-0.9-0.2-1.2-0.5C13,14.9,12.8,14.5,12.8,14L12.8,14z"></path>
</svg>
