<?xml version="1.0" encoding="UTF-8"?>
<svg xmlns="http://www.w3.org/2000/svg" xmlns:xlink="http://www.w3.org/1999/xlink" version="1.1" id="Calque_2" x="0px" y="0px" viewBox="0 0 40 40" style="enable-background:new 0 0 40 40;" xml:space="preserve">
<style type="text/css">
	.st0{fill:#4D7889;}
</style>
<path class="st0" d="M20,27.2c0,0-4.8,0-6.2-0.2c-0.1,0-0.2,0-0.3,0c-0.7,0-1.3-0.3-1.7-0.8c-0.5-0.6-0.7-2-0.7-2  c-0.1-1.1-0.2-2.2-0.2-3.3v-1.5c0-1.6,0.2-3.3,0.2-3.3c0,0,0.2-1.4,0.7-2c0.2-0.3,0.5-0.5,0.8-0.6c0.3-0.1,0.6-0.2,1-0.2h0l0.1,0  c2.5-0.2,6.4-0.2,6.4-0.2c0,0,3.9,0,6.4,0.2l0.1,0c0.3,0,0.7,0.1,1,0.2s0.6,0.4,0.8,0.6c0.5,0.6,0.7,2,0.7,2c0,0,0.2,1.7,0.2,3.3  v1.5c0,1.6-0.2,3.3-0.2,3.3c0,0-0.2,1.4-0.7,2c-0.2,0.3-0.5,0.5-0.8,0.6c-0.3,0.1-0.6,0.2-1,0.2h0l-0.1,0C23.9,27.2,20,27.2,20,27.2  z M17.7,16.7v7.1l6-3.5L17.7,16.7z"></path>
</svg>
