<?xml version="1.0" encoding="UTF-8"?>
<svg xmlns="http://www.w3.org/2000/svg" width="350" height="350" viewBox="0 0 350 350" fill="none">
  <path d="M128.927 67.8608L132.201 81.2609C138.739 81.9204 145.15 83.5086 151.241 85.9775C151.324 84.7525 151.409 83.559 151.495 82.4075C154.235 45.8521 148.569 31.8605 139.29 30.0202C136.988 29.5672 134.646 29.3575 132.3 29.3944C134.054 34.0219 134.929 38.936 134.881 43.8844C135.108 62.0557 128.927 67.8608 128.927 67.8608Z" fill="#D7EBFF"></path>
  <path d="M324.541 179.219C323.248 178.766 321.926 178.4 320.585 178.123C319.381 187.052 317.634 195.899 315.351 204.614C311.423 219.664 304.31 256.801 301.018 274.322C305.416 273.01 310.035 272.605 314.594 273.13C319.153 273.655 323.559 275.1 327.543 277.377C355.097 236.607 352.227 196.152 333.486 179.461C332.527 180.846 328.995 180.83 324.541 179.219Z" fill="#D7EBFF"></path>
  <path d="M85.9159 69.034C89.2339 72.6369 92.5862 75.8576 95.8412 79.0244C95.0138 72.8 93.877 64.54 92.6667 56.63C91.8992 56.4478 91.1949 56.062 90.6283 55.5131C90.0616 54.9643 89.6534 54.2728 89.4467 53.5115C86.5366 56.6685 83.6876 60.0728 80.8997 63.7245C82.7288 65.2561 84.3185 67.3001 85.9159 69.034Z" fill="#D7EBFF"></path>
  <path d="M65.8217 242.78C66.2074 255.413 67.3155 271.156 68.8359 284.776C71.3522 287.613 73.8911 290.339 76.4526 292.953C75.3508 280.153 74.1426 264.827 72.9288 249.368C70.4239 247.323 68.0502 245.123 65.8217 242.78Z" fill="#D7EBFF"></path>
  <path d="M66.5987 202.871C67.5577 204.24 68.5419 205.611 69.5387 206.972C68.3837 193.174 67.3232 181.618 66.4643 174.848C66.738 178.367 66.7443 191.1 66.5987 202.871Z" fill="#D7EBFF"></path>
  <path d="M36.1053 200.784C35.8407 200.28 35.5775 199.776 35.3241 199.279C35.2777 209.943 36.4045 220.579 38.6841 230.996C38.3341 226.641 38.0261 222.857 37.8021 219.911C37.6299 217.594 36.8802 209.44 36.1053 200.784Z" fill="#D7EBFF"></path>
  <path d="M30.1189 171.233C30.844 162.094 32.1234 153.008 33.95 144.024C34.5478 141.161 35.2478 138.265 36.0227 135.359L29.4518 116.669C27.3098 120.228 26.4817 124.421 24.6533 128.149C22.8249 131.877 19.3991 135.38 15.2481 135.24C14.7686 135.22 14.2923 135.152 13.8264 135.037C5.09321 165.649 7.483 190.161 13.1684 205.443C19.0904 221.362 27.8187 218.266 28.5271 203.228C28.8071 197.332 28.959 189.797 29.4273 181.293C29.3302 177.925 29.5619 174.556 30.1189 171.233Z" fill="#D7EBFF"></path>
  <path d="M96.2696 327.04C83.7529 321.716 64.4896 307.923 53.3001 296.18C42.1106 284.438 24.9564 253.417 23.4276 244.725C21.1806 231.946 11.8307 242.806 10.1976 251.709C3.96341 285.729 19.9794 317.867 34.2363 328.849C53.501 343.689 87.5189 340.757 96.7904 339.571C106.062 338.386 113.338 334.3 96.2696 327.04Z" fill="#D7EBFF"></path>
  <path d="M308.206 8.89002C308.198 8.86692 308.193 8.84522 308.185 8.82002C308.185 8.82002 300.289 0.840017 294.395 5.89892C291.754 8.16482 295.049 11.3694 299.131 13.1509C301.132 11.4843 303.428 10.2083 305.9 9.38912C306.659 9.18075 307.429 9.01414 308.206 8.89002Z" fill="#D7EBFF"></path>
  <path d="M218.662 50.19C218.283 54.1436 217.993 57.8837 217.776 61.4376C223.303 61.5223 228.671 63.2951 233.162 66.5182C233.354 65.2267 233.512 63.9632 233.617 62.7676C232.072 59.1976 231.461 54.9703 231.307 50.7017C230.052 50.6851 228.839 50.2452 227.865 49.4534C226.89 48.6616 226.212 47.5642 225.939 46.3388C225.666 45.1134 225.815 43.8317 226.361 42.7013C226.907 41.5709 227.819 40.6578 228.948 40.11C228.682 38.3619 228.563 36.5944 228.594 34.8264C228.791 21.9289 235.06 11.3631 248.964 9.73001C248.775 9.71041 248.59 9.68451 248.399 9.66701C230.316 7.97721 212.756 13.1985 198.078 21.4865C205.493 24.9242 218.409 33.32 218.662 50.19Z" fill="#D7EBFF"></path>
  <path d="M191.148 25.76C190.168 26.4185 189.204 27.0888 188.258 27.7711C188.948 28.0464 189.624 28.3574 190.282 28.7028L191.148 25.76Z" fill="#D7EBFF"></path>
  <path d="M272.469 20.6857C272.749 21.2079 273.019 21.7483 273.258 22.3006C273.421 22.6583 273.572 23.0286 273.717 23.3982C273.792 23.5858 273.862 23.7797 273.931 23.9736C275.15 27.4525 275.727 31.1239 275.633 34.8089C275.603 38.0874 274.983 41.3337 273.805 44.3933C275.066 45.0759 276.016 46.2182 276.457 47.5829C276.897 48.9475 276.795 50.4295 276.172 51.7209C275.548 53.0123 274.451 54.0137 273.108 54.5172C271.766 55.0207 270.281 54.9874 268.962 54.4243C267.965 58.0277 266.431 61.4605 264.412 64.6072C264.536 68.6498 264.935 72.6792 265.607 76.6675C266.292 75.6035 266.906 74.6725 267.427 73.9067C267.47 73.85 267.517 73.796 267.567 73.745C267.968 72.8504 270.227 68.5755 276.837 68.355C281.968 68.1835 285.971 67.9966 287.937 67.8979C287.942 67.6515 287.961 67.5122 287.961 67.5122C287.961 67.5122 295.298 65.6789 296.808 60.9609C297.333 59.3229 298.052 56.175 298.768 52.7639C291.039 49.3885 281.989 47.3522 282.134 39.4219C282.192 36.2453 283.792 32.179 286.236 28.063C281.046 22.3363 274.714 17.7604 267.648 14.63C269.612 16.3359 271.247 18.3886 272.469 20.6857Z" fill="#D7EBFF"></path>
  <path d="M24.6512 128.153C26.4796 124.423 27.3112 120.23 29.4497 116.673L36.0206 135.363L37.0314 138.236C37.3046 139.274 37.8286 140.228 38.5574 141.016C38.828 141.259 39.1336 141.459 39.4639 141.611C43.4289 132.452 48.1661 123.647 53.6242 115.291C59.4727 106.628 69.2692 98.8491 81.158 92.8522C81.123 91.7987 81.0439 90.7459 80.9102 89.7022C80.4728 86.3176 79.5402 83.0156 78.1424 79.9022C76.7168 76.7256 74.8375 73.7727 72.5634 71.1361C72.3198 70.8561 72.8343 70.5397 73.0758 70.8204C74.3715 72.3232 75.5421 73.9294 76.5758 75.6231C78.3906 78.5939 79.7643 81.8125 80.654 85.1781C81.2882 87.589 81.6607 90.0612 81.7649 92.5519C86.626 90.1488 91.6524 88.0956 96.8058 86.408C96.5769 84.6146 96.2458 82.0645 95.844 79.0314C92.5897 75.8646 89.2374 72.6439 85.9187 69.041C84.3213 67.3071 82.7316 65.261 80.9032 63.7343C80.7464 63.6034 80.5917 63.4697 80.4314 63.3472C76.3609 60.2308 70.889 59.7506 65.7636 59.8339C64.8095 59.8493 63.8666 59.9207 62.9328 60.0166C62.776 60.4436 62.5975 60.9077 62.4001 61.4033C62.8607 62.636 63.2037 63.3311 63.2037 63.3311C62.3607 64.2508 61.4528 65.1089 60.487 65.8987C59.0212 69.1964 57.26 72.9372 55.6661 76.251C55.195 77.2298 54.4847 78.074 53.6009 78.7055C52.717 79.337 51.6882 79.7354 50.6095 79.8638C49.5309 79.9922 48.4373 79.8465 47.4299 79.4401C46.4225 79.0338 45.5339 78.3799 44.8462 77.539C40.8793 72.688 36.183 66.871 34.2685 64.2061C33.1037 64.589 31.948 64.9824 30.8126 65.4038C30.3324 66.8129 29.7409 68.1989 29.1529 69.5492C28.4962 71.2553 27.6194 72.8682 26.5447 74.347C25.7637 75.1921 25.0306 76.0801 24.3488 77.007C23.4045 78.5127 23.1476 80.3362 22.9348 82.1002C21.9912 89.929 23.6887 97.7991 23.6411 105.685L20.6178 106.54C18.4385 107.16 16.1506 107.3 13.9121 106.95C11.6735 106.599 9.53776 105.767 7.65239 104.51C8.93129 100.516 10.9704 91.8995 12.4341 84.8911C6.27409 97.552 1.68209 112.051 5.73089 125.516C6.98669 129.69 9.75939 134.071 13.8257 135.036C14.2916 135.151 14.7679 135.219 15.2474 135.239C19.3991 135.38 22.82 131.88 24.6512 128.153ZM26.2304 91.8554C26.0484 87.8451 26.0365 83.8278 26.0267 79.8154C26.0267 79.4822 26.6399 79.4416 26.6406 79.7762C26.6462 82.0225 26.6518 84.2688 26.6882 86.5144C26.7526 90.4974 26.9108 94.4811 27.3308 98.4438C27.7249 102.41 28.4641 106.335 29.54 110.173C29.6324 110.494 29.05 110.671 28.9569 110.349C28.3378 108.18 27.835 105.98 27.4505 103.758C26.7912 99.8206 26.3832 95.8449 26.2304 91.8554Z" fill="#FFC802"></path>
  <path d="M76.573 75.6161C75.5393 73.9224 74.3687 72.3161 73.073 70.8134C72.8315 70.5334 72.317 70.8463 72.5606 71.1291C74.8347 73.7657 76.714 76.7185 78.1396 79.8952C79.5374 83.0086 80.47 86.3106 80.9074 89.6952C81.0411 90.7452 81.1174 91.7952 81.1552 92.8452C81.3554 92.7444 81.557 92.6443 81.7586 92.5442C81.6544 90.0535 81.2819 87.5813 80.6477 85.1704C79.7591 81.8052 78.3865 78.5869 76.573 75.6161Z" fill="#D78F29"></path>
  <path d="M28.9562 110.349C29.0486 110.671 29.6317 110.495 29.5393 110.173C28.4637 106.334 27.725 102.408 27.3315 98.4403C26.9115 94.4776 26.7533 90.4946 26.6889 86.5109C26.6525 84.2653 26.6469 82.019 26.6413 79.7727C26.6413 79.4388 26.0267 79.4787 26.0274 79.8119C26.0372 83.8278 26.0484 87.8451 26.2311 91.8519C26.3838 95.8404 26.7909 99.8152 27.4498 103.752C27.8341 105.976 28.3369 108.178 28.9562 110.349Z" fill="#D78F29"></path>
  <path d="M44.8434 77.532C45.5311 78.3729 46.4197 79.0267 47.4271 79.4331C48.4345 79.8394 49.5281 79.9852 50.6067 79.8568C51.6854 79.7283 52.7142 79.33 53.5981 78.6985C54.4819 78.067 55.1922 77.2228 55.6633 76.244C57.2565 72.9302 59.0184 69.1894 60.4842 65.8917C61.45 65.1018 62.3579 64.2438 63.2009 63.3241C63.2009 63.3241 62.8579 62.629 62.3973 61.3963C62.5947 60.9007 62.7732 60.4366 62.93 60.0096C62.9405 59.9809 62.9531 59.9487 62.9636 59.92C62.4953 59.71 62.0858 59.5287 61.7036 59.36C60.3196 54.9033 59.7677 50.23 60.0754 45.5735L41.4645 45.5588C41.4645 47.593 41.1551 51.0601 40.7925 54.4229C39.6613 59.8171 39.0978 61.2073 34.2671 64.1984C36.1802 66.864 40.8765 72.681 44.8434 77.532Z" fill="#B6503A"></path>
  <path d="M20.6178 106.54L23.6404 105.68C23.6873 97.7942 21.9905 89.9248 22.9341 82.0953C23.1441 80.3306 23.4038 78.5071 24.3481 77.0021C25.0299 76.0752 25.763 75.1871 26.544 74.3421C27.6187 72.8633 28.4955 71.2504 29.1522 69.5443C29.7402 68.194 30.3317 66.8073 30.8119 65.3989C31.7713 62.9553 32.0558 60.2987 31.6358 57.7073C31.605 57.5308 31.5245 57.3667 31.4039 57.2342C31.2833 57.1017 31.1275 57.0063 30.9547 56.959C30.5648 56.8673 30.3205 57.1305 30.1287 57.3916C29.2635 58.5676 28.9065 60.0376 28.1967 61.3116C27.405 62.7333 25.8538 64.0115 24.227 63.3563C23.6836 63.1204 23.2372 62.7059 22.9615 62.1815C22.6859 61.6571 22.5977 61.0544 22.7115 60.473C23.0944 58.2435 25.4982 57.2782 27.5184 57.6625C28.0815 57.8524 28.6837 57.8963 29.2684 57.7899C29.4028 57.749 29.5274 57.6808 29.6344 57.5897C29.7413 57.4985 29.8283 57.3863 29.89 57.26C29.9612 57.0851 29.9751 56.8922 29.9296 56.7089C29.8842 56.5257 29.7819 56.3615 29.6373 56.2401C27.1257 53.2756 21.7917 53.4905 19.5265 56.6475C19.4434 52.5082 19.3606 48.3688 19.278 44.2295C19.2605 43.3454 19.2213 42.3934 18.5332 41.7536C18.3646 41.5886 18.1528 41.4745 17.9223 41.4244C17.6917 41.3742 17.4517 41.3901 17.2298 41.4701C16.6698 41.6913 16.5543 42.2366 16.4598 42.7385L14.9457 50.96L13.4953 46.5318C13.3499 45.7653 12.9092 45.0866 12.2682 44.6418C12.0967 44.5443 11.9027 44.493 11.7054 44.493C11.5081 44.493 11.3142 44.5443 11.1426 44.6418C10.5896 44.9764 10.598 45.6421 10.6393 46.2217C10.9837 51.0708 11.6117 55.8955 12.5202 60.6711L5.74001 54.4271C5.64218 54.3333 5.52049 54.2681 5.38819 54.2386C5.25589 54.2091 5.11803 54.2164 4.98961 54.2598C4.42401 54.4698 4.60741 55.2349 4.87551 55.7298C6.55763 58.8385 8.6578 61.702 11.1174 64.2404C11.9167 64.9296 12.5462 65.7938 12.957 66.766C13.2118 67.5696 14.0217 73.2718 14.1939 74.4625C14.3101 75.2668 13.5338 79.625 12.4341 84.8925C10.9697 91.9009 8.93411 100.517 7.65241 104.511C9.53789 105.768 11.6737 106.6 13.9122 106.95C16.1508 107.3 18.4387 107.16 20.6178 106.54Z" fill="#B6503A"></path>
  <path d="M91.0875 220.336C89.5811 214.904 87.9324 208.753 86.1413 201.883C81.0168 182.277 77.0147 162.396 74.1545 142.335C74.1545 142.335 51.765 166.396 54.8345 181.208C55.9657 186.519 60.837 194.648 66.6008 202.87C66.7471 191.096 66.7408 178.366 66.465 174.847C67.3239 181.616 68.3851 193.173 69.5394 206.971C79.1371 220.091 89.8142 232.281 89.8142 232.281C89.6736 233.006 89.4204 233.704 89.0638 234.35L89.6357 234.653C89.9675 229.845 90.4729 225.03 91.0875 220.336Z" fill="#285AFF"></path>
  <path d="M90.4211 263.554C89.9598 260.7 89.6441 257.715 89.4481 254.645C84.826 253.785 80.4331 251.974 76.5485 249.325C76.0027 249.872 75.3931 250.351 74.7327 250.753C74.1412 250.324 73.5378 249.853 72.9281 249.364C74.1419 264.824 75.3501 280.148 76.4519 292.949C83.1599 299.821 90.3557 306.199 97.9832 312.033C96.8366 298.593 95.9625 286 95.361 274.254C92.9985 271.939 91.21 268.415 90.4211 263.554Z" fill="#285AFF"></path>
  <path d="M36.1053 200.784C36.8802 209.439 37.6299 217.594 37.8056 219.911C38.0296 222.857 38.3348 226.641 38.6876 230.996C41.7109 244.366 46.865 256.633 54.5447 267.072C59.2114 273.412 63.9749 279.313 68.8352 284.776C67.3148 271.156 66.2074 255.413 65.821 242.78C55.1831 231.739 43.5239 214.925 36.1053 200.784Z" fill="#285AFF"></path>
  <path d="M123.946 294.388L124.41 280.353C122.424 279.809 120.61 278.768 119.138 277.328C117.667 275.888 116.586 274.096 115.999 272.123C109.805 278.47 100.974 279.769 95.361 274.259C95.9677 285.989 96.8418 298.581 97.9832 312.037C105.39 317.698 113.243 322.752 121.464 327.147L124.719 294.415L123.946 294.388Z" fill="#5091F2"></path>
  <path d="M284.894 284.858C285.519 266.545 285.751 252.407 285.822 247.18C278.768 249.985 271.414 251.969 263.907 253.095C263.744 256.598 263.39 260.09 262.845 263.554C260.382 278.797 248.023 280.899 239.224 273.897L240.3 280.874L240.42 280.862L240.469 281.967L242.388 294.409C242.388 294.409 241.914 294.448 241.023 294.514L242.933 337.805C255.91 333.725 268.365 328.141 280.043 321.165C277.284 315.285 276.275 308.736 277.136 302.299C277.996 295.862 280.69 289.808 284.895 284.859L284.894 284.858Z" fill="#FFC802"></path>
  <path d="M175.335 295.986C149.563 295.249 128.869 294.555 124.72 294.414L121.465 327.146C162.73 349.131 205.875 349.434 242.932 337.803L241.022 294.513C234.589 294.99 206.274 296.891 175.335 295.986Z" fill="#27C896"></path>
  <path d="M240.419 280.862L240.299 280.874L240.468 281.966L240.419 280.862Z" fill="#27C896"></path>
  <path d="M320.585 178.123C317.279 177.41 313.235 176.907 308.579 176.352C307.975 178.703 307.207 181.009 306.281 183.252C302.585 192.045 297.76 197.252 292.57 200.22C290.89 217.834 291.24 244.621 291.24 244.621C289.492 245.592 287.682 246.447 285.821 247.18C285.751 252.407 285.519 266.545 284.894 284.857C289.137 279.861 294.738 276.201 301.018 274.321C304.308 256.801 311.422 219.663 315.351 204.613C317.634 195.898 319.381 187.052 320.585 178.123Z" fill="#FF0044"></path>
  <path d="M325.251 44.6145C325.936 44.8183 326.67 44.7833 327.332 44.5153C327.994 44.2473 328.545 43.7622 328.896 43.1396C329.19 42.6004 329.328 41.9897 329.294 41.3763C329.261 40.7628 329.056 40.171 328.704 39.6676C328.682 39.7026 328.662 39.7376 328.64 39.7733C327.604 41.4507 326.473 43.0671 325.251 44.6145Z" fill="#FF891F"></path>
  <path d="M302.023 79.7643C288.531 77.2128 287.893 69.6843 287.936 67.8958C285.97 67.9938 281.968 68.1807 276.837 68.3529C270.228 68.5755 267.968 72.8511 267.566 73.7429C268.986 72.121 273.688 72.6383 277.007 75.7848C280.2 78.8879 279.327 83.8544 277.586 87.0954C288.397 91.9842 299.399 96.2311 302.646 101.049C307 107.502 311.22 119.132 311.309 128.629C324.154 131.662 327.668 136.077 328.12 136.717C329.262 129.645 329.722 122.48 329.495 115.32C329.201 107.12 328.436 98.9442 327.205 90.832C327.205 90.832 327.054 84.0175 334.625 82.7771C342.248 81.6144 342.669 84.0924 342.669 84.0924L342.683 84.154L342.734 84.105C340.409 73.9333 329.286 71.1445 322.03 69.2923H321.96C321.899 69.468 317.337 82.6623 302.023 79.7643Z" fill="#27C896"></path>
  <path d="M311.812 150.135C311.573 158.53 310.738 168.131 308.578 176.352C313.232 176.908 317.278 177.411 320.584 178.123C321.926 178.4 323.247 178.766 324.54 179.219C328.994 180.829 332.526 180.847 333.486 179.461C333.894 178.872 333.847 178.034 333.193 176.95C331.159 173.576 328.917 160.073 325.397 151.076C320.847 151.395 316.275 151.079 311.812 150.135Z" fill="#27C896"></path>
  <path d="M325.251 44.6145C326.473 43.0668 327.604 41.4501 328.639 39.7726C328.661 39.7376 328.681 39.7026 328.703 39.6669C329.506 38.3724 330.239 37.0356 330.898 35.6622C331.043 33.096 331.549 29.2012 330.123 25.0446C329.633 23.6329 328.909 22.314 327.981 21.1435C327.549 20.6063 327.008 20.1672 326.393 19.8555C323.312 22.1478 319.637 23.5067 315.805 23.7706C312.945 23.9473 310.08 23.5068 307.405 22.4791C306.462 23.3419 305.661 24.3477 305.031 25.4597C305.087 25.5073 305.125 25.5416 305.125 25.5416L302.579 32.0943C301.82 34.6352 301.488 37.2845 301.596 39.9343C301.793 42.4333 302.21 44.7783 302.602 47.117C304.315 49.2888 306.644 50.8928 309.284 51.7189C311.924 52.545 314.752 52.5547 317.398 51.7468C308.652 57.8207 304.706 53.5297 303.028 49.8708C303.293 51.6323 303.438 53.4097 303.463 55.1908C301.964 54.2575 300.393 53.4439 298.765 52.7576C298.05 56.1687 297.331 59.3166 296.805 60.9546C295.295 65.6726 287.958 67.5059 287.958 67.5059C287.958 67.5059 287.939 67.6459 287.933 67.8916C287.89 69.6787 288.528 77.2086 302.021 79.7601C317.334 82.6574 321.896 69.4638 321.956 69.286V69.2776C321.956 69.2776 316.239 66.8927 315.528 64.498C315.178 63.308 315.398 61.0344 315.867 58.5382C316.299 56.2345 316.939 53.7474 317.53 51.7433C320.507 49.8451 323.122 47.431 325.251 44.6145Z" fill="#FFAD64"></path>
  <path d="M327.981 21.1442C328.91 22.3147 329.634 23.6337 330.123 25.0453C331.55 29.2019 331.043 33.0953 330.899 35.6629C330.878 36.0374 330.865 36.3839 330.866 36.6982L336.705 25.3981L325.891 13.6738C323.339 14.7014 321.719 15.8242 318.733 16.8077C316.312 17.5483 313.95 18.471 311.667 19.5678C312.966 19.1772 314.257 18.7278 315.525 18.3078C319.475 16.9953 323.942 15.974 327.676 17.8129L327.695 18.802C327.275 19.1754 326.842 19.5277 326.395 19.859C327.009 20.1701 327.55 20.6082 327.981 21.1442Z" fill="#B8CAD3"></path>
  <path d="M334.624 82.7792C327.056 84.0196 327.204 90.8341 327.204 90.8341C328.435 98.9463 329.199 107.122 329.493 115.322C329.72 122.482 329.26 129.647 328.119 136.719C327.667 136.079 324.152 131.665 311.307 128.631C311.307 128.777 311.317 128.926 311.317 129.072C311.846 136.079 312.009 143.11 311.807 150.135C316.269 151.078 320.841 151.395 325.391 151.075C330.16 150.738 334.766 149.205 338.786 146.618C350.743 138.753 345.813 97.356 342.676 84.1554L342.662 84.0938C342.662 84.0938 342.246 81.62 334.624 82.7792Z" fill="#FFAD64"></path>
  <path d="M277.586 87.0982C279.327 83.8572 280.2 78.8907 277.007 75.7876C273.687 72.6376 268.985 72.1231 267.566 73.7457C267.516 73.7967 267.469 73.8507 267.426 73.9074C266.908 74.6739 266.294 75.6042 265.606 76.6682C265.899 78.5162 266.204 80.199 266.47 81.5759C269.914 83.5345 273.736 85.3573 277.586 87.0982Z" fill="#FFAD64"></path>
  <path d="M317.398 51.7475C314.752 52.5554 311.924 52.5457 309.284 51.7196C306.644 50.8935 304.315 49.2895 302.602 47.1177C302.754 48.0326 302.898 48.9496 303.028 49.8715C304.706 53.5304 308.652 57.82 317.398 51.7475Z" fill="#FF891F"></path>
  <path d="M298.766 52.7618C300.393 53.4481 301.964 54.2617 303.464 55.195C303.439 53.4139 303.293 51.6365 303.029 49.875C302.899 48.9531 302.755 48.0368 302.602 47.1212C302.212 44.7825 301.794 42.4375 301.596 39.9385C301.488 37.2888 301.821 34.6394 302.58 32.0985L302.323 32.7607C302.323 32.7607 298.859 30.0489 300.446 26.3739C301.885 23.0048 304.522 25.0285 305.032 25.4639C305.662 24.352 306.463 23.3461 307.406 22.4833C310.081 23.511 312.945 23.9515 315.806 23.7748C319.637 23.5109 323.312 22.152 326.394 19.8597C326.842 19.526 327.275 19.1737 327.694 18.8027L327.676 17.8136C323.941 15.974 319.475 16.996 315.524 18.3085C314.254 18.7285 312.966 19.1807 311.667 19.5685C313.949 18.4717 316.311 17.549 318.732 16.8084C321.719 15.8284 323.338 14.7021 325.891 13.6745L336.703 25.3988L330.865 36.6989C330.865 36.3846 330.877 36.0374 330.898 35.6636C330.238 37.037 329.506 38.3738 328.702 39.6683C329.055 40.1717 329.259 40.7635 329.293 41.377C329.327 41.9904 329.189 42.6011 328.894 43.1403C328.544 43.7629 327.993 44.248 327.33 44.516C326.668 44.784 325.935 44.819 325.25 44.6152C323.123 47.4327 320.51 49.8482 317.535 51.7482C316.944 53.7523 316.303 56.2394 315.871 58.5431C318.34 60.1219 321.044 61.2979 323.882 62.027C328.789 63.322 333.91 63.5292 338.984 63.6783C337.013 60.7231 335.815 57.321 335.499 53.7831C335.183 50.2452 335.759 46.6845 337.174 43.4266C338.014 41.5415 339.134 39.7943 340.089 37.9666C341.131 35.9678 341.979 33.8733 342.621 31.7121C343.221 29.9481 343.459 28.081 343.321 26.2227C343.007 24.2406 342.242 22.3571 341.085 20.7179C337.935 15.869 332.61 11.9238 326.879 12.2185C325.869 10.9074 323.895 10.199 322.162 9.81541C317.584 8.80111 312.796 8.14381 308.202 8.89421C307.425 9.01866 306.657 9.18551 305.899 9.39401C303.425 10.2131 301.127 11.4896 299.125 13.1572C293.985 17.3324 289.62 22.3794 286.229 28.0672C283.784 32.1832 282.184 36.2488 282.126 39.4261C281.987 47.3501 291.036 49.3864 298.766 52.7618Z" fill="#B8CAD3"></path>
  <path d="M305.032 25.4604C304.522 25.025 301.882 23.0013 300.446 26.3704C298.859 30.0454 302.323 32.7572 302.323 32.7572L302.58 32.095L305.126 25.5423C305.126 25.5423 305.088 25.508 305.032 25.4604Z" fill="#FF891F"></path>
  <path d="M292.569 200.22C297.759 197.25 302.584 192.045 306.28 183.252C307.206 181.009 307.974 178.703 308.578 176.352C310.738 168.131 311.573 158.53 311.812 150.135C312.015 143.111 311.851 136.08 311.322 129.072C311.322 128.927 311.315 128.778 311.313 128.631C311.225 119.136 307.005 107.505 302.651 101.051C299.401 96.2339 288.399 91.987 277.591 87.0982C273.741 85.3573 269.918 83.5345 266.475 81.5759C266.904 83.8012 267.231 85.2257 267.231 85.2257C267.231 85.2257 262.273 99.2957 250.454 99.4805C235.536 99.715 229.433 83.5905 229.433 83.5905C229.433 83.5905 230.109 81.1783 230.927 77.7448C228.169 79.0384 223.047 81.1223 217.359 83.4806C218.076 108.556 223.014 120.231 223.723 129.657C227.413 131.242 230.856 133.349 233.948 135.913C233.948 135.913 237.912 138.223 242.838 145.121C245.941 149.163 248.43 153.64 250.226 158.409C252.125 162.809 253.73 167.329 255.032 171.94C258.131 172.89 261.137 173.865 263.939 174.775C272.65 177.604 279.531 179.838 281.05 178.674C281.966 177.974 283.459 173.317 285.376 155.131C286.526 144.22 287.283 133.482 287.291 133.375L287.634 133.398C287.511 135.153 284.586 176.394 281.259 178.946C280.574 179.316 279.783 179.44 279.019 179.296C276.009 179.059 270.619 177.309 263.829 175.104C261.093 174.215 258.159 173.265 255.14 172.336C257.689 181.61 259.426 191.088 260.331 200.663C264.461 201.66 268.946 202.592 273.727 203.378L273.671 203.718C268.925 202.937 264.475 202.014 260.366 201.025C260.779 205.155 261.099 209.523 261.3 214.162C263.218 226.68 264.538 240.552 263.909 253.097C271.417 251.972 278.77 249.987 285.824 247.183C287.684 246.449 289.495 245.594 291.243 244.623C291.243 244.623 290.89 217.834 292.569 200.22Z" fill="#2859FF"></path>
  <path d="M228.593 34.8264C228.563 36.5944 228.681 38.3619 228.948 40.11C229.457 39.8633 230.002 39.6957 230.562 39.613L231.482 41.9496C231.445 41.1489 231.492 40.3466 231.622 39.5556H231.676C231.705 39.2476 231.737 38.9452 231.769 38.6456C231.839 38.2445 231.909 37.8931 231.965 37.6523C232.595 34.7305 236.218 32.3883 235.935 29.4623C235.596 25.9434 237.825 21.9765 240.035 21.5068C242.245 21.0371 246.944 21.4053 252.574 21.6741C258.17 21.9401 266.237 20.979 269.433 23.5592C272.628 26.1394 266.59 29.6345 271.082 34.8705C272.622 36.6625 272.214 41.3308 271.869 44.0923L271.864 44.1336L272.21 43.827C272.769 43.9336 273.308 44.1256 273.809 44.3961C274.987 41.3365 275.606 38.0902 275.637 34.8117C275.73 31.1267 275.153 27.4553 273.935 23.9764C273.865 23.7825 273.795 23.5886 273.72 23.401C273.575 23.0314 273.424 22.6611 273.261 22.3034C273.022 21.7511 272.754 21.2114 272.472 20.6885C271.25 18.3902 269.616 16.3363 267.651 14.6293C264.011 11.4793 259.211 9.60402 253.41 9.51582C251.927 9.4902 250.444 9.56269 248.97 9.73282C235.06 11.3624 228.791 21.9282 228.593 34.8264Z" fill="#132D32"></path>
  <path d="M229.428 83.587C229.428 83.587 235.532 99.715 250.45 99.477C262.268 99.2908 267.226 85.2222 267.226 85.2222C267.226 85.2222 266.901 83.7977 266.471 81.5724C266.205 80.1955 265.901 78.5134 265.607 76.6647C264.936 72.6783 264.537 68.6507 264.412 64.61C266.431 61.4633 267.965 58.0305 268.962 54.4271C269.771 51.7839 270.38 49.3171 271.001 47.4187C271.346 46.3253 271.634 45.2151 271.866 44.0923C272.211 41.3308 272.616 36.6625 271.079 34.8705C266.588 29.6345 272.626 26.1331 269.43 23.5592C266.234 20.9853 258.167 21.9408 252.571 21.6741C246.941 21.406 242.236 21.0308 240.032 21.5068C237.828 21.9828 235.593 25.9434 235.932 29.4623C236.212 32.3911 232.595 34.7333 231.962 37.6523C231.909 37.8931 231.839 38.2445 231.766 38.6456C231.734 38.9473 231.703 39.2497 231.673 39.5556C231.58 40.5594 231.5 41.5933 231.438 42.6664C231.291 45.2564 231.209 47.9829 231.308 50.6968C231.463 54.9668 232.073 59.1934 233.618 62.7627C233.512 63.9583 233.355 65.2218 233.162 66.5133C232.584 70.3955 231.692 74.5171 230.922 77.7392C230.105 81.1755 229.428 83.587 229.428 83.587ZM233.8 62.454C233.8 62.454 239.705 76.097 258.503 68.8128C258.506 68.81 241.237 86.03 233.8 62.454Z" fill="#B6503A"></path>
  <path d="M231.437 42.6692C231.5 41.5961 231.577 40.5622 231.673 39.5584H231.618C231.488 40.3494 231.441 41.1517 231.478 41.9524L230.558 39.6158C229.174 39.8235 227.919 40.5442 227.041 41.6348C226.164 42.7254 225.729 44.1061 225.823 45.5026C225.917 46.8991 226.533 48.2092 227.548 49.1726C228.563 50.1361 229.904 50.6825 231.303 50.7031C231.21 47.9857 231.29 45.2564 231.437 42.6692Z" fill="#A2290F"></path>
  <path d="M268.962 54.4243C269.681 54.7332 270.458 54.887 271.241 54.8758C272.024 54.8645 272.796 54.6885 273.506 54.3591C274.217 54.0297 274.85 53.5543 275.364 52.9639C275.879 52.3736 276.263 51.6815 276.492 50.9327C276.721 50.1839 276.79 49.3952 276.694 48.618C276.598 47.8408 276.34 47.0926 275.936 46.4219C275.531 45.7513 274.99 45.1734 274.348 44.7258C273.705 44.2782 272.975 43.971 272.206 43.8242L271.86 44.1308L271.865 44.0895C271.634 45.2123 271.345 46.3225 271.001 47.4159C270.379 49.3115 269.77 51.7811 268.962 54.4243Z" fill="#A2290F"></path>
  <path d="M258.506 68.81C239.708 76.097 233.8 62.454 233.8 62.454C241.237 86.03 258.506 68.81 258.506 68.81Z" fill="#A2290F"></path>
  <path d="M65.8217 242.78C68.0499 245.123 70.4234 247.323 72.9281 249.368C73.5378 249.858 74.1419 250.328 74.7327 250.757C75.3931 250.356 76.0027 249.876 76.5485 249.329C76.4687 249.273 76.3868 249.218 76.3084 249.161C80.3544 245.5 86.0034 239.538 88.739 234.181L89.061 234.352C89.4176 233.705 89.6708 233.007 89.8114 232.282C89.8114 232.282 79.1343 220.093 69.5366 206.972C68.5412 205.612 67.557 204.242 66.5966 202.872C60.8328 194.65 55.9615 186.52 54.8303 181.209C51.7629 166.398 74.1503 142.336 74.1503 142.336C77.012 162.396 81.0155 182.276 86.1413 201.88C87.9244 208.753 89.5732 214.903 91.0875 220.333C93.1472 205.118 96.2221 190.057 100.292 175.253C100.292 175.253 103.951 152.68 119.084 141.522C125.639 136.692 133.377 132.287 140.141 128.281L156.843 114.52L162.075 114.19C162.285 111.102 162.998 100.286 163.199 91.6083C159.32 89.5122 155.329 87.6317 151.243 85.9754C145.152 83.5065 138.741 81.9183 132.203 81.2588L132.996 84.5061C132.996 84.5061 133.162 98.7287 118.664 100.732C104.166 102.735 97.16 89.2346 97.16 89.2346C97.16 89.2346 97.0312 88.1972 96.8023 86.401C91.6489 88.0886 86.6225 90.1417 81.7614 92.5449C81.5598 92.645 81.3582 92.7444 81.158 92.8459C69.2692 98.8428 59.4727 106.62 53.6242 115.285C48.1661 123.641 43.4289 132.446 39.4639 141.605C35.2079 151.324 31.6036 161.827 30.1182 171.229C29.5609 174.552 29.3291 177.921 29.4259 181.289C29.4875 184.203 30.0276 187.086 31.0247 189.825C32.1496 192.722 33.6084 195.915 35.3241 199.275C35.5775 199.772 35.8414 200.275 36.1053 200.779C43.5239 214.925 55.1831 231.738 65.8217 242.78Z" fill="#27C896"></path>
  <path d="M89.6343 234.654L89.0624 234.352L88.7404 234.181C86.0048 239.538 80.3558 245.5 76.3098 249.161C76.3882 249.218 76.4701 249.273 76.5499 249.329C80.4345 251.978 84.8274 253.789 89.4495 254.649C89.0726 247.987 89.1343 241.308 89.6343 234.654Z" fill="#FFAD64"></path>
  <path d="M103.663 27.4729C103.513 35.5572 97.8929 39.3316 96.453 40.6798C96.4824 43.1928 97.6745 49.8617 97.6745 49.8617L94.4258 48.2167L95.3778 56.735C94.4757 56.8869 93.552 56.8521 92.6639 56.6328C93.8742 64.5428 95.011 72.7986 95.8384 79.0244C96.2416 82.0575 96.5713 84.6076 96.8002 86.401C97.0291 88.1944 97.1579 89.2346 97.1579 89.2346C97.1579 89.2346 104.162 102.738 118.66 100.735C133.157 98.7315 132.992 84.5089 132.992 84.5089L132.198 81.2616L128.925 67.8615C128.925 67.8615 135.106 62.0564 134.879 43.8837C134.928 38.9356 134.053 34.0218 132.3 29.3944C131.59 27.6034 130.683 25.897 129.596 24.3068C119.75 28.9464 103.663 27.4729 103.663 27.4729ZM103.725 75.2437C99.9243 70.8869 97.9566 64.1046 97.4477 61.2577C99.4581 64.6751 105.449 71.7458 113.338 72.6859C116.231 73.0165 119.161 72.6686 121.896 71.6698C124.631 70.6711 127.096 69.0489 129.095 66.9319C121.706 79.5837 108.475 80.6897 103.725 75.2437Z" fill="#FFAD64"></path>
  <path d="M113.339 72.6859C105.449 71.7458 99.4574 64.6758 97.4491 61.2577C97.958 64.1046 99.9257 70.8869 103.726 75.2437C108.476 80.6897 121.708 79.5837 129.099 66.9319C127.099 69.0492 124.634 70.6715 121.899 71.6703C119.163 72.6691 116.232 73.0168 113.339 72.6859Z" fill="#FF891F"></path>
  <path d="M94.1206 45.4615L94.4286 48.2167L97.6773 49.8617C97.6773 49.8617 96.4873 43.1921 96.4558 40.6798C97.8936 39.3316 103.514 35.5572 103.666 27.4729C103.666 27.4729 119.752 28.9464 129.599 24.3068C131.207 23.5826 132.684 22.5951 133.968 21.385C142.173 13.2881 129.103 9.66487 124.378 14.7056C124.378 14.7056 125.844 8.81997 120.808 7.87357C115.786 7.00907 112.728 13.8502 112.728 13.8502C112.728 13.8502 106.799 12.1401 101.411 14.8659C96.1044 17.577 92.1578 22.7311 90.6136 30.0559C88.9882 37.3968 90.573 46.2623 90.573 46.2623L90.7347 46.3442C91.2072 45.9707 91.7522 45.6994 92.335 45.5475C92.9178 45.3955 93.5258 45.3662 94.1206 45.4615Z" fill="#B8CAD3"></path>
  <path d="M92.6667 56.63C93.5548 56.8493 94.4785 56.8841 95.3806 56.7322L94.43 48.2167L94.122 45.4615C93.5269 45.3662 92.9184 45.3955 92.3352 45.5477C91.7519 45.6999 91.2067 45.9716 90.734 46.3456C89.8065 47.1443 89.0624 48.5975 89.1086 51.2253C89.1118 52.0006 89.2261 52.7714 89.4481 53.5143C89.6551 54.2749 90.0633 54.9657 90.6297 55.514C91.1961 56.0623 91.8997 56.4478 92.6667 56.63Z" fill="#FF891F"></path>
  <path d="M109.673 241.882L109.533 241.208C109.456 241.244 109.374 241.278 109.286 241.31C109.414 241.492 109.543 241.683 109.673 241.882Z" fill="#0039A9"></path>
  <path d="M245.236 220.065C245.236 220.065 244.788 220.399 244.128 220.814L244.894 224.508C245.052 224.456 245.149 224.427 245.149 224.427L245.236 220.065Z" fill="#0039A9"></path>
  <path d="M261.298 214.159C261.096 209.521 260.777 205.151 260.364 201.022C264.473 202.011 268.923 202.934 273.669 203.715L273.725 203.375C268.943 202.589 264.462 201.657 260.329 200.66C259.423 191.085 257.686 181.607 255.137 172.333C258.159 173.262 261.087 174.213 263.826 175.101C270.616 177.305 276.006 179.056 279.016 179.293C279.781 179.437 280.572 179.313 281.256 178.943C284.584 176.391 287.508 135.15 287.631 133.396L287.288 133.372C287.281 133.479 286.525 144.218 285.374 155.128C283.457 173.314 281.963 177.969 281.048 178.671C279.529 179.836 272.648 177.601 263.937 174.773C261.137 173.863 258.127 172.887 255.03 171.938C253.728 167.326 252.123 162.806 250.224 158.407C248.426 153.637 245.935 149.16 242.83 145.118C237.907 138.218 233.94 135.91 233.94 135.91C230.85 133.346 227.408 131.239 223.72 129.654C223.518 129.57 223.315 129.48 223.114 129.401C218.066 127.35 213.316 124.631 208.992 121.316C209.587 121.778 210.136 122.182 210.613 122.498C213.24 124.239 198.316 151.182 175.204 151.663C164.698 151.881 153.146 140.908 140.143 128.283C133.379 132.289 125.641 136.692 119.085 141.525C103.953 152.683 100.293 175.255 100.293 175.255C96.2235 190.059 93.1485 205.12 91.0889 220.335C90.4736 225.029 89.9689 229.844 89.635 234.653C89.1349 241.306 89.073 247.984 89.4495 254.645C89.6455 257.716 89.9612 260.7 90.4225 263.554C91.2079 268.415 92.9999 271.94 95.3624 274.259C100.976 279.769 109.806 278.471 116 272.123C115.904 271.797 115.812 271.468 115.741 271.13L111.872 252.475C111.162 253.419 110.115 254.05 108.95 254.239C107.785 254.427 106.593 254.157 105.622 253.485C105.572 253.45 105.522 253.414 105.472 253.378C101.019 250.074 98.0035 245.478 97.1194 242.507L97.1103 242.477C96.5429 240.688 96.3289 238.806 96.4803 236.935C96.5104 236.673 96.5286 236.404 96.544 236.132C96.5611 235.859 96.5983 235.588 96.6553 235.32C96.5153 233.999 96.9654 231.508 98.9793 230.971C99.0668 227.656 100.113 227.307 101.772 227.045C101.597 225.649 103.167 224.776 105.087 224.428C103.865 223.119 102.208 219.018 102.382 217.011C102.425 216.449 102.583 215.902 102.846 215.404C103.109 214.906 103.473 214.468 103.913 214.116L102.492 207.267C102.168 205.707 102.155 204.1 102.453 202.536C102.751 200.971 103.354 199.481 104.228 198.15C105.102 196.819 106.229 195.673 107.546 194.777C108.863 193.882 110.343 193.255 111.902 192.931L187.804 177.567C187.289 173.047 187.867 168.469 189.491 164.219C191.116 159.969 193.738 156.172 197.137 153.148C200.536 150.124 204.612 147.962 209.022 146.843C213.432 145.724 218.046 145.682 222.475 146.72C227.135 147.816 231.442 150.072 234.995 153.28C238.549 156.488 241.232 160.542 242.797 165.066C244.362 169.59 244.757 174.436 243.946 179.154C243.134 183.871 241.142 188.307 238.155 192.048L242.98 215.311C244.575 214.208 246.283 213.303 247.236 213.346C248.178 213.414 249.061 213.824 249.72 214.5C250.379 215.175 250.768 216.068 250.813 217.011C250.988 219.017 249.33 223.118 248.109 224.427C250.028 224.777 251.599 225.649 251.424 227.044C253.081 227.306 254.129 227.655 254.216 230.971C256.23 231.508 256.678 233.998 256.54 235.32C256.597 235.587 256.634 235.859 256.651 236.132C256.668 236.403 256.685 236.672 256.715 236.934C256.867 238.805 256.653 240.687 256.085 242.477L256.076 242.507C255.383 244.835 253.375 248.161 250.397 251.081L254.1 268.889L225.475 261.3L130.075 280.54C128.199 280.929 126.257 280.866 124.41 280.354L123.945 294.389L124.72 294.416C128.87 294.556 149.563 295.25 175.335 295.987C206.275 296.892 234.589 294.991 241.022 294.517C241.913 294.452 242.388 294.412 242.388 294.412L240.468 281.97L240.299 280.878L239.223 273.901C248.023 280.901 260.382 278.801 262.844 263.558C263.389 260.093 263.744 256.602 263.906 253.098C264.536 240.549 263.216 226.678 261.298 214.159Z" fill="#0039A9"></path>
  <path d="M204.126 54.8429C204.228 54.8317 204.33 54.8163 204.434 54.8128C207.224 54.7288 209.576 57.6772 209.684 61.3977C209.793 65.1182 207.623 68.201 204.833 68.2836C204.565 68.2884 204.296 68.2649 204.033 68.2136C203.042 74.9953 200.209 81.3749 195.843 86.6572C196.015 95.1251 196.871 103.565 198.403 111.895L198.5 111.889C198.5 111.889 198.769 112.193 199.275 112.724C201.17 114.517 205.757 118.797 208.989 121.311C213.314 124.626 218.063 127.346 223.111 129.397C223.312 129.476 223.515 129.566 223.717 129.65C223.008 120.226 218.07 108.549 217.354 83.4736C217.17 77.0651 217.265 69.7767 217.774 61.4313C217.991 57.8767 218.28 54.1373 218.66 50.1837C218.406 33.3179 205.491 24.9207 198.08 21.4837C196.432 20.7016 194.73 20.0423 192.985 19.5111L191.148 25.76L190.282 28.7C198.9 33.2682 202.908 43.0934 204.126 54.8429Z" fill="#FFC802"></path>
  <path d="M198.404 111.899C198.414 111.908 198.736 112.218 199.275 112.729C198.77 112.197 198.5 111.894 198.5 111.894L198.404 111.899Z" fill="#0039A9"></path>
  <path d="M209.687 61.3977C209.576 57.6779 207.224 54.7295 204.437 54.8128C204.333 54.8128 204.231 54.8317 204.128 54.8429C204.325 56.7376 204.453 58.6763 204.512 60.6592C204.586 63.187 204.427 65.7163 204.038 68.215C204.302 68.2663 204.57 68.2898 204.839 68.285C207.626 68.2003 209.797 65.1175 209.687 61.3977Z" fill="#FF8920"></path>
  <path d="M168.062 92.2082C168.062 92.2082 182.696 109.078 195.858 86.1882C195.86 86.1889 188.098 96.8037 168.062 92.2082Z" fill="#FF8920"></path>
  <path d="M156.843 114.52L140.14 128.28C153.143 140.908 164.695 151.881 175.201 151.66C198.314 151.179 213.238 124.235 210.61 122.495C210.133 122.179 209.584 121.775 208.989 121.313C205.757 118.798 201.17 114.519 199.275 112.725C198.736 112.215 198.413 111.905 198.404 111.896C196.872 103.566 196.015 95.1257 195.843 86.6579C200.21 81.3756 203.043 74.9959 204.033 68.2143C204.423 65.7155 204.581 63.1863 204.507 60.6585C204.448 58.6779 204.32 56.7392 204.124 54.8422C202.906 43.0927 198.898 33.2675 190.28 28.7049C189.622 28.3594 188.947 28.0485 188.257 27.7732C184.925 26.4861 181.371 25.8716 177.8 25.9651C159.764 26.2045 151.613 42.1106 152.18 61.2276C152.463 70.9927 156.415 80.2927 163.249 87.2739C163.249 88.6179 163.232 90.0781 163.197 91.6139C162.996 100.294 162.287 111.107 162.072 114.195L156.843 114.52ZM168.062 92.2054C188.098 96.8009 195.858 86.1854 195.858 86.1854C182.697 109.077 168.062 92.2082 168.062 92.2082V92.2054Z" fill="#FFAD63"></path>
  <path d="M109.673 241.882C109.543 241.684 109.414 241.492 109.287 241.31C109.374 241.278 109.456 241.244 109.534 241.208C109.936 241.035 110.267 240.731 110.474 240.346C110.68 239.96 110.75 239.516 110.672 239.086C113.203 238.911 114.337 236.73 112.941 233.938C114.773 233.502 116.082 231.495 114.075 228.528C112.068 225.562 108.055 224.428 108.055 224.428L107.967 220.065C107.967 220.065 112.417 223.381 113.987 222.159C115.557 220.938 114.773 219.978 113.813 218.495C112.853 217.011 107.88 213.259 105.96 213.347C105.215 213.383 104.499 213.652 103.914 214.117C103.474 214.468 103.111 214.907 102.847 215.405C102.584 215.903 102.426 216.45 102.383 217.012C102.209 219.019 103.867 223.119 105.088 224.428C103.169 224.778 101.598 225.65 101.773 227.046C100.115 227.308 99.0682 227.657 98.9807 230.972C96.9668 231.509 96.5188 234 96.6567 235.321C96.5997 235.589 96.5625 235.86 96.5454 236.133C96.5293 236.405 96.5118 236.674 96.4817 236.935C96.3303 238.806 96.5443 240.689 97.1117 242.478L97.1208 242.508C98.0049 245.478 101.021 250.075 105.474 253.378C105.523 253.415 105.573 253.45 105.624 253.485C106.594 254.157 107.787 254.428 108.952 254.239C110.117 254.051 111.164 253.419 111.873 252.476L109.673 241.882ZM106.671 240.718C106.797 240.809 106.882 240.946 106.908 241.099C106.935 241.252 106.901 241.409 106.814 241.537C106.726 241.665 106.592 241.754 106.44 241.785C106.288 241.816 106.13 241.787 105.999 241.703L98.8204 236.807C98.6948 236.715 98.6096 236.579 98.5829 236.426C98.5563 236.273 98.5904 236.116 98.6778 235.988C98.7653 235.859 98.8994 235.77 99.0515 235.739C99.2036 235.708 99.3618 235.738 99.4924 235.822L106.671 240.718ZM110.061 238.431C109.929 238.519 109.768 238.55 109.614 238.519C109.459 238.488 109.323 238.396 109.235 238.265C107.346 235.44 104.417 233.477 101.086 232.805C101.009 232.79 100.935 232.76 100.869 232.717C100.803 232.674 100.746 232.618 100.701 232.553C100.657 232.487 100.626 232.414 100.611 232.336C100.595 232.259 100.595 232.179 100.61 232.102C100.626 232.024 100.657 231.951 100.701 231.885C100.745 231.82 100.801 231.764 100.867 231.72C100.933 231.677 101.007 231.647 101.085 231.632C101.162 231.618 101.242 231.618 101.319 231.635C104.961 232.371 108.164 234.518 110.228 237.607C110.315 237.739 110.346 237.899 110.315 238.054C110.283 238.208 110.192 238.344 110.061 238.431ZM103.975 227.451C107.474 228.119 110.624 230 112.872 232.762C112.921 232.823 112.958 232.893 112.98 232.968C113.002 233.043 113.009 233.122 113.001 233.2C112.992 233.277 112.969 233.353 112.931 233.421C112.894 233.49 112.843 233.551 112.782 233.6C112.721 233.649 112.651 233.686 112.576 233.708C112.501 233.73 112.422 233.737 112.344 233.728C112.266 233.72 112.191 233.696 112.122 233.659C112.054 233.621 111.993 233.57 111.944 233.51C109.876 230.968 106.977 229.238 103.758 228.623C103.679 228.611 103.602 228.584 103.534 228.542C103.465 228.5 103.406 228.445 103.359 228.38C103.312 228.315 103.279 228.241 103.262 228.162C103.244 228.084 103.243 228.003 103.257 227.924C103.272 227.845 103.302 227.769 103.347 227.703C103.391 227.636 103.449 227.578 103.516 227.534C103.583 227.49 103.658 227.46 103.737 227.446C103.816 227.431 103.898 227.433 103.976 227.451H103.975Z" fill="#FFAD63"></path>
  <path d="M130.075 280.54L225.474 261.3L254.1 268.889L250.406 251.082L248.947 244.047L248.305 240.952L247.204 241.703C247.073 241.792 246.912 241.825 246.757 241.796C246.602 241.767 246.465 241.677 246.376 241.546C246.327 241.473 246.295 241.389 246.283 241.302C245.836 241.465 245.363 241.542 244.887 241.529C242.706 241.267 242.444 240.045 242.532 239.086C240.001 238.911 238.867 236.73 240.263 233.938C238.431 233.502 237.122 231.495 239.129 228.528C240.838 226.003 243.992 224.809 244.895 224.508L244.129 220.814C242.705 221.711 240.29 222.993 239.217 222.159C237.646 220.937 238.431 219.978 239.391 218.495C240.421 217.257 241.634 216.184 242.987 215.312L238.162 192.049C233.864 197.424 227.76 201.055 220.985 202.266C214.21 203.476 207.226 202.184 201.333 198.629L193.173 200.34C192.811 200.417 192.435 200.399 192.082 200.287C191.729 200.175 191.411 199.974 191.159 199.703C190.907 199.431 190.729 199.099 190.644 198.739C190.558 198.379 190.568 198.003 190.671 197.647L192.729 190.571C190.036 186.712 188.345 182.245 187.806 177.571L111.903 192.931C110.344 193.255 108.863 193.882 107.546 194.778C106.229 195.673 105.102 196.82 104.228 198.151C103.354 199.483 102.751 200.973 102.454 202.538C102.156 204.103 102.169 205.711 102.493 207.27L103.914 214.12C104.499 213.655 105.215 213.386 105.96 213.35C107.88 213.262 112.853 217.014 113.813 218.497C114.773 219.981 115.558 220.94 113.987 222.162C112.417 223.383 107.967 220.068 107.967 220.068L108.055 224.43C108.055 224.43 112.069 225.565 114.075 228.531C116.081 231.497 114.775 233.501 112.941 233.941C114.337 236.733 113.203 238.911 110.672 239.088C110.75 239.519 110.68 239.963 110.474 240.348C110.267 240.734 109.936 241.038 109.534 241.211L109.674 241.884L111.871 252.479L115.741 271.133C115.811 271.472 115.903 271.8 116 272.126C116.868 275.035 118.796 277.513 121.401 279.071C124.006 280.629 127.101 281.154 130.075 280.543V280.54ZM202.09 209.082C204.004 208.685 205.992 208.865 207.804 209.598C209.616 210.331 211.17 211.586 212.269 213.202C213.368 214.818 213.963 216.724 213.979 218.679C213.995 220.633 213.431 222.548 212.358 224.182C211.286 225.816 209.753 227.096 207.953 227.858C206.153 228.621 204.168 228.833 202.248 228.467C200.328 228.101 198.559 227.175 197.166 225.804C195.773 224.433 194.817 222.68 194.42 220.766C194.157 219.495 194.146 218.185 194.389 216.91C194.631 215.635 195.123 214.421 195.835 213.336C196.547 212.251 197.466 211.317 198.54 210.587C199.613 209.857 200.819 209.346 202.09 209.082ZM173.745 215.032C175.659 214.635 177.647 214.815 179.459 215.548C181.271 216.281 182.825 217.536 183.924 219.152C185.023 220.768 185.618 222.674 185.634 224.629C185.65 226.583 185.086 228.498 184.013 230.132C182.941 231.766 181.407 233.046 179.608 233.808C177.808 234.571 175.823 234.783 173.903 234.417C171.983 234.051 170.214 233.125 168.821 231.754C167.428 230.383 166.472 228.63 166.075 226.716C165.543 224.15 166.053 221.477 167.491 219.287C168.93 217.096 171.179 215.566 173.746 215.034L173.745 215.032ZM145.503 220.963C147.417 220.566 149.405 220.745 151.217 221.479C153.029 222.212 154.583 223.466 155.682 225.082C156.781 226.699 157.376 228.604 157.392 230.559C157.408 232.513 156.844 234.429 155.771 236.063C154.698 237.697 153.165 238.976 151.366 239.739C149.566 240.501 147.581 240.713 145.661 240.348C143.74 239.982 141.972 239.055 140.579 237.684C139.185 236.313 138.23 234.56 137.833 232.646C137.301 230.08 137.811 227.408 139.249 225.217C140.688 223.026 142.937 221.497 145.503 220.965L145.503 220.963Z" fill="#FF0044"></path>
  <path d="M206.106 228.435C211.45 227.327 214.884 222.096 213.775 216.751C212.667 211.407 207.436 207.973 202.091 209.082C196.747 210.19 193.313 215.421 194.422 220.765C195.53 226.11 200.761 229.544 206.106 228.435Z" fill="white"></path>
  <path d="M177.76 234.387C183.105 233.278 186.538 228.047 185.43 222.703C184.321 217.359 179.09 213.925 173.746 215.034C168.402 216.142 164.968 221.373 166.077 226.717C167.185 232.062 172.416 235.495 177.76 234.387Z" fill="white"></path>
  <path d="M149.518 240.318C154.862 239.209 158.296 233.978 157.187 228.634C156.079 223.29 150.848 219.856 145.504 220.964C140.159 222.073 136.726 227.304 137.834 232.648C138.943 237.992 144.174 241.426 149.518 240.318Z" fill="white"></path>
  <path d="M239.39 218.495C238.43 219.978 237.645 220.938 239.216 222.159C240.289 222.993 242.704 221.711 244.128 220.814C244.788 220.399 245.236 220.065 245.236 220.065L245.148 224.428C245.148 224.428 245.051 224.456 244.894 224.509C243.991 224.809 240.834 226.003 239.128 228.529C237.121 231.496 238.428 233.499 240.262 233.939C238.866 236.731 240 238.909 242.53 239.086C242.443 240.046 242.705 241.268 244.886 241.529C245.361 241.543 245.835 241.466 246.282 241.303C246.264 241.192 246.277 241.078 246.321 240.975C246.365 240.871 246.438 240.783 246.53 240.719L253.709 235.822C253.839 235.739 253.998 235.709 254.15 235.74C254.302 235.771 254.436 235.86 254.523 235.988C254.611 236.116 254.645 236.274 254.618 236.427C254.592 236.58 254.506 236.716 254.381 236.807L248.303 240.953L248.945 244.048L250.404 251.083C253.382 248.163 255.389 244.837 256.083 242.509L256.092 242.479C256.66 240.689 256.874 238.807 256.722 236.936C256.692 236.674 256.675 236.405 256.659 236.134C256.641 235.861 256.604 235.589 256.547 235.322C256.687 234 256.237 231.51 254.223 230.973C254.136 227.658 253.089 227.308 251.431 227.046C251.605 225.651 250.035 224.778 248.116 224.429C249.337 223.12 250.995 219.02 250.821 217.013C250.775 216.07 250.386 215.177 249.727 214.502C249.068 213.827 248.185 213.416 247.243 213.348C246.289 213.305 244.584 214.21 242.988 215.313C241.634 216.185 240.421 217.258 239.39 218.495ZM252.116 232.801C248.786 233.474 245.856 235.437 243.967 238.261C243.925 238.329 243.87 238.388 243.805 238.434C243.74 238.48 243.666 238.512 243.588 238.529C243.51 238.546 243.429 238.547 243.351 238.533C243.272 238.518 243.197 238.488 243.131 238.443C243.064 238.399 243.007 238.342 242.963 238.276C242.919 238.209 242.889 238.134 242.874 238.056C242.86 237.977 242.861 237.897 242.878 237.819C242.895 237.741 242.928 237.667 242.974 237.602C245.039 234.513 248.241 232.366 251.883 231.629C251.96 231.613 252.04 231.612 252.118 231.627C252.195 231.641 252.269 231.671 252.335 231.715C252.401 231.758 252.458 231.814 252.502 231.88C252.546 231.945 252.577 232.019 252.592 232.096C252.608 232.174 252.607 232.253 252.592 232.331C252.576 232.408 252.545 232.482 252.501 232.547C252.457 232.612 252.4 232.668 252.334 232.712C252.268 232.755 252.194 232.785 252.116 232.799V232.801ZM249.227 227.45C249.306 227.433 249.387 227.431 249.466 227.445C249.545 227.459 249.62 227.489 249.687 227.534C249.754 227.578 249.812 227.635 249.856 227.702C249.901 227.769 249.931 227.844 249.946 227.923C249.961 228.002 249.959 228.083 249.942 228.161C249.924 228.24 249.891 228.314 249.844 228.379C249.798 228.445 249.738 228.5 249.669 228.541C249.601 228.583 249.525 228.611 249.445 228.622C246.226 229.237 243.327 230.967 241.259 233.509C241.21 233.572 241.15 233.625 241.081 233.665C241.012 233.704 240.935 233.73 240.856 233.739C240.777 233.749 240.697 233.743 240.62 233.721C240.544 233.699 240.472 233.662 240.41 233.612C240.348 233.562 240.297 233.5 240.259 233.43C240.221 233.36 240.198 233.283 240.19 233.204C240.183 233.124 240.191 233.044 240.215 232.968C240.239 232.892 240.278 232.822 240.33 232.761C242.578 229.999 245.729 228.118 249.227 227.45Z" fill="#FFAD63"></path>
  <path d="M240.33 232.762C240.279 232.823 240.24 232.893 240.216 232.969C240.192 233.045 240.184 233.125 240.191 233.204C240.199 233.284 240.222 233.361 240.26 233.431C240.297 233.501 240.349 233.563 240.411 233.613C240.473 233.663 240.544 233.7 240.621 233.722C240.698 233.743 240.778 233.75 240.857 233.74C240.936 233.73 241.012 233.705 241.081 233.666C241.15 233.626 241.211 233.573 241.259 233.509C243.327 230.967 246.226 229.236 249.445 228.62C249.525 228.608 249.601 228.581 249.67 228.539C249.738 228.498 249.798 228.442 249.844 228.377C249.891 228.312 249.924 228.238 249.942 228.159C249.959 228.081 249.961 228 249.946 227.921C249.931 227.842 249.901 227.767 249.856 227.7C249.812 227.633 249.754 227.576 249.687 227.531C249.62 227.487 249.545 227.457 249.466 227.443C249.387 227.429 249.306 227.43 249.227 227.448C245.729 228.117 242.578 229.999 240.33 232.762Z" fill="#FF8920"></path>
  <path d="M251.883 231.63C248.241 232.366 245.039 234.513 242.974 237.602C242.892 237.734 242.865 237.892 242.898 238.044C242.931 238.195 243.022 238.328 243.151 238.414C243.28 238.5 243.438 238.532 243.59 238.503C243.743 238.475 243.878 238.388 243.968 238.262C245.856 235.437 248.786 233.475 252.116 232.802C252.194 232.787 252.268 232.758 252.334 232.714C252.4 232.671 252.457 232.615 252.501 232.55C252.545 232.484 252.576 232.411 252.592 232.333C252.607 232.256 252.608 232.176 252.592 232.099C252.577 232.021 252.546 231.948 252.502 231.882C252.458 231.817 252.401 231.761 252.335 231.717C252.269 231.674 252.195 231.644 252.118 231.629C252.04 231.615 251.96 231.616 251.883 231.632V231.63Z" fill="#FF8920"></path>
  <path d="M254.38 236.806C254.506 236.715 254.591 236.579 254.617 236.426C254.644 236.273 254.61 236.116 254.523 235.987C254.435 235.859 254.301 235.77 254.149 235.739C253.997 235.708 253.839 235.738 253.708 235.822L246.529 240.718C246.437 240.782 246.365 240.871 246.321 240.974C246.277 241.077 246.263 241.191 246.281 241.302C246.293 241.389 246.325 241.473 246.373 241.546C246.462 241.677 246.6 241.767 246.755 241.796C246.91 241.825 247.071 241.792 247.201 241.703L248.303 240.952L254.38 236.806Z" fill="#FF8920"></path>
  <path d="M103.757 228.62C106.976 229.235 109.875 230.965 111.943 233.507C111.992 233.568 112.053 233.618 112.122 233.656C112.19 233.693 112.266 233.717 112.344 233.725C112.421 233.734 112.5 233.727 112.575 233.705C112.65 233.683 112.72 233.646 112.781 233.597C112.842 233.548 112.893 233.487 112.93 233.419C112.968 233.35 112.991 233.275 113 233.197C113.008 233.119 113.001 233.04 112.979 232.965C112.957 232.89 112.921 232.82 112.871 232.759C110.623 229.997 107.473 228.116 103.974 227.448C103.896 227.43 103.815 227.429 103.736 227.443C103.657 227.457 103.582 227.487 103.515 227.531C103.447 227.576 103.39 227.633 103.345 227.7C103.301 227.767 103.271 227.842 103.256 227.921C103.241 228 103.243 228.081 103.26 228.159C103.278 228.238 103.311 228.312 103.357 228.377C103.404 228.442 103.464 228.498 103.532 228.539C103.601 228.581 103.677 228.608 103.757 228.62H103.757Z" fill="#FF8920"></path>
  <path d="M101.319 231.63C101.241 231.614 101.162 231.613 101.084 231.627C101.007 231.642 100.933 231.672 100.867 231.715C100.801 231.759 100.744 231.815 100.7 231.88C100.656 231.946 100.625 232.019 100.61 232.097C100.594 232.174 100.594 232.254 100.61 232.331C100.626 232.409 100.656 232.482 100.701 232.548C100.745 232.613 100.802 232.669 100.868 232.712C100.934 232.756 101.008 232.785 101.086 232.8C104.416 233.472 107.346 235.435 109.234 238.26C109.276 238.328 109.332 238.386 109.397 238.432C109.462 238.478 109.536 238.511 109.614 238.528C109.692 238.545 109.773 238.546 109.851 238.531C109.93 238.517 110.004 238.486 110.071 238.442C110.137 238.398 110.194 238.341 110.238 238.274C110.282 238.208 110.313 238.133 110.327 238.054C110.342 237.976 110.341 237.895 110.324 237.817C110.306 237.739 110.274 237.665 110.228 237.6C108.163 234.512 104.96 232.365 101.319 231.63Z" fill="#FF8920"></path>
  <path d="M99.4924 235.822C99.3617 235.738 99.2035 235.708 99.0514 235.739C98.8993 235.77 98.7653 235.859 98.6778 235.987C98.5903 236.116 98.5563 236.273 98.5829 236.426C98.6095 236.579 98.6947 236.715 98.8204 236.806L105.999 241.703C106.13 241.787 106.288 241.816 106.44 241.785C106.592 241.754 106.726 241.665 106.813 241.537C106.901 241.409 106.935 241.252 106.908 241.099C106.882 240.946 106.797 240.809 106.671 240.718L99.4924 235.822Z" fill="#FF8920"></path>
  <path d="M327.543 277.377C321.105 273.69 313.635 272.218 306.279 273.188C298.924 274.157 292.09 277.514 286.827 282.743C281.564 287.972 278.163 294.785 277.146 302.134C276.129 309.483 277.553 316.962 281.198 323.424C284.843 329.886 290.509 334.972 297.325 337.903C304.141 340.833 311.73 341.445 318.927 339.645C326.125 337.845 332.532 333.732 337.166 327.938C341.8 322.144 344.403 314.989 344.577 307.572C344.737 301.468 343.237 295.436 340.237 290.118C337.237 284.8 332.85 280.397 327.543 277.377ZM324.664 303.93C324.353 304.569 323.861 305.103 323.25 305.467C322.64 305.831 321.936 306.009 321.226 305.979C320.515 305.949 319.829 305.712 319.251 305.298C318.674 304.884 318.229 304.31 317.972 303.647C317.716 302.984 317.658 302.261 317.807 301.565C317.955 300.87 318.303 300.233 318.808 299.733C319.313 299.232 319.953 298.89 320.65 298.748C321.347 298.606 322.069 298.67 322.73 298.933C323.648 299.34 324.368 300.095 324.73 301.032C325.093 301.968 325.07 303.011 324.665 303.93H324.664ZM302.496 294.438C302.198 295.049 301.728 295.559 301.145 295.907C300.561 296.255 299.888 296.425 299.209 296.396C298.53 296.368 297.875 296.141 297.322 295.745C296.77 295.349 296.345 294.801 296.1 294.167C295.855 293.534 295.8 292.842 295.942 292.178C296.084 291.513 296.417 290.904 296.899 290.426C297.382 289.948 297.994 289.621 298.66 289.485C299.326 289.349 300.017 289.411 300.648 289.662C301.525 290.052 302.213 290.773 302.559 291.668C302.905 292.564 302.883 293.56 302.496 294.438ZM304.215 312.545C290.667 306.625 290.923 297.137 290.923 297.137C303.895 310.743 325.652 311.725 325.652 311.725C325.652 311.725 317.763 318.465 304.215 312.544V312.545Z" fill="#27C896"></path>
  <path d="M302.495 294.437C303.262 292.51 302.435 290.371 300.647 289.661C298.86 288.95 296.79 289.936 296.024 291.863C295.257 293.79 296.084 295.929 297.871 296.64C299.659 297.351 301.729 296.365 302.495 294.437Z" fill="white"></path>
  <path d="M324.737 304.119C325.54 302.103 324.675 299.865 322.806 299.121C320.936 298.376 318.77 299.407 317.967 301.423C317.164 303.439 318.029 305.676 319.898 306.421C321.768 307.166 323.934 306.135 324.737 304.119Z" fill="white"></path>
  <path d="M290.92 297.137C290.92 297.137 290.665 306.625 304.212 312.544C317.76 318.464 325.649 311.724 325.649 311.724C325.649 311.724 303.895 310.743 290.92 297.137Z" fill="white"></path>
  <path d="M192.729 190.567L190.671 197.644C190.568 197.999 190.558 198.375 190.644 198.736C190.729 199.096 190.907 199.428 191.159 199.699C191.411 199.97 191.729 200.172 192.082 200.283C192.435 200.395 192.811 200.413 193.173 200.337L201.332 198.627C204.841 200.745 208.767 202.077 212.841 202.532C216.914 202.987 221.037 202.554 224.927 201.263C228.817 199.972 232.381 197.853 235.374 195.053C238.366 192.252 240.717 188.837 242.263 185.041C243.809 181.245 244.515 177.16 244.331 173.065C244.147 168.971 243.078 164.965 241.198 161.323C239.318 157.681 236.671 154.49 233.439 151.969C230.208 149.448 226.468 147.657 222.478 146.72C216.888 145.405 211.03 145.818 205.679 147.904C200.329 149.991 195.738 153.653 192.514 158.405C189.29 163.158 187.584 168.777 187.623 174.52C187.662 180.263 189.443 185.858 192.732 190.567L192.729 190.567ZM201.796 179.38C200.849 179.323 199.941 178.987 199.185 178.414C198.43 177.841 197.861 177.057 197.551 176.161C197.242 175.265 197.204 174.297 197.445 173.379C197.685 172.462 198.192 171.637 198.901 171.007C199.611 170.378 200.491 169.974 201.43 169.844C202.369 169.715 203.326 169.868 204.179 170.282C205.032 170.697 205.742 171.355 206.221 172.174C206.7 172.992 206.925 173.934 206.868 174.881C206.792 176.15 206.215 177.337 205.264 178.18C204.312 179.024 203.065 179.456 201.796 179.38ZM220.858 175.719C220.801 176.665 220.465 177.574 219.892 178.329C219.319 179.085 218.535 179.654 217.639 179.964C216.742 180.273 215.775 180.311 214.857 180.07C213.94 179.83 213.114 179.323 212.485 178.614C211.856 177.904 211.451 177.024 211.322 176.085C211.193 175.145 211.346 174.189 211.76 173.336C212.175 172.483 212.833 171.773 213.652 171.294C214.47 170.815 215.412 170.59 216.359 170.647C217.628 170.723 218.815 171.3 219.658 172.251C220.502 173.202 220.933 174.45 220.858 175.719ZM234.847 176.559C234.791 177.505 234.454 178.414 233.881 179.169C233.309 179.925 232.524 180.494 231.628 180.804C230.732 181.113 229.764 181.151 228.847 180.91C227.929 180.67 227.104 180.163 226.475 179.454C225.846 178.744 225.441 177.864 225.312 176.925C225.183 175.985 225.335 175.029 225.75 174.176C226.164 173.323 226.823 172.613 227.641 172.134C228.46 171.655 229.402 171.43 230.348 171.487C231.617 171.562 232.805 172.138 233.649 173.089C234.493 174.04 234.925 175.287 234.85 176.556L234.847 176.559Z" fill="#FFC802"></path>
  <path d="M234.849 176.557C235.007 173.914 232.993 171.643 230.35 171.485C227.707 171.326 225.436 173.341 225.277 175.984C225.119 178.627 227.133 180.898 229.776 181.056C232.419 181.215 234.69 179.2 234.849 176.557Z" fill="white"></path>
  <path d="M220.859 175.72C221.018 173.077 219.003 170.806 216.36 170.647C213.717 170.489 211.446 172.503 211.288 175.146C211.13 177.789 213.144 180.06 215.787 180.219C218.43 180.377 220.701 178.363 220.859 175.72Z" fill="white"></path>
  <path d="M206.867 174.88C207.026 172.237 205.011 169.966 202.368 169.807C199.725 169.649 197.454 171.663 197.296 174.306C197.138 176.95 199.152 179.221 201.795 179.379C204.438 179.537 206.709 177.523 206.867 174.88Z" fill="white"></path>
  <path d="M51.6665 48.3054C62.3908 47.6186 70.4639 37.3688 69.6982 25.4118C68.9325 13.4549 59.6181 4.31851 48.8937 5.00526C38.1694 5.692 30.0963 15.9418 30.862 27.8988C31.6277 39.8558 40.9422 48.9921 51.6665 48.3054Z" fill="#132D32"></path>
  <path d="M64.1809 34.93C66.4517 33.992 69.0501 33.0764 71.2894 34.4358C71.6399 34.6347 71.9401 34.9113 72.1672 35.2443C72.8259 36.2698 72.4752 37.66 72.0972 38.7933C74.2189 38.7233 76.4456 38.6792 78.4021 39.8118C80.3586 40.9444 81.8888 43.6737 81.186 45.9718C82.9059 46.0824 84.791 46.2714 86.0986 47.6749C87.3684 49.0378 87.7317 51.2449 87.4286 53.1433C87.0444 54.9663 86.3588 56.7125 85.4 58.31C86.8147 58.2435 88.1062 59.71 88.5451 61.32C88.8893 62.9434 88.8572 64.6241 88.4513 66.2333C88.0649 68.2192 87.3047 70.4417 85.6037 70.8785C86.1641 71.6248 86.5186 72.5053 86.6316 73.4317C86.7446 74.3581 86.6122 75.298 86.2477 76.1572C85.9027 76.924 85.4057 77.613 84.7868 78.1822C84.1679 78.7514 83.4399 79.1892 82.6469 79.4689C81.5253 79.9486 80.2717 80.0229 79.1014 79.6789C78.4678 79.4586 77.8965 79.0893 77.4357 78.602C76.9748 78.1147 76.6379 77.5237 76.4533 76.8789C75.4733 78.6835 73.6484 79.5452 71.9278 80.3089C71.2127 80.7267 70.3776 80.891 69.5576 80.7751C68.7251 80.4635 68.0175 79.8879 67.543 79.1364C66.4719 77.7035 65.6539 76.0978 65.1245 74.389C63.4249 75.2591 61.3116 74.319 59.8087 72.849C58.3958 71.5519 57.5424 69.7565 57.4287 67.8419C57.4119 65.9183 58.7587 64.0493 60.4002 64.2565C58.9378 63.4103 57.7394 62.1743 56.9387 60.6865C56.5212 59.9136 56.277 59.0591 56.2231 58.1823C56.1692 57.3056 56.3068 56.4276 56.6265 55.6094C56.949 54.8837 57.4332 54.2416 58.0422 53.732C58.6512 53.2224 59.3687 52.8589 60.1398 52.6694C59.1248 52.3243 58.9386 51.1056 58.8672 49.8876C58.8264 48.7122 59.2098 47.5613 59.9473 46.6452C61.0057 45.2837 61.1772 44.0706 62.8019 44.1168C61.04 43.2229 60.97 41.6843 60.8153 39.48C60.6606 37.2757 62.1285 35.0861 64.0101 35.1456L64.1809 34.93Z" fill="#132D32"></path>
  <path d="M65.6684 38.7149C67.2553 38.7695 68.6 37.1 68.67 34.9825C68.74 32.865 67.5143 31.1073 65.9274 31.0541C64.3405 31.0009 63 32.6711 62.93 34.79C62.86 36.9089 64.0857 38.6638 65.6719 38.7184" fill="#A2290F"></path>
  <path d="M35.9478 40.6175C37.534 40.6721 38.8794 39.0005 38.9515 36.8851C39.0236 34.7697 37.7958 33.0099 36.2089 32.9567C34.622 32.9035 33.2773 34.5737 33.2052 36.6891C33.1331 38.8045 34.3616 40.5629 35.9478 40.6175Z" fill="#A2290F"></path>
  <path d="M65.7601 34.3756C65.3884 45.2473 57.6625 53.4996 50.5141 53.0866C43.3657 52.6736 35.665 43.6688 36.0367 32.7964C36.4084 21.924 41.6122 13.1915 51.8567 13.7102C62.9461 14.3143 66.129 23.5032 65.758 34.3749" fill="#B6503A"></path>
  <path d="M44.2743 32.683C44.4657 32.7013 44.6582 32.6616 44.8268 32.5692C44.9954 32.4767 45.1324 32.3357 45.2199 32.1645C45.3074 31.9933 45.3415 31.7998 45.3177 31.6089C45.294 31.4181 45.2134 31.2389 45.0865 31.0944C44.9596 30.9499 44.7923 30.8469 44.6061 30.7986C44.42 30.7504 44.2236 30.7592 44.0426 30.8239C43.8615 30.8886 43.704 31.0062 43.5905 31.1614C43.4771 31.3167 43.4129 31.5024 43.4063 31.6946C43.3907 31.9407 43.4734 32.1829 43.6361 32.3682C43.7988 32.5534 44.0283 32.6666 44.2743 32.683Z" fill="#132D32"></path>
  <path d="M61.1716 31.6806C61.155 31.8561 61.0874 32.0228 60.9771 32.1603C60.8668 32.2978 60.7187 32.4 60.5511 32.4544C60.3834 32.5087 60.2035 32.5128 60.0335 32.4662C59.8636 32.4195 59.711 32.3241 59.5946 32.1917C59.4782 32.0594 59.403 31.8959 59.3785 31.7214C59.3539 31.5468 59.3809 31.3689 59.4562 31.2096C59.5315 31.0502 59.6518 30.9164 59.8023 30.8246C59.9527 30.7328 60.1267 30.687 60.3029 30.6929C60.5482 30.711 60.7765 30.8247 60.939 31.0093C61.1014 31.194 61.1849 31.435 61.1716 31.6806Z" fill="#132D32"></path>
  <path d="M57.9208 40.9885C57.8571 42.8477 55.216 44.2239 52.0618 44.1161C48.9076 44.0083 46.368 42.399 46.4289 40.5965C46.4926 38.7373 49.0889 40.236 52.2466 40.3445C55.4043 40.453 57.9866 39.13 57.9208 40.9885Z" fill="white"></path>
  <path d="M58.8105 36.3944C58.7341 36.7403 58.7279 37.098 58.7921 37.4464C58.8564 37.7947 58.9899 38.1266 59.1847 38.4225C59.3796 38.7184 59.6317 38.9721 59.9264 39.1688C60.221 39.3655 60.5521 39.501 60.9 39.5675C61.5981 39.7104 62.3243 39.5705 62.9194 39.1785C63.5144 38.7865 63.9296 38.1744 64.0738 37.4766C64.1507 37.1304 64.1574 36.7723 64.0933 36.4235C64.0292 36.0747 63.8958 35.7423 63.7008 35.4461C63.5059 35.1498 63.2535 34.8957 62.9585 34.6988C62.6635 34.502 62.332 34.3663 61.9836 34.3C61.2856 34.1568 60.5593 34.2965 59.9643 34.6886C59.3692 35.0807 58.9543 35.693 58.8105 36.3909" fill="#A2290F"></path>
  <path d="M39.8426 36.9306C39.7662 37.2766 39.76 37.6344 39.8244 37.9828C39.8888 38.3312 40.0224 38.6632 40.2173 38.9591C40.4123 39.255 40.6647 39.5087 40.9594 39.7053C41.2542 39.9019 41.5855 40.0374 41.9335 40.1037C42.632 40.2469 43.3588 40.1067 43.954 39.7141C44.5492 39.3214 44.9641 38.7085 45.1073 38.01C45.1838 37.664 45.1901 37.3061 45.1258 36.9577C45.0614 36.6092 44.9278 36.2772 44.7329 35.9813C44.5379 35.6854 44.2855 35.4316 43.9907 35.2351C43.6958 35.0385 43.3645 34.9031 43.0164 34.8369C42.3201 34.7101 41.6017 34.8568 41.0107 35.2462C40.4197 35.6356 40.0016 36.2379 39.8433 36.9278" fill="#A2290F"></path>
  <path d="M52.9718 30.6677L49.9436 35.1323C49.8604 35.2503 49.809 35.3878 49.7944 35.5315C49.7797 35.6751 49.8024 35.8202 49.8602 35.9525C49.9179 36.0849 50.0089 36.2001 50.1241 36.2871C50.2394 36.374 50.3752 36.4298 50.5183 36.449L53.3813 36.8284L52.9718 30.6677Z" fill="#A2290F"></path>
  <path d="M59.8745 48.8474C59.8745 48.8474 55.1313 54.2962 43.9243 50.96C43.9243 50.96 51.5718 61.362 59.8745 48.8474Z" fill="#A2290F"></path>
  <path d="M52.5364 14.6573C52.5364 14.6573 47.8422 13.3042 46.4856 17.8857C45.129 22.4672 40.8422 31.2557 36.2705 32.4842C31.6988 33.7127 32.0453 11.9 45.2018 9.14271C58.3583 6.38541 68.0218 20.2804 67.2518 27.3476C66.4818 34.4148 65.31 29.1347 65.31 29.1347C65.31 29.1347 60.8244 22.9537 59.0478 18.0334C57.2712 13.1131 52.5364 14.6573 52.5364 14.6573Z" fill="#132D32"></path>
  <path d="M56.98 9.48431C56.98 9.48431 44.8 30.2498 36.2705 32.4842C27.741 34.7186 37.5305 14.2429 37.5305 14.2429L56.98 9.48431Z" fill="#132D32"></path>
  <path d="M111.952 43.2817C112 43.5525 111.967 43.8316 111.857 44.0837C111.747 44.3358 111.564 44.5496 111.333 44.698C111.101 44.8464 110.831 44.9227 110.556 44.9174C110.28 44.912 110.013 44.8252 109.787 44.668C109.562 44.5107 109.388 44.29 109.287 44.0338C109.187 43.7776 109.165 43.4974 109.224 43.2287C109.283 42.96 109.42 42.7147 109.619 42.5241C109.817 42.3334 110.067 42.2058 110.338 42.1575C110.518 42.1218 110.704 42.1228 110.883 42.1604C111.063 42.198 111.233 42.2715 111.384 42.3764C111.535 42.4814 111.663 42.6157 111.76 42.7712C111.858 42.9268 111.923 43.1004 111.952 43.2817Z" fill="#122D32"></path>
  <path d="M129.858 42.8106C130.106 42.7661 130.336 42.6489 130.518 42.4739C130.7 42.2988 130.826 42.0737 130.88 41.8271C130.934 41.5804 130.914 41.3233 130.822 41.0882C130.73 40.8531 130.57 40.6505 130.363 40.5062C130.155 40.3618 129.91 40.2822 129.658 40.2772C129.405 40.2723 129.157 40.3423 128.944 40.4784C128.732 40.6146 128.564 40.8107 128.463 41.0421C128.362 41.2734 128.331 41.5295 128.376 41.7781C128.436 42.1115 128.625 42.4075 128.903 42.6011C129.181 42.7947 129.524 42.8701 129.858 42.8106Z" fill="#122D32"></path>
  <path d="M119.564 40.8296L126.249 51.4696C126.433 51.7541 126.54 52.0811 126.561 52.4191C126.581 52.7571 126.514 53.0946 126.367 53.3993C126.219 53.704 125.995 53.9656 125.717 54.1588C125.439 54.3521 125.116 54.4705 124.779 54.5027L118.02 55.2062L119.564 40.8296Z" fill="#FF891F"></path>
  <path d="M121.18 59.6001C120.586 62.3525 117.205 64.2628 114.974 63.9905C112.743 63.7182 110.838 60.0999 110.984 58.5634C111.224 57.0934 112.616 58.7734 114.862 59.129C117.107 59.4846 121.19 57.603 121.18 59.6001Z" fill="white"></path>
  <path d="M109.724 52.3215C109.711 51.5371 109.466 50.7741 109.02 50.1291C108.573 49.4841 107.946 48.9859 107.216 48.6977C106.486 48.4094 105.688 48.344 104.921 48.5097C104.154 48.6754 103.454 49.0648 102.908 49.6286C102.363 50.1924 101.997 50.9053 101.856 51.6771C101.716 52.4489 101.808 53.245 102.12 53.9647C102.432 54.6844 102.951 55.2954 103.61 55.7203C104.27 56.1453 105.04 56.3651 105.825 56.3521C106.345 56.3435 106.859 56.2325 107.337 56.0253C107.815 55.8181 108.247 55.5188 108.609 55.1445C108.971 54.7702 109.256 54.3283 109.448 53.8439C109.639 53.3595 109.733 52.8422 109.724 52.3215Z" fill="#FF891F"></path>
  <path d="M132.506 47.4971C131.475 47.6874 130.562 48.2778 129.965 49.1394C129.369 50.0009 129.137 51.0636 129.322 52.0953C129.506 53.1269 130.091 54.0436 130.949 54.6451C131.808 55.2467 132.869 55.4841 133.902 55.3056L134.064 55.2762C134.491 52.8169 134.748 50.3312 134.834 47.8366C134.117 47.4677 133.298 47.3483 132.506 47.4971Z" fill="#FF891F"></path>
  <path d="M166.623 60.1027C166.961 60.1132 167.294 60.0219 167.58 59.8407C167.865 59.6595 168.09 59.3968 168.224 59.0865C168.359 58.7762 168.397 58.4327 168.334 58.1005C168.27 57.7683 168.109 57.4627 167.87 57.2234C167.631 56.9841 167.326 56.8221 166.994 56.7583C166.662 56.6946 166.318 56.7321 166.008 56.8659C165.697 56.9998 165.434 57.2238 165.252 57.509C165.07 57.7942 164.979 58.1274 164.989 58.4654C164.989 58.8991 165.161 59.3152 165.467 59.6221C165.774 59.9291 166.189 60.1019 166.623 60.1027Z" fill="#132D32"></path>
  <path d="M196.155 56.4473C196.146 56.7572 196.046 57.0576 195.868 57.3114C195.69 57.5653 195.441 57.7614 195.153 57.8756C194.865 57.9898 194.549 58.0172 194.246 57.9543C193.942 57.8914 193.663 57.741 193.444 57.5216C193.225 57.3023 193.075 57.0236 193.012 56.7199C192.95 56.4162 192.977 56.1008 193.092 55.8126C193.206 55.5245 193.403 55.2761 193.657 55.0982C193.91 54.9203 194.211 54.8206 194.521 54.8114C194.953 54.8158 195.367 54.9896 195.672 55.2955C195.978 55.6014 196.151 56.0149 196.155 56.4473Z" fill="#132D32"></path>
  <path d="M191.498 73.1416C191.595 76.4106 187.116 83.4386 181.57 83.6038C176.023 83.769 171.387 76.9132 171.291 73.7436C171.194 70.4753 175.923 72.8126 181.469 72.6474C187.015 72.4822 191.4 69.8733 191.498 73.1416Z" fill="white"></path>
  <path d="M192.543 64.9817C192.448 65.5974 192.477 66.2259 192.629 66.83C192.781 67.4342 193.053 68.0017 193.428 68.499C193.804 68.9962 194.275 69.4131 194.814 69.7249C195.354 70.0367 195.95 70.2371 196.568 70.3143C197.809 70.4865 199.068 70.1595 200.068 69.4049C201.067 68.6503 201.727 67.5298 201.902 66.2893C201.997 65.6736 201.968 65.0451 201.815 64.4409C201.663 63.8367 201.392 63.2692 201.016 62.772C200.641 62.2748 200.169 61.8579 199.63 61.5461C199.091 61.2343 198.494 61.0339 197.876 60.9567C196.635 60.7839 195.377 61.1108 194.377 61.8655C193.377 62.6202 192.717 63.7411 192.543 64.9817Z" fill="#FF8920"></path>
  <path d="M159.326 68.0526C159.23 68.6683 159.26 69.2968 159.412 69.901C159.564 70.5051 159.835 71.0726 160.211 71.5699C160.586 72.0671 161.057 72.484 161.597 72.7958C162.136 73.1076 162.732 73.3081 163.351 73.3852C164.591 73.5578 165.85 73.2309 166.85 72.4762C167.85 71.7215 168.509 70.6008 168.683 69.3602C168.779 68.7445 168.75 68.1159 168.598 67.5117C168.446 66.9075 168.174 66.3399 167.799 65.8426C167.423 65.3453 166.952 64.9284 166.412 64.6166C165.873 64.3049 165.277 64.1046 164.658 64.0276C163.422 63.8835 162.178 64.2214 161.185 64.9711C160.192 65.7207 159.526 66.8244 159.326 68.0526Z" fill="#FF8920"></path>
  <path d="M181.656 55.5905L176.844 63.7637C176.711 63.98 176.635 64.2272 176.625 64.4813C176.615 64.7354 176.671 64.9877 176.788 65.2138C176.904 65.4399 177.077 65.632 177.29 65.7715C177.502 65.911 177.747 65.9932 178.001 66.01L183.067 66.3544L181.656 55.5905Z" fill="#FF8920"></path>
  <path d="M196.225 21.7378C196.225 21.7378 192.486 11.6795 175.218 12.5678C157.951 13.4561 145.044 25.6522 140.237 41.0515C135.431 56.4508 134.287 82.0967 135.626 94.2907C136.964 106.485 124.683 132.675 125.039 139.885C125.262 145.967 126.887 154.118 138.393 150.952C143.125 149.599 147.408 147.001 150.795 143.43C168.284 125.325 169.055 110.916 168.062 98.42C167.082 84.8904 152.087 74.97 152.443 57.5218C152.711 46.48 155.838 38.57 160.02 35.7238C164.916 32.3414 167.117 33.8429 175.396 33.2199C181.804 32.7747 188.301 32.0628 190.972 30.4605C193.465 28.9478 196.225 21.7378 196.225 21.7378Z" fill="#FFC802"></path>
  <path d="M241.753 36.9698C241.693 37.2089 241.565 37.4255 241.384 37.5931C241.204 37.7607 240.978 37.8721 240.735 37.9137C240.492 37.9553 240.243 37.9254 240.016 37.8275C239.79 37.7296 239.597 37.568 239.461 37.3624C239.326 37.1569 239.252 36.9162 239.251 36.6697C239.249 36.4233 239.32 36.1818 239.453 35.9746C239.587 35.7674 239.777 35.6035 240.002 35.5029C240.227 35.4023 240.477 35.3694 240.72 35.4081C241.06 35.485 241.358 35.6904 241.55 35.9814C241.743 36.2724 241.815 36.6266 241.753 36.9698Z" fill="#132D32"></path>
  <path d="M263.784 39.6053C263.724 39.8444 263.596 40.0609 263.415 40.2286C263.235 40.3962 263.009 40.5076 262.766 40.5492C262.523 40.5908 262.274 40.5609 262.047 40.463C261.821 40.3651 261.629 40.2035 261.493 39.9979C261.357 39.7924 261.284 39.5517 261.282 39.3052C261.281 39.0588 261.351 38.8173 261.484 38.6101C261.618 38.4029 261.809 38.239 262.034 38.1384C262.259 38.0378 262.508 38.0049 262.751 38.0436C263.092 38.1206 263.389 38.3261 263.581 38.6171C263.774 38.908 263.846 39.2621 263.784 39.6053Z" fill="#132D32"></path>
  <path d="M258.26 51.359C259.064 53.6109 256.464 56.469 252.651 57.7577C248.838 59.0464 245.053 58.3177 244.251 56.0686C243.449 53.8195 247.217 54.3844 251.117 53.1657C255.004 51.7846 257.53 49.0189 258.262 51.3583" fill="white"></path>
  <path d="M252.586 35.5901L245.598 43.7332C245.408 43.9575 245.277 44.2265 245.219 44.5149C245.161 44.8034 245.177 45.1019 245.266 45.3826C245.354 45.6632 245.513 45.9167 245.726 46.1194C245.939 46.3222 246.201 46.4674 246.485 46.5416L252.034 47.9801L252.586 35.5901Z" fill="#A2290F"></path>
  <path d="M324.809 37.1973C324.74 37.381 324.619 37.5403 324.46 37.6549C324.301 37.7695 324.111 37.8343 323.915 37.8412C323.719 37.848 323.525 37.7966 323.359 37.6933C323.192 37.5901 323.06 37.4397 322.978 37.2613C322.897 37.0828 322.871 36.8842 322.902 36.6906C322.934 36.4971 323.022 36.3173 323.156 36.174C323.29 36.0307 323.463 35.9303 323.654 35.8855C323.845 35.8408 324.045 35.8537 324.229 35.9226C324.465 36.0264 324.655 36.2139 324.762 36.449C324.87 36.6842 324.886 36.9506 324.809 37.1973Z" fill="#132D32"></path>
  <path d="M311.677 30.5333C311.587 30.7858 311.403 30.9938 311.163 31.1143C310.923 31.2349 310.647 31.2587 310.39 31.1808C310.265 31.1401 310.149 31.0737 310.051 30.9861C309.952 30.8984 309.873 30.7912 309.819 30.6714C309.764 30.5515 309.735 30.4216 309.733 30.2899C309.731 30.1582 309.756 30.0275 309.807 29.9061C309.899 29.654 310.083 29.4465 310.323 29.3261C310.563 29.2057 310.839 29.1815 311.096 29.2586C311.341 29.3519 311.54 29.5381 311.648 29.7767C311.757 30.0153 311.768 30.2872 311.677 30.5333Z" fill="#132D32"></path>
  <path d="M317.17 32.6676L317.463 39.0957C317.477 39.2695 317.445 39.444 317.37 39.6015C317.295 39.7589 317.18 39.8937 317.036 39.992C316.892 40.0902 316.724 40.1485 316.55 40.1609C316.376 40.1733 316.202 40.1393 316.046 40.0624L312.873 38.71L317.17 32.6676Z" fill="#FF891F"></path>
  <path d="M309.055 41.5352C308.47 42.2408 308.17 45.3376 309.376 46.3022C310.582 47.2668 312.904 45.7716 313.487 45.0653C314.069 44.359 312.638 44.0713 311.392 43.12C310.173 42.1148 309.625 40.7883 309.055 41.5352Z" fill="white"></path>
</svg>
