<?xml version="1.0" encoding="UTF-8"?>
<svg xmlns="http://www.w3.org/2000/svg" id="Calque_1" data-name="Calque 1" viewBox="0 0 476 520">
  <defs>
    <style>.cls-1{fill:#d7ebff;}.cls-2{fill:#f04;}.cls-3{fill:#ffc802;}.cls-4{fill:#ffad63;}.cls-5{fill:#2859ff;}.cls-6{fill:#ff8920;}.cls-7{fill:#132d32;}.cls-8{fill:#fff;}.cls-9{fill:none;}.cls-10{fill:#d78f29;}.cls-11{fill:#a2290f;}.cls-12{fill:#ffe473;}.cls-13{fill:#5091f2;}.cls-14{fill:#fdce12;}</style>
  </defs>
  <title>476x520_special-dual-juin25-2</title>
  <path class="cls-1" d="M404.742,340.9c-2.363-13.188-20.323-21.243-67.247-17.348-37.2,3.088-105.674,5.665-132.514-37.449-37.341-59.981-8.1-106.956,13.907-168.257C242.721,51.456,191.927,17.026,113.031,87.57s-132.463,251.2-1.5,360.5C208.4,528.911,420.71,430.034,404.742,340.9"></path>
  <path class="cls-2" d="M102.38,440.038q4.417,4.073,9.149,8.027c50.078,41.792,131,35.556,195.292,7.468-7.631-33.615-26.745-103.059-33-132.393-27.438-3.7-54.269-13.642-68.836-37.041-19.847-31.88-20.884-60.086-14.2-88.721a159.527,159.527,0,0,1-16.608,1.244l-20.466,6.237c-7.29,6.656-16.451,8.94-25.643,11.951a20.814,20.814,0,0,0-3.8-1.729c-8.9,5.313-16.536,10.133-23.138,14.605a10.454,10.454,0,0,1,4.4,2.691c7.04,7.232,26.588,28.63,37.194,53.4,13.092,30.578,33.85,58.167,29.56,68.776,0,0-3.062-4.806-18.786,5.219s-18.852,12.188-32.514,10.486c0,0-18.629-101.5-34.875-129.581-31.5,25.309-27.733,41.235-42.329,83.842L92.849,344.9C96.477,370.062,99.443,407.745,102.38,440.038Z"></path>
  <path class="cls-3" d="M120.977,370.261c13.662,1.7,16.79-.46,32.514-10.486s18.786-5.219,18.786-5.219c4.291-10.609-16.468-38.2-29.56-68.776-10.606-24.773-30.154-46.171-37.194-53.4a10.454,10.454,0,0,0-4.4-2.691,9.639,9.639,0,0,0-4.076-.38,48.624,48.624,0,0,0-11.977,3.632,2.885,2.885,0,0,0-1.13,4.427A32.894,32.894,0,0,1,86.1,240.68C102.349,268.763,120.977,370.261,120.977,370.261Z"></path>
  <path class="cls-1" d="M148.024,482.146s-8.883.713-10.425-5.311,18.544.281,10.425,5.311"></path>
  <path class="cls-1" d="M118.1,475.172C64.693,455.886,44.874,422.679,41,401.626c-2.446-13.307,4.576-15.475,11.061-5.94,5.9,8.679,14.893,23.477,27.279,36.271,13.385,13.825,32.667,25.7,43.443,32.411,15.844,9.861,6.837,14.965-4.688,10.8"></path>
  <path class="cls-2" d="M285.6,222.695c.98-3.756-.531-7.512,0,0Z"></path>
  <path class="cls-2" d="M271.87,312.161c-8.221-29.285-23.643-61.45-15.48-54.793s-3.486-18.56,5.922-23.289c10.987-5.522,26.088,10.5,24.38-1.686-.613-4.376-.94-7.512-1.095-9.7-1.065,4.082-5.075,8.156-17.858-2.25-10.449-8.506-21.451-16.624-33.97-21.592-18.635-7.395-39.547-.409-59.59-.231l-20.466,6.237c-7.29,6.656-16.451,8.94-25.643,11.951a20.814,20.814,0,0,0-3.8-1.729c-6.138,3.665-11.667,7.092-16.682,10.336-.042.187-.077.373-.121.56-.523,2.218-1.053,4.449-1.717,6.631,7.215,7.439,26.472,28.647,36.972,53.172,13.092,30.578,33.85,58.167,29.56,68.776,0,0-3.062-4.806-18.786,5.219-10.292,6.562-15.187,9.754-21.172,10.7.135.39.279.77.4,1.172,41.417,2.413,63.3,47.592,99.927,28.083,3.124-1.664,23.091-9.8,24.467-13.065,1.053-2.5,33.821,7.377,33.568,4.677C288.884,372.094,273.671,331.409,271.87,312.161Z"></path>
  <path class="cls-2" d="M62.108,307.19c0-.005,0-.009,0-.014C63.49,281.724,65.7,269.2,66.08,261.511c-10.854,16.166-12.007,32.945-22.307,63.011l16.77,6.963A162.946,162.946,0,0,1,62.108,307.19Z"></path>
  <path class="cls-3" d="M172.277,354.556c4.291-10.609-16.468-38.2-29.56-68.776-10.5-24.525-29.756-45.734-36.972-53.172a35.478,35.478,0,0,1-2.625,6.521c-1.382,2.571-3.191,4.92-4.278,7.629-1.12,2.793-1.227,6.407-.383,11.169,3.867,11.71,7.172,23.345,9.952,34.5l0,.013h0c7.766,31.159,11.423,58.547,11.7,73.256.558,2.917.861,4.566.861,4.566a40.311,40.311,0,0,0,11.342.215c5.985-.946,10.88-4.139,21.172-10.7C169.215,349.75,172.277,354.556,172.277,354.556Z"></path>
  <path class="cls-4" d="M108.416,292.438h0l0-.013c-2.78-11.153-6.086-22.788-9.952-34.5-.845-4.763-.737-8.377.383-11.169,1.086-2.709,2.9-5.058,4.278-7.629a35.478,35.478,0,0,0,2.625-6.521c.663-2.181,1.193-4.413,1.717-6.631.044-.187.079-.373.121-.56a47.961,47.961,0,0,0-2.5-29.055,2.4,2.4,0,0,0-2.036-1.562c-1.015-.054-1.5.713-1.866,1.451-1.628,3.325-1.855,7.155-3.051,10.659-1.334,3.906-4.627,7.793-8.979,6.889a6.6,6.6,0,0,1-5.081-6.519c-.052-5.739,5.51-9.228,10.724-9.176,1.5.015,3.057.262,4.429-.47a2.593,2.593,0,0,0,1.307-1.6,2.266,2.266,0,0,0-1.091-2.432c-7.6-6.273-20.81-3.341-25.037,5.558l-6.222-30.9c-.443-2.2-.969-4.559-2.974-5.847a3.179,3.179,0,0,0-3.38-.123c-1.3.8-1.339,2.217-1.343,3.512q-.037,10.6-.074,21.208L54.792,176.61c-.925-1.715-1.937-3.523-3.915-4.17a2.883,2.883,0,0,0-2.808.5c-1.229,1.084-.908,2.742-.543,4.171a316.273,316.273,0,0,0,11.21,35.233L39.006,199.809a1.878,1.878,0,0,0-1.948-.081c-1.316.775-.513,2.606.378,3.721A98.249,98.249,0,0,0,56.847,221.9c2.167,1.557,4.483,3.12,5.728,5.481,1,1.892,3.042,26.118,3.409,29.147a29.59,29.59,0,0,1,.1,4.988c-.382,7.684-2.59,20.213-3.975,45.665,0,.005,0,.009,0,.014a162.946,162.946,0,0,0-1.565,24.3c.239,15.955,3.245,31.544,10.509,45.826,5.581,10.971,15.959,21.776,28.127,20.008,10.419-1.514,17.382-11.785,20.26-21.919.531-1.868.763-5.191.678-9.705C119.84,350.985,116.183,323.6,108.416,292.438Z"></path>
  <path class="cls-5" d="M178.981,151.06s4.8-29.3-6.532-55.209-53.6-18.844-76.429,3.2c0,0,5.473-10.528,1.6-11.685S92.91,102.01,92.91,102.01s-9.431.182-9.883,3.241,10.112,1.189,10.112,1.189S78.811,121.9,112.1,168.282Z"></path>
  <path class="cls-4" d="M178.262,169.479c2.543,15.362,16.683,48.487,16.683,48.487s-14.544,26.792-36.183,27.5S124.17,215.96,124.17,215.96s2.517-20.679-1.416-36.549Z"></path>
  <path class="cls-6" d="M171.774,149.385a10.225,10.225,0,1,1,14.418-.975,10.24,10.24,0,0,1-14.418.975"></path>
  <path class="cls-6" d="M108.28,170.286a10.231,10.231,0,1,1,9.5-10.9,10.225,10.225,0,0,1-9.5,10.9"></path>
  <path class="cls-4" d="M177.74,137.242C170.628,103.338,158,90.322,124.549,96.8c-33.6,6.495-24.694,44.648-17.193,59.822,6.959,13.857,16.238,46.408,49.451,38.585,28.621-6.612,25.615-35.509,20.932-57.966"></path>
  <path class="cls-6" d="M178.84,173.774s-6.983,26.355-43.023,18.26c0,0,35.972,26.528,43.023-18.26"></path>
  <path class="cls-5" d="M109.97,162.252s-7.922-26.133-5.139-47.171c0,0,18.513,1.783,21.411-1.188s-5.314-4.459-5.314-4.459,29.327-.545,30.3-2.84-11.142-3.88-11.142-3.88l18.348-.114s15.247,15.173,18.258,30.47a102.772,102.772,0,0,0-2.167-19.358c-2.07-8.7-14.136-31.342-39.413-24.428S97.941,106.661,95.8,120.145,99.752,149.971,109.97,162.252Z"></path>
  <path class="cls-7" d="M157.5,129.713a2.326,2.326,0,1,0,1.445-3.114,2.478,2.478,0,0,0-1.445,3.114"></path>
  <path class="cls-7" d="M120.571,140.958a2.326,2.326,0,1,0,1.445-3.114,2.479,2.479,0,0,0-1.445,3.114"></path>
  <path class="cls-8" d="M143.452,171.955c2.516,2.631,13,4.943,17.352.631s1.116-13.869-1.4-16.5-4.312,2.891-8.627,7.372c-4.526,4.351-10.01,5.9-7.325,8.5"></path>
  <path class="cls-6" d="M137.5,130.159l14.876,12.869a3.191,3.191,0,0,1-.843,5.336l-9.661,4.12Z"></path>
  <path class="cls-5" d="M144.3,157.1c1.646-1.287,3.116-1.27,4.2-.574.162-1.275,1.093-2.415,3.136-2.85,7.089-1.512,17.271-4.426,19-3.228-2.868,3.473-12.443,9.943-16.833,10.891a4.159,4.159,0,0,1-3.454-.837,4.168,4.168,0,0,1-1.578,3.187c-3.546,2.759-14.65,5.948-19.151,5.917C129.819,167.507,138.591,161.568,144.3,157.1Z"></path>
  <path class="cls-9" d="M328.011,377.666l-.7,4.814c2.536-.378,4.521-.945,5.334-1.692A14.491,14.491,0,0,0,328.011,377.666Z"></path>
  <path class="cls-9" d="M177.418,374.707l.3-4.876a21.765,21.765,0,0,0-6.091,1.892A19.873,19.873,0,0,0,177.418,374.707Z"></path>
  <path class="cls-7" d="M309.922,461.89l-6.86,1.957a.994.994,0,0,1-.368.03.964.964,0,0,1-.849-1.126,44.057,44.057,0,0,1-9.589,1.656c-5.526.357-11.049,1.174-16.584,1.14-4.317-.033-9.542.824-13.818.321-2.171-.254-6.881-.747-11.43-1.221l-.024,1.338a.97.97,0,0,1-1.069.947l-6.154-.652a.969.969,0,0,1-.848-1.151l.255-1.3c-1.136-.12-2.042-.217-2.59-.28a78.81,78.81,0,0,1-10.6-1.645c-3.395-.891-7.546-1.419-10.974-2.154-7.01-1.506-20.885-5.792-24.135-7.238a21.7,21.7,0,0,1-7.87-3.671l-.025,1.422a.992.992,0,0,1,.013.311.968.968,0,0,1-1.063.86l-.026,0a.988.988,0,0,1-.353-.106l-6.3-3.351a.967.967,0,0,1-.483-1.094l1.325-5.289-.877-1.26c-7.874,1.566-11.1,3.716-11.292,5.538-.687,6.481,30.252,17.065,75.746,21.888s77.963.963,78.65-5.518c.166-1.563-1.8-3.832-7.022-6.455a32.957,32.957,0,0,1-4.164,3.085l.071,2.053A.972.972,0,0,1,309.922,461.89Z"></path>
  <path class="cls-7" d="M315.234,455.338c-.17.154-.345.3-.517.446,5.219,2.623,7.188,4.892,7.022,6.455-.687,6.481-33.156,10.342-78.65,5.518s-76.433-15.407-75.746-21.888c.193-1.821,3.417-3.972,11.292-5.538l-1.206-1.733c-6.48,1.377-11.642,3.57-12.013,7.066a3.6,3.6,0,0,1-.2,1.883c-.6,5.683,11.892,10.656,22.479,13.828,14.526,4.351,34.056,7.972,54.99,10.191s40.788,2.775,55.9,1.566c11.016-.881,24.276-3.123,24.878-8.806a3.6,3.6,0,0,1,.2-1.883c.31-2.923-2.847-5.657-7.423-8.056C315.906,454.715,315.569,455.035,315.234,455.338Z"></path>
  <path class="cls-3" d="M336.974,384.467a5.178,5.178,0,0,0,1.292-4.8c-.937-3.806-6.4-6.582-9.4-7.842l1.094-7.492c0-.005,0-.01,0-.015-1.017,8.93-40.359,9.636-76.9,5.761-36.118-3.829-73.972-12.607-74-21.447,0,.014-.01.027-.011.041l-.887,14.2a3.571,3.571,0,0,1,.6.1.97.97,0,0,1,.7,1.037l-.519,4.9a.969.969,0,0,1-.818.856c-.134.021-.263.047-.4.069l-.3,4.876a65.545,65.545,0,0,0,9.688,2.751,3.5,3.5,0,0,1,.731.235,4.542,4.542,0,0,0,.469.072,9.8,9.8,0,0,0,4.721-.928c.763-.319,1.424-.607,2-.862,3.478-1.516,5.391-2.3,9.519-.931,3.034,1.005,5.873,1.875,6.466,2.055.012.006.137.043.146.047a3.462,3.462,0,0,1-1.4,6.745,3.346,3.346,0,0,1-.639-.131c-.734-.223-3.643-1.115-6.748-2.141a7.273,7.273,0,0,0-1.352-.367c-.6-.064-1.165.169-3.222,1.069-.61.267-1.3.566-2.1.905a16.528,16.528,0,0,1-8.107,1.41,9.81,9.81,0,0,1-2.167-.461,73.61,73.61,0,0,1-8.452-2.253l-2.386,38.211c0,.022-.007.114-.013.26a9.48,9.48,0,0,1,4.383.492c3.33,1.355,7.777,4.121,9.05,8,1.388,4.232,2.37,8.8,5.947,10.789.423-4.059,4.119-8.549,7.213-9.65.244-.084.7-.184.768.224.672,4.223,1.182,8,4.642,10.558.443.328,4.621,3.462,5.412,2a14.894,14.894,0,0,1,2.248-2.781c1.787-1.95,6.124-6.551,9.275-6.665-2.538,3.562-3.265,9.077-1.074,12.475a7.891,7.891,0,0,0,3.82,4.4c.127-.094.251-.148.335-.107a4.247,4.247,0,0,0,1.336.452,5.481,5.481,0,0,0,4.14-2.361c.146-.178.284-.364.425-.546a22.283,22.283,0,0,0,2.41-6.237,19.062,19.062,0,0,1,1.38-4.128,12.983,12.983,0,0,1,4.586-4.9c2.924-1.832,5.732-2.452,8.957-3.17a12.708,12.708,0,0,1,1.55-.275,9.4,9.4,0,0,0-2.559,3.393c-.965,2.178-.421,4.316.593,6.351a6.424,6.424,0,0,0,.3,1.13c1.221,3.278,3.506,5.766,4.125,9.317a7.3,7.3,0,0,1-1.963,5.993,5.787,5.787,0,0,0,1.424-.474c3.964-1.989,3.291-4.754,3.611-7.889A7.6,7.6,0,0,1,258.6,443.3a13.888,13.888,0,0,1,9.746-5.18c.971-.019.445,1.224.093,1.717-2.378,3.32-.321,4.693,1.929,6.151a11.57,11.57,0,0,1,4.361,4.521c1.009,1.937.154,4.1-.719,5.645,2.686.162,4.326-11.2,5.161-6.948-.2-1.039-.407-2.075-.616-3.111a16.767,16.767,0,0,1-.549-4.861,11.729,11.729,0,0,1,3.069-6.461,14.144,14.144,0,0,1,2.447-2.207,15.792,15.792,0,0,1,8.523-.683,6.19,6.19,0,0,1-.419.583c-.613.734-2.121,1.847-2.105,2.9.04,2.7,1.225,3.36,2.72,4.879,1.4,1.416,4.629,3.731,4.842,6.079a8.894,8.894,0,0,1-1.605,5.786,12.484,12.484,0,0,0,2.218-1.513,13.345,13.345,0,0,0,2.848-3.8c.116-.249.235-.487.354-.726h0l0,0c.247-.5.505-.98.776-1.45.043-.076.09-.152.134-.228.27-.458.551-.911.86-1.365a9.258,9.258,0,0,1,.747-.93c.046-.051.092-.1.139-.151a12.469,12.469,0,0,1,4.73-3.111c1.593-.573.572,1.517.1,2.113-1.038,1.3-.447,3.9-.248,6.214l1.184.126a.965.965,0,0,1,.864.928l.018.536c1.125-1.9,1.973-4.1,2.642-5.5a21.009,21.009,0,0,1,3.576-5.3,16.642,16.642,0,0,1,3.174-2.639l6.857-46.97C330.738,387.835,334.93,386.742,336.974,384.467Zm-9.665-1.987.7-4.814a14.491,14.491,0,0,1,4.631,3.122C331.829,381.536,329.844,382.1,327.308,382.48Z"></path>
  <path class="cls-10" d="M253.056,370.078c36.542,3.874,75.884,3.168,76.9-5.761,0-.008,0-.015.006-.023.949-8.953-37.409-17.9-73.984-21.783s-75.962-3.169-76.911,5.784a3.084,3.084,0,0,0-.013.336C179.084,357.47,216.938,366.248,253.056,370.078Zm.2-1.928c-26.977-2.86-51.194-7.926-63.9-13.328,3.357-2.645,7.369-2.707,11.943-2.775,1-.015,2.016-.029,3.034-.075,2.486-.107,4.868-.424,7.173-.727a45.27,45.27,0,0,1,10.869-.561,22.956,22.956,0,0,1,3.7.7,35.7,35.7,0,0,0,15.077,1.047,54.59,54.59,0,0,1,13.231-.646,31.08,31.08,0,0,1,6.866,1.536,41.517,41.517,0,0,0,15.574,2.691,25.031,25.031,0,0,1,3.17.142,60.261,60.261,0,0,1,11.453,2.793c1.393.437,2.778.87,4.154,1.262a18.238,18.238,0,0,0,3.1.569c1.077.114,2.177.167,3.239.22s2.066.1,3.051.2c2.834.3,5.668,1.045,7.209,4.435a7,7,0,0,0,3.577,3.354C301.752,371.093,278.242,370.8,253.26,368.15Z"></path>
  <path class="cls-11" d="M312.2,365.632c-1.54-3.389-4.374-4.134-7.209-4.435-.985-.1-1.986-.153-3.051-.2s-2.161-.106-3.239-.22a18.238,18.238,0,0,1-3.1-.569c-1.376-.392-2.761-.825-4.154-1.262A60.261,60.261,0,0,0,280,356.151a25.031,25.031,0,0,0-3.17-.142,41.517,41.517,0,0,1-15.574-2.691,31.08,31.08,0,0,0-6.866-1.536,54.59,54.59,0,0,0-13.231.646,35.7,35.7,0,0,1-15.077-1.047,22.956,22.956,0,0,0-3.7-.7,45.27,45.27,0,0,0-10.869.561c-2.3.3-4.687.619-7.173.727-1.018.045-2.032.059-3.034.075-4.574.068-8.586.13-11.943,2.775,12.705,5.4,36.923,10.468,63.9,13.328,24.982,2.649,48.492,2.943,62.519.836A7,7,0,0,1,312.2,365.632Z"></path>
  <path class="cls-12" d="M185.42,384.176a9.81,9.81,0,0,0,2.167.461,16.528,16.528,0,0,0,8.107-1.41c.8-.339,1.492-.638,2.1-.905,2.057-.9,2.621-1.133,3.222-1.069a7.273,7.273,0,0,1,1.352.367c3.105,1.026,6.014,1.917,6.748,2.141a3.346,3.346,0,0,0,.639.131,3.462,3.462,0,0,0,1.4-6.745c-.01,0-.135-.041-.146-.047-.593-.18-3.432-1.05-6.466-2.055-4.127-1.364-6.04-.585-9.519.931-.577.255-1.237.542-2,.862a9.8,9.8,0,0,1-4.721.928,4.542,4.542,0,0,1-.469-.072,3.5,3.5,0,0,0-.731-.235,65.545,65.545,0,0,1-9.688-2.751,19.873,19.873,0,0,1-5.786-2.984,21.765,21.765,0,0,1,6.091-1.892c.132-.023.261-.049.4-.069a.969.969,0,0,0,.818-.856l.519-4.9a.97.97,0,0,0-.7-1.037,3.571,3.571,0,0,0-.6-.1,3.471,3.471,0,0,0-.826,0c-3.053.437-10.376,1.915-12.457,6.179a5.823,5.823,0,0,0,.281,5.584c1.878,3.276,7.039,5.683,11.812,7.284A73.61,73.61,0,0,0,185.42,384.176Z"></path>
  <path class="cls-13" d="M303.006,456.447c.023,0,.048,0,.071,0l.035-.179C302.982,456.385,302.922,456.441,303.006,456.447Z"></path>
  <path class="cls-13" d="M181.383,434.313a.957.957,0,0,1,.936-.5l3.475.368a.966.966,0,0,1,.866.979l-.1,5.683c1.778,3,3.591,5.708,6.583,7.778.993.688,6.091,2.218,4.391.05-2.483-3.171-2.316-4.589-1.942-8.437.3-3.073,3.888-5.572,5.918-7.708-.575,2.811-.693,5.848.709,8.289a17.149,17.149,0,0,0,4.6,4.836c2.676,2.148,5.454,8.687,5.7,8.047,1.185-3.141,1.848-6.415,3.436-9.374a15.716,15.716,0,0,1,2.966-3.664c-.1.6-.186,1.206-.236,1.832-.385,5.135,3.634,8.792,3.424,13.869-.023.539,9.338.089,11.954-7.323,1.03-2.911,1.558-6.142,2.281-9.065a13.243,13.243,0,0,1,5.327-7.558c-1.554,2.9-2.163,5.813-.4,9.159,1.094,2.081,2.979,3.637,4.448,5.377a9.852,9.852,0,0,1,1.495,2.455l2.6.276a.968.968,0,0,1,.867.979l-.173,9.814a14.336,14.336,0,0,0,6.24-5.525c1.448-2.231,1.139-5.049,1.29-7.6.183-3.18,2.866-5.209,5.514-6.506a6.876,6.876,0,0,0-.07,7.569c2.412,3.937,8.131,7.682,5.67,13.183-.271.61,10.095-4.741,12.4-9.736,1.5-3.243-.248-6.431-.944-9.543a8.865,8.865,0,0,1,2.159-7.927c-3.319,7.288,15.152,16.959,8.01,24.322-.52.538,6.7-1.023,8.27-4.151a16.991,16.991,0,0,0,1.525-6.511,13.636,13.636,0,0,1,.336-1.982c-.119.239-.238.478-.354.726a13.345,13.345,0,0,1-2.848,3.8,12.484,12.484,0,0,1-2.218,1.513,8.894,8.894,0,0,0,1.605-5.786c-.212-2.348-3.446-4.663-4.842-6.079-1.495-1.519-2.679-2.179-2.72-4.879-.016-1.054,1.492-2.167,2.105-2.9a6.19,6.19,0,0,0,.419-.583,15.792,15.792,0,0,0-8.523.683,14.144,14.144,0,0,0-2.447,2.207,11.729,11.729,0,0,0-3.069,6.461,16.767,16.767,0,0,0,.549,4.861c.21,1.036.413,2.072.616,3.111-.835-4.249-2.475,7.109-5.161,6.948.873-1.548,1.727-3.708.719-5.645a11.57,11.57,0,0,0-4.361-4.521c-2.25-1.458-4.307-2.831-1.929-6.151.352-.493.878-1.736-.093-1.717a13.888,13.888,0,0,0-9.746,5.18,7.6,7.6,0,0,0-1.705,3.477c-.32,3.135.353,5.9-3.611,7.889a5.787,5.787,0,0,1-1.424.474,7.3,7.3,0,0,0,1.963-5.993c-.619-3.551-2.9-6.039-4.125-9.317a6.424,6.424,0,0,1-.3-1.13c-1.014-2.035-1.558-4.173-.593-6.351a9.4,9.4,0,0,1,2.559-3.393,12.708,12.708,0,0,0-1.55.275c-3.226.719-6.034,1.338-8.957,3.17a12.983,12.983,0,0,0-4.586,4.9,19.062,19.062,0,0,0-1.38,4.128,22.283,22.283,0,0,1-2.41,6.237c-.141.182-.279.368-.425.546a5.481,5.481,0,0,1-4.14,2.361,4.247,4.247,0,0,1-1.336-.452c-.085-.042-.208.012-.335.107a7.891,7.891,0,0,1-3.82-4.4c-2.191-3.4-1.464-8.913,1.074-12.475-3.151.114-7.488,4.715-9.275,6.665a14.894,14.894,0,0,0-2.248,2.781c-.791,1.465-4.969-1.669-5.412-2-3.46-2.556-3.969-6.335-4.642-10.558-.063-.408-.524-.307-.768-.224-3.093,1.1-6.789,5.59-7.213,9.65-3.577-1.984-4.559-6.558-5.947-10.789-1.273-3.877-5.72-6.643-9.05-8a9.48,9.48,0,0,0-4.383-.492c-3.769.354-8.033,2.343-10.091,5.474,4.259-.514,7.859,1.686,10.485,5.523A19.222,19.222,0,0,1,181.383,434.313Z"></path>
  <path class="cls-13" d="M316.422,437.944a21.009,21.009,0,0,0-3.576,5.3c-.669,1.406-1.518,3.6-2.642,5.5l.2,5.826a13.042,13.042,0,0,0,3.9-3.461,26.315,26.315,0,0,0,3.187-7.046c.6-1.685,2.749-3.448,4.829-4.719a15.869,15.869,0,0,1,4.627-6.04c-.046-.251-.213-.431-.6-.419a13.966,13.966,0,0,0-6.749,2.419A16.642,16.642,0,0,0,316.422,437.944Z"></path>
  <path class="cls-13" d="M302.672,443.019a9.257,9.257,0,0,1,.747-.93A9.258,9.258,0,0,0,302.672,443.019Z"></path>
  <path class="cls-13" d="M301.812,444.384c.27-.459.55-.912.86-1.365C302.362,443.473,302.082,443.926,301.812,444.384Z"></path>
  <path class="cls-13" d="M303.9,443.87a28.393,28.393,0,0,1,.971,3.618.955.955,0,0,1,.972-.576l2.291.243c-.2-2.312-.79-4.918.248-6.214.475-.6,1.5-2.687-.1-2.113a12.469,12.469,0,0,0-4.73,3.111,11.613,11.613,0,0,1,.86-.832C304.135,441.932,303.58,442.908,303.9,443.87Z"></path>
  <path class="cls-13" d="M300.9,446.062c.248-.5.505-.978.776-1.45C301.406,445.083,301.149,445.565,300.9,446.062Z"></path>
  <path class="cls-5" d="M178.635,440.331l.877,1.26,1.767-7.05a.944.944,0,0,1,.1-.228,19.222,19.222,0,0,0-6.421-2.923,11.136,11.136,0,0,0-2.842-.337c.664.874,3,4.228,5.309,7.545Z"></path>
  <path class="cls-5" d="M317.488,444.063a26.315,26.315,0,0,1-3.187,7.046,13.042,13.042,0,0,1-3.9,3.461l.148,4.3a32.957,32.957,0,0,0,4.164-3.085c.172-.149.347-.292.517-.446.334-.3.672-.623,1.008-.952a20.356,20.356,0,0,0,3.987-5.146c.483-2.015.792-4.138,1.082-6.194.288-2.017,2.553-3.5,3.371-4.957a20.781,20.781,0,0,0-2.365,1.254C320.236,440.615,318.089,442.379,317.488,444.063Z"></path>
  <path class="cls-5" d="M186.42,448.841a21.7,21.7,0,0,0,7.87,3.671c3.25,1.447,17.125,5.732,24.135,7.238,3.428.736,7.579,1.263,10.974,2.154A78.81,78.81,0,0,0,240,463.55c.548.062,1.454.16,2.59.28l2.693-13.738a.969.969,0,0,1,1.053-.776l.873.093a9.852,9.852,0,0,0-1.495-2.455c-1.469-1.741-3.354-3.3-4.448-5.377-1.758-3.346-1.149-6.262.4-9.159a13.243,13.243,0,0,0-5.327,7.558c-.723,2.923-1.251,6.154-2.281,9.065-2.616,7.412-11.977,7.863-11.954,7.323.21-5.077-3.809-8.734-3.424-13.869.05-.626.134-1.231.236-1.832a15.716,15.716,0,0,0-2.966,3.664c-1.588,2.959-2.251,6.233-3.436,9.374-.242.641-3.02-5.9-5.7-8.047a17.149,17.149,0,0,1-4.6-4.836c-1.4-2.441-1.285-5.478-.709-8.289-2.03,2.136-5.617,4.635-5.918,7.708-.375,3.848-.542,5.266,1.942,8.437,1.7,2.168-3.4.638-4.391-.05-2.991-2.07-4.8-4.776-6.583-7.778Z"></path>
  <path class="cls-5" d="M299.038,454.559c-1.567,3.128-8.789,4.689-8.27,4.151,7.142-7.362-11.329-17.034-8.01-24.322a8.865,8.865,0,0,0-2.159,7.927c.7,3.112,2.442,6.3.944,9.543-2.306,4.995-12.672,10.346-12.4,9.736,2.461-5.5-3.259-9.246-5.67-13.183a6.876,6.876,0,0,1,.07-7.569c-2.648,1.3-5.331,3.326-5.514,6.506-.151,2.555.158,5.372-1.29,7.6a14.336,14.336,0,0,1-6.24,5.525l-.074,4.169c4.548.473,9.258.967,11.43,1.221,4.276.5,9.5-.354,13.818-.321,5.534.034,11.058-.783,16.584-1.14a44.057,44.057,0,0,0,9.589-1.656c0-.008,0-.015,0-.023l1.231-6.28c-.023,0-.048,0-.071,0-.084-.006-.024-.062.106-.178l1.682-8.581a.933.933,0,0,1,.08-.2,28.393,28.393,0,0,0-.971-3.618c-.323-.962.232-1.939.515-2.763a11.613,11.613,0,0,0-.86.832c-.047.05-.093.1-.139.151a9.257,9.257,0,0,0-.747.93c-.311.453-.591.906-.86,1.365-.044.075-.091.152-.134.228-.271.473-.528.952-.776,1.45l0,0h0a13.636,13.636,0,0,0-.336,1.982A16.991,16.991,0,0,1,299.038,454.559Z"></path>
  <path class="cls-7" d="M245.278,450.092l-2.693,13.738-.255,1.3a.969.969,0,0,0,.848,1.151l6.154.652a.97.97,0,0,0,1.069-.947l.024-1.338.074-4.169.173-9.814a.968.968,0,0,0-.867-.979l-2.6-.276-.873-.093A.969.969,0,0,0,245.278,450.092Z"></path>
  <path class="cls-7" d="M304.874,447.488a.933.933,0,0,0-.08.2l-1.682,8.581-.035.179-1.231,6.28c0,.008,0,.016,0,.023a.964.964,0,0,0,.849,1.126.994.994,0,0,0,.368-.03l6.86-1.957a.972.972,0,0,0,.7-.968l-.071-2.053-.148-4.3-.2-5.826-.018-.536a.965.965,0,0,0-.864-.928l-1.184-.126-2.291-.243A.955.955,0,0,0,304.874,447.488Z"></path>
  <path class="cls-7" d="M178.187,446.88a.967.967,0,0,0,.483,1.094l6.3,3.351a.988.988,0,0,0,.353.106l.026,0a.968.968,0,0,0,1.063-.86.992.992,0,0,0-.013-.311l.025-1.422.14-8,.1-5.683a.966.966,0,0,0-.866-.979l-3.475-.368a.957.957,0,0,0-.936.5.944.944,0,0,0-.1.228l-1.767,7.05Z"></path>
  <path class="cls-5" d="M451,168.637c0,5.607-9.275,10.533-9.956,15.931-.733,5.554,6.968,12.682,5.556,17.973-1.417,5.4-11.686,7.756-13.782,12.786-2.147,5.136,3.406,14.043.682,18.813-2.778,4.769-13.26,4.4-16.613,8.8s-.313,14.411-4.19,18.341c-3.879,3.877-13.94.838-18.343,4.192-4.348,3.353-3.983,13.834-8.8,16.611-4.767,2.778-13.676-2.777-18.812-.682-5.083,2.1-7.441,12.315-12.787,13.782-5.291,1.414-12.417-6.288-17.972-5.554-5.4.681-10.323,9.955-15.93,9.955s-10.534-9.275-15.932-9.955c-5.553-.734-12.681,6.969-17.975,5.554-5.4-1.414-7.754-11.685-12.785-13.782-5.136-2.148-14.044,3.407-18.812.682-4.769-2.777-4.4-13.258-8.806-16.611s-14.409-.315-18.339-4.192c-3.879-3.878-.837-13.939-4.192-18.341-3.355-4.35-13.836-3.983-16.611-8.8-2.78-4.769,2.776-13.677.68-18.813-2.1-5.083-12.313-7.442-13.782-12.786-1.412-5.291,6.237-12.419,5.556-17.973-.682-5.4-9.956-10.324-9.956-15.931s9.275-10.533,9.956-15.931c.735-5.554-6.968-12.681-5.556-17.973,1.417-5.4,11.686-7.756,13.782-12.786,2.149-5.135-3.406-14.044-.68-18.813,2.776-4.768,13.256-4.4,16.611-8.8s.313-14.411,4.192-18.341c3.877-3.877,13.938-.838,18.339-4.192,4.352-3.353,3.983-13.833,8.806-16.611,4.767-2.778,13.676,2.778,18.812.682,5.083-2.1,7.441-12.315,12.785-13.782,5.294-1.414,12.421,6.288,17.975,5.554,5.4-.681,10.323-9.955,15.932-9.955s10.534,9.275,15.93,9.955c5.556.734,12.681-6.969,17.972-5.554,5.4,1.415,7.758,11.686,12.787,13.782,5.136,2.148,14.044-3.406,18.812-.682,4.769,2.778,4.4,13.258,8.8,16.611s14.411.315,18.343,4.192c3.877,3.878.837,13.94,4.19,18.341,3.353,4.35,13.836,3.983,16.613,8.8,2.776,4.768-2.778,13.678-.682,18.813,2.1,5.083,12.315,7.441,13.782,12.786,1.412,5.292-6.288,12.419-5.556,17.973C441.725,158.1,451,163.03,451,168.637Z"></path>
  <path class="cls-8" d="M234.732,129.763a3.209,3.209,0,0,1-1.015-2.521,3.324,3.324,0,0,1,1.015-2.556,4.33,4.33,0,0,1,3.047-.944H252.2a4.33,4.33,0,0,1,3.045.944,3.325,3.325,0,0,1,1.016,2.556,3.209,3.209,0,0,1-1.016,2.521,4.436,4.436,0,0,1-3.045.91H237.779A4.436,4.436,0,0,1,234.732,129.763Z"></path>
  <path class="cls-8" d="M299.461,142.226q0,3.712-4.2,3.711H271.595q-4.271,0-4.271-3.711,0-3.571,4.271-3.57h7.282V106.728l-6.722,4.132a3.616,3.616,0,0,1-1.75.56,3.085,3.085,0,0,1-2.486-1.26,4.357,4.357,0,0,1-1.015-2.8,3.512,3.512,0,0,1,1.82-3.151l10.853-6.721a7.793,7.793,0,0,1,3.99-1.261,4.266,4.266,0,0,1,3.151,1.19,4.45,4.45,0,0,1,1.189,3.291v37.948h7.352Q299.461,138.655,299.461,142.226Z"></path>
  <path class="cls-8" d="M309.823,140.09q-4.622-6.475-4.621-18.869,0-12.321,4.621-18.8T323.2,95.945q8.751,0,13.373,6.477t4.62,18.8q0,12.324-4.62,18.835T323.2,146.566Q314.442,146.566,309.823,140.09Zm20.3-4.971q2.168-4.375,2.17-13.9,0-9.59-2.17-13.9a7.719,7.719,0,0,0-13.863.035q-2.171,4.342-2.171,13.862t2.171,13.9a7.678,7.678,0,0,0,13.863,0Z"></path>
  <path class="cls-8" d="M350.5,122.2q-3.293-3.85-3.291-11.272,0-7.351,3.291-11.2t9.172-3.851a11.524,11.524,0,0,1,9.207,3.851q3.324,3.851,3.325,11.2,0,7.422-3.325,11.272a11.521,11.521,0,0,1-9.207,3.851Q353.792,126.052,350.5,122.2Zm13.058-4.025q1.225-2.206,1.225-7.247,0-4.9-1.26-7.142a4.136,4.136,0,0,0-3.851-2.24,4.07,4.07,0,0,0-3.816,2.205q-1.226,2.206-1.225,7.177,0,5.042,1.225,7.247a4.07,4.07,0,0,0,3.816,2.205A4.129,4.129,0,0,0,363.56,118.176Zm2.346,28.461a3.458,3.458,0,0,1-1.82.561,3.17,3.17,0,0,1-3.151-3.221,4.661,4.661,0,0,1,.7-2.381l25.485-44.04a4.515,4.515,0,0,1,1.541-1.68,3.447,3.447,0,0,1,1.82-.561,3.168,3.168,0,0,1,3.15,3.221,4.668,4.668,0,0,1-.7,2.381l-25.485,44.039A4.517,4.517,0,0,1,365.905,146.637Zm19.813-4.061q-3.292-3.85-3.29-11.343,0-7.352,3.325-11.168a11.49,11.49,0,0,1,9.138-3.815q5.881,0,9.172,3.851t3.29,11.2q0,7.421-3.29,11.272t-9.172,3.851Q389.01,146.427,385.719,142.576Zm13.023-4.026q1.26-2.2,1.26-7.246,0-4.9-1.26-7.142a4.429,4.429,0,0,0-7.7,0q-1.26,2.241-1.26,7.142,0,5.041,1.26,7.246a4.464,4.464,0,0,0,7.7,0Z"></path>
  <path class="cls-8" d="M240.872,175.965a1.536,1.536,0,0,1-.824-1.392,1.223,1.223,0,0,1,.283-.837.891.891,0,0,1,.7-.322,2.857,2.857,0,0,1,1.211.412,11.248,11.248,0,0,0,1.506.593,6.13,6.13,0,0,0,1.739.206,3.308,3.308,0,0,0,1.688-.36,1.119,1.119,0,0,0,.605-1,.971.971,0,0,0-.245-.7,2.262,2.262,0,0,0-.875-.477,18.827,18.827,0,0,0-1.92-.5,7.387,7.387,0,0,1-3.285-1.313,2.928,2.928,0,0,1-.991-2.345,3.383,3.383,0,0,1,.67-2.048,4.337,4.337,0,0,1,1.842-1.417,6.712,6.712,0,0,1,2.667-.5,8.017,8.017,0,0,1,2.086.271,6.345,6.345,0,0,1,1.8.786,1.555,1.555,0,0,1,.824,1.365,1.325,1.325,0,0,1-.283.863.868.868,0,0,1-.7.348,1.391,1.391,0,0,1-.554-.116,7.493,7.493,0,0,1-.684-.348,10.571,10.571,0,0,0-1.288-.579,4.01,4.01,0,0,0-1.339-.193,2.6,2.6,0,0,0-1.508.386,1.222,1.222,0,0,0-.554,1.057,1.071,1.071,0,0,0,.567.979,8.109,8.109,0,0,0,2.189.669,12.526,12.526,0,0,1,2.705.825,3.17,3.17,0,0,1,1.4,1.159,3.364,3.364,0,0,1,.425,1.777,3.3,3.3,0,0,1-1.456,2.808,6.454,6.454,0,0,1-3.877,1.057A8.284,8.284,0,0,1,240.872,175.965Z"></path>
  <path class="cls-8" d="M264.47,164.423a1.451,1.451,0,0,1,.438,1.108v10a1.4,1.4,0,0,1-.451,1.082,1.671,1.671,0,0,1-1.172.412,1.558,1.558,0,0,1-1.108-.386,1.379,1.379,0,0,1-.412-1.057v-.645a4.109,4.109,0,0,1-1.6,1.585,4.62,4.62,0,0,1-2.268.554q-4.638,0-4.637-5.2v-6.337a1.45,1.45,0,0,1,.438-1.108,1.625,1.625,0,0,1,1.159-.412,1.664,1.664,0,0,1,1.186.412,1.45,1.45,0,0,1,.438,1.108v6.363a3.042,3.042,0,0,0,.541,1.983,2.1,2.1,0,0,0,1.7.644,2.772,2.772,0,0,0,2.151-.889,3.36,3.36,0,0,0,.812-2.357v-5.744a1.45,1.45,0,0,1,.438-1.108,1.625,1.625,0,0,1,1.16-.412A1.66,1.66,0,0,1,264.47,164.423Z"></path>
  <path class="cls-8" d="M276.346,164.294a1.259,1.259,0,0,1,.387,1,1.4,1.4,0,0,1-.335,1.03,2.054,2.054,0,0,1-1.211.438l-.772.077a3.13,3.13,0,0,0-2.229,1.03,3.37,3.37,0,0,0-.709,2.19v5.409a1.427,1.427,0,0,1-.464,1.146,1.71,1.71,0,0,1-1.159.4,1.663,1.663,0,0,1-1.146-.4,1.448,1.448,0,0,1-.45-1.146V165.5a1.378,1.378,0,0,1,.45-1.107,1.661,1.661,0,0,1,1.121-.387,1.551,1.551,0,0,1,1.082.374,1.37,1.37,0,0,1,.412,1.068v1.031a3.809,3.809,0,0,1,1.456-1.752,4.462,4.462,0,0,1,2.15-.7l.361-.025A1.389,1.389,0,0,1,276.346,164.294Z"></path>
  <path class="cls-8" d="M285.556,176.621a1.448,1.448,0,0,1-.45-1.146v-15.38a1.407,1.407,0,0,1,.45-1.133,1.7,1.7,0,0,1,1.146-.387,1.747,1.747,0,0,1,1.159.387,1.388,1.388,0,0,1,.464,1.133v15.38a1.427,1.427,0,0,1-.464,1.146,1.71,1.71,0,0,1-1.159.4A1.663,1.663,0,0,1,285.556,176.621Z"></path>
  <path class="cls-8" d="M302.327,173.749a1.393,1.393,0,0,1,.271.9,1.56,1.56,0,0,1-.953,1.34,8.611,8.611,0,0,1-1.983.786,8.184,8.184,0,0,1-2.112.3,6.562,6.562,0,0,1-4.817-1.752,6.42,6.42,0,0,1-1.778-4.792,7.345,7.345,0,0,1,.773-3.426,5.613,5.613,0,0,1,2.177-2.318,6.164,6.164,0,0,1,3.182-.825,5.719,5.719,0,0,1,2.963.747,5.08,5.08,0,0,1,1.958,2.113,7.006,7.006,0,0,1,.7,3.22q0,1.109-.979,1.108h-7.6a4.056,4.056,0,0,0,1,2.614,3.38,3.38,0,0,0,2.474.838,4.68,4.68,0,0,0,1.455-.207,13.984,13.984,0,0,0,1.43-.566,2.853,2.853,0,0,1,1.134-.412A.867.867,0,0,1,302.327,173.749Zm-7.265-6.7a3.893,3.893,0,0,0-.94,2.37h5.822a3.674,3.674,0,0,0-.772-2.383,2.551,2.551,0,0,0-2.01-.812A2.763,2.763,0,0,0,295.063,167.051Z"></path>
  <path class="cls-8" d="M322.446,164.784a5.466,5.466,0,0,1,1.984,2.331,8.068,8.068,0,0,1,.708,3.465,7.813,7.813,0,0,1-.708,3.427,5.2,5.2,0,0,1-4.882,3.065,5,5,0,0,1-2.4-.566,3.979,3.979,0,0,1-1.623-1.572v5.256a1.337,1.337,0,0,1-.437,1.057,1.692,1.692,0,0,1-1.159.386,1.672,1.672,0,0,1-1.173-.412,1.4,1.4,0,0,1-.45-1.082V165.531a1.474,1.474,0,0,1,.425-1.108,1.577,1.577,0,0,1,1.146-.412,1.625,1.625,0,0,1,1.159.412,1.451,1.451,0,0,1,.438,1.108v.644a3.948,3.948,0,0,1,1.636-1.636,5.018,5.018,0,0,1,2.435-.58A5.216,5.216,0,0,1,322.446,164.784Zm-1.378,8.746a4.559,4.559,0,0,0,.851-2.95,4.818,4.818,0,0,0-.851-3.04,3.175,3.175,0,0,0-4.753-.025,5.8,5.8,0,0,0,0,6,3.216,3.216,0,0,0,4.753.013Z"></path>
  <path class="cls-8" d="M335.882,164.294a1.259,1.259,0,0,1,.387,1,1.4,1.4,0,0,1-.335,1.03,2.054,2.054,0,0,1-1.211.438l-.772.077a3.13,3.13,0,0,0-2.229,1.03,3.37,3.37,0,0,0-.709,2.19v5.409a1.427,1.427,0,0,1-.464,1.146,1.71,1.71,0,0,1-1.159.4,1.663,1.663,0,0,1-1.146-.4,1.448,1.448,0,0,1-.45-1.146V165.5a1.378,1.378,0,0,1,.45-1.107,1.661,1.661,0,0,1,1.121-.387,1.551,1.551,0,0,1,1.082.374,1.37,1.37,0,0,1,.412,1.068v1.031a3.809,3.809,0,0,1,1.456-1.752,4.462,4.462,0,0,1,2.15-.7l.361-.025A1.389,1.389,0,0,1,335.882,164.294Z"></path>
  <path class="cls-8" d="M337.866,161.241a1.621,1.621,0,0,1-.516-1.249,1.583,1.583,0,0,1,.516-1.237,2.3,2.3,0,0,1,2.77,0,1.567,1.567,0,0,1,.527,1.237,1.624,1.624,0,0,1-.515,1.249,2.269,2.269,0,0,1-2.782,0Zm.244,15.38a1.448,1.448,0,0,1-.45-1.146v-9.943a1.41,1.41,0,0,1,.45-1.134,1.7,1.7,0,0,1,1.146-.387,1.747,1.747,0,0,1,1.159.387,1.391,1.391,0,0,1,.464,1.134v9.943a1.427,1.427,0,0,1-.464,1.146,1.71,1.71,0,0,1-1.159.4A1.663,1.663,0,0,1,338.11,176.621Z"></path>
  <path class="cls-8" d="M355.59,175.553a1.425,1.425,0,0,1-.438,1.018,1.392,1.392,0,0,1-1.03.45,1.41,1.41,0,0,1-1.107-.541l-3.633-4.019-3.632,4.019a1.5,1.5,0,0,1-1.108.516,1.5,1.5,0,0,1-1.442-1.442,1.454,1.454,0,0,1,.464-1.057l3.761-4.1-3.555-3.864a1.451,1.451,0,0,1-.464-1.056,1.367,1.367,0,0,1,.438-1.018,1.4,1.4,0,0,1,1-.426,1.5,1.5,0,0,1,1.108.516l3.426,3.762,3.427-3.762a1.5,1.5,0,0,1,1.107-.516,1.454,1.454,0,0,1,1.443,1.443,1.454,1.454,0,0,1-.464,1.056l-3.556,3.864,3.787,4.1A1.454,1.454,0,0,1,355.59,175.553Z"></path>
  <path class="cls-8" d="M376.586,158.987a1.377,1.377,0,0,1,.464,1.082v15.405a1.449,1.449,0,0,1-.437,1.108,1.836,1.836,0,0,1-2.318,0,1.446,1.446,0,0,1-.438-1.108v-.644a4.029,4.029,0,0,1-1.636,1.648,4.933,4.933,0,0,1-2.435.593,5.221,5.221,0,0,1-2.9-.824,5.467,5.467,0,0,1-1.983-2.332,8.047,8.047,0,0,1-.709-3.465,7.794,7.794,0,0,1,.709-3.426,5.2,5.2,0,0,1,4.882-3.066,5.045,5.045,0,0,1,2.422.567,3.935,3.935,0,0,1,1.623,1.6v-6.105a1.367,1.367,0,0,1,.425-1.043,1.6,1.6,0,0,1,1.146-.4A1.717,1.717,0,0,1,376.586,158.987Zm-3.567,14.53a4.757,4.757,0,0,0,.837-3.015,4.7,4.7,0,0,0-.837-3,2.851,2.851,0,0,0-2.357-1.044,2.932,2.932,0,0,0-2.4,1.03,4.544,4.544,0,0,0-.851,2.963,4.81,4.81,0,0,0,.851,3.04,3.176,3.176,0,0,0,4.753.026Z"></path>
  <path class="cls-8" d="M391.5,164.423a1.451,1.451,0,0,1,.438,1.108v10a1.4,1.4,0,0,1-.451,1.082,1.671,1.671,0,0,1-1.172.412,1.558,1.558,0,0,1-1.108-.386,1.379,1.379,0,0,1-.412-1.057v-.645a4.109,4.109,0,0,1-1.6,1.585,4.62,4.62,0,0,1-2.268.554q-4.638,0-4.637-5.2v-6.337a1.45,1.45,0,0,1,.438-1.108,1.625,1.625,0,0,1,1.159-.412,1.664,1.664,0,0,1,1.186.412,1.45,1.45,0,0,1,.438,1.108v6.363a3.042,3.042,0,0,0,.541,1.983,2.1,2.1,0,0,0,1.7.644,2.772,2.772,0,0,0,2.151-.889,3.36,3.36,0,0,0,.812-2.357v-5.744a1.45,1.45,0,0,1,.438-1.108,1.625,1.625,0,0,1,1.16-.412A1.66,1.66,0,0,1,391.5,164.423Z"></path>
  <path class="cls-8" d="M279.8,206.39a1.521,1.521,0,0,1-.425,1.057,1.308,1.308,0,0,1-.992.464,1.513,1.513,0,0,1-1.057-.464l-6.028-5.462v4.405a1.39,1.39,0,0,1-.464,1.134,1.747,1.747,0,0,1-1.159.387,1.7,1.7,0,0,1-1.146-.387,1.409,1.409,0,0,1-.45-1.134V191.01a1.407,1.407,0,0,1,.45-1.133,1.7,1.7,0,0,1,1.146-.387,1.747,1.747,0,0,1,1.159.387,1.388,1.388,0,0,1,.464,1.133V200.7l5.514-5.281a1.456,1.456,0,0,1,1.056-.464,1.5,1.5,0,0,1,1.469,1.469,1.5,1.5,0,0,1-.489,1.082l-4.045,3.762,4.482,4.019A1.493,1.493,0,0,1,279.8,206.39Z"></path>
  <path class="cls-8" d="M305.522,189.722a1.611,1.611,0,0,1,.889-.258,1.59,1.59,0,0,1,1.069.387,1.292,1.292,0,0,1,.45,1.03,2.62,2.62,0,0,1-.128.67l-5.539,15.329a1.592,1.592,0,0,1-.683.8,2,2,0,0,1-1.044.284,2.065,2.065,0,0,1-1.056-.284,1.448,1.448,0,0,1-.67-.8l-4.276-12.135-4.354,12.135a1.592,1.592,0,0,1-.683.8,2.058,2.058,0,0,1-2.087,0,1.46,1.46,0,0,1-.656-.8l-5.539-15.329a2.166,2.166,0,0,1-.129-.67,1.258,1.258,0,0,1,.477-1.03,1.808,1.808,0,0,1,2.048-.129,1.435,1.435,0,0,1,.593.773l4.38,12.6,4.508-12.521a1.629,1.629,0,0,1,.593-.812,1.513,1.513,0,0,1,.9-.3,1.573,1.573,0,0,1,.915.3,1.6,1.6,0,0,1,.605.837l4.379,12.649,4.457-12.752A1.454,1.454,0,0,1,305.522,189.722Z"></path>
  <path class="cls-8" d="M322.28,200.053v6.337a1.505,1.505,0,0,1-.425,1.134,1.616,1.616,0,0,1-1.173.412,1.66,1.66,0,0,1-1.185-.412,1.481,1.481,0,0,1-.438-1.134v-6.337a2.986,2.986,0,0,0-.554-2,2.2,2.2,0,0,0-1.738-.631,2.938,2.938,0,0,0-2.229.876,3.25,3.25,0,0,0-.838,2.345v5.744a1.48,1.48,0,0,1-.437,1.134,1.662,1.662,0,0,1-1.186.412,1.613,1.613,0,0,1-1.172-.412,1.505,1.505,0,0,1-.425-1.134V190.984a1.4,1.4,0,0,1,.45-1.082,1.9,1.9,0,0,1,2.332-.025,1.334,1.334,0,0,1,.438,1.056v6a4.224,4.224,0,0,1,1.714-1.533,5.428,5.428,0,0,1,2.435-.528Q322.279,194.874,322.28,200.053Z"></path>
  <path class="cls-8" d="M348.2,189.94a1.647,1.647,0,0,1,.438,1.2v15.123a1.664,1.664,0,0,1-.451,1.21,1.729,1.729,0,0,1-2.357,0,1.688,1.688,0,0,1-.437-1.21V199.9h-9.3v6.363a1.663,1.663,0,0,1-.45,1.21,1.594,1.594,0,0,1-1.2.464,1.558,1.558,0,0,1-1.172-.464,1.66,1.66,0,0,1-.451-1.21V191.139a1.647,1.647,0,0,1,.438-1.2,1.579,1.579,0,0,1,1.186-.45,1.549,1.549,0,0,1,1.648,1.648v6.08h9.3v-6.08a1.647,1.647,0,0,1,.438-1.2,1.785,1.785,0,0,1,2.37,0Z"></path>
  <path class="cls-8" d="M357.277,207.459a1.616,1.616,0,0,1-.451-1.2V192.35h-4.688q-1.545,0-1.546-1.365t1.546-1.365h12.7q1.547,0,1.546,1.365t-1.546,1.365h-4.688v13.912a1.55,1.55,0,0,1-1.648,1.648A1.651,1.651,0,0,1,357.277,207.459Z"></path>
  <path class="cls-8" d="M247.709,226.613a5.46,5.46,0,0,1,1.984,2.331,8.054,8.054,0,0,1,.709,3.465,7.8,7.8,0,0,1-.709,3.427,5.2,5.2,0,0,1-4.882,3.065,4.991,4.991,0,0,1-2.4-.566,3.968,3.968,0,0,1-1.623-1.572v5.256a1.341,1.341,0,0,1-.437,1.057,1.7,1.7,0,0,1-1.16.386,1.671,1.671,0,0,1-1.172-.412,1.4,1.4,0,0,1-.451-1.082V227.36a1.475,1.475,0,0,1,.426-1.108,1.577,1.577,0,0,1,1.146-.412,1.621,1.621,0,0,1,1.158.412,1.448,1.448,0,0,1,.438,1.108V228a3.953,3.953,0,0,1,1.636-1.636,5.023,5.023,0,0,1,2.435-.58A5.216,5.216,0,0,1,247.709,226.613Zm-1.377,8.746a4.559,4.559,0,0,0,.85-2.95,4.818,4.818,0,0,0-.85-3.04,3.176,3.176,0,0,0-4.754-.025,5.8,5.8,0,0,0,0,6,3.217,3.217,0,0,0,4.754.013Z"></path>
  <path class="cls-8" d="M263.733,235.578a1.393,1.393,0,0,1,.271.9,1.56,1.56,0,0,1-.953,1.34,8.611,8.611,0,0,1-1.983.786,8.184,8.184,0,0,1-2.112.3,6.562,6.562,0,0,1-4.817-1.752,6.42,6.42,0,0,1-1.778-4.792,7.345,7.345,0,0,1,.773-3.426,5.613,5.613,0,0,1,2.177-2.318,6.164,6.164,0,0,1,3.182-.825,5.719,5.719,0,0,1,2.963.747,5.08,5.08,0,0,1,1.958,2.113,7.006,7.006,0,0,1,.7,3.22q0,1.109-.979,1.108h-7.6a4.056,4.056,0,0,0,1,2.614,3.38,3.38,0,0,0,2.474.838,4.68,4.68,0,0,0,1.455-.207,13.984,13.984,0,0,0,1.43-.566,2.853,2.853,0,0,1,1.134-.412A.867.867,0,0,1,263.733,235.578Zm-7.265-6.7a3.893,3.893,0,0,0-.94,2.37h5.822a3.674,3.674,0,0,0-.772-2.383,2.551,2.551,0,0,0-2.01-.812A2.763,2.763,0,0,0,256.469,228.88Z"></path>
  <path class="cls-8" d="M277.427,227.076a5.846,5.846,0,0,1,1.107,3.891V237.3a1.505,1.505,0,0,1-.425,1.134,1.616,1.616,0,0,1-1.173.412,1.66,1.66,0,0,1-1.185-.412,1.481,1.481,0,0,1-.438-1.134v-6.156a3.341,3.341,0,0,0-.554-2.139,2.129,2.129,0,0,0-1.738-.67,2.938,2.938,0,0,0-2.229.876,3.25,3.25,0,0,0-.838,2.345V237.3a1.48,1.48,0,0,1-.437,1.134,1.662,1.662,0,0,1-1.186.412,1.613,1.613,0,0,1-1.172-.412,1.505,1.505,0,0,1-.425-1.134v-9.97a1.418,1.418,0,0,1,.438-1.082,1.66,1.66,0,0,1,1.186-.412,1.537,1.537,0,0,1,1.095.4,1.367,1.367,0,0,1,.425,1.043v.7a4.359,4.359,0,0,1,1.727-1.623,5.189,5.189,0,0,1,2.447-.567A4.214,4.214,0,0,1,277.427,227.076Z"></path>
  <path class="cls-8" d="M293.5,220.816a1.377,1.377,0,0,1,.464,1.082V237.3a1.449,1.449,0,0,1-.437,1.108,1.836,1.836,0,0,1-2.318,0,1.446,1.446,0,0,1-.438-1.108v-.644a4.029,4.029,0,0,1-1.636,1.648,4.933,4.933,0,0,1-2.435.593,5.221,5.221,0,0,1-2.9-.824,5.467,5.467,0,0,1-1.983-2.332,8.047,8.047,0,0,1-.709-3.465,7.794,7.794,0,0,1,.709-3.426,5.2,5.2,0,0,1,4.882-3.066,5.045,5.045,0,0,1,2.422.567,3.935,3.935,0,0,1,1.623,1.6v-6.105a1.367,1.367,0,0,1,.425-1.043,1.6,1.6,0,0,1,1.146-.4A1.717,1.717,0,0,1,293.5,220.816Zm-3.567,14.53a4.757,4.757,0,0,0,.837-3.015,4.7,4.7,0,0,0-.837-3,2.851,2.851,0,0,0-2.357-1.044,2.932,2.932,0,0,0-2.4,1.03,4.544,4.544,0,0,0-.851,2.963,4.81,4.81,0,0,0,.851,3.04,3.176,3.176,0,0,0,4.753.026Z"></path>
  <path class="cls-8" d="M306.653,227.09a5.444,5.444,0,0,1,1.275,3.954v6.286a1.453,1.453,0,0,1-.412,1.095,1.561,1.561,0,0,1-1.134.4,1.508,1.508,0,0,1-1.095-.412,1.439,1.439,0,0,1-.425-1.082v-.567a3.369,3.369,0,0,1-1.379,1.572,4.142,4.142,0,0,1-2.177.566,5.05,5.05,0,0,1-2.293-.516,4.082,4.082,0,0,1-1.623-1.416,3.578,3.578,0,0,1-.592-2.01,3.184,3.184,0,0,1,.708-2.19,4.266,4.266,0,0,1,2.306-1.159,21.012,21.012,0,0,1,4.405-.36h.645v-.593a2.64,2.64,0,0,0-.541-1.842,2.3,2.3,0,0,0-1.752-.579,5.577,5.577,0,0,0-1.521.219q-.772.218-1.829.631a2.567,2.567,0,0,1-.979.335.966.966,0,0,1-.76-.335,1.27,1.27,0,0,1-.3-.876,1.322,1.322,0,0,1,.219-.76,2.085,2.085,0,0,1,.734-.605,8.394,8.394,0,0,1,2.151-.772,11.071,11.071,0,0,1,2.46-.284A5.248,5.248,0,0,1,306.653,227.09Zm-2.6,8.63a3.12,3.12,0,0,0,.812-2.229v-.541H304.4a17.85,17.85,0,0,0-2.68.154,2.609,2.609,0,0,0-1.365.541,1.377,1.377,0,0,0-.412,1.057,1.749,1.749,0,0,0,.579,1.353,2.044,2.044,0,0,0,1.431.528A2.753,2.753,0,0,0,304.052,235.72Z"></path>
  <path class="cls-8" d="M321.892,227.076A5.846,5.846,0,0,1,323,230.967V237.3a1.505,1.505,0,0,1-.425,1.134,1.616,1.616,0,0,1-1.173.412,1.66,1.66,0,0,1-1.185-.412,1.481,1.481,0,0,1-.438-1.134v-6.156a3.341,3.341,0,0,0-.554-2.139,2.129,2.129,0,0,0-1.738-.67,2.938,2.938,0,0,0-2.229.876,3.25,3.25,0,0,0-.838,2.345V237.3a1.48,1.48,0,0,1-.437,1.134,1.662,1.662,0,0,1-1.186.412,1.613,1.613,0,0,1-1.172-.412,1.505,1.505,0,0,1-.425-1.134v-9.97a1.418,1.418,0,0,1,.438-1.082,1.66,1.66,0,0,1,1.186-.412,1.537,1.537,0,0,1,1.095.4,1.367,1.367,0,0,1,.425,1.043v.7a4.359,4.359,0,0,1,1.727-1.623,5.189,5.189,0,0,1,2.447-.567A4.214,4.214,0,0,1,321.892,227.076Z"></path>
  <path class="cls-8" d="M334.1,237.613a1.048,1.048,0,0,1-.5.94,2.4,2.4,0,0,1-1.43.271l-.7-.052q-4.329-.309-4.328-4.637V228.52h-1.288a1.636,1.636,0,0,1-1.069-.31,1.274,1.274,0,0,1,0-1.8,1.636,1.636,0,0,1,1.069-.309h1.288v-2.37a1.447,1.447,0,0,1,.438-1.107,1.657,1.657,0,0,1,1.186-.413,1.621,1.621,0,0,1,1.159.413,1.447,1.447,0,0,1,.438,1.107v2.37h2.19a1.635,1.635,0,0,1,1.068.309,1.274,1.274,0,0,1,0,1.8,1.635,1.635,0,0,1-1.068.31h-2.19v5.848q0,1.907,1.752,2.035l.7.052Q334.1,236.532,334.1,237.613Z"></path>
  <path class="cls-8" d="M355.536,237.33q0,1.365-1.545,1.365h-8.708q-1.572,0-1.571-1.365,0-1.314,1.571-1.314h2.68V224.269l-2.474,1.52a1.328,1.328,0,0,1-.644.206,1.135,1.135,0,0,1-.915-.463,1.605,1.605,0,0,1-.373-1.031,1.292,1.292,0,0,1,.669-1.159l3.993-2.473a2.868,2.868,0,0,1,1.469-.464,1.567,1.567,0,0,1,1.159.438,1.639,1.639,0,0,1,.438,1.211v13.963h2.705Q355.537,236.016,355.536,237.33Z"></path>
  <path class="cls-8" d="M374.562,227.09a5.444,5.444,0,0,1,1.275,3.954v6.286a1.453,1.453,0,0,1-.412,1.095,1.561,1.561,0,0,1-1.134.4,1.508,1.508,0,0,1-1.095-.412,1.439,1.439,0,0,1-.425-1.082v-.567a3.369,3.369,0,0,1-1.379,1.572,4.142,4.142,0,0,1-2.177.566,5.05,5.05,0,0,1-2.293-.516,4.082,4.082,0,0,1-1.623-1.416,3.578,3.578,0,0,1-.592-2.01,3.184,3.184,0,0,1,.708-2.19,4.266,4.266,0,0,1,2.306-1.159,21.012,21.012,0,0,1,4.405-.36h.645v-.593a2.64,2.64,0,0,0-.541-1.842,2.3,2.3,0,0,0-1.752-.579,5.577,5.577,0,0,0-1.521.219q-.772.218-1.829.631a2.567,2.567,0,0,1-.979.335.966.966,0,0,1-.76-.335,1.27,1.27,0,0,1-.3-.876,1.322,1.322,0,0,1,.219-.76,2.085,2.085,0,0,1,.734-.605,8.394,8.394,0,0,1,2.151-.772,11.071,11.071,0,0,1,2.46-.284A5.248,5.248,0,0,1,374.562,227.09Zm-2.6,8.63a3.12,3.12,0,0,0,.812-2.229v-.541h-.464a17.85,17.85,0,0,0-2.68.154,2.609,2.609,0,0,0-1.365.541,1.377,1.377,0,0,0-.412,1.057,1.749,1.749,0,0,0,.579,1.353,2.044,2.044,0,0,0,1.431.528A2.753,2.753,0,0,0,371.96,235.72Z"></path>
  <path class="cls-8" d="M389.8,227.076a5.846,5.846,0,0,1,1.107,3.891V237.3a1.505,1.505,0,0,1-.425,1.134,1.616,1.616,0,0,1-1.173.412,1.66,1.66,0,0,1-1.185-.412,1.481,1.481,0,0,1-.438-1.134v-6.156a3.341,3.341,0,0,0-.554-2.139,2.129,2.129,0,0,0-1.738-.67,2.938,2.938,0,0,0-2.229.876,3.25,3.25,0,0,0-.838,2.345V237.3a1.48,1.48,0,0,1-.437,1.134,1.662,1.662,0,0,1-1.186.412,1.613,1.613,0,0,1-1.172-.412,1.505,1.505,0,0,1-.425-1.134v-9.97a1.418,1.418,0,0,1,.438-1.082,1.66,1.66,0,0,1,1.186-.412,1.537,1.537,0,0,1,1.095.4,1.367,1.367,0,0,1,.425,1.043v.7a4.359,4.359,0,0,1,1.727-1.623,5.189,5.189,0,0,1,2.447-.567A4.214,4.214,0,0,1,389.8,227.076Z"></path>
  <path class="cls-8" d="M393.384,231.43a7.016,7.016,0,0,1,.94-3.57.749.749,0,0,1,.239-.248.516.516,0,0,1,.274-.083.351.351,0,0,1,.248.092.317.317,0,0,1,.1.248.519.519,0,0,1-.044.218,8.794,8.794,0,0,0-.645,3.344,8.946,8.946,0,0,0,.157,1.694,8.776,8.776,0,0,0,.487,1.633.519.519,0,0,1,.044.218.317.317,0,0,1-.1.248.351.351,0,0,1-.248.092.568.568,0,0,1-.278-.078.638.638,0,0,1-.235-.244A7.06,7.06,0,0,1,393.384,231.43Z"></path>
  <path class="cls-8" d="M400.43,233.259c0,.309-.174.462-.522.462H396.6a.473.473,0,0,1-.356-.135.465.465,0,0,1-.131-.336.662.662,0,0,1,.2-.47l1.985-2.134a3.446,3.446,0,0,0,.536-.736,1.463,1.463,0,0,0,.17-.666.812.812,0,0,0-.235-.627.948.948,0,0,0-.671-.218,1.84,1.84,0,0,0-.692.135,3.482,3.482,0,0,0-.675.37,1.062,1.062,0,0,1-.174.1.436.436,0,0,1-.175.039.321.321,0,0,1-.257-.14.523.523,0,0,1-.108-.331.5.5,0,0,1,.048-.227.586.586,0,0,1,.152-.183,3.027,3.027,0,0,1,.9-.483,3.1,3.1,0,0,1,1.027-.179,2.148,2.148,0,0,1,1.433.453,1.514,1.514,0,0,1,.535,1.22,2.26,2.26,0,0,1-.226,1,4.464,4.464,0,0,1-.767,1.041l-1.507,1.6h2.3Q400.43,232.814,400.43,233.259Z"></path>
  <path class="cls-8" d="M401.815,235.236a.574.574,0,0,1-.279.078.351.351,0,0,1-.248-.092.32.32,0,0,1-.1-.248.519.519,0,0,1,.044-.218,8.776,8.776,0,0,0,.487-1.633,8.946,8.946,0,0,0,.157-1.694,8.794,8.794,0,0,0-.645-3.344.519.519,0,0,1-.044-.218.32.32,0,0,1,.1-.248.351.351,0,0,1,.248-.092.516.516,0,0,1,.274.083.749.749,0,0,1,.239.248,7.226,7.226,0,0,1,0,7.133A.636.636,0,0,1,401.815,235.236Z"></path>
  <path class="cls-8" d="M257.239,266.236c.373-2.481-1.347-4.878-3.431-6.464-4.347-3.31-10.434-4.148-15.791-2.867a27.687,27.687,0,0,0-13.633,8.4c-5.824,6.3-9.223,15.074-7.11,23.287s10.7,15.108,19.535,14.108a12.2,12.2,0,0,0-6.865,12.612c.741,5.038,4.791,9.472,9.865,11.213a18.065,18.065,0,0,0,15.351-1.991c-2.818,1.883-2.338,6.389.31,8.55s6.557,2.341,9.905,1.508a12.181,12.181,0,0,0-1.307,11.457,13.609,13.609,0,0,0,9.115,7.807,26.768,26.768,0,0,0,7.491.528c2.784-.081,5.719-.258,8.021-1.711a9.129,9.129,0,0,0,3.822-8.658c-.324-3.287-2.006-6.342-4-9.072,2.152-3.093,4.4-6.542,3.888-10.244s-5.425-6.889-8.494-4.589c3.822-3.489,7.831-7.288,8.874-12.234s-2.5-11.1-7.85-11.022c4.576-2.809,6.482-8.274,6.935-13.439.451-5.136-.336-10.629-3.634-14.786-3.445-4.341-9.3-6.646-15-6.7a30.531,30.531,0,0,0-16,4.839Z"></path>
  <path class="cls-14" d="M319.615,328.516a8,8,0,0,1,3.058-5.49l77.6-77.065L376.533,310.4l38.413,4.844c4.19.528,7.206,4.741,6.635,9.266a8,8,0,0,1-3.058,5.49l-77.829,77.035L364.431,342.6l-38.181-4.815c-4.19-.528-7.238-4.488-6.635-9.266"></path>
  <path class="cls-5" d="M389.361,422.618c-.251,13.42,5.9,26.707,5.9,26.707-19.105-6.957-31.914-20.633-31.541-40.606.5-26.582,33.158-45.922,20.949-79.336,25.766,7.087,57.792,34.277,57.044,74.279-.374,20-13.807,39.718-33.158,45.922,0,0,6.65-13.3,6.9-26.457.123-6.581.074-16.442-7.926-24.706a6.427,6.427,0,0,0-9.116-.178c-8.539,7.94-8.957,17.792-9.08,24.373Z"></path>
  <path class="cls-8" d="M195.353,296.645a6.493,6.493,0,0,0,3.348,5.571,4.5,4.5,0,0,0,5.783-1.871c1.065-2.063-.125-5.089-2.308-5.393,2.339-1.75,2.729-5.284,2.185-8.216a7.8,7.8,0,0,0-1.942-4.248,3.371,3.371,0,0,0-4.2-.564,12.884,12.884,0,0,0-1.671-14.984,11.25,11.25,0,0,0-14.256-1.187,5.092,5.092,0,0,0-6.765-3.169,7.128,7.128,0,0,0-7.119-6.389c-3.461.079-6.656,2.672-8.149,6a10.951,10.951,0,0,0-.559,7.711,7.884,7.884,0,0,0,5.138,5.236c-2.612,4.859-1.218,11.193,2.072,15.443a9.05,9.05,0,0,0,2.8,2.55c1.951,1.034,4.284.854,6.464.5,2.507-.409,5.181-1.139,6.822-3.2a2.448,2.448,0,0,0,3.673,1.448c-.053,2.042-1.026,4.276-.026,6a3.324,3.324,0,0,0,4.16,1.146,6.871,6.871,0,0,0,3.231-3.5Z"></path>
</svg>
