<?xml version="1.0" encoding="UTF-8"?>
<svg xmlns="http://www.w3.org/2000/svg" id="Calque_1" data-name="Calque 1" viewBox="0 0 476 520">
  <defs>
    <style>.cls-1{fill:#e9f2ff;}.cls-2{fill:#fff;}.cls-3{fill:#ffad63;}.cls-4{fill:#ffc802;}.cls-5{fill:none;stroke:#000;stroke-linecap:round;stroke-linejoin:round;stroke-width:0;}.cls-6{fill:#b8cad3;}.cls-7{fill:#2859ff;}.cls-8{fill:#285aff;}.cls-9{fill:#0039a9;}.cls-10{fill:#ff8920;}.cls-11{fill:#d6e1e6;}.cls-12{fill:#27c896;}.cls-13{fill:#1a2c32;}.cls-14{fill:#ffc800;}.cls-15{fill:#122d32;}.cls-16{fill:#15915e;}.cls-17{fill:#132d32;}.cls-18{fill:#7ddebf;}</style>
  </defs>
  <title>476x520_Offre-Charge-Heure</title>
  <path class="cls-1" d="M254.9,227.1c-3.9.192-8.121.378-12.517.536l15.007,11.225Z"></path>
  <path class="cls-1" d="M149.532,152.1c1.768-1.111,4.716-.072,4.716-.072a4.784,4.784,0,0,1,6.15-.583s4.96-4.4,8.951,1.493a4.03,4.03,0,0,1,4.2,1.835,26.1,26.1,0,0,1,2.572,10.643s3.988.691,4.128,2.321c.117,1.364-.551,2.7-3.015,3.072l9.919,15.516,12.665,9.474L265,175.846l11.351-4.209a47.894,47.894,0,0,1,9.1-2.39l30.861-4.926c.563-.09,1.128-.161,1.692-.238,2.757-.458,36.024-5.566,63.039,9.017a23.675,23.675,0,0,1,2.437,1.338l16.526,10.448-7.541-45.023,2.906-.594a9.735,9.735,0,0,0-4.881-3.733,61.491,61.491,0,0,1-5.981-2.332c-3.876-1.839-4.173-7.792-3.941-11.206a2.879,2.879,0,0,1,.783-1.969,1.855,1.855,0,0,1,3.064,1.087l.707,4.028,3.363.871.221-1.537-.132-5.262-3.849-3.129a13.916,13.916,0,0,1-2.752,2.534c-.8.29-2.736-1.166-1.851-3.034.8-1.689,2.257-4.608,4.29-5.687s6.218,3.433,6.218,3.433a18.023,18.023,0,0,0,.009-3.225c-.181-.924-2.24-8.695-3.206-12.573-.789-3.169-.215-5,.537-6.028a1.263,1.263,0,0,1,2.193.343c1.385,3.785,4.8,13.183,5.4,15.365.655,2.377,2.232,3.161,2.807,3s-1.293-11.858-1.4-16.771a5.534,5.534,0,0,1,.5-2.739,1.634,1.634,0,0,1,3.043.493l3.506,19.327,2.265-3.841a7.283,7.283,0,0,0,.993-4.249,30.261,30.261,0,0,1-.026-6.074c0-.024.009-.047.014-.07a1.423,1.423,0,0,1,2.777,0c.5,2.232,1.439,6.541,1.647,8.311.121,1.028-.53,2.921-1.324,4.767a15.514,15.514,0,0,0-.542,10.895l3.8,11.768,1.165,3.261,2.207-.452s14.41,58.543,14.37,67.823c-.081,18.7-14.475,25.157-28.864,20.733-2.76-.849-24.965-10.808-40.484-17.819L373.349,261.4c9.329.232,18.2.791,24.93,2.483,10.594,2.663,17.345,9.3,21.412,18.007,4.81,10.3,11.817,25.811,13.488,32.962.538,2.3,1.095,4.6,1.635,6.788.62.02,1.162.044,1.162.044s-.165-4.726,1.154-7.2c1.213-2.275,4.66-2.781,8.071-2.8a62.426,62.426,0,0,0,.02-7.145c-.882-16-7.817-30.415-18.757-41.655,23.04-24.288,36.223-55.823,34.362-89.593C458.1,123.865,423.913,82.715,376.05,63.745a24.906,24.906,0,1,1-47.512-10.8,168.9,168.9,0,0,0-21.664-.2c-56.318,3.1-98.846,44.075-121.24,86.191a144.42,144.42,0,0,0-44.108,12.834l6.021,4.569A4.953,4.953,0,0,1,149.532,152.1ZM252.7,71.2a.547.547,0,1,1-.263.728A.547.547,0,0,1,252.7,71.2Zm-46.037,62.92,2.824,2.166,3.276-1.392-1.187,3.355,2.336,2.685-3.558-.092-1.832,3.052-1.012-3.412-3.468-.8,2.932-2.017Z"></path>
  <path class="cls-1" d="M113,390.4a7.671,7.671,0,0,1-7.558-6.3l-5.323-6.675c-8.825,3.473-17.4,12.248-14.3,22.437,3.206,10.525,14.586,14.009,23.85,9.022,7.579-4.079,11.73-11.814,14.447-19.75L113.9,390.351A7.728,7.728,0,0,1,113,390.4Z"></path>
  <path class="cls-1" d="M156.059,385.33c2.912,3.835,5.542,7.95,8.6,11.689,16.254,19.883,43.563,20.049,67.081,17.1a50.728,50.728,0,0,1-1.492-12.388c-.123-6.411-.281-16.278-.143-25.24-.149.027-.3.056-.448.074Z"></path>
  <path class="cls-1" d="M270.918,434.986v8.069a12.11,12.11,0,0,1-12.075,12.075H245a12.11,12.11,0,0,1-12.075-12.075v-23.7c-20.426,2.615-42.252,3.175-60.286-8.2C165.2,406.462,159.977,400,155,392.881a65.162,65.162,0,0,0-5.364-6.786l-19.418,2.313a67.545,67.545,0,0,1-4.991,11.72c-4.561,8.266-12.269,15.212-21.919,16.423a21.059,21.059,0,0,1-21.157-11.464c-4.074-7.929-2.387-16.932,3.171-23.675a29.622,29.622,0,0,1,11.344-8.322L44.888,308.166c-5.152,9.57-7.8,20.62-7.068,33.868,3.125,56.723,53.8,100.934,116.623,104.987,22.908,28.564,61.723,46.274,104.746,43.9,41.72-2.3,77.451-22.922,97.481-52.357-4.123-.036-8.18-.117-12.125-.24C320.695,439.068,292.771,438.307,270.918,434.986Z"></path>
  <path class="cls-1" d="M437.4,331.766h0v0c.311,1.187.557,2.109.711,2.685l.163.609.018.067s.246.114.666.313q1.32-2.742,2.379-5.592c-1.566.2-3.149.392-4.308.5C437.157,330.854,437.281,331.328,437.4,331.766Z"></path>
  <path class="cls-1" d="M242.557,312.185c3.682-.055,7.638.33,8.957,2.8s1.154,7.2,1.154,7.2.74-.033,1.484-.054c.578-2.33,1.179-4.806,1.757-7.279,1.452-6.213,6.93-18.732,11.5-28.666l-8.875-41.922h-22.1V313.6A17.179,17.179,0,0,1,242.557,312.185Z"></path>
  <path class="cls-1" d="M250.98,334.454c.076-.282.174-.65.29-1.09l.029-.109.128-.485.069-.261.17-.646.025-.094h0l.233-.891c-1.813-.148-4.953-.553-7.28-.886-1.9-.271-5.324-.657-8.21-1.277V343.9c.1-.12.194-.241.3-.358,2.748-3.187,14.068-8.408,14.068-8.408l.018-.067Z"></path>
  <path class="cls-2" d="M132.822,145.164c1.725-.656,3.437-1.387,5.127-2.217a59.224,59.224,0,0,0,31.609-39.639A51.186,51.186,0,1,1,95.513,32.616,59.331,59.331,0,0,0,80.5,140.087l21.12-18.6Z"></path>
  <path class="cls-3" d="M413.621,132.036l-3.8-11.768a15.514,15.514,0,0,1,.542-10.895c.794-1.846,1.445-3.739,1.324-4.767-.208-1.77-1.147-6.079-1.647-8.311a1.423,1.423,0,0,0-2.777,0c0,.023-.01.046-.014.07a30.261,30.261,0,0,0,.026,6.074,7.283,7.283,0,0,1-.993,4.249l-2.265,3.841L400.514,91.2a1.634,1.634,0,0,0-3.043-.493,5.534,5.534,0,0,0-.5,2.739c.107,4.912,1.975,16.613,1.4,16.771s-2.152-.627-2.807-3c-.6-2.182-4.019-11.581-5.4-15.365a1.263,1.263,0,0,0-2.193-.343c-.752,1.031-1.326,2.859-.537,6.028.966,3.879,3.024,11.649,3.206,12.573a18.023,18.023,0,0,1-.009,3.225s-4.185-4.512-6.218-3.433-3.49,4-4.29,5.687c-.885,1.868,1.051,3.324,1.851,3.034a13.916,13.916,0,0,0,2.752-2.534l3.849,3.129.132,5.262-.221,1.537-3.363-.871-.707-4.028a1.855,1.855,0,0,0-3.064-1.087A2.879,2.879,0,0,0,380.57,122c-.231,3.413.065,9.366,3.941,11.206a61.491,61.491,0,0,0,5.981,2.332,9.735,9.735,0,0,1,4.881,3.733l19.413-3.971Z"></path>
  <path class="cls-4" d="M254.9,227.1l2.49,11.761,7.225,5.4h-6.08l8.875,41.922c.69-1.5,1.36-2.944,1.991-4.3,4.067-8.71,10.818-15.344,21.413-18.007,10.549-2.652,26.365-2.528,40.96-2.71l7.4-9.9-7.4,9.9c4.43-.055,8.752-.138,12.774-.337,8.824.436,19.063.322,28.8.565l-11.333-55.818c15.519,7.01,37.724,16.97,40.484,17.819,14.389,4.425,28.782-2.029,28.864-20.733.041-9.279-14.37-67.823-14.37-67.823l-2.207.452-19.413,3.971-2.906.594,7.541,45.023-16.526-10.448a23.675,23.675,0,0,0-2.437-1.338c-27.015-14.584-60.282-9.475-63.039-9.017-.564.076-1.13.148-1.692.238l-30.861,4.926a47.894,47.894,0,0,0-9.1,2.39L265,175.846l-65.185,19.949,42.566,31.841C246.776,227.477,251,227.292,254.9,227.1Z"></path>
  <path class="cls-4" d="M168.856,170.323a3.4,3.4,0,0,1-1.332,1.174l1.839,1.4A2.855,2.855,0,0,1,168.856,170.323Z"></path>
  <path class="cls-4" d="M177.23,170.8a10.114,10.114,0,0,1-1.646.1s-2.082,3.94-4.314,3.43l9.6,7.281h0l6.284,4.7Z"></path>
  <path class="cls-4" d="M344.544,260.841c0,.033-.011,1.049-.027,2.737h.054C344.555,261.891,344.544,260.875,344.544,260.841Z"></path>
  <line class="cls-5" x1="331.77" y1="261.173" x2="339.166" y2="251.268"></line>
  <path class="cls-6" d="M105.307,370.474V251.942L87.231,268.766l-46.8-49.784V297.2a15.367,15.367,0,0,0,3.47,9.723l.99,1.241L96.663,373.09A42.079,42.079,0,0,1,105.307,370.474Z"></path>
  <path class="cls-6" d="M105.307,382.714v-6.847a40.021,40.021,0,0,0-4.135,1.165c-.351.121-.7.254-1.053.392l5.323,6.675A7.639,7.639,0,0,1,105.307,382.714Z"></path>
  <path class="cls-2" d="M133.346,376.271c-.7,3.449-1.528,6.883-2.539,10.239l17.244-2.054A30.344,30.344,0,0,0,133.346,376.271Z"></path>
  <path class="cls-2" d="M127.866,375.283a66.207,66.207,0,0,0-20.744.208v7.224a5.877,5.877,0,0,0,6.568,5.835l11.052-1.316c.38-1.208.731-2.415,1.06-3.608Q126.943,379.477,127.866,375.283Z"></path>
  <path class="cls-2" d="M107.122,370.154c1.85-.291,3.718-.488,5.581-.6a87.579,87.579,0,0,1,16.25.365,180.307,180.307,0,0,0,2.966-38.1,4.552,4.552,0,0,1-1.843-3.65V312.6a17.1,17.1,0,0,1,6.392-13.356v-46.13a13.357,13.357,0,0,1,11.577-13.235l28.91-3.52a13.258,13.258,0,0,1,8.43,1.663v-.008l24.64,13.265-.01.014a13.662,13.662,0,0,1,7.48,12.185v75.107a13.691,13.691,0,0,1-11.867,13.569l-38.575,5.18a13.642,13.642,0,0,1-11.7-4.1v.009l-.051-.059c-.25-.263-.481-.542-.71-.824l-15.085-17.506.014-.01a13.291,13.291,0,0,1-1.951-3.183c-.088.074-.172.152-.266.219a184.062,184.062,0,0,1-1.546,29.509c-.418,3.108-.877,6.288-1.416,9.484a39.342,39.342,0,0,1,10.158,3.732,34.648,34.648,0,0,1,10.254,9.053l74.688-8.9a5.823,5.823,0,0,0,.7-.149,125.753,125.753,0,0,1,.989-15.416c1.009-6.133,2.021-9.821,3.5-12.584v-18.35c-.27-.077-.532-.156-.777-.24-3.931-1.337-4.835-6.466-3.047-9.85a9.758,9.758,0,0,1,3.824-3.672V230.912L176.18,185.98l-69.059,64.274Z"></path>
  <path class="cls-7" d="M236.435,313.6V244.265h-.907V231.61l-.907-.7V314.5A16.388,16.388,0,0,1,236.435,313.6Z"></path>
  <path class="cls-7" d="M234.621,328.264v18.35a16.47,16.47,0,0,1,1.814-2.718V328.713C235.795,328.576,235.185,328.426,234.621,328.264Z"></path>
  <path class="cls-7" d="M105.307,370.474q.9-.175,1.814-.319v-119.9l-1.814,1.688Z"></path>
  <path class="cls-7" d="M154.753,383.659q.665.825,1.306,1.671l73.6-8.765c.152-.018.3-.048.448-.074q.014-.946.034-1.876a5.823,5.823,0,0,1-.7.149Z"></path>
  <path class="cls-7" d="M109.094,387.106a5.88,5.88,0,0,1-1.973-4.391v-7.224q-.916.171-1.814.377v6.847A7.691,7.691,0,0,0,113,390.4a7.728,7.728,0,0,0,.9-.053l10.215-1.216q.325-.95.624-1.9l-11.052,1.316A5.881,5.881,0,0,1,109.094,387.106Z"></path>
  <path class="cls-7" d="M148.051,384.457l-17.244,2.054q-.287.953-.594,1.9l19.418-2.313C149.114,385.532,148.589,384.983,148.051,384.457Z"></path>
  <path class="cls-8" d="M40.427,218.982l46.8,49.784,18.077-16.824,1.814-1.688L176.18,185.98l-.112-.086,4.795-4.275h0l-9.6-7.281a2,2,0,0,1-.712-.306,4.83,4.83,0,0,1-1.194-1.14l-1.839-1.4c-1.011.465-2.549.378-4.46-2.246a4.257,4.257,0,0,1-3.287.786,3.949,3.949,0,0,1-2.4-1.612s-2.166,1.2-3.432-.347-5.431-7.955-6.126-10.035a5.552,5.552,0,0,1-.271-1.705l-6.021-4.569-8.7-6.605-31.2-23.676-21.12,18.6L18,195.127Z"></path>
  <polygon class="cls-9" points="234.621 230.912 235.528 231.61 235.528 244.265 236.435 244.265 258.531 244.265 264.611 244.265 257.386 238.861 242.38 227.635 199.814 195.794 187.149 186.321 180.865 181.62 180.863 181.619 176.068 185.893 176.18 185.98 234.621 230.912"></polygon>
  <path class="cls-3" d="M175.584,170.909a10.114,10.114,0,0,0,1.646-.1c2.465-.372,3.132-1.708,3.015-3.072-.14-1.629-4.128-2.321-4.128-2.321a26.1,26.1,0,0,0-2.572-10.643,4.03,4.03,0,0,0-4.2-1.835c-3.991-5.892-8.951-1.493-8.951-1.493a4.784,4.784,0,0,0-6.15.583s-2.948-1.038-4.716.072a4.953,4.953,0,0,0-1.984,4.243,5.552,5.552,0,0,0,.271,1.705c.695,2.08,4.859,8.492,6.126,10.035s3.432.347,3.432.347a3.949,3.949,0,0,0,2.4,1.612,4.257,4.257,0,0,0,3.287-.786c1.911,2.623,3.449,2.71,4.46,2.246a3.4,3.4,0,0,0,1.332-1.174,2.855,2.855,0,0,0,.507,2.57,4.83,4.83,0,0,0,1.194,1.14,2,2,0,0,0,.712.306C173.5,174.849,175.584,170.909,175.584,170.909Zm-18.99-3.8c-.886-3.405-1.586-6.359-3.893-9.131-.239-.288.173-.7.414-.414,2.371,2.85,3.124,5.857,4.043,9.389A.293.293,0,0,1,156.594,167.106Zm5.933.784c-.845-3.691-1.748-7.355-3.814-10.581-.2-.318.3-.612.505-.3,2.092,3.266,3.017,6.98,3.873,10.721C163.175,168.1,162.61,168.257,162.526,167.89Zm6.4,1.574a34.863,34.863,0,0,0-2.767-12.451c-.146-.343.358-.641.505-.3a35.677,35.677,0,0,1,2.847,12.747C169.529,169.842,168.944,169.84,168.93,169.464Z"></path>
  <path class="cls-10" d="M153.115,157.561c-.241-.29-.653.126-.414.414,2.307,2.772,3.007,5.726,3.893,9.131a.293.293,0,0,0,.564-.156C156.239,163.418,155.486,160.411,153.115,157.561Z"></path>
  <path class="cls-10" d="M163.091,167.735c-.856-3.741-1.781-7.455-3.873-10.721-.2-.316-.709-.023-.505.3,2.066,3.226,2.969,6.89,3.814,10.581C162.61,168.257,163.175,168.1,163.091,167.735Z"></path>
  <path class="cls-10" d="M169.515,169.464a35.677,35.677,0,0,0-2.847-12.747c-.147-.346-.651-.048-.505.3a34.863,34.863,0,0,1,2.767,12.451C168.944,169.84,169.529,169.842,169.515,169.464Z"></path>
  <path class="cls-11" d="M144.08,286.032c3.54,0,6.408,6.145,6.408,13.724s-2.868,13.724-6.408,13.724c-1.684,0-3.211-1.4-4.355-3.678a8.019,8.019,0,0,0-.5,2.8v15.565a4.544,4.544,0,0,1-1.655,3.495,13.291,13.291,0,0,0,1.951,3.183l-.014.01,15.085,17.506a13.584,13.584,0,0,1-3.052-8.593V268.661a13.691,13.691,0,0,1,11.87-13.569l38.575-5.18a13.578,13.578,0,0,1,8.03,1.384l.01-.014-24.64-13.265v.008a13.258,13.258,0,0,0-8.43-1.663l-28.91,3.52a13.357,13.357,0,0,0-11.577,13.235v46.13q.6-.481,1.239-.907C138.037,291.426,140.765,286.032,144.08,286.032Z"></path>
  <path class="cls-11" d="M155.352,353.244v-.009c-.017-.017-.035-.033-.052-.05Z"></path>
  <path class="cls-12" d="M201.984,249.912l-38.575,5.18a13.691,13.691,0,0,0-11.87,13.569v75.107a13.584,13.584,0,0,0,3.052,8.593c.229.282.46.561.71.824.017.017.035.033.052.05a13.642,13.642,0,0,0,11.7,4.1l38.575-5.18a13.691,13.691,0,0,0,11.867-13.569V263.481a13.72,13.72,0,0,0-15.51-13.569Zm9.738,73.124c0,12.023-9.384,23.2-21.953,26.156-15.188,3.57-28.7-6.173-28.7-20.7V286.074c0-12.023,9.384-23.2,21.955-26.156,15.188-3.57,28.693,6.173,28.693,20.7Z"></path>
  <path class="cls-2" d="M183.03,259.917c-12.572,2.955-21.955,14.134-21.955,26.156v42.419c0,14.527,13.507,24.27,28.7,20.7,12.569-2.955,21.953-14.134,21.953-26.156V280.617C211.722,266.09,198.218,256.347,183.03,259.917Zm8.946,8.1-3.551,18.863,10.812-.448a2.276,2.276,0,0,1,2.259,2.246,2.237,2.237,0,0,1-.588,1.655l-17.874,24.844,3.551-18.863-10.746.445a2.347,2.347,0,0,1-1.671-3.9Zm-3.027,71.5c-4.439,0-8.039-4.851-8.039-10.836s3.6-10.836,8.039-10.836,8.039,4.851,8.039,10.836S193.387,339.513,188.948,339.513Z"></path>
  <ellipse class="cls-11" cx="188.948" cy="328.677" rx="8.039" ry="10.836"></ellipse>
  <path class="cls-13" d="M131.03,317.767c-.349-3.454,5.045-3.418,5.39,0,.474,4.7.757,9.406.883,14.114.094-.067.177-.146.266-.219a4.544,4.544,0,0,0,1.655-3.495V312.6a8.019,8.019,0,0,1,.5-2.8c1.144,2.275,2.671,3.678,4.355,3.678,3.54,0,6.408-6.145,6.408-13.724s-2.868-13.724-6.408-13.724c-3.315,0-6.043,5.394-6.374,12.307q-.642.427-1.239.907a17.1,17.1,0,0,0-6.392,13.356v15.565a4.552,4.552,0,0,0,1.843,3.65Q131.729,324.782,131.03,317.767Z"></path>
  <path class="cls-14" d="M173.578,294.514a2.231,2.231,0,0,0,2.259,2.246l10.746-.445-3.551,18.863,17.874-24.844a2.237,2.237,0,0,0,.588-1.655,2.276,2.276,0,0,0-2.259-2.246l-10.812.448,3.551-18.863-17.809,24.842A2.237,2.237,0,0,0,173.578,294.514Z"></path>
  <path class="cls-15" d="M164.657,397.02c-3.057-3.739-5.687-7.855-8.6-11.689q-.642-.846-1.306-1.671a34.648,34.648,0,0,0-10.254-9.053,39.342,39.342,0,0,0-10.158-3.732c.539-3.2,1-6.376,1.416-9.484a184.062,184.062,0,0,0,1.546-29.509c-.126-4.708-.409-9.414-.883-14.114-.345-3.418-5.739-3.454-5.39,0q.707,7.009.888,14.05a180.307,180.307,0,0,1-2.966,38.1,87.579,87.579,0,0,0-16.25-.365c-1.863.114-3.73.311-5.581.6q-.911.143-1.814.319a42.079,42.079,0,0,0-8.645,2.617,29.622,29.622,0,0,0-11.344,8.322c-5.558,6.743-7.245,15.746-3.171,23.675A21.059,21.059,0,0,0,103.3,416.552c9.65-1.211,17.358-8.157,21.919-16.423a67.545,67.545,0,0,0,4.991-11.72q.308-.944.594-1.9c1.011-3.356,1.84-6.79,2.539-10.239a30.344,30.344,0,0,1,14.7,8.186c.538.526,1.063,1.075,1.581,1.639A65.162,65.162,0,0,1,155,392.881c4.981,7.122,10.2,13.581,17.643,18.276,18.034,11.375,39.86,10.814,60.286,8.2v-1.851a24.517,24.517,0,0,1-1.186-3.386C208.22,417.069,180.911,416.9,164.657,397.02Zm-40.539-7.885c-2.717,7.936-6.868,15.67-14.447,19.75-9.264,4.987-20.644,1.5-23.85-9.022-3.1-10.189,5.474-18.964,14.3-22.437.351-.138.7-.271,1.053-.392a40.021,40.021,0,0,1,4.135-1.165q.9-.205,1.814-.377a66.207,66.207,0,0,1,20.744-.208q-.927,4.193-2.064,8.342c-.328,1.193-.68,2.4-1.06,3.608Q124.443,388.184,124.118,389.134Z"></path>
  <path class="cls-1" d="M194.153,95.686c5.549-5.965,7.212-20.8-1.14-25.662A19.492,19.492,0,0,0,176.7,68.509a16.279,16.279,0,0,0-14.711-10.722c-20.987-.912-19.2,21.318-19.2,21.318-17.045-.9-9.848,16.581-9.848,16.581Z"></path>
  <polygon class="cls-2" points="113.666 73.338 114.678 76.751 116.51 73.699 120.068 73.791 117.732 71.106 118.919 67.75 115.643 69.142 112.819 66.976 113.13 70.522 110.198 72.539 113.666 73.338"></polygon>
  <polygon class="cls-2" points="207.509 140.486 208.521 143.899 210.353 140.847 213.911 140.939 211.575 138.254 212.762 134.898 209.486 136.29 206.662 134.124 206.973 137.67 204.041 139.687 207.509 140.486"></polygon>
  <polygon class="cls-2" points="242.37 56.746 242.856 58.111 243.533 56.83 244.981 56.789 243.973 55.749 244.381 54.359 243.081 54.997 241.885 54.18 242.09 55.614 240.943 56.498 242.37 56.746"></polygon>
  <polygon class="cls-2" points="213.797 51.548 214.284 52.913 214.961 51.632 216.409 51.591 215.401 50.551 215.809 49.161 214.508 49.799 213.313 48.982 213.518 50.416 212.37 51.3 213.797 51.548"></polygon>
  <circle class="cls-2" cx="128.852" cy="49.199" r="0.392" transform="translate(9.629 118.548) rotate(-51.083)"></circle>
  <circle class="cls-2" cx="252.932" cy="71.7" r="0.547" transform="translate(-6.535 114.038) rotate(-25.094)"></circle>
  <circle class="cls-2" cx="212.653" cy="68.854" r="0.937" transform="translate(-5.857 21.786) rotate(-5.785)"></circle>
  <circle class="cls-2" cx="193.467" cy="112.228" r="0.758" transform="translate(61.284 292.651) rotate(-83.89)"></circle>
  <circle class="cls-2" cx="174.392" cy="126.385" r="1.079" transform="translate(-27.649 51.783) rotate(-15.665)"></circle>
  <circle class="cls-2" cx="172.032" cy="48.237" r="0.945" transform="translate(-5.035 24.38) rotate(-7.99)"></circle>
  <circle class="cls-2" cx="224.297" cy="76.436" r="0.945" transform="translate(-8.447 31.918) rotate(-7.99)"></circle>
  <circle class="cls-2" cx="64.667" cy="145.955" r="0.795" transform="translate(-80.009 78.475) rotate(-41.098)"></circle>
  <path class="cls-16" d="M236.435,328.713c2.886.619,6.314,1.006,8.21,1.277,2.327.332,5.467.738,7.28.886.6-2.306,1.391-5.37,2.228-8.743-.745.021-1.484.054-1.484.054s.165-4.726-1.154-7.2-5.275-2.858-8.957-2.8a17.179,17.179,0,0,0-6.122,1.414,16.388,16.388,0,0,0-1.814.9,9.758,9.758,0,0,0-3.824,3.672c-1.788,3.384-.884,8.513,3.047,9.85.245.083.507.162.777.24C235.185,328.426,235.795,328.576,236.435,328.713Z"></path>
  <path class="cls-16" d="M437.129,314.486c-1.319,2.473-1.154,7.2-1.154,7.2s-.542-.024-1.162-.044c.819,3.313,1.6,6.353,2.212,8.707,1.159-.1,2.742-.292,4.308-.5a62.758,62.758,0,0,0,3.867-18.17C441.789,311.705,438.342,312.211,437.129,314.486Z"></path>
  <path class="cls-17" d="M232.925,443.055A12.11,12.11,0,0,0,245,455.13h13.844a12.11,12.11,0,0,0,12.075-12.075v-8.069c-16.615-2.525-29.721-6.53-34.847-12.484a19.61,19.61,0,0,1-3.146-5v25.55Z"></path>
  <path class="cls-12" d="M296.981,368.4q-1.475-.642-2.924-1.409Q295.51,367.759,296.981,368.4Z"></path>
  <path class="cls-12" d="M298.521,369.032q-.567-.22-1.127-.458Q297.954,368.811,298.521,369.032Z"></path>
  <path class="cls-12" d="M293.634,366.761q-.537-.292-1.074-.6Q293.1,366.469,293.634,366.761Z"></path>
  <path class="cls-12" d="M303.666,370.676q-.623-.16-1.234-.334Q303.043,370.516,303.666,370.676Z"></path>
  <path class="cls-12" d="M292.134,365.911c-.481-.285-.963-.579-1.446-.888C291.17,365.333,291.652,365.626,292.134,365.911Z"></path>
  <path class="cls-12" d="M307.459,371.5c-1.157-.212-2.277-.45-3.367-.719C305.182,371.053,306.3,371.292,307.459,371.5Z"></path>
  <path class="cls-12" d="M302.018,370.224q-1.571-.463-3.078-1.03Q300.45,369.763,302.018,370.224Z"></path>
  <path class="cls-12" d="M390.146,369.195q-1.509.568-3.075,1.029Q388.64,369.762,390.146,369.195Z"></path>
  <path class="cls-12" d="M386.654,370.343q-.609.173-1.23.332Q386.045,370.516,386.654,370.343Z"></path>
  <path class="cls-12" d="M384.994,370.785c-1.088.268-2.206.507-3.36.718Q383.365,371.186,384.994,370.785Z"></path>
  <path class="cls-12" d="M251.3,333.255l-.029.109Z"></path>
  <path class="cls-12" d="M250.8,335.13l.018-.067Z"></path>
  <path class="cls-12" d="M434.242,334.006a26.847,26.847,0,0,1,3.865.448h0A26.838,26.838,0,0,0,434.242,334.006Z"></path>
  <path class="cls-12" d="M398.4,365.023c-.483.309-.964.6-1.445.887C397.436,365.625,397.917,365.332,398.4,365.023Z"></path>
  <path class="cls-12" d="M373.068,372.587c-1.4.117-2.862.217-4.39.3Q370.969,372.761,373.068,372.587Z"></path>
  <path class="cls-12" d="M375.161,372.394q-.814.082-1.654.155Q374.347,372.477,375.161,372.394Z"></path>
  <path class="cls-12" d="M309.286,371.81q-.718-.111-1.417-.234Q308.568,371.7,309.286,371.81Z"></path>
  <path class="cls-12" d="M381.207,371.578q-.688.121-1.4.231Q380.519,371.7,381.207,371.578Z"></path>
  <path class="cls-12" d="M379.367,371.877c-1.217.181-2.476.338-3.787.475C376.891,372.215,378.151,372.058,379.367,371.877Z"></path>
  <path class="cls-12" d="M345.051,373.677l-.508.015.528-.015Z"></path>
  <path class="cls-12" d="M251.691,331.769h0l-.025.094Z"></path>
  <path class="cls-12" d="M315.6,372.551q-.856-.074-1.684-.158Q314.74,372.477,315.6,372.551Z"></path>
  <path class="cls-12" d="M344.394,373.677l.15.015.15-.015Z"></path>
  <path class="cls-12" d="M313.514,372.353c-1.316-.138-2.58-.3-3.8-.477Q311.544,372.148,313.514,372.353Z"></path>
  <path class="cls-12" d="M320.411,372.891c-1.532-.087-3-.187-4.4-.3Q318.117,372.762,320.411,372.891Z"></path>
  <path class="cls-12" d="M344.016,373.677l.528.015-.508-.015Z"></path>
  <path class="cls-12" d="M251.5,332.508l-.069.261Z"></path>
  <path class="cls-12" d="M259.065,325.611l-.018-.005Z"></path>
  <path class="cls-12" d="M430.04,325.605l-.006,0Z"></path>
  <path class="cls-12" d="M393.58,367.727c-.489.236-.98.457-1.474.672C392.6,368.185,393.091,367.963,393.58,367.727Z"></path>
  <path class="cls-12" d="M391.693,368.575q-.559.236-1.124.456Q391.134,368.811,391.693,368.575Z"></path>
  <path class="cls-12" d="M396.527,366.159q-.535.31-1.072.6Q395.991,366.469,396.527,366.159Z"></path>
  <path class="cls-12" d="M438.271,335.063l.018.067Z"></path>
  <path class="cls-12" d="M395.029,366.991c-.481.255-.963.5-1.448.735C394.066,367.493,394.548,367.246,395.029,366.991Z"></path>
  <path class="cls-12" d="M398.647,366.287c-12.892,8.255-25.146,7.393-54.1,8.242-28.957-.849-41.212.013-54.1-8.242-17.029-10.9-17.8-35.475-39.641-31.158,0,0-11.32,5.22-14.068,8.408-.1.118-.2.239-.3.358a16.47,16.47,0,0,0-1.814,2.718c-1.474,2.763-2.486,6.451-3.5,12.584a125.753,125.753,0,0,0-.989,15.416q-.019.93-.034,1.876c-.137,8.962.02,18.829.143,25.24a50.728,50.728,0,0,0,1.492,12.388,24.517,24.517,0,0,0,1.186,3.386,19.61,19.61,0,0,0,3.146,5c5.126,5.953,18.232,9.958,34.847,12.484,21.852,3.321,49.776,4.083,73.625,3.342,3.946.123,8,.2,12.125.24a103.838,103.838,0,0,0,5.526-9.084c-19.623.539-46.04.122-55.117-1.253a15.355,15.355,0,0,1-10.166-5.5c-2.149-2.763-3.353-8.784-3.751-11.1-.272-1.585.666-1.535,2.625-1.635,11.07.768,47.926,1.525,74.068,1.1a93.546,93.546,0,0,0,3.855-32.194c0-.043-.012-.089-.014-.134,29.678-3.173,54.188-20.327,65.261-43.327-.42-.2-.666-.313-.666-.313C416.448,330.813,415.677,355.383,398.647,366.287ZM255.492,378.541a15.881,15.881,0,1,1,15.881-15.881A15.912,15.912,0,0,1,255.492,378.541Z"></path>
  <path class="cls-12" d="M259.173,325.641h0c28.85,11.161,17.895,46,85.385,45.8,68.021-.2,56.3-34.557,85.354-45.8h0C423.592,327.08,265.5,327.08,259.173,325.641Z"></path>
  <path class="cls-12" d="M344.544,260.836c-4.022.2-8.344.281-12.774.337-14.595.183-30.411.058-40.96,2.71-10.594,2.663-17.345,9.3-21.413,18.007-.631,1.351-1.3,2.8-1.991,4.3-4.567,9.934-10.045,22.453-11.5,28.666-.578,2.473-1.179,4.949-1.757,7.279-.837,3.372-1.625,6.437-2.228,8.743l-.233.891a9.057,9.057,0,0,1,2.022-2.982,13.8,13.8,0,0,1,5.271-3.215c-4.409-5.292,14.746-51.79,28.9-57.644,6.966-2.88,31.791-4.339,56.628-4.347.016-1.687.027-2.7.027-2.737,0,.033.011,1.049.027,2.737,24.79-.006,49.579,1.433,56.628,4.347,14.159,5.853,33.314,52.352,28.9,57.644a13.806,13.806,0,0,1,5.27,3.215,9.055,9.055,0,0,1,2.022,2.983c-.115-.438-.239-.913-.371-1.419-.613-2.354-1.392-5.394-2.212-8.707-.541-2.186-1.1-4.487-1.635-6.788-1.671-7.151-8.677-22.661-13.488-32.962-4.068-8.71-10.818-15.344-21.412-18.007-6.727-1.691-15.6-2.25-24.93-2.483C363.607,261.159,353.368,261.273,344.544,260.836Z"></path>
  <path class="cls-17" d="M259.065,325.611a.967.967,0,0,0,.108.031c6.325,1.439,164.418,1.439,170.741,0a.965.965,0,0,0,.119-.034l.006,0a.159.159,0,0,0,.063-.036c4.409-5.292-14.746-51.79-28.9-57.644-7.049-2.914-31.838-4.353-56.628-4.347h-.054c-24.837.008-49.662,1.467-56.628,4.347-14.158,5.853-33.313,52.352-28.9,57.644a.159.159,0,0,0,.063.036Z"></path>
  <path class="cls-18" d="M295.786,410c-1.959.1-2.9.05-2.625,1.635.4,2.316,1.6,8.336,3.751,11.1a15.355,15.355,0,0,0,10.166,5.5c9.077,1.375,35.494,1.792,55.117,1.253a98.347,98.347,0,0,0,7.658-18.385C343.712,411.525,306.855,410.769,295.786,410Z"></path>
  <path class="cls-18" d="M255.492,346.779a15.881,15.881,0,1,0,15.881,15.881A15.911,15.911,0,0,0,255.492,346.779Zm0,16.6a6.457,6.457,0,1,1,6.457-6.457A6.469,6.469,0,0,1,255.492,363.374Z"></path>
  <path class="cls-2" d="M255.492,350.461a6.457,6.457,0,1,0,6.457,6.457A6.469,6.469,0,0,0,255.492,350.461Z"></path>
  <path class="cls-18" d="M435.374,328.784a13.806,13.806,0,0,0-5.27-3.215.159.159,0,0,1-.063.036l-.006,0a.965.965,0,0,1-.119.034h0c-29.058,11.241-17.333,45.594-85.354,45.8-67.49.2-56.535-34.637-85.385-45.8h0a.967.967,0,0,1-.108-.031l-.018-.005a.159.159,0,0,1-.062-.036,13.8,13.8,0,0,0-5.271,3.215,9.057,9.057,0,0,0-2.022,2.982h0l-.025.094-.17.646-.069.261-.128.485-.029.109c-.116.439-.214.807-.29,1.09l-.163.609-.018.067c21.841-4.317,22.612,20.253,39.641,31.158,12.892,8.255,25.146,7.393,54.1,8.242,28.958-.849,41.212.013,54.1-8.242,17.029-10.9,17.8-35.475,39.641-31.158l-.018-.067-.163-.609h0a26.847,26.847,0,0,0-3.865-.448,26.838,26.838,0,0,1,3.865.448h0c-.154-.576-.4-1.5-.711-2.685v0h0A9.055,9.055,0,0,0,435.374,328.784ZM290.688,365.023c.483.309.965.6,1.446.888C291.652,365.626,291.17,365.333,290.688,365.023Zm1.872,1.135q.537.311,1.074.6Q293.1,366.469,292.56,366.159Zm1.5.832q1.452.769,2.924,1.409Q295.506,367.757,294.057,366.99Zm3.337,1.584q.561.237,1.127.458Q297.955,368.812,297.394,368.574Zm1.547.62q1.51.569,3.078,1.03Q300.447,369.762,298.94,369.194Zm3.491,1.148q.611.174,1.234.334Q303.043,370.516,302.431,370.342Zm1.66.442c1.09.269,2.21.508,3.367.719C306.3,371.292,305.182,371.053,304.092,370.784Zm3.778.792q.7.123,1.417.234Q308.568,371.7,307.87,371.576Zm1.843.3c1.221.182,2.485.34,3.8.477Q311.541,372.146,309.713,371.876Zm4.2.517q.828.084,1.684.158Q314.74,372.477,313.913,372.393Zm2.1.193c1.407.117,2.871.217,4.4.3Q318.114,372.76,316.008,372.586Zm28.008,1.091h.02l.508.015-.15-.015h.3l-.15.015.508-.015h.02l-.528.015Zm52.938-7.766c.481-.285.963-.578,1.445-.887C397.917,365.332,397.436,365.625,396.955,365.911Zm-28.276,6.98c1.528-.087,2.987-.187,4.39-.3Q370.965,372.762,368.678,372.891Zm4.828-.341q.841-.073,1.654-.155Q374.347,372.477,373.507,372.549Zm2.074-.2c1.311-.137,2.57-.295,3.787-.475C378.151,372.058,376.891,372.215,375.58,372.352Zm4.231-.544q.707-.11,1.4-.231Q380.519,371.7,379.812,371.808Zm1.822-.306c1.155-.211,2.272-.45,3.36-.718Q383.362,371.187,381.633,371.5Zm3.791-.828q.621-.159,1.23-.332Q386.045,370.516,385.424,370.675Zm1.646-.451q1.57-.462,3.075-1.029Q388.637,369.763,387.07,370.224Zm3.5-1.193q.565-.22,1.124-.456Q391.134,368.811,390.569,369.031Zm1.538-.632c.493-.215.985-.437,1.474-.672C393.091,367.963,392.6,368.185,392.106,368.4Zm1.475-.673c.484-.233.966-.481,1.448-.735C394.548,367.246,394.066,367.493,393.582,367.726Zm1.873-.966q.536-.291,1.072-.6Q395.991,366.469,395.455,366.76Z"></path>
  <path class="cls-12" d="M347.274,87.989a24.9,24.9,0,1,0-20.729-28.477A24.907,24.907,0,0,0,347.274,87.989ZM351.2,72.31l-.56,3.5-.381,2.389a1.476,1.476,0,1,1-2.872-.455l.58-3.655.558-3.5L348.8,68.9l2.871.465-.474,2.94Zm5.568-23.369a1.486,1.486,0,0,1,2.89.455l-.818,5.2-2.889-.455Zm-9.435-1.486a1.485,1.485,0,0,1,2.888.455l-.818,5.2-2.888-.455Zm-4.755,6.7,3.483.549,2.886.454,6.548,1.031,2.889.455,3.713.584c-.656,4.169-1.592,10.072-9.421,9.739l-4.125-.65C341,64.233,341.921,58.328,342.577,54.159Z"></path>
  <path class="cls-2" d="M348.551,66.322l4.125.65c7.829.333,8.765-5.57,9.421-9.739l-3.713-.584-2.889-.455-6.548-1.031-2.886-.454-3.483-.549C341.921,58.328,341,64.233,348.551,66.322Z"></path>
  <path class="cls-2" d="M350.22,47.91a1.485,1.485,0,0,0-2.888-.455l-.818,5.2,2.888.455Z"></path>
  <path class="cls-2" d="M359.657,49.4a1.486,1.486,0,0,0-2.89-.455l-.817,5.2,2.889.455Z"></path>
  <path class="cls-2" d="M348.8,68.9l-.274,1.689-.558,3.5-.58,3.655a1.476,1.476,0,1,0,2.872.455l.381-2.389.56-3.5,0,0,.474-2.94Z"></path>
  <path class="cls-10" d="M311.038,115.39l.82,9.507A5.855,5.855,0,0,0,317.179,119c.312-5.595-2.5-10.954-7.174-10.166Z"></path>
  <path class="cls-3" d="M277.623,150.188s7.815,27.858,6.6,32.905c-.3,1.243,12.18,5.491,21.136,2.561s14.388-13.037,12.73-14.321c-3.316-2.569-9.732-11.624-11.195-19.642s-29.273-1.5-29.273-1.5"></path>
  <path class="cls-10" d="M283.136,160.1s7.624,7.916,14.519,8.24,15.4-2.832,15.4-2.832l-4.288-7.457s-16.878,6.138-25.636,2.049"></path>
  <path class="cls-3" d="M309.488,104.523s4.392,7.428,7.616,23.341.826,23-7.118,31.666-28.608.151-37.394-11.775-13.678-15.718-10.013-36.526,33.713-33.966,46.909-6.705"></path>
  <polygon class="cls-10" points="297.286 116.661 298.251 130.965 306.68 128.614 297.286 116.661"></polygon>
  <path class="cls-17" d="M304.006,117.6a.944.944,0,0,0,1.133.934,1.327,1.327,0,0,0,1.04-1.333.945.945,0,0,0-1.133-.934,1.327,1.327,0,0,0-1.04,1.333"></path>
  <path class="cls-17" d="M287.253,121.76a.944.944,0,0,0,1.133.934,1.327,1.327,0,0,0,1.04-1.333.945.945,0,0,0-1.133-.934,1.327,1.327,0,0,0-1.04,1.333"></path>
  <path class="cls-10" d="M281.47,131.851a4.1,4.1,0,1,0,3.291-4.775,4.1,4.1,0,0,0-3.291,4.775"></path>
  <path class="cls-10" d="M315.525,119.728a3.83,3.83,0,0,0-.573-.108,3.874,3.874,0,1,0-.867,7.7,3.964,3.964,0,0,0,2.681-.683c-.429-2.583-.772-4.546-1.241-6.909"></path>
  <path class="cls-17" d="M309.488,104.523s-8.525-10.861-13.307-11.851c-5.789-1.2-6.584,5.026-11.848,4.89s-10.794-1.292-14.862,3.776c-4.453,5.546-6.42,35.225-8.353,29.824-2.507-7-4.978-15.651-4.659-21.149.269-4.635,1.97-8.218,5.537-12.594,5.63-6.909,15.122-9.417,21.751-10.394S307.289,93.306,309.488,104.523Z"></path>
  <path class="cls-17" d="M318.017,130.842s-4.151-1.409-13.2.322c-14.4,2.754-15.688,10.248-18.563,13.868s-12.992-.793-18.172-14.178c-3.077-7.949-1.154-18.962.765-22.425s4.921-2.746,18.017-3.377,22.264-4.909,24.166-8.03c5.131-8.424-2.747-19.191-15.821-11.948-5.835-4.325-15.152-2.3-19.813,3.137-16.528.9-20.856,15.592-13.45,37.178,2.2.1,3.657.981,5.507,14.4,3.431,9.531,8.728,16.633,13.555,20.005,10.3,7.2,17.827,5.235,25.43,3.378,13.628-3.328,15.705-16.8,11.579-32.327"></path>
  <path class="cls-2" d="M307.77,141.173a10.856,10.856,0,0,1-6.7.5c-3.358-.986-4.1.321-2.914,1.383a8.089,8.089,0,0,0,7.291,1.156c3.348-.924,4.616-4.048,2.32-3.04"></path>
  <path class="cls-17" d="M266.452,123.565c.6-6.689,6.8-13.694,7.11-17.1a.4.4,0,0,1,.375-.358c7.021-.5,21.391,2.373,26.1-2.864,7.274.329,14.346-1,15.67-8.274s-3.271-18.663-8.63-19.9c-3.434-.792-4.574.406-4.95,1.369a.522.522,0,0,0,.643.681c1.153-.345,3.069-.466,2.713,2.737-.081,1.547-5.1-2.333-4.891-1.119.114.679-.174,2.481-.859,2.419-1.674-.151-4.038-1.237-5.958-1.847-2.624-.834-7.711-.7-12.866,2.236-2.927-2.9-19.183-2.506-23.3,11.143-.968,2.54-6.857,4.189-8.118,15.491S264.694,119.975,266.452,123.565Z"></path>
  <path class="cls-10" d="M265.436,130.205l3.011,8.71s-4.415,3.125-6.869-1.464-2.131-11.089,2.184-13.566Z"></path>
</svg>
