<?xml version="1.0" encoding="UTF-8"?>
<svg xmlns="http://www.w3.org/2000/svg" xmlns:xlink="http://www.w3.org/1999/xlink" id="Calque_1" data-name="Calque 1" viewBox="0 0 480 480">
  <defs>
    <style>.cls-1{fill:none;}.cls-2{fill:#d7ebff;}.cls-3{fill:#fff;}.cls-4{fill:#132d32;}.cls-5{fill:#27c896;}.cls-6{fill:#ffad63;}.cls-7{fill:#7ddebf;}.cls-8{fill:#ff8920;}.cls-9{fill:#122d32;}.cls-10{fill:#0d2528;}.cls-11{fill:#d78f29;}.cls-12{fill:#ffc802;}.cls-13{fill:#ffe473;}.cls-14{fill:#00ac73;}.cls-15{fill:#00d49c;}.cls-16{fill:#bdd2da;}.cls-17{fill:#ffc800;}.cls-18{fill:#2859ff;}.cls-19{fill:#285aff;}.cls-20{fill:#0039a9;}.cls-21{fill:#90e7cd;}.cls-22{fill:#444;}.cls-23{fill:#00ab76;}.cls-24{fill:#9e3c3c;}.cls-25{fill:#f04;}.cls-26{fill:#980023;}.cls-27{fill:#a2290f;}.cls-28{clip-path:url(#clip-path);}</style>
    <clipPath id="clip-path">
      <path class="cls-1" d="M76.2,169.284s25.223,53.431,44.442,54.405c33.194,1.68,56.393-4.061,53-34.779-2.963-26.829-22.159-56.731-38.91-66.707-25.28-15.056-75.8,1.434-58.532,47.081"></path>
    </clipPath>
  </defs>
  <title>480x480_sf-new-elec</title>
  <path class="cls-1" d="M446.345,244.433c.071-.052.142-.1.213-.157s.156-.125.235-.186c-.281.215-.566.423-.853.628C446.074,244.622,446.212,244.531,446.345,244.433Z"></path>
  <path class="cls-1" d="M277.447,174.053h0c.145.369.282.735.4,1.095C277.729,174.788,277.592,174.422,277.447,174.053Z"></path>
  <path class="cls-1" d="M444.869,245.465c.05-.031.1-.065.152-.1.075-.05.147-.105.222-.156-.281.191-.566.374-.852.556C444.549,245.664,444.712,245.569,444.869,245.465Z"></path>
  <path class="cls-1" d="M443.336,246.424l.127-.074c.067-.04.132-.085.2-.125-.325.2-.656.383-.987.568C442.894,246.669,443.118,246.551,443.336,246.424Z"></path>
  <path class="cls-1" d="M449.233,242.037c.077-.071.152-.144.229-.215s.155-.156.234-.232q-.376.363-.762.711C449.032,242.212,449.135,242.128,449.233,242.037Z"></path>
  <path class="cls-1" d="M300.767,43.655c.128-.158.259-.314.39-.471C301.027,43.341,300.894,43.5,300.767,43.655Z"></path>
  <path class="cls-1" d="M299.947,44.718l-.13.175.149-.2Z"></path>
  <path class="cls-1" d="M277.924,182.226c-.026.052-.048.106-.076.157C277.875,182.332,277.9,182.278,277.924,182.226Z"></path>
  <path class="cls-1" d="M278.475,177.787c-.011-.08-.015-.155-.027-.236-.005-.034-.012-.068-.019-.1.021.125.031.243.048.365Z"></path>
  <path class="cls-1" d="M441.748,247.3a1.08,1.08,0,0,1,.119-.059c.064-.034.125-.071.188-.105-.322.172-.651.332-.979.494C441.3,247.521,441.527,247.417,441.748,247.3Z"></path>
  <path class="cls-1" d="M278.209,176.392l-.012-.043c.03.12.049.233.076.35C278.249,176.6,278.235,176.5,278.209,176.392Z"></path>
  <path class="cls-1" d="M278.558,179.772c-.005.079-.008.159-.016.236C278.549,179.93,278.554,179.851,278.558,179.772Z"></path>
  <path class="cls-1" d="M278.459,180.621c.006-.035.017-.065.023-.1s.01-.1.017-.143c-.016.1-.037.205-.057.307C278.446,180.663,278.455,180.643,278.459,180.621Z"></path>
  <path class="cls-1" d="M301.724,42.5l0,0,.034-.037Z"></path>
  <path class="cls-1" d="M447.781,243.309c.09-.074.18-.148.268-.225.065-.055.127-.114.191-.169q-.389.334-.788.654C447.56,243.481,447.673,243.4,447.781,243.309Z"></path>
  <path class="cls-1" d="M356.383,27.869c-.085-.026-.175-.045-.261-.069.13.039.263.074.392.114C356.47,27.9,356.428,27.882,356.383,27.869Z"></path>
  <path class="cls-1" d="M338.407,25.81c-.109.006-.22.008-.329.013h-.018c.135-.008.271-.01.406-.017Z"></path>
  <path class="cls-1" d="M336.2,25.967l.265-.021C336.381,25.953,336.292,25.959,336.2,25.967Z"></path>
  <path class="cls-1" d="M340.321,25.739c.662-.012,1.325-.017,1.991-.006Q341.314,25.717,340.321,25.739Z"></path>
  <path class="cls-1" d="M346.082,25.925c-.147-.013-.3-.018-.447-.027.2.016.407.029.609.046C346.19,25.939,346.137,25.93,346.082,25.925Z"></path>
  <path class="cls-1" d="M353.094,27,353.065,27l.114.028C353.15,27.017,353.123,27.008,353.094,27Z"></path>
  <path class="cls-1" d="M349.657,26.35c-.1-.016-.206-.026-.309-.04.2.03.4.063.6.1C349.853,26.388,349.757,26.365,349.657,26.35Z"></path>
  <path class="cls-1" d="M323.915,28.455c-.16.052-.322.1-.482.152l-.023.008c.18-.059.363-.114.544-.172Z"></path>
  <path class="cls-1" d="M330.8,26.717c-.2.038-.407.079-.611.12l-.017,0c.21-.042.421-.084.632-.124Z"></path>
  <path class="cls-1" d="M310.564,34.823l-.014.01c.124-.082.251-.161.375-.243C310.8,34.667,310.684,34.744,310.564,34.823Z"></path>
  <path class="cls-1" d="M308.461,36.306c-.138.1-.273.211-.41.315l-.019.015c.144-.11.285-.223.431-.332Z"></path>
  <path class="cls-1" d="M313.38,33.08c-.152.088-.3.179-.453.268l-.012.007c.155-.092.308-.185.465-.275Z"></path>
  <path class="cls-1" d="M327.081,27.535l-.2.055-.006,0c.072-.019.142-.041.214-.059Z"></path>
  <path class="cls-1" d="M316.861,31.251l-.224.11.228-.112Z"></path>
  <path class="cls-1" d="M304.1,40.01c-.1.1-.2.2-.3.3h0c.1-.1.2-.206.306-.306Z"></path>
  <path class="cls-1" d="M334.421,26.158c-.168.021-.337.038-.5.061h-.006c.191-.025.383-.045.575-.068Z"></path>
  <path class="cls-1" d="M276.889,172.746l0-.007c.119.257.223.509.33.762C277.11,173.25,277.007,173,276.889,172.746Z"></path>
  <path class="cls-1" d="M389.385,236.971l.2.2c.228.223.466.439.7.658-.306-.289-.612-.578-.909-.872Z"></path>
  <path class="cls-1" d="M394.457,241.386q.763.574,1.541,1.127l.139.1c-.568-.4-1.132-.806-1.689-1.231Z"></path>
  <path class="cls-1" d="M403.595,246.946c.058.026.116.052.173.081s.11.048.165.073c-.318-.147-.634-.3-.951-.458C403.187,246.741,403.389,246.849,403.595,246.946Z"></path>
  <path class="cls-1" d="M401.935,246.121c-.268-.139-.534-.287-.8-.431C401.4,245.834,401.667,245.982,401.935,246.121Z"></path>
  <path class="cls-1" d="M397.506,243.53l.29.188c-.241-.155-.48-.316-.719-.476C397.221,243.338,397.362,243.437,397.506,243.53Z"></path>
  <path class="cls-1" d="M399.325,244.664c.212.128.423.259.636.38l.034.019c-.307-.177-.61-.364-.915-.548C399.163,244.564,399.244,244.615,399.325,244.664Z"></path>
  <path class="cls-1" d="M392.57,239.878c-.563-.471-1.11-.954-1.647-1.443C391.459,238.925,392.006,239.407,392.57,239.878Z"></path>
  <path class="cls-1" d="M377.382,217.662c0,.012.007.027.012.039.028.088.061.175.09.262-.117-.358-.225-.717-.332-1.077C377.229,217.145,377.3,217.4,377.382,217.662Z"></path>
  <path class="cls-1" d="M377.982,219.418v0c.054.146.115.293.171.439-.137-.362-.266-.724-.393-1.087C377.835,218.987,377.9,219.2,377.982,219.418Z"></path>
  <path class="cls-1" d="M376.865,215.917c0,.015.008.03.012.045.012.044.027.088.039.132-.121-.437-.23-.875-.337-1.313C376.671,215.16,376.761,215.539,376.865,215.917Z"></path>
  <path class="cls-1" d="M375.45,207.2v.03c.011.206.032.412.046.618q-.039-.57-.062-1.138C375.441,206.873,375.441,207.036,375.45,207.2Z"></path>
  <path class="cls-1" d="M376.067,212.424l.009.048q.155.839.348,1.683l.014.059q-.212-.922-.38-1.846C376.061,212.387,376.063,212.406,376.067,212.424Z"></path>
  <path class="cls-1" d="M375.672,209.731c-.044-.376-.085-.753-.118-1.128C375.586,208.978,375.628,209.354,375.672,209.731Z"></path>
  <path class="cls-1" d="M375.784,210.677c0,.018.006.042.009.063.05.352.112.7.172,1.054-.074-.438-.145-.876-.2-1.315C375.769,210.546,375.775,210.611,375.784,210.677Z"></path>
  <path class="cls-1" d="M394.147,241.143l.183.143q-.889-.682-1.759-1.408C393.089,240.315,393.617,240.733,394.147,241.143Z"></path>
  <path class="cls-1" d="M249.2,144.118q-.847-.585-1.7-1.159h0q.873.583,1.734,1.18Z"></path>
  <path class="cls-1" d="M271.775,164.65l-.075-.093.077.1Z"></path>
  <path class="cls-1" d="M260.583,152.989q-1.436-1.268-2.946-2.513h0q1.511,1.247,2.951,2.518Z"></path>
  <path class="cls-1" d="M271.8,164.679h0l.027.036Z"></path>
  <path class="cls-1" d="M405.537,247.81c.064.029.128.054.193.077l.068.027c-.257-.106-.512-.218-.768-.329C405.2,247.659,405.367,247.739,405.537,247.81Z"></path>
  <path class="cls-1" d="M272.873,166.1l0,0c.045.061.085.121.129.182C272.956,166.222,272.917,166.163,272.873,166.1Z"></path>
  <path class="cls-1" d="M274.768,168.884l0,0c.214.34.417.677.615,1.012C275.183,169.557,274.98,169.222,274.768,168.884Z"></path>
  <path class="cls-1" d="M276.218,171.385c-.2-.378-.413-.762-.635-1.147h0c.224.389.439.775.64,1.157Z"></path>
  <path class="cls-1" d="M411.489,249.878l.109.031c.152.042.3.074.457.114q-.527-.138-1.052-.29C411.165,249.78,411.327,249.834,411.489,249.878Z"></path>
  <path class="cls-1" d="M409.482,249.276c.037.011.075.026.113.037.124.04.249.073.374.111-.312-.1-.624-.2-.935-.3C409.183,249.171,409.332,249.228,409.482,249.276Z"></path>
  <path class="cls-1" d="M407.535,248.6a.577.577,0,0,0,.1.034c.071.026.143.048.214.074-.259-.094-.517-.192-.775-.291C407.227,248.478,407.38,248.544,407.535,248.6Z"></path>
  <path class="cls-1" d="M436.623,249.482c.03-.01.059-.022.089-.032l.032-.012c-.372.127-.749.24-1.125.356C435.954,249.692,436.292,249.593,436.623,249.482Z"></path>
  <path class="cls-1" d="M413.5,250.384l.024.008.039.008c.177.04.353.071.53.109q-.5-.108-1-.228C413.225,250.314,413.362,250.353,413.5,250.384Z"></path>
  <path class="cls-1" d="M438.391,248.834l.07-.028.1-.041c-.344.138-.695.263-1.044.392C437.806,249.049,438.1,248.948,438.391,248.834Z"></path>
  <path class="cls-1" d="M440.074,248.119a1.061,1.061,0,0,1,.123-.057c.044-.02.086-.043.13-.064-.352.163-.71.315-1.067.467C439.531,248.35,439.805,248.241,440.074,248.119Z"></path>
  <path class="cls-1" d="M365.251,31.666c-.065-.037-.135-.069-.2-.105.094.053.191.1.284.158C365.305,31.7,365.279,31.682,365.251,31.666Z"></path>
  <path class="cls-1" d="M388.415,235.976c-.16-.167-.322-.334-.479-.5C388.093,235.642,388.255,235.809,388.415,235.976Z"></path>
  <path class="cls-1" d="M379.376,222.8c.015.03.029.062.043.092.11.237.231.473.346.709-.184-.379-.365-.759-.537-1.141C379.279,222.57,379.324,222.684,379.376,222.8Z"></path>
  <path class="cls-1" d="M434.671,250.08c.05-.014.1-.025.151-.039a.605.605,0,0,1,.068-.02c-.074.021-.151.038-.225.059Z"></path>
  <path class="cls-1" d="M380.186,224.461c.024.051.05.1.075.149.17.331.352.658.531.986-.234-.43-.465-.86-.684-1.294C380.135,224.354,380.159,224.408,380.186,224.461Z"></path>
  <path class="cls-1" d="M415.073,250.712c.285.055.569.109.854.158l.014,0C415.651,250.818,415.362,250.768,415.073,250.712Z"></path>
  <path class="cls-1" d="M359.514,28.942c-.075-.029-.154-.052-.23-.079.16.061.318.123.477.185C359.677,29.014,359.6,28.975,359.514,28.942Z"></path>
  <path class="cls-1" d="M375.4,205.391c0,.013,0,.026,0,.039,0,.03,0,.063,0,.09,0,.143.01.287.013.431,0-.191,0-.381,0-.572Z"></path>
  <path class="cls-1" d="M383.2,229.546c-.23-.339-.448-.681-.668-1.023C382.751,228.864,382.969,229.207,383.2,229.546Z"></path>
  <path class="cls-1" d="M381.12,226.2v0c.3.528.607,1.047.927,1.566l.029.046q-.53-.858-1.018-1.73C381.079,226.127,381.1,226.166,381.12,226.2Z"></path>
  <path class="cls-1" d="M386.6,233.981c.086.1.169.2.256.3.063.072.13.142.193.213q-.281-.318-.555-.64C386.528,233.895,386.562,233.938,386.6,233.981Z"></path>
  <path class="cls-1" d="M385.6,232.782q-.245-.3-.483-.61C385.281,232.377,385.44,232.581,385.6,232.782Z"></path>
  <path class="cls-1" d="M384.228,231.006c.031.044.059.083.09.124s.085.109.126.164c-.214-.287-.418-.577-.624-.867C383.957,230.62,384.088,230.815,384.228,231.006Z"></path>
  <path class="cls-1" d="M299.793,138.751a18.516,18.516,0,0,1-8.053-22.6,39.541,39.541,0,0,0-12.347.326,189.127,189.127,0,0,0-26.2,6.886c.559.321,1.119.638,1.673.974.2.118.4.225.591.345.355.217.7.456,1.053.679.482.3.971.591,1.449.9.328.213.644.441.969.657.256.172.523.329.779.5.293.2.573.411.864.612.787.542,1.561,1.092,2.329,1.651.305.221.622.43.924.654.222.167.431.34.652.506.769.58,1.523,1.169,2.271,1.763.336.267.688.523,1.019.791.258.209.509.422.764.633.128.1.254.209.379.314.155.13.314.258.468.387q.795.671,1.569,1.349c.3.265.6.533.895.8.059.052.121.1.18.156.038.034.073.07.112.1.111.1.225.2.336.3q.749.685,1.474,1.373.522.495,1.03.994c.029.027.057.055.085.083l.051.051q.438.43.868.862.494.5.973,1t.939.994l.026.027q.392.423.773.843t.77.867q.38.434.746.865c.069.081.136.162.2.244l.113.135c.134.161.272.322.4.483q.325.4.639.79t.617.787c.185.239.365.478.542.716.008.011.018.021.025.031s.015.021.023.032l0,.005q.293.39.571.779c.114.159.225.317.335.475l.126.178c.023.035.049.07.073.1.171.247.339.5.5.74C287.782,146.837,293.049,142.709,299.793,138.751Z"></path>
  <path class="cls-1" d="M412.273,170.393a46.081,46.081,0,0,1,11.7,1.7c.937-5.292,1.752-10.659,2.385-15.848a140.007,140.007,0,0,1-27.733,13.3q-.807,1.8-1.683,3.6c.083-.033.164-.071.247-.1A40.075,40.075,0,0,1,412.273,170.393Z"></path>
  <path class="cls-1" d="M372.376,37.039c-.037-.037-.079-.07-.117-.106.055.054.114.105.168.159C372.41,37.075,372.394,37.056,372.376,37.039Z"></path>
  <path class="cls-1" d="M367.834,33.295c-.069-.047-.144-.089-.214-.135q.208.142.414.285C367.966,33.4,367.9,33.342,367.834,33.295Z"></path>
  <path class="cls-1" d="M379.553,48.748c-.017-.059-.04-.115-.059-.173.091.3.175.6.255.91C379.684,49.238,379.625,48.991,379.553,48.748Z"></path>
  <path class="cls-1" d="M378.65,221.136l0,.009c.079.193.169.383.251.575q-.237-.551-.459-1.1C378.517,220.789,378.579,220.963,378.65,221.136Z"></path>
  <path class="cls-1" d="M370.214,35.09c-.026-.021-.055-.04-.081-.061.082.067.159.137.24.2C370.319,35.187,370.27,35.136,370.214,35.09Z"></path>
  <path class="cls-1" d="M362.473,30.211l-.073-.031c.085.04.167.084.251.125C362.591,30.274,362.534,30.24,362.473,30.211Z"></path>
  <path class="cls-1" d="M376.01,41.36c-.03-.043-.064-.084-.094-.127.105.151.2.306.3.459C376.15,41.581,376.084,41.469,376.01,41.36Z"></path>
  <path class="cls-1" d="M378.641,46.178c-.045-.108-.1-.213-.149-.32.082.19.165.38.243.573C378.7,46.347,378.676,46.261,378.641,46.178Z"></path>
  <path class="cls-1" d="M377.456,43.712c-.038-.07-.082-.136-.123-.205.047.084.1.165.144.249C377.47,43.742,377.464,43.727,377.456,43.712Z"></path>
  <path class="cls-1" d="M374.312,39.132c-.053-.062-.113-.121-.168-.182.117.136.234.273.348.411C374.432,39.285,374.375,39.207,374.312,39.132Z"></path>
  <path class="cls-2" d="M104.606,109.538a11.451,11.451,0,0,1,4.455-5.406c9.155-6.169,21.617-3.64,31.576,1.174,8.212,3.97,16.158,10.1,20.515,17.9,3.122.8,6.672.275,8.447-2.314,2.636,4.582-.278,10.926-5.1,13.091.006.08.017.158.022.238.621,9.1-3.614,19.355,1.716,26.744,3.2,4.43,8.813,6.135,13.8,8.3a26.98,26.98,0,0,1,5.445,3.1,414.211,414.211,0,0,1,1.426-43.947c3.982-50.517-4.253-69.851-17.736-72.394-31.681-5.976-64.563,17.755-90.513,55.634A69.686,69.686,0,0,1,104.606,109.538Z"></path>
  <path class="cls-2" d="M187.238,197.275c.056.211.137.41.21.613q-.228-1.715-.428-3.433A8.213,8.213,0,0,0,187.238,197.275Z"></path>
  <path class="cls-2" d="M433.506,250.38c.39-.1.779-.193,1.165-.3h-.006C434.281,250.186,433.894,250.285,433.506,250.38Z"></path>
  <path class="cls-2" d="M429.245,251.192c.032,0,.064-.01.1-.014.247-.033.491-.079.737-.118-.3.046-.6.1-.9.139Z"></path>
  <path class="cls-2" d="M417.507,251.125l.05.008c.249.034.5.056.746.086-.406-.049-.813-.1-1.22-.162C417.223,251.078,417.365,251.106,417.507,251.125Z"></path>
  <path class="cls-2" d="M53.5,296.645a17,17,0,0,1-7.244-11.417c-.311-2.393-.055-4.868-.946-7.152-1.425-3.656-5.421-5.968-7.473-9.375-4.17-6.924.858-14.931,3.562-22.225a14.045,14.045,0,0,0,1.083-6.653c-.68-5.186-5.647-9.107-9.483-13.25-7.093,40.9-5.254,82.6,9.793,116.918C44.444,324.4,48.4,308.968,53.5,296.645Z"></path>
  <path class="cls-2" d="M41.9,189.452q-2.3,7.5-4.231,15.13a18.859,18.859,0,0,0,1.256-1.568C41.678,199.124,42.316,194.233,41.9,189.452Z"></path>
  <path class="cls-2" d="M419.488,251.356l.077.008c.233.022.465.031.7.05-.37-.029-.741-.058-1.112-.1C419.263,251.328,419.376,251.345,419.488,251.356Z"></path>
  <path class="cls-2" d="M235.874,277.422q-3.233-1.731-6.513-3.73,2.05,3.816,3.9,7.958Z"></path>
  <path class="cls-2" d="M423.479,251.554h.02c.263,0,.524-.01.787-.013-.341,0-.683.011-1.025.008C423.333,251.549,423.406,251.554,423.479,251.554Z"></path>
  <path class="cls-2" d="M255.689,442.226c-.085,6.073-.231,10.779-.342,13.7a268.744,268.744,0,0,0,61.21-13.211c-1.225-4.315,2.521-12.651.056-15.991-2.808-3.8-14.855-2.371-17.038-6.611-2.139-4.164,6.349-12.483,4.884-17.017-1.426-4.414-13.342-6.637-14.057-11.354s10.038-10.125,10.089-14.748c.052-4.745-10.557-10.381-9.746-14.961.827-4.66,12.791-6.6,14.354-11.015,1.573-4.461-6.693-12.991-4.427-17.13,2.276-4.157,14.277-2.45,17.19-6.214s-2.221-14.32,1.276-17.6c3.482-3.271,14.352,1.9,18.348-.825,3.962-2.7,2.472-14.273,6.881-16.367,4.332-2.059,12.991,6.1,17.71,4.691,4.6-1.371,6.907-12.819,11.818-13.509s10.536,9.646,15.349,9.7c4.939.05,10.8-10.145,15.571-9.367,4.851.8,6.871,12.292,11.461,13.794,4.647,1.511,13.52-6.431,17.829-4.255,4.329,2.189,2.552,13.718,6.465,16.521s14.907-2.135,18.327,1.225c2.178,2.142.759,7.191.2,11.556,17.882-39.281,7.374-66.192-18.823-72.212-.139.109-.276.219-.416.326-.045.037-.092.068-.136.1s-.1.074-.155.114c-.157.117-.314.231-.471.346-.257.188-.517.368-.778.544-.026.018-.052.034-.078.05l-.156.1c-.185.124-.372.248-.558.368-.213.13-.426.264-.641.4-.052.031-.105.059-.157.09s-.106.062-.159.093c-.111.065-.222.134-.334.2-.218.124-.438.249-.659.367-.139.081-.282.153-.423.228l-.122.065c-.042.019-.081.041-.121.063-.2.1-.394.2-.591.3s-.4.194-.6.285c-.065.031-.132.063-.2.091l-.14.066c-.089.041-.178.085-.266.122-.2.091-.4.179-.609.267-.187.079-.375.158-.564.233-.034.013-.069.025-.1.041s-.037.016-.056.022-.053.022-.079.032c-.111.041-.222.089-.334.13-.19.076-.381.149-.573.216s-.384.143-.578.207c-.039.016-.078.029-.116.041l-.092.032c-.114.038-.228.08-.343.115-.184.061-.368.121-.553.179s-.371.116-.558.17c-.069.019-.137.042-.207.058l-.1.029c-.086.026-.17.051-.256.074-.178.049-.356.1-.534.143s-.358.094-.537.14l-.364.088a.777.777,0,0,0-.079.02c-.032.007-.064.016-.1.023-.18.04-.362.082-.542.119s-.356.079-.536.113-.358.073-.537.107a.173.173,0,0,0-.055.01c-.016,0-.031,0-.045.007-.146.03-.293.057-.441.081l-.542.092c-.179.028-.358.052-.538.08l-.26.038-.07.01c-.07.01-.139.018-.21.025-.18.025-.361.049-.541.071s-.362.037-.544.059-.361.037-.541.053h0c-.18.018-.36.031-.539.044s-.363.028-.545.041l-.546.032c-.076,0-.152.006-.227.011h-.065c-.087,0-.173.01-.26.011-.184.007-.369.013-.553.017s-.37.01-.555.011h-.557c-.188,0-.376,0-.564,0s-.377-.007-.565-.016l-.568-.016c-.047,0-.093-.007-.14-.009-.029,0-.059,0-.089,0-.113,0-.225-.011-.339-.017l-.583-.033c-.195-.014-.388-.028-.583-.045-.116-.01-.231-.022-.347-.032a.587.587,0,0,1-.074,0l-.163-.015-.585-.06c-.205-.02-.409-.046-.615-.072-.18-.02-.358-.044-.537-.07h-.019a.426.426,0,0,0-.06-.011c-.2-.026-.41-.055-.616-.09s-.41-.061-.616-.1-.425-.072-.638-.107a.072.072,0,0,0-.024-.005c-.214-.041-.427-.079-.64-.122s-.433-.087-.651-.131-.41-.088-.613-.135a.416.416,0,0,0-.055-.011c-.229-.052-.458-.108-.686-.16s-.47-.117-.7-.178c-.147-.039-.294-.078-.441-.12-.05-.014-.1-.022-.149-.039s-.075-.02-.112-.031c-.234-.061-.468-.129-.7-.2-.265-.076-.531-.157-.795-.239-.057-.017-.113-.04-.17-.057-.074-.023-.147-.045-.22-.071l-.4-.127c-.264-.088-.527-.178-.791-.269l-.516-.188c-.031-.011-.063-.02-.094-.031l-.061-.026c-.039-.017-.079-.025-.117-.043-.326-.119-.65-.245-.974-.373-.2-.08-.4-.166-.606-.249l-.014-.006c-.891.313-1.786.633-2.689.974-42.562,16.089-78.37,35.762-116.174,34.144C282.976,328.818,284.375,420.617,255.689,442.226Z"></path>
  <path class="cls-2" d="M421.474,251.5a.515.515,0,0,0,.067,0c.252.012.5.012.755.02-.357-.011-.714-.022-1.072-.042C421.307,251.485,421.39,251.495,421.474,251.5Z"></path>
  <path class="cls-2" d="M427.367,251.4h.016c.387-.036.769-.083,1.153-.127-.433.05-.865.1-1.3.136C427.278,251.4,427.323,251.4,427.367,251.4Z"></path>
  <path class="cls-2" d="M425.385,251.522c.037,0,.074,0,.112-.005.284-.012.564-.037.847-.054-.368.023-.734.048-1.1.062C425.289,251.522,425.337,251.524,425.385,251.522Z"></path>
  <path class="cls-2" d="M415.927,250.87c.085.015.169.027.254.041l-.24-.043Z"></path>
  <path class="cls-2" d="M441.148,128.461c0-.022.008-.044.01-.065.481.863,1.064,5.031,1.265,5.982,1.431,6.767-4.742,14.529-16.064,21.866-.633,5.189-1.448,10.556-2.385,15.848q2.019.56,4.013,1.3a50.873,50.873,0,0,1,14.7,8.558,50.1,50.1,0,0,1,10.847,12.536c17.8-30.09,14.89-67.855,10.465-86.958-7.6-32.816-32.87-53.72-44.3-60.7s-23.346-9.11-11.117,13.733c7.176,13.4,14.1,36.377,17.344,56.486C434.41,119.507,439.894,123.355,441.148,128.461Z"></path>
  <path class="cls-2" d="M368.9,22.161c.327.3.673.581.984.888.376.371.714.767,1.067,1.153.289.315.6.617.868.941.335.4.628.819.937,1.229.252.335.526.658.761,1,.3.431.547.883.818,1.328.052.086.107.171.161.256,7.41,3.3,17.1,3.624,13.8-5.709,0,0-11.474-11.027-20.043-4.037a3.863,3.863,0,0,0-1.143,1.431c.206.151.415.3.609.459C368.136,21.44,368.513,21.806,368.9,22.161Z"></path>
  <path class="cls-2" d="M293.772,64.527c.005.061.013.122.019.183-.012-.131-.02-.264-.03-.4C293.766,64.385,293.766,64.457,293.772,64.527Z"></path>
  <path class="cls-2" d="M228.569,132.752l-.1-.04c-.139-.056-.271-.1-.408-.157.227.09.451.177.681.27C228.686,132.8,228.626,132.775,228.569,132.752Z"></path>
  <path class="cls-2" d="M293.676,62.655v.02c0,.108.014.214.017.322-.005-.226-.007-.453-.006-.681C293.686,62.428,293.675,62.543,293.676,62.655Z"></path>
  <path class="cls-2" d="M370.642,209.923c.02-.2.042-.406.067-.611.022-.187.046-.376.071-.566v-.009a.181.181,0,0,0,0-.027c.027-.2.056-.4.087-.605s.063-.4.1-.6q.056-.33.118-.651t.129-.651q.068-.321.141-.642c0-.021.009-.039.013-.06a.091.091,0,0,0,.006-.024c.044-.187.088-.374.134-.561.061-.241.124-.486.191-.727s.135-.483.206-.721.145-.48.222-.719c.04-.127.084-.251.125-.378.011-.027.02-.06.031-.091.028-.082.054-.163.081-.245.1-.293.209-.59.32-.883s.225-.584.345-.874.241-.578.369-.866c.018-.039.038-.082.057-.124.012-.024.022-.045.033-.073.1-.218.2-.439.3-.654.091-.191.184-.382.279-.57s.191-.376.29-.564.2-.373.3-.558.206-.37.313-.552q2.495-4.323,4.991-8.642c-.013.023-.025.047-.038.07a33.171,33.171,0,0,1,4.58-6.182,34.43,34.43,0,0,1,12.432-8.415q.877-1.8,1.683-3.6a230.163,230.163,0,0,1-31.028,8.8,223.171,223.171,0,0,1-38.073,4.828c-.06.443-.115.883-.181,1.331-7.07,48.281,15.317,53.49,41.224,26.252.007-.085.012-.17.019-.255C370.6,210.3,370.622,210.115,370.642,209.923Z"></path>
  <path class="cls-2" d="M224.037,131.1l-.212-.068-.033-.01c.187.06.379.127.568.19C224.254,131.172,224.143,131.131,224.037,131.1Z"></path>
  <path class="cls-2" d="M226.268,131.867l-.233-.084c-.06-.022-.116-.039-.175-.06.229.082.461.168.694.254C226.46,131.942,226.362,131.9,226.268,131.867Z"></path>
  <path class="cls-2" d="M217.947,129.527l-.163-.029c-.044-.008-.084-.012-.128-.019.192.033.389.072.585.109C218.145,129.569,218.043,129.544,217.947,129.527Z"></path>
  <path class="cls-2" d="M221.834,130.43c-.026-.007-.051-.015-.076-.022-.105-.029-.2-.05-.308-.079.141.038.277.071.42.111Z"></path>
  <path class="cls-2" d="M219.838,129.918l-.176-.039c-.087-.02-.167-.033-.253-.052.211.047.422.093.637.144C219.977,129.955,219.905,129.934,219.838,129.918Z"></path>
  <path class="cls-2" d="M391.871,76A77.931,77.931,0,0,0,379.5,63.208a30.2,30.2,0,0,1-2.435,5.93Z"></path>
  <path class="cls-2" d="M375.429,203.707c0,.03,0,.06,0,.093,0,.094,0,.189,0,.284.011-.381.032-.761.055-1.141C375.46,203.2,375.439,203.452,375.429,203.707Z"></path>
  <path class="cls-2" d="M216.066,129.237l-.012,0-.042,0c.086.01.177.026.263.038C216.207,129.26,216.134,129.246,216.066,129.237Z"></path>
  <path class="cls-2" d="M293.737,60.761c0,.059,0,.117-.006.177.007-.123.012-.245.021-.368C293.747,60.634,293.741,60.7,293.737,60.761Z"></path>
  <path class="cls-2" d="M375.409,204.833c0,.186-.01.371-.008.558l.01-.012C375.41,205.2,375.407,205.014,375.409,204.833Z"></path>
  <path class="cls-2" d="M294.518,55.859c-.032.13-.065.26-.1.39.033-.137.069-.273.1-.409Z"></path>
  <path class="cls-2" d="M297.073,49.251c.058-.109.114-.22.173-.329C297.186,49.031,297.131,49.141,297.073,49.251Z"></path>
  <path class="cls-2" d="M205.654,131.755c-.028.035-.064.065-.091.1l11.209-14.975a6.248,6.248,0,0,1,.544-.633c.024-.025.055-.046.08-.072.071-.07.151-.134.226-.2.11-.1.212-.2.329-.294.058-.045.125-.083.185-.128.1-.07.2-.137.3-.206.081-.053.156-.114.242-.166.1-.063.22-.116.33-.174s.213-.118.325-.172c.055-.027.1-.058.159-.084.21-.1.428-.188.653-.272.027-.009.057-.017.083-.027a.446.446,0,0,0,.044-.019c.033-.011.074-.02.107-.031.154-.053.3-.107.464-.154s.351-.093.528-.137c.052-.014.1-.028.151-.04l.065-.017c.256-.058.52-.11.791-.155.111-.017.229-.032.344-.048l.153-.022c.061-.008.119-.018.182-.026.231-.027.467-.051.708-.069.128-.01.262-.016.393-.022l.174-.01c.058,0,.114-.008.172-.01.251-.01.507-.014.769-.014.154,0,.314,0,.471.007.029,0,.053,0,.082,0l.051,0,.113,0q.366.012.742.034c.251.015.506.034.764.057h.019l.043.005c.239.022.481.046.726.074s.513.063.774.1l.209.032.166.025c.139.022.277.041.418.064.269.044.54.093.815.143.171.032.346.067.52.1l.135.027c.06.012.118.022.179.035q.423.088.855.188t.873.21l.047.013.02,0,.042.012c.26.066.523.134.787.206.3.08.6.166.912.255.1.027.194.058.291.087l.255.076c.144.044.288.085.433.13q.494.152,1,.319c.188.061.38.128.57.192l.188.065c.089.029.174.057.261.088q.515.179,1.038.371.414.151.832.31l.1.041.073.028c.221.085.442.17.666.259q.425.167.855.343t.866.36c.134.057.27.114.4.173s.269.116.4.174l.405.177.406.181q.879.392,1.759.809c.129.061.258.128.386.189l.358.174c.339.164.678.326,1.016.494q.88.44,1.76.9c.234.124.469.252.7.378l.408.22c.215.116.429.228.643.346.4.217.784.462,1.179.686.3.17.6.349.894.52a189.127,189.127,0,0,1,26.2-6.886,39.541,39.541,0,0,1,12.347-.326,18.531,18.531,0,0,1,25.013-10.389l-1.694-8.011L302.8,89.224l3.364-4.515c-6.489-4.558-10.84-10.816-12.1-17.945l0,.018-.008-.042v0q-1.241-6.974-2.481-13.946c-.065-.366-.123-.734-.171-1.106-.027-.2-.041-.412-.062-.618-.02-.178-.04-.358-.054-.538-.052-.608-.088-1.22-.094-1.839v-.027c0-.3.019-.614.029-.92-51.032,12.963-90.983,55.164-88.923,78.879.364,4.187,1.052,7.2,2.121,9.254a7.978,7.978,0,0,1,.107-1.555A5.7,5.7,0,0,1,205.654,131.755Z"></path>
  <path class="cls-2" d="M298.146,47.364c-.043.071-.086.143-.128.215.044-.072.086-.145.13-.218Z"></path>
  <path class="cls-2" d="M214.423,129.089l-.116-.007c-.077,0-.147,0-.223-.005.136.006.27.009.409.018Z"></path>
  <path class="cls-2" d="M377.243,193.72c-.019.054-.036.109-.055.166-.054.162-.1.328-.151.492.107-.339.218-.677.335-1.013C377.33,193.484,377.283,193.6,377.243,193.72Z"></path>
  <path class="cls-2" d="M377.849,192.07c-.036.091-.074.185-.108.275s-.072.2-.11.3q.188-.5.393-1C377.967,191.79,377.9,191.929,377.849,192.07Z"></path>
  <path class="cls-2" d="M378.508,190.52c-.034.073-.07.148-.1.224s-.067.163-.1.245c.152-.348.313-.691.477-1.034C378.689,190.143,378.595,190.329,378.508,190.52Z"></path>
  <path class="cls-2" d="M376.319,196.987c-.005.018-.01.042-.015.063-.083.364-.153.73-.224,1.1.085-.438.174-.874.276-1.307C376.345,196.888,376.33,196.937,376.319,196.987Z"></path>
  <path class="cls-2" d="M375.983,198.62c-.007.045-.015.087-.023.129-.093.524-.177,1.054-.246,1.587l0,.036,0,.044q.117-.9.279-1.8Z"></path>
  <path class="cls-2" d="M375.534,202c0,.027,0,.054-.007.081,0,.052-.005.1-.009.156.037-.462.086-.922.139-1.382C375.613,201.233,375.567,201.613,375.534,202Z"></path>
  <path class="cls-2" d="M211.475,129.123l-.16.016-.014,0c.117-.012.241-.018.361-.028C211.6,129.118,211.535,129.117,211.475,129.123Z"></path>
  <path class="cls-2" d="M210,129.342l-.03.008c.046-.01.088-.022.134-.032Z"></path>
  <path class="cls-2" d="M379.2,189.077c-.025.048-.051.1-.076.146s-.043.092-.066.138c.191-.38.4-.755.6-1.129C379.51,188.513,379.352,188.792,379.2,189.077Z"></path>
  <path class="cls-2" d="M212.892,129.05l-.146,0c-.04,0-.077.005-.117.006q.218-.005.441-.006C213.012,129.054,212.949,129.049,212.892,129.05Z"></path>
  <path class="cls-2" d="M376.752,195.306c-.016.06-.034.121-.051.181-.065.233-.119.47-.179.705.094-.37.192-.739.3-1.106C376.8,195.16,376.772,195.232,376.752,195.306Z"></path>
  <path class="cls-2" d="M208.013,129.972c-.032.014-.062.031-.093.046l.151-.068C208.052,129.958,208.031,129.964,208.013,129.972Z"></path>
  <path class="cls-2" d="M209.024,129.592l-.143.042c-.055.018-.1.042-.156.061.109-.038.217-.076.33-.111Z"></path>
  <path class="cls-2" d="M206.152,131.2c-.022.021-.039.046-.061.068.033-.033.064-.068.1-.1C206.178,131.178,206.164,131.188,206.152,131.2Z"></path>
  <path class="cls-3" d="M458.9,311.674c-3.42-3.359-14.414,1.575-18.327-1.225s-2.136-14.332-6.465-16.521c-4.309-2.176-13.182,5.767-17.829,4.255-4.59-1.5-6.61-13-11.461-13.794-4.769-.778-10.632,9.417-15.571,9.367-4.812-.05-10.438-10.386-15.349-9.7s-7.222,12.138-11.818,13.509c-4.719,1.4-13.378-6.75-17.71-4.691-4.409,2.095-2.919,13.668-6.881,16.367-4,2.724-14.866-2.446-18.348.825-3.5,3.285,1.64,13.848-1.276,17.6s-14.915,2.056-17.19,6.214c-2.265,4.14,6,12.669,4.427,17.13-1.563,4.414-13.528,6.355-14.354,11.015-.811,4.58,9.8,10.216,9.746,14.961-.052,4.622-10.808,10.03-10.089,14.748s12.631,6.94,14.057,11.354c1.465,4.535-7.023,12.854-4.884,17.017,2.183,4.239,14.23,2.806,17.038,6.611,2.466,3.341-1.28,11.676-.056,15.991,45.9-15.585,85.9-42.387,111.6-72.656,14.392-16.949,24.5-32.688,30.936-46.829C459.657,318.865,461.076,313.816,458.9,311.674Z"></path>
  <path class="cls-4" d="M166.24,160.964c-5.33-7.389-1.1-17.641-1.716-26.744-.005-.08-.016-.158-.022-.238-.1.043-.186.095-.283.134-4.991,2.037-10.911.319-15.1-3.075-2.3-1.863-4.461-4.318-7.4-4.629a6.045,6.045,0,0,0-1.14,0c9.811,8.194,19.719,22.09,26.178,37.339a101.513,101.513,0,0,1,4.694,13.647,79.564,79.564,0,0,1,2.192,11.514c1.507,13.644-2.242,22.352-9.772,27.679l.182.423.027-.012,3.934,8.981-.091.04,5.658,13.173q2.508.146,5.006.414c0-.056.006-.116.009-.171.16-1.733,5.921-1.33,5.93.483q-.014.249-.027.5a88.356,88.356,0,0,1,14.437,3.705c.974.341,1.929.722,2.87,1.135-7.787-13.99-12.118-30.551-14.352-47.37-.073-.2-.154-.4-.21-.613a8.213,8.213,0,0,1-.218-2.82c-.86-7.412-1.334-14.841-1.536-22.093a26.98,26.98,0,0,0-5.445-3.1C175.053,167.1,169.435,165.393,166.24,160.964Z"></path>
  <path class="cls-4" d="M71.573,133.354a12.014,12.014,0,0,1-1.486,3.422c.647-.259,1.291-.526,1.945-.765a47.162,47.162,0,0,1,9.181-10.527A45.045,45.045,0,0,1,112.095,115l6.642-1.523a6.82,6.82,0,0,1,.565,2.3,10.341,10.341,0,0,1,3.519.39,8.79,8.79,0,0,1,.868-.68l-.685.728.037.01c3.589,1.145,7.048,4.265,10.6,3,2.266-.811,3.579-3.184,5.629-4.445,3.229-1.987,7.512-.784,10.7,1.273s5.873,4.9,9.313,6.494a10.9,10.9,0,0,0,1.875.66c-4.357-7.8-12.3-13.929-20.515-17.9-9.959-4.814-22.421-7.343-31.576-1.174a11.451,11.451,0,0,0-4.455,5.406,69.686,69.686,0,0,0-25.944,2.116q-4.631,6.76-8.955,14.093A8.708,8.708,0,0,1,71.573,133.354Z"></path>
  <path class="cls-4" d="M74.039,179a6.842,6.842,0,0,1-3.026-1.1c-3.459-2.139-5.8-6.206-6.72-10.349-.055-.245-.091-.49-.137-.735a9.239,9.239,0,0,0-.178,2.822,11.724,11.724,0,0,0,2.189,5.145c3.363,5,8.175,9.226,9.912,15a16.07,16.07,0,0,1-3.96,15.676c-1.789,1.783-3.989,3.118-5.745,4.935s-3.068,4.381-2.438,6.827c.612,2.376,2.811,3.922,4.458,5.74q.422.465.793.967c2.181-2.824,5.458-5.231,8.445-7.536,4.622-3.566,9.3-8.443,8.13-13.542-.7-3.066-3.381-5.359-5.493-7.833a26.17,26.17,0,0,1-4.1-6.54,13.059,13.059,0,0,1-1.222-7.494,8.677,8.677,0,0,1,.7-2.137A4.945,4.945,0,0,1,74.039,179Z"></path>
  <path class="cls-4" d="M41.395,246.476c-2.7,7.294-7.732,15.3-3.562,22.225,2.052,3.407,6.048,5.719,7.473,9.375.89,2.284.635,4.759.946,7.152A17,17,0,0,0,53.5,296.645c10.629-25.691,26.225-37.884,36.329-41.61a3.764,3.764,0,0,0,.3-2.481,6.038,6.038,0,0,0-2.56-3.083c-4.216-3.086-9.376-5.085-13.682-8.076a22.512,22.512,0,0,1-3.139-2.623,13.287,13.287,0,0,1-1.775,2.958c-2.477,3.09-6.409,5.57-6.685,9.52-.344,4.917,5.365,8.741,4.951,13.652-.224,2.652-2.194,4.78-4.056,6.681l-11.7,11.944c2.964-7.815,5.844-16.917,1.661-24.153-1.232-2.132-3.063-4.052-3.382-6.494-.444-3.4,2.172-6.366,4.693-8.689s5.344-4.93,5.5-8.354c.338-7.3-11.2-10.689-11.2-18a10.429,10.429,0,0,1,2.635-6.209c4.094-5.21,10.438-9.559,10.863-16.172.421-6.551-5.2-11.646-8.874-17.088a28.727,28.727,0,0,1-4.2-9.955c-2.656,6.872-5.087,13.9-7.276,21.033.414,4.78-.223,9.672-2.975,13.562a18.859,18.859,0,0,1-1.256,1.568c-1.833,7.272-3.4,14.618-4.676,21.99,3.836,4.143,8.8,8.064,9.483,13.25A14.045,14.045,0,0,1,41.395,246.476Z"></path>
  <path class="cls-4" d="M115.266,246.929l-2.449-7.983c-7-2.877-12.919-8-14.028-15.885-.286-2.033-.509-4.145-.611-6.273a5.914,5.914,0,0,1-1.2.027,25.88,25.88,0,0,1-3.268,2.664,39.637,39.637,0,0,0-5.331,3.813c-1.539,1.495-2.593,3.565-2.01,5.431a6.438,6.438,0,0,0,2.589,3.05c3.6,2.589,8.146,3.965,12.492,5.519,1.753.627,3.579,1.355,4.6,2.735a7.355,7.355,0,0,1,1.124,3.988,20.529,20.529,0,0,1-.285,5.822Z"></path>
  <path class="cls-5" d="M106.036,302.819c-.1,3.213-.224,5.205-.224,5.205l9.959-34.478C113.542,279.7,109.954,290.007,106.036,302.819Z"></path>
  <path class="cls-5" d="M178.515,241.041q.031-.763.067-1.434-2.5-.268-5.006-.414l.293.682Z"></path>
  <path class="cls-5" d="M184.493,240.418c-.71,12.818-1.205,25.619-4.245,38.151-2.277,9.382-7.229,18.2-17.154,19.511q.34,2.7.67,5.488l.476-.02c0,.076.086,2.137.168,5.691,4.862,44.534,6.535,102.441-11.508,133.1,33.428,13.072,68.485,16.766,102.446,13.59.111-2.922.258-7.627.342-13.7,28.686-21.609,27.287-113.408,25.351-151.983-14.59-.624-29.478-4.421-45.165-12.821l-2.614,4.229q-1.848-4.139-3.9-7.958c-1.383-.842-2.769-1.707-4.165-2.622-10.044-6.584-17.656-15.5-23.4-25.812-.941-.413-1.9-.794-2.87-1.135A88.356,88.356,0,0,0,184.493,240.418ZM236.546,280.7l.848.438c-.35.676-34.88,68.237-29.728,124.2l-.949.088C201.538,349.178,236.2,281.375,236.546,280.7Z"></path>
  <path class="cls-5" d="M106.129,299.286c3.807-12.217,7.206-21.86,9.21-27.343-3.9-2.843-7.815-5.652-11.786-8.4a99.244,99.244,0,0,1,2.365,18.506,10.353,10.353,0,0,1,1.114,8.441,10.956,10.956,0,0,1-.845,1.872C106.2,294.868,106.171,297.211,106.129,299.286Z"></path>
  <path class="cls-5" d="M106.129,299.286c.042-2.075.068-4.418.057-6.924-2.313,4.132-7.011,7.553-7.239,12.06a6.926,6.926,0,0,0,3.749,6.252C103.859,306.681,105.011,302.873,106.129,299.286Z"></path>
  <path class="cls-5" d="M98.57,260.152c-2.1,1.921-3.8,3.934-3.823,6.476-.029,2.946,2.347,5.337,4.575,7.457a34.382,34.382,0,0,1,6.6,7.965,99.244,99.244,0,0,0-2.365-18.506Q101.076,261.83,98.57,260.152Z"></path>
  <path class="cls-6" d="M178.515,241.041l-4.647-1.166,3.286,7.651c2.524,5.382-6.021,33.465-11.943,33.976l-4.749-2.259c.612,4,1.236,8.293,1.848,12.829C178.335,289.935,177.961,254.748,178.515,241.041Z"></path>
  <path class="cls-6" d="M117.887,266.22l3.292-11.4c-1.072-3.711-2.533-8.738-4.22-14.456-1-.288-1.989-.6-2.963-.957-.4-.147-.788-.3-1.179-.464l2.449,7.983-8.377,2.908a10.881,10.881,0,0,1-1.4,3.5,15.239,15.239,0,0,1-2.288,2.719Q110.653,260.991,117.887,266.22Z"></path>
  <path class="cls-7" d="M162.311,292.072q.4,2.938.784,6.007c9.925-1.313,14.877-10.128,17.154-19.511,3.039-12.531,3.535-25.333,4.245-38.151q.014-.249.027-.5c-.009-1.813-5.77-2.216-5.93-.483,0,.055-.006.115-.009.171q-.036.67-.067,1.434C177.961,254.748,178.335,289.935,162.311,292.072Z"></path>
  <path class="cls-6" d="M150.97,230c.717,6.228,1.057,12.528,1.2,18.834l2.885-.125s2.579,12.09,5.4,30.53l4.749,2.259c5.922-.511,14.467-28.594,11.943-33.976l-3.286-7.651-.293-.682-5.658-13.173C167.206,226.329,161.374,228.737,150.97,230Z"></path>
  <path class="cls-6" d="M125.131,242.613c0-.174-.014-.394-.015-.605a11.415,11.415,0,0,1-1.93-.289,47.28,47.28,0,0,1-6.227-1.352c1.687,5.718,3.149,10.746,4.22,14.456l1.359-4.7,2.392-.1Z"></path>
  <path class="cls-8" d="M149.756,222.261a9.606,9.606,0,0,0-1.031-2.391c-1.848-2.955-5.5-4.114-8.648-5.076a33.231,33.231,0,0,1-5.262-1.807c-2.6-1.305-2.452-2.9-2.478-5.557-.022-2.235-.136-7.5-3.3-7.888-3.349-.411-5.137,4.733-5.565,7.142a30.437,30.437,0,0,0-.09,9.087c-2.377-3.226-3.7-7.526-4.565-11.254-.653-2.8-1.9-12.451-7.18-9.4a4.672,4.672,0,0,0-1.455,1.36c.141.429.268.862.388,1.3a3.774,3.774,0,0,1,1.548-1.833c3.378-1.878,4.8,3.683,5.188,5.844a44.645,44.645,0,0,0,2.528,9.135,22.5,22.5,0,0,0,3.929,6.806c.351.379.872-.03.8-.464-.767-4.43-1.22-10.355,1.211-14.324,1.493-2.436,3.951-3.472,5.029-.154.88,2.708-.18,5.753.751,8.331,1.224,3.388,6.6,4.031,9.5,4.983,2.413.791,5.057,1.79,6.606,3.921a11.229,11.229,0,0,1,1.621,4.651c1.482,7.9,1.7,16.127,1.845,24.211l1.047-.045c-.147-6.305-.487-12.606-1.2-18.834,10.4-1.268,16.236-3.675,16.948-3.985l.091-.04L164.076,217l-.027.012c-1.06.541-2.12,1-3.179,1.431A41.908,41.908,0,0,1,149.756,222.261Z"></path>
  <path class="cls-6" d="M119.292,130.289c.6,4.693,1.841,9.41.922,14.034-.849,4.274-3.465,7.982-6.332,11.263a67.89,67.89,0,0,1-25.177,18.03c-.061.025-.124.048-.185.073,1.75,3.331,6.066,5.254,9.509,7.349a28.674,28.674,0,0,1,12.154,15.442,4.672,4.672,0,0,1,1.455-1.36c5.275-3.054,6.527,6.593,7.18,9.4.868,3.728,2.188,8.029,4.565,11.254a30.437,30.437,0,0,1,.09-9.087c.427-2.409,2.215-7.553,5.565-7.142,3.164.388,3.277,5.653,3.3,7.888.026,2.655-.12,4.252,2.478,5.557a33.231,33.231,0,0,0,5.262,1.807c3.147.962,6.8,2.121,8.648,5.076a9.606,9.606,0,0,1,1.031,2.391,41.908,41.908,0,0,0,11.114-3.819c1.059-.427,2.119-.89,3.179-1.431l-.182-.423c7.531-5.327,11.279-14.035,9.772-27.679a79.564,79.564,0,0,0-2.192-11.514c-.083.021-.162.047-.246.065a7.248,7.248,0,0,1-4.448-13.712c-6.459-15.248-16.367-29.144-26.178-37.339-3.815.314-6.82,4.1-10.534,5.611A11.1,11.1,0,0,1,119.292,130.289Zm38.289,29.13a2.694,2.694,0,1,1-1.542,3.482A2.694,2.694,0,0,1,157.581,159.419Zm1.069,21.864-4.112,3.73a6,6,0,0,1-3.068,1.351l-5.253.744L146,169.588Zm-5.131,14.281c5.023-.86,8.728-6.068,9.489-1.624s-3.754,10.029-8.777,10.889-8.653-3.077-9.642-7.737C143.829,192.648,148.31,196.456,153.52,195.565Zm-27.655,1.866a7.249,7.249,0,1,1,5.6-8.588A7.251,7.251,0,0,1,125.865,197.431Zm3.017-20.5a2.694,2.694,0,1,1,1.544-3.483A2.694,2.694,0,0,1,128.882,176.93Z"></path>
  <path class="cls-6" d="M109.246,216.193c-.041.1-.078.195-.12.29.066.157.138.312.209.467C109.306,216.7,109.274,216.446,109.246,216.193Z"></path>
  <circle class="cls-9" cx="127.913" cy="174.416" r="2.693" transform="translate(-54.211 57.738) rotate(-21.099)"></circle>
  <circle class="cls-9" cx="158.551" cy="161.932" r="2.693" transform="translate(-47.661 67.927) rotate(-21.098)"></circle>
  <circle class="cls-8" cx="124.37" cy="190.338" r="7.25" transform="translate(-36.576 29.736) rotate(-11.9)"></circle>
  <path class="cls-3" d="M154.231,204.83c5.023-.86,9.537-6.444,8.777-10.889s-4.465.764-9.489,1.624c-5.209.892-9.691-2.916-8.93,1.528C145.578,201.753,149.208,205.689,154.231,204.83Z"></path>
  <path class="cls-8" d="M151.471,186.364a6,6,0,0,0,3.068-1.351l4.112-3.73L146,169.588l.217,17.519Z"></path>
  <path class="cls-4" d="M66.117,166.391A21.322,21.322,0,0,0,90.455,159.1c4.715-6.617,5.147-15.308,8.268-22.81a33.662,33.662,0,0,1,10.2-13.445,18.95,18.95,0,0,1,5.437-3.086,15.219,15.219,0,0,1,.072-1.976l.223-.63a10.417,10.417,0,0,1,4.647-1.377,6.82,6.82,0,0,0-.565-2.3L112.095,115a45.045,45.045,0,0,0-30.882,10.481,47.162,47.162,0,0,0-9.181,10.527,72.433,72.433,0,0,1,17.14-3.995c.12-.081.235-.167.355-.247l3.777-.088c-1.381.068-2.758.187-4.132.335a62.527,62.527,0,0,0-24.365,32.4,22.19,22.19,0,0,0-.651,2.4c.046.245.082.491.137.735.925,4.143,3.262,8.21,6.72,10.349a6.842,6.842,0,0,0,3.026,1.1,4.945,4.945,0,0,0,1.608-.156,10.761,10.761,0,0,1,1.893-2.766,15.333,15.333,0,0,1-2.488-.269C70.465,174.881,66.189,171.07,66.117,166.391Z"></path>
  <path class="cls-8" d="M162.614,171.863a7.251,7.251,0,0,0,8.588,5.6c.084-.018.164-.045.246-.065a101.513,101.513,0,0,0-4.694-13.647A7.249,7.249,0,0,0,162.614,171.863Z"></path>
  <path class="cls-10" d="M123.689,115.49a8.79,8.79,0,0,0-.868.68c.06.018.123.029.183.048Z"></path>
  <path class="cls-10" d="M86.82,170.1l.961,1.276c.011.084.034.162.048.245l1.028-.293a10.292,10.292,0,0,0-.458,2.1c.04.085.078.17.122.253.061-.025.124-.047.185-.073a67.89,67.89,0,0,0,25.177-18.03c2.868-3.281,5.484-6.989,6.332-11.263.918-4.624-.32-9.341-.922-14.034a11.091,11.091,0,0,1-.98-.845,13.967,13.967,0,0,1-3.951-9.68,18.95,18.95,0,0,0-5.437,3.086,33.662,33.662,0,0,0-10.2,13.445c-3.121,7.5-3.553,16.193-8.268,22.81a21.322,21.322,0,0,1-24.338,7.286c.072,4.679,4.348,8.49,8.934,9.42a15.333,15.333,0,0,0,2.488.269,13.418,13.418,0,0,1,7.515-3.988A7.685,7.685,0,0,1,86.82,170.1Z"></path>
  <path class="cls-10" d="M114.655,117.158l-.223.63a15.219,15.219,0,0,0-.072,1.976,13.967,13.967,0,0,0,3.951,9.68,11.453,11.453,0,0,0,11.73,2.577c3.714-1.513,6.719-5.3,10.534-5.611a6.045,6.045,0,0,1,1.14,0c2.943.311,5.1,2.766,7.4,4.629,4.188,3.394,10.107,5.112,15.1,3.075.1-.039.188-.091.283-.134,4.82-2.165,7.734-8.509,5.1-13.091-1.776,2.588-5.325,3.112-8.447,2.314a10.9,10.9,0,0,1-1.875-.66c-3.44-1.594-6.127-4.437-9.313-6.494s-7.469-3.26-10.7-1.273c-2.05,1.261-3.363,3.634-5.629,4.445-3.547,1.27-7.006-1.85-10.6-3l-.037-.01c-.06-.019-.122-.03-.183-.048a10.6,10.6,0,0,0-8.166.988Z"></path>
  <path class="cls-4" d="M65.16,138.936c1.611-.789,3.26-1.5,4.926-2.161a12.014,12.014,0,0,0,1.486-3.422,8.708,8.708,0,0,0-1.866-7.606q-4.341,7.364-8.329,15.229C62.611,140.244,63.878,139.564,65.16,138.936Z"></path>
  <path class="cls-10" d="M62.251,195.461c-.425,6.612-6.77,10.962-10.863,16.172a10.429,10.429,0,0,0-2.635,6.209c0,7.307,11.536,10.7,11.2,18-.159,3.424-2.982,6.031-5.5,8.354s-5.137,5.29-4.693,8.689c.319,2.441,2.15,4.362,3.382,6.494,4.183,7.236,1.3,16.338-1.661,24.153l11.7-11.944c1.862-1.9,3.833-4.029,4.056-6.681.414-4.911-5.295-8.735-4.951-13.652.276-3.95,4.208-6.431,6.685-9.52a13.287,13.287,0,0,0,1.775-2.958,22.512,22.512,0,0,0,3.139,2.623c4.306,2.991,9.466,4.99,13.682,8.076a6.038,6.038,0,0,1,2.56,3.083,3.764,3.764,0,0,1-.3,2.481,16.671,16.671,0,0,1-2.887,3.889c-3.057,3.446-5.443,7.762-4.53,11.9,1.756,7.956,14.5,11.377,14.951,19.523.161,2.9-1.369,5.735-1.728,8.643-.589,4.763,2.346,9.535,7.054,11.725.288.134.584.256.886.37.082.031.161.069.244.1-.084-.03-.159-.075-.241-.108a7.856,7.856,0,0,1-.877-.4,6.926,6.926,0,0,1-3.749-6.252c.228-4.507,4.926-7.928,7.239-12.06a10.956,10.956,0,0,0,.845-1.872,10.353,10.353,0,0,0-1.114-8.441,34.382,34.382,0,0,0-6.6-7.965c-2.227-2.12-4.6-4.51-4.575-7.457.025-2.542,1.72-4.555,3.823-6.476,1.486-1.358,3.17-2.673,4.628-4.094a15.239,15.239,0,0,0,2.288-2.719,10.881,10.881,0,0,0,1.4-3.5,20.529,20.529,0,0,0,.285-5.822,7.355,7.355,0,0,0-1.124-3.988c-1.024-1.38-2.85-2.108-4.6-2.735-4.347-1.554-8.892-2.93-12.492-5.519a6.438,6.438,0,0,1-2.589-3.05c-.583-1.867.471-3.937,2.01-5.431a39.637,39.637,0,0,1,5.331-3.813,25.88,25.88,0,0,0,3.268-2.664c-6.283-.481-10.726-10.865-6.413-15.343-.3-.3-.61-.607-.932-.948-6.64-7.013-5.637-13.828-4-16.3a15.911,15.911,0,0,1-1.042-2,11.37,11.37,0,0,1,.463-10.141,13.418,13.418,0,0,0-7.515,3.988,10.761,10.761,0,0,0-1.893,2.766,8.677,8.677,0,0,0-.7,2.137,13.059,13.059,0,0,0,1.222,7.494,26.17,26.17,0,0,0,4.1,6.54c2.112,2.474,4.791,4.767,5.493,7.833,1.168,5.1-3.508,9.976-8.13,13.542-2.987,2.3-6.264,4.711-8.445,7.536q-.373-.5-.793-.967c-1.648-1.818-3.846-3.364-4.458-5.74-.63-2.446.682-5.01,2.438-6.827s3.955-3.152,5.745-4.935a16.07,16.07,0,0,0,3.96-15.676c-1.736-5.771-6.548-10-9.912-15a11.724,11.724,0,0,1-2.189-5.145,9.239,9.239,0,0,1,.178-2.822,22.19,22.19,0,0,1,.651-2.4,62.527,62.527,0,0,1,24.365-32.4,72.433,72.433,0,0,0-17.14,3.995c-.654.24-1.3.507-1.945.765-1.666.666-3.315,1.372-4.926,2.161-1.283.628-2.549,1.308-3.782,2.04a300.243,300.243,0,0,0-12.2,27.443,28.727,28.727,0,0,0,4.2,9.955C57.049,183.816,62.672,188.91,62.251,195.461Z"></path>
  <path class="cls-10" d="M89.527,131.768c-.12.08-.236.166-.355.247,1.374-.148,2.752-.267,4.132-.335Z"></path>
  <path class="cls-6" d="M99.1,214.487c-.006.233-.007.468-.01.7a4.422,4.422,0,0,0,1.874-1.929,6.312,6.312,0,0,0,.735-2.876A21.238,21.238,0,0,1,99.1,214.487Z"></path>
  <path class="cls-6" d="M149.282,224.673a11.229,11.229,0,0,0-1.621-4.651c-1.549-2.131-4.193-3.13-6.606-3.921-2.9-.952-8.278-1.6-9.5-4.983-.931-2.577.129-5.623-.751-8.331-1.078-3.318-3.536-2.282-5.029.154-2.432,3.968-1.978,9.894-1.211,14.324.075.434-.446.843-.8.464a22.5,22.5,0,0,1-3.929-6.806,44.645,44.645,0,0,1-2.528-9.135c-.385-2.16-1.81-7.721-5.188-5.844a3.774,3.774,0,0,0-1.548,1.833,27.133,27.133,0,0,1,.74,3.566A28.3,28.3,0,0,1,110,214.216q.226,2.481.567,4.946a.479.479,0,0,1-.872.367A12.661,12.661,0,0,1,108.6,217.6a27.79,27.79,0,0,1-4.7,6.843c1.88-7.1,2.654-15.071-.591-21.559a14.634,14.634,0,0,1-.84,5.646,11.931,11.931,0,0,1,.127,1.23c.1,2.708-.655,5.955-3.5,6.827.072,5.7,1.123,11.526,5.126,15.708,5.292,5.53,13.9,8.24,21.417,8.751a.486.486,0,0,1,.477.477l-.23,8.448,25.243-1.092C150.983,240.8,150.764,232.57,149.282,224.673Z"></path>
  <path class="cls-8" d="M98.244,215.5a3.544,3.544,0,0,0,.851-.31c0-.234,0-.469.01-.7Q98.691,215,98.244,215.5Z"></path>
  <path class="cls-8" d="M109.7,219.53a.479.479,0,0,0,.872-.367q-.345-2.463-.567-4.946-.342,1-.755,1.977c.028.253.059.5.089.757-.071-.155-.143-.309-.209-.467-.165.378-.343.75-.524,1.12A12.661,12.661,0,0,0,109.7,219.53Z"></path>
  <path class="cls-8" d="M126.114,241.528a.486.486,0,0,0-.477-.477c-7.513-.512-16.125-3.222-21.417-8.751-4-4.182-5.053-10.009-5.126-15.708-.109.033-.215.071-.331.1-.2.045-.391.074-.586.1.1,2.128.325,4.24.611,6.273,1.109,7.89,7.028,13.009,14.028,15.885.39.16.782.318,1.179.464.973.36,1.965.669,2.963.957a47.28,47.28,0,0,0,6.227,1.352,11.415,11.415,0,0,0,1.93.289c0,.211.02.431.015.605l-.2,7.4.955-.041Z"></path>
  <path class="cls-5" d="M164.408,309.239c.234,10.076.466,32.253-1.114,56.007-2.392,35.935-7.763,61.011-15.993,74.809q2.791,1.187,5.6,2.281C170.943,411.681,169.27,353.773,164.408,309.239Z"></path>
  <path class="cls-5" d="M163.287,303.588l.477-.02q-.329-2.788-.67-5.488-.387-3.066-.784-6.007c-.612-4.536-1.235-8.831-1.848-12.829-2.825-18.439-5.4-30.53-5.4-30.53l-2.885.125-1.047.045-25.243,1.092-.955.041-2.392.1-1.359,4.7-3.292,11.4-.243.843.47.183c-.03.078-.9,2.324-2.343,6.3l-9.959,34.478s.12-1.992.224-5.205c-.81,2.648-1.634,5.407-2.463,8.256.082.033.157.078.241.108-.083-.03-.162-.067-.244-.1-1.778,6.109-3.579,12.64-5.315,19.46-5.147,20.225-10.346,45.586-11.9,69.977A213.552,213.552,0,0,0,146.4,439.666C167.22,404.729,163.333,304.671,163.287,303.588Z"></path>
  <path class="cls-5" d="M97.333,330.3c1.747-6.866,3.561-13.439,5.351-19.585-4.708-2.19-7.643-6.962-7.054-11.725.36-2.907,1.889-5.744,1.728-8.643-.451-8.146-13.195-11.568-14.951-19.523-.913-4.137,1.474-8.453,4.53-11.9a16.671,16.671,0,0,0,2.887-3.889c-10.1,3.726-25.7,15.919-36.329,41.61-5.1,12.323-9.052,27.751-10.708,46.846a127.8,127.8,0,0,0,16.823,28.185,248.865,248.865,0,0,0,25.846,28.017C87.077,375.459,92.229,350.357,97.333,330.3Z"></path>
  <path class="cls-7" d="M106.036,302.819c3.918-12.812,7.506-23.117,9.735-29.273,1.439-3.976,2.313-6.222,2.343-6.3l-.47-.183.243-.843q-7.23-5.247-14.689-10.162c-1.458,1.421-3.142,2.736-4.628,4.094q2.509,1.676,4.983,3.391c3.972,2.747,7.889,5.557,11.786,8.4-2,5.483-5.4,15.126-9.21,27.343-1.118,3.587-2.27,7.4-3.433,11.388a7.856,7.856,0,0,0,.877.4C104.4,308.226,105.226,305.467,106.036,302.819Z"></path>
  <path class="cls-7" d="M98.255,330.545c1.735-6.82,3.537-13.351,5.315-19.46-.3-.114-.6-.236-.886-.37-1.79,6.146-3.6,12.719-5.351,19.585-5.1,20.059-10.256,45.16-11.875,69.394.3.277.6.555.9.829C87.909,376.131,93.108,350.77,98.255,330.545Z"></path>
  <path class="cls-7" d="M164.408,309.239c-.082-3.554-.165-5.615-.168-5.691l-.476.02-.477.02c.045,1.083,3.933,101.142-16.888,136.078.3.13.6.262.9.39,8.23-13.8,13.6-38.874,15.993-74.809C164.874,341.492,164.642,319.315,164.408,309.239Z"></path>
  <path class="cls-10" d="M91.406,202.273c-2.133,2.281-1.087,6.9.216,9.352,1.275,2.4,4.176,4.406,6.622,3.873q.446-.5.861-1.011a21.238,21.238,0,0,0,2.6-4.1,11.662,11.662,0,0,0-3.358-7.712C97.623,205.251,95.662,206.133,91.406,202.273Z"></path>
  <path class="cls-10" d="M87.828,171.625a6.748,6.748,0,0,0,.57,1.81,10.292,10.292,0,0,1,.458-2.1Z"></path>
  <path class="cls-10" d="M103.309,202.889c-.241-.482-.5-.958-.786-1.423a24.475,24.475,0,0,0-4.276-5.026,18.12,18.12,0,0,1,.431,3.928q-.021.444-.066.862a12.3,12.3,0,0,1,3.857,7.3A14.634,14.634,0,0,0,103.309,202.889Z"></path>
  <path class="cls-8" d="M91.72,201.96a3.656,3.656,0,0,0-.314.312c4.256,3.86,6.217,2.979,6.941.4a12.032,12.032,0,0,0-2.638-2.189c-.64-.379.044-1.308.677-.934a13.054,13.054,0,0,1,2.227,1.68q.046-.418.066-.862a18.12,18.12,0,0,0-.431-3.928c-1.617-1.5-3.37-2.883-5.078-4.275a32.244,32.244,0,0,1-7.536-7.936c-1.639,2.467-2.642,9.282,4,16.3.322.34.631.651.932.948a5.582,5.582,0,0,1,.428-.405C91.561,200.587,92.287,201.484,91.72,201.96Z"></path>
  <path class="cls-3" d="M98.178,216.788c.194-.025.389-.054.586-.1.116-.026.221-.064.331-.1,2.847-.872,3.6-4.12,3.5-6.827a11.931,11.931,0,0,0-.127-1.23,12.3,12.3,0,0,0-3.857-7.3,13.054,13.054,0,0,0-2.227-1.68c-.633-.375-1.317.555-.677.934a12.032,12.032,0,0,1,2.638,2.189,11.662,11.662,0,0,1,3.358,7.712,6.312,6.312,0,0,1-.735,2.876,4.422,4.422,0,0,1-1.874,1.929,3.544,3.544,0,0,1-.851.31c-2.447.533-5.347-1.476-6.622-3.873-1.3-2.449-2.348-7.071-.216-9.352a3.656,3.656,0,0,1,.314-.312c.567-.477-.159-1.373-.729-.894a5.582,5.582,0,0,0-.428.405c-4.313,4.478.13,14.863,6.413,15.343A5.914,5.914,0,0,0,98.178,216.788Z"></path>
  <path class="cls-4" d="M93.169,192.165c1.708,1.393,3.461,2.774,5.078,4.275a24.475,24.475,0,0,1,4.276,5.026c.287.465.545.941.786,1.423,3.244,6.487,2.471,14.455.591,21.559a27.79,27.79,0,0,0,4.7-6.843c.181-.37.359-.742.524-1.12.042-.1.079-.194.12-.29q.414-.974.755-1.977a28.3,28.3,0,0,0,1.311-12.873,27.133,27.133,0,0,0-.74-3.566c-.12-.435-.247-.868-.388-1.3a28.674,28.674,0,0,0-12.154-15.442c-3.444-2.1-7.759-4.018-9.509-7.349-.044-.083-.082-.169-.122-.253a6.748,6.748,0,0,1-.57-1.81c-.014-.083-.037-.16-.048-.245L86.82,170.1a7.685,7.685,0,0,0-1.766,1.987,11.37,11.37,0,0,0-.463,10.141,15.911,15.911,0,0,0,1.042,2A32.244,32.244,0,0,0,93.169,192.165Z"></path>
  <path class="cls-11" d="M291.189,48.692c.006.619.042,1.23.094,1.839.014.181.034.36.054.538.021.206.035.414.062.618.048.371.106.74.171,1.106q1.239,6.974,2.481,13.946c-.118-.668-.2-1.346-.261-2.028-.006-.061-.013-.122-.019-.183s-.005-.142-.011-.213c-.033-.437-.057-.876-.068-1.318,0-.108-.015-.214-.017-.322v-.02c0-.112.01-.227.011-.339,0-.457.018-.916.044-1.377,0-.059,0-.117.006-.177s.01-.127.015-.191c.052-.725.123-1.453.238-2.189.112-.718.261-1.427.429-2.133.033-.13.066-.259.1-.39l.005-.02a29.867,29.867,0,0,1,2.55-6.589c.058-.109.113-.22.173-.329.245-.452.5-.9.772-1.343.043-.072.085-.144.128-.215v0q.774-1.26,1.669-2.468l.13-.175.019-.024c.261-.349.526-.7.8-1.038.127-.159.26-.314.39-.471.188-.226.371-.455.565-.677l0,0,.032-.035c.645-.738,1.329-1.455,2.038-2.156h0c.1-.1.2-.2.3-.3l0,0a44.506,44.506,0,0,1,3.932-3.372l.019-.015c.137-.1.272-.211.41-.315l0,0q1.017-.759,2.087-1.471l.014-.01c.12-.079.241-.156.361-.233q.975-.637,1.99-1.235l.012-.007c.152-.089.3-.18.453-.268h0q1.583-.91,3.257-1.719l.224-.11,0,0a55.191,55.191,0,0,1,6.544-2.634l.023-.008c.16-.052.322-.1.482-.152l.039-.011c.962-.307,1.935-.594,2.922-.852l.006,0,.2-.055.01,0c1.014-.26,2.043-.486,3.08-.692l.017,0c.2-.04.406-.082.611-.12h0q1.541-.289,3.109-.5h.006c.168-.022.337-.04.5-.061l.065-.007c.571-.069,1.143-.132,1.718-.184.088-.008.177-.014.265-.021.529-.045,1.058-.09,1.59-.121h.018c.109-.005.22-.007.329-.013l.058,0c.617-.031,1.235-.057,1.856-.069q.993-.021,1.991-.006c1.125.019,2.229.081,3.323.165.149.009.3.015.447.027.055,0,.108.014.163.019q1.577.139,3.1.366c.1.014.207.024.309.04s.2.038.3.056c1.055.169,2.1.361,3.112.591l.029.005c.029.007.057.016.086.022,1,.229,1.982.49,2.943.776.086.024.176.043.261.069.045.014.087.031.131.045.945.289,1.867.608,2.769.95.076.028.155.051.23.079s.164.072.247.106c.9.354,1.785.727,2.64,1.132l.073.031c.062.029.118.063.179.094q1.234.594,2.4,1.256c.066.036.136.068.2.105.029.016.055.036.083.052.789.457,1.549.94,2.286,1.441.07.046.146.088.214.135s.132.1.2.15c.726.508,1.429,1.034,2.1,1.584.026.021.055.04.081.061.056.046.105.1.16.144q.984.822,1.885,1.7c.038.036.08.069.117.106.018.017.033.036.051.054.6.6,1.173,1.222,1.717,1.858.055.061.115.119.168.182s.119.153.179.229c.5.609.979,1.232,1.423,1.872.031.043.065.084.094.127.074.108.141.221.21.332.4.594.769,1.2,1.114,1.816.04.069.085.135.123.205.008.014.014.03.022.044.373.686.706,1.39,1.015,2.1.05.106.1.211.149.32.035.083.062.169.094.253q.427,1.055.758,2.143c.019.058.042.115.059.173.072.243.131.491.2.736.042.159.088.316.126.475.116.48.22.963.306,1.451l-2.489-13.988a24.728,24.728,0,0,0-.627-2.662c-.1-.33-.234-.647-.345-.972-.182-.536-.35-1.076-.567-1.6-.139-.333-.318-.653-.471-.982-.232-.5-.449-1-.714-1.484-.143-.261-.307-.514-.468-.767-.054-.085-.109-.17-.161-.256-.27-.445-.522-.9-.818-1.328-.235-.342-.509-.665-.761-1-.309-.41-.6-.831-.937-1.229-.272-.323-.58-.625-.868-.941-.353-.386-.691-.781-1.067-1.153-.312-.307-.657-.591-.984-.888-.391-.355-.767-.721-1.18-1.061-.194-.16-.4-.308-.609-.459-.167-.123-.329-.248-.494-.373-.424-.322-.833-.656-1.277-.963-.392-.27-.816-.515-1.224-.773-.452-.286-.89-.585-1.36-.856-.427-.245-.884-.463-1.327-.7-.482-.254-.951-.521-1.452-.759-.458-.217-.944-.406-1.417-.609-.513-.221-1.013-.455-1.542-.659-.5-.191-1.018-.35-1.528-.525-.534-.184-1.054-.382-1.6-.548-.53-.16-1.085-.287-1.628-.43s-1.095-.309-1.661-.436-1.156-.221-1.735-.331-1.123-.231-1.7-.321c-.6-.092-1.226-.149-1.841-.22-.578-.069-1.145-.155-1.733-.2-.635-.054-1.288-.068-1.932-.1-.569-.029-1.129-.078-1.707-.089l-.129,0c-1.313-.021-2.617.009-3.914.078-.106.006-.212.007-.319.013-1.235.071-2.46.188-3.676.337-.1.011-.2.014-.3.027-.067.009-.132.023-.2.032q-1.573.206-3.116.5c-.2.038-.407.079-.61.12-1.044.207-2.08.434-3.1.7l-.053.012c-.055.014-.11.034-.166.048-.993.26-1.973.548-2.942.859-.166.052-.332.1-.5.156q-1.469.484-2.89,1.044c-.084.034-.173.061-.258.094s-.169.077-.256.113q-1.615.653-3.165,1.393c-.149.072-.3.146-.444.217q-1.551.762-3.03,1.607c-.047.026-.1.049-.144.076-.113.067-.219.14-.331.206q-.951.558-1.866,1.153c-.162.106-.326.209-.487.316q-1.073.716-2.094,1.475c-.143.106-.279.216-.42.324q-.86.658-1.678,1.345c-.145.122-.293.243-.437.367q-.952.822-1.843,1.682c-.033.033-.069.062-.1.094-.06.059-.112.123-.173.182-.684.675-1.341,1.365-1.965,2.074-.039.044-.082.087-.12.132-.63.722-1.219,1.465-1.783,2.221-.1.129-.2.258-.29.388q-.8,1.106-1.509,2.256c-.086.141-.169.282-.253.424-.469.789-.91,1.587-1.305,2.4-.01.02-.024.04-.033.062-.056.114-.1.232-.154.347-.216.461-.421.923-.613,1.391-.086.21-.165.423-.246.635q-.236.616-.444,1.242c-.074.224-.147.448-.216.673-.132.436-.251.873-.363,1.314-.05.2-.106.4-.152.6-.146.638-.276,1.281-.376,1.928q-.092.586-.156,1.167c-.025.221-.035.44-.053.66-.016.184-.033.368-.044.552-.021.327-.02.649-.031.973-.01.307-.032.616-.029.92Z"></path>
  <path class="cls-11" d="M294.06,66.783l0-.018-.005-.024Z"></path>
  <path class="cls-12" d="M379.494,48.574q-.33-1.089-.758-2.143c-.078-.192-.161-.382-.243-.573-.309-.713-.641-1.416-1.015-2.1-.046-.084-.1-.165-.144-.249-.345-.617-.718-1.222-1.114-1.816-.1-.153-.2-.308-.3-.459-.445-.64-.921-1.263-1.423-1.872-.114-.138-.231-.274-.348-.411-.544-.636-1.112-1.258-1.717-1.858-.055-.054-.113-.106-.168-.159q-.9-.878-1.885-1.7c-.081-.068-.159-.138-.24-.2-.671-.55-1.374-1.076-2.1-1.584q-.205-.144-.414-.285c-.737-.5-1.5-.984-2.286-1.441-.093-.054-.19-.1-.284-.158q-1.164-.661-2.4-1.256c-.085-.041-.166-.084-.251-.125-.855-.4-1.738-.778-2.64-1.132-.158-.062-.317-.124-.477-.185-.9-.342-1.824-.66-2.769-.95-.129-.04-.262-.075-.392-.114-.962-.285-1.941-.547-2.943-.776L353.065,27c-1.016-.229-2.057-.422-3.112-.591-.2-.032-.4-.066-.6-.1q-1.527-.226-3.1-.366c-.2-.018-.406-.031-.609-.046-1.093-.084-2.2-.146-3.323-.165-.666-.011-1.329-.006-1.991.006-.621.011-1.239.037-1.856.069-.135.007-.271.009-.406.017-.532.031-1.061.075-1.59.121l-.265.021c-.575.052-1.147.115-1.718.184-.192.023-.384.043-.575.068q-1.569.206-3.109.5c-.211.04-.421.082-.632.124-1.037.206-2.066.432-3.08.692-.072.019-.142.04-.214.059-.987.258-1.96.545-2.922.852-.181.058-.364.113-.544.172a55.191,55.191,0,0,0-6.544,2.634l-.228.112q-1.67.81-3.257,1.719c-.157.09-.31.184-.465.275q-1.015.6-1.99,1.235c-.125.081-.252.16-.375.243q-1.07.713-2.087,1.471c-.146.109-.287.222-.431.332a44.506,44.506,0,0,0-3.932,3.372c-.1.1-.2.2-.306.306-.709.7-1.393,1.417-2.038,2.156l-.034.037c-.194.223-.377.451-.565.677-.13.157-.262.313-.39.471-.275.342-.541.689-.8,1.038l-.149.2q-.892,1.209-1.669,2.468c-.044.072-.086.145-.13.218-.268.444-.527.891-.772,1.343-.059.109-.115.219-.173.329a29.867,29.867,0,0,0-2.55,6.589c-.035.136-.071.272-.1.409-.168.705-.317,1.415-.429,2.133-.114.736-.186,1.464-.238,2.189-.009.123-.014.245-.021.368-.026.462-.043.921-.044,1.377,0,.228,0,.455.006.681.01.442.034.881.068,1.318.01.132.018.264.03.4.063.682.143,1.36.261,2.028v0l.005.024c1.264,7.129,5.615,13.386,12.1,17.945l5.9-7.923c-5.191-3.553-8.378-8.486-8.491-14.062a16.253,16.253,0,0,1,.2-2.822c2.094-13.468,19.67-24.584,38.381-24.274,16.034.266,28.294,8.8,28.517,19.843h0a16.3,16.3,0,0,1-.194,2.822,19.781,19.781,0,0,1-2.362,6.647l6.108,2.881h0l2.845,1.318a30.2,30.2,0,0,0,2.435-5.93,27.784,27.784,0,0,0,.75-3.4,25.281,25.281,0,0,0-.375-9.853c-.038-.16-.085-.317-.126-.475C379.669,49.179,379.585,48.875,379.494,48.574Z"></path>
  <path class="cls-12" d="M368.817,55.507h0c-.2-10.03-11.68-17.782-26.7-18.031a46.149,46.149,0,0,0-15.829,2.544c-10.944,3.805-19.34,11.458-20.694,20.165a14.4,14.4,0,0,0-.173,2.5c.1,4.99,3,9.416,7.735,12.633L333.17,48.46l33.281,15.7a18.216,18.216,0,0,0,2.193-6.149A14.4,14.4,0,0,0,368.817,55.507Z"></path>
  <path class="cls-13" d="M305.422,62.686a14.4,14.4,0,0,1,.173-2.5c1.354-8.707,9.75-16.36,20.694-20.165a46.149,46.149,0,0,1,15.829-2.544c15.019.249,26.5,8,26.7,18.031h0a14.4,14.4,0,0,1-.172,2.5,18.216,18.216,0,0,1-2.193,6.149l1.659.782a19.781,19.781,0,0,0,2.362-6.647,16.3,16.3,0,0,0,.194-2.822h0c-.222-11.046-12.482-19.577-28.517-19.843-18.711-.31-36.287,10.806-38.381,24.274a16.253,16.253,0,0,0-.2,2.822c.112,5.576,3.3,10.509,8.491,14.063l1.093-1.467C308.42,72.1,305.523,67.677,305.422,62.686Z"></path>
  <path class="cls-11" d="M280.162,162.58c-.684-3.681.844-7.648,4.217-11.679-.163-.245-.332-.492-.5-.74-.024-.035-.05-.07-.073-.1l-.126-.178c-.11-.158-.221-.316-.335-.475q-.279-.388-.571-.779l0-.005c-.008-.011-.015-.022-.023-.032s-.017-.02-.025-.031c-.177-.238-.357-.477-.542-.716q-.3-.392-.617-.787t-.639-.79c-.132-.16-.269-.322-.4-.483l-.113-.135c-.068-.082-.135-.163-.2-.244q-.366-.431-.746-.865t-.77-.867q-.381-.421-.773-.843l-.026-.027q-.463-.5-.939-.994t-.973-1q-.429-.433-.868-.862l-.051-.051c-.028-.028-.056-.056-.085-.083q-.507-.5-1.03-.994-.725-.689-1.474-1.373c-.111-.1-.225-.2-.336-.3-.04-.034-.074-.07-.112-.1-.059-.053-.121-.1-.18-.156-.3-.266-.591-.534-.895-.8q-.773-.679-1.569-1.349c-.153-.13-.313-.258-.468-.387-.125-.1-.252-.209-.379-.314-.255-.211-.506-.423-.764-.633-.331-.269-.684-.524-1.019-.791-.749-.594-1.5-1.183-2.271-1.763-.221-.167-.429-.34-.652-.506-.3-.224-.619-.432-.924-.654-.768-.559-1.543-1.109-2.329-1.651-.291-.2-.571-.415-.864-.612-.256-.174-.522-.331-.779-.5-.326-.216-.642-.444-.969-.657-.478-.311-.967-.6-1.449-.9-.353-.223-.7-.461-1.053-.679-.2-.12-.4-.227-.591-.345-.554-.335-1.114-.652-1.673-.974-.3-.172-.595-.35-.894-.52-.395-.224-.783-.469-1.179-.686-.214-.118-.428-.23-.643-.346l-.408-.22c-.234-.126-.469-.255-.7-.378q-.88-.462-1.76-.9c-.338-.169-.677-.33-1.016-.494l-.358-.174c-.129-.061-.258-.128-.386-.189q-.882-.416-1.759-.809l-.406-.181-.405-.177c-.135-.058-.27-.118-.4-.174s-.271-.116-.4-.173q-.435-.185-.866-.36t-.855-.343c-.224-.088-.445-.173-.666-.259l-.073-.028-.1-.041q-.419-.159-.832-.31-.523-.192-1.038-.371c-.088-.031-.173-.059-.261-.088l-.188-.065c-.19-.064-.382-.13-.57-.192q-.5-.167-1-.319c-.146-.045-.289-.086-.433-.13l-.255-.076c-.1-.029-.195-.06-.291-.087-.307-.089-.611-.175-.912-.255-.264-.072-.527-.14-.787-.206l-.042-.012-.02,0-.047-.013q-.441-.11-.873-.21t-.855-.188c-.06-.013-.118-.023-.179-.035l-.135-.027c-.174-.036-.349-.07-.52-.1-.275-.05-.546-.1-.815-.143-.141-.023-.278-.042-.418-.064l-.166-.025-.209-.032q-.392-.055-.774-.1c-.245-.028-.486-.052-.726-.074l-.043-.005h-.019c-.258-.023-.513-.042-.764-.057s-.5-.026-.742-.034l-.113,0-.051,0c-.029,0-.053,0-.082,0-.158,0-.318-.007-.471-.007-.262,0-.518,0-.769.014-.058,0-.114.007-.172.01l-.174.01c-.131.006-.265.012-.393.022-.241.018-.478.042-.708.069-.063.007-.12.018-.182.026l-.153.022c-.115.017-.233.031-.344.048-.271.046-.535.1-.791.155l-.065.017c-.052.012-.1.026-.151.04-.178.043-.358.086-.528.137s-.311.1-.464.154c-.034.012-.074.02-.107.031a.446.446,0,0,1-.044.019c-.026.01-.056.018-.083.027-.225.084-.443.175-.653.272-.056.026-.1.057-.159.084-.112.054-.218.113-.325.172s-.226.111-.33.174c-.086.052-.161.113-.242.166-.1.068-.2.135-.3.206-.06.044-.127.082-.185.128-.117.092-.22.2-.329.294-.074.067-.154.131-.226.2-.025.025-.055.046-.08.072a6.248,6.248,0,0,0-.544.633l-11.209,14.975c.027-.036.063-.066.091-.1a5.439,5.439,0,0,1,.437-.488c.022-.021.039-.046.061-.068s.025-.022.038-.033a6.457,6.457,0,0,1,1.73-1.149c.031-.015.061-.031.093-.046s.039-.014.058-.023c.1-.045.2-.1.3-.136s.237-.078.354-.119c.054-.019.1-.043.156-.061l.143-.042.031-.008q.44-.134.92-.235l.03-.008.1-.024c.38-.075.778-.133,1.193-.177l.014,0,.16-.016c.06-.006.126-.005.187-.01.313-.026.635-.044.967-.053.04,0,.076-.006.117-.006l.146,0c.057,0,.12,0,.178,0,.329,0,.667.008,1.013.023.076,0,.146,0,.223.005l.116.007.07.006c.492.031,1,.073,1.52.136l.042,0,.012,0c.068.008.141.023.209.032.361.047.723.095,1.1.156.092.015.19.037.283.053.044.008.084.012.128.019l.163.029c.1.017.2.042.295.061q.573.109,1.166.24c.086.019.167.032.253.052l.176.039c.068.016.14.037.208.053.459.109.928.23,1.4.359.1.028.2.049.308.079.026.006.051.015.076.022l.035.011q.94.263,1.923.577l.033.01.212.068c.106.034.217.076.324.111.493.163.992.333,1.5.515.059.021.116.039.175.06l.233.084c.094.034.192.075.286.11q.744.275,1.508.578c.138.054.27.1.408.157l.1.04c.057.023.116.05.173.073.723.294,1.454.6,2.2.929a109.235,109.235,0,0,1,15.59,8.551c.324.212.638.438.96.653h0q.858.572,1.7,1.159l.03.021c2.919,2.02,5.744,4.14,8.405,6.336h0q1.51,1.246,2.946,2.513l0,0c.068.06.142.119.209.179a88.613,88.613,0,0,1,10.9,11.386l.075.093,0,0,.01.013.01.014h0l.027.036q.542.7,1.046,1.385l0,0c.044.06.083.118.126.178.637.878,1.228,1.745,1.765,2.6l0,0c.213.338.415.674.612,1.008.068.115.137.231.2.346h0c.222.386.436.769.635,1.147l0,.009q.357.68.663,1.344l0,.007c.117.255.221.5.326.755.078.184.159.37.231.552h0c.145.368.282.735.4,1.094.137.413.251.812.349,1.2l.012.043c.026.106.041.2.064.307.057.253.115.507.156.75.006.034.014.068.019.1.012.081.016.156.027.236l0,.028a9.655,9.655,0,0,1,.082,1.957c0,.079-.009.158-.016.236-.012.125-.026.249-.044.37-.007.047-.009.1-.017.143s-.017.066-.023.1-.013.042-.018.064a5.949,5.949,0,0,1-.518,1.541c-.025.052-.049.106-.076.157-.019.034-.032.073-.052.107s-.06.086-.088.131c-.037.061-.069.126-.108.186l6.366-9.524a10.443,10.443,0,0,1-2.585-4.846A49.042,49.042,0,0,1,280.162,162.58Z"></path>
  <path class="cls-12" d="M253.005,161.96a111.572,111.572,0,0,0-12.9-9.826,97.055,97.055,0,0,0-13.892-7.63,60.13,60.13,0,0,0-6.458-2.446q1,1.358,2.222,2.791a83.594,83.594,0,0,0,9.064,9,112.381,112.381,0,0,0,11.426,8.629,100.948,100.948,0,0,0,12.4,7.034,64.272,64.272,0,0,0,8.384,3.323q-.348-.469-.721-.949A77.178,77.178,0,0,0,253.005,161.96Z"></path>
  <path class="cls-12" d="M277.848,182.383c.028-.051.05-.105.076-.157a5.949,5.949,0,0,0,.518-1.541c.02-.1.042-.2.057-.307.018-.121.032-.245.044-.37.008-.077.011-.157.016-.236a9.655,9.655,0,0,0-.082-1.957c-.017-.122-.027-.24-.048-.365-.041-.243-.1-.5-.156-.75-.027-.118-.046-.23-.076-.35-.1-.389-.213-.789-.349-1.2-.119-.36-.255-.726-.4-1.095-.072-.182-.153-.367-.231-.552-.107-.253-.211-.505-.33-.762q-.307-.664-.663-1.344c-.2-.382-.416-.768-.64-1.157-.066-.115-.135-.231-.2-.346-.2-.335-.4-.672-.615-1.012-.537-.853-1.128-1.72-1.765-2.6-.044-.061-.084-.121-.129-.182q-.5-.688-1.046-1.385l-.027-.036-.01-.014-.01-.013-.077-.1a88.613,88.613,0,0,0-10.9-11.386c-.068-.06-.141-.119-.209-.179q-1.439-1.27-2.951-2.518c-2.661-2.2-5.486-4.316-8.405-6.336q-.862-.6-1.734-1.18c-.322-.215-.636-.441-.96-.653a109.235,109.235,0,0,0-15.59-8.551c-.748-.329-1.48-.636-2.2-.929-.229-.093-.454-.18-.681-.27q-.764-.3-1.508-.578c-.232-.086-.464-.172-.694-.254-.508-.182-1.007-.352-1.5-.515-.189-.062-.382-.13-.568-.19q-.983-.314-1.923-.577c-.142-.04-.279-.073-.42-.111-.476-.129-.945-.25-1.4-.359-.215-.051-.426-.1-.637-.144q-.594-.131-1.166-.24c-.2-.037-.393-.076-.585-.109-.093-.016-.191-.038-.283-.053-.375-.062-.737-.11-1.1-.156-.086-.011-.178-.027-.263-.038-.524-.063-1.028-.106-1.52-.136-.139-.009-.272-.012-.409-.018-.346-.016-.684-.024-1.013-.023q-.223,0-.441.006c-.332.009-.654.027-.967.053-.12.01-.244.016-.361.028-.415.044-.814.1-1.193.177-.046.009-.088.022-.134.032q-.479.1-.92.235c-.113.034-.221.073-.33.111s-.242.075-.354.119-.2.092-.3.136l-.151.068a6.457,6.457,0,0,0-1.73,1.149c-.034.032-.065.067-.1.1a5.439,5.439,0,0,0-.437.488,5.7,5.7,0,0,0-1.132,2.568,7.978,7.978,0,0,0-.107,1.555,16.364,16.364,0,0,0,1.8,6.5,47.691,47.691,0,0,0,6.814,10.084,95.9,95.9,0,0,0,10.339,10.286,124.952,124.952,0,0,0,12.623,9.536,113.068,113.068,0,0,0,13.85,7.851,68.683,68.683,0,0,0,12.817,4.725,25.938,25.938,0,0,0,9.654.817c2.538-.378,4.386-1.4,5.395-3.052.028-.045.061-.085.088-.131S277.829,182.417,277.848,182.383Zm-12.843-7.141a59.706,59.706,0,0,1-10.934-4.058,102.814,102.814,0,0,1-12.624-7.163,114.228,114.228,0,0,1-11.615-8.772,85.462,85.462,0,0,1-9.265-9.2,47.71,47.71,0,0,1-3.8-5.052l-1.24-1.93,2.232.531a54.858,54.858,0,0,1,9.195,3.216,98.9,98.9,0,0,1,14.16,7.775,113.454,113.454,0,0,1,13.114,9.99,79.041,79.041,0,0,1,9.752,10.174c.848,1.088,1.6,2.147,2.249,3.148l1.229,1.909Z"></path>
  <path class="cls-13" d="M263.983,170.75a79.041,79.041,0,0,0-9.752-10.174,113.454,113.454,0,0,0-13.114-9.99,98.9,98.9,0,0,0-14.16-7.775,54.858,54.858,0,0,0-9.195-3.216l-2.232-.531,1.24,1.93a47.71,47.71,0,0,0,3.8,5.052,85.462,85.462,0,0,0,9.265,9.2,114.228,114.228,0,0,0,11.615,8.772,102.814,102.814,0,0,0,12.624,7.163,59.706,59.706,0,0,0,10.934,4.058l2.455.564-1.229-1.909C265.588,172.9,264.831,171.838,263.983,170.75Zm-9.121-1.237a100.948,100.948,0,0,1-12.4-7.034,112.381,112.381,0,0,1-11.426-8.629,83.594,83.594,0,0,1-9.064-9q-1.215-1.429-2.222-2.791a60.13,60.13,0,0,1,6.458,2.446,97.055,97.055,0,0,1,13.892,7.63,111.572,111.572,0,0,1,12.9,9.826,77.178,77.178,0,0,1,9.52,9.927q.374.479.721.949A64.272,64.272,0,0,1,254.862,169.513Z"></path>
  <path class="cls-11" d="M400.521,255.379c.324.129.648.254.974.373.039.017.078.026.117.043l.061.026c.031.011.063.02.094.031l.516.188c.264.091.527.181.791.269l.4.127c.073.026.146.048.22.071.057.017.113.04.17.057.264.082.53.163.795.239.233.07.467.138.7.2.038.011.075.022.112.031s.1.025.149.039c.147.042.294.081.441.12.234.061.468.12.7.178s.457.108.686.16a.416.416,0,0,1,.055.011c.2.047.408.091.613.135s.434.09.651.131.426.081.64.122a.072.072,0,0,1,.024.005c.212.035.425.075.638.107s.411.067.616.1.411.064.616.09a.426.426,0,0,1,.06.011h.019c.179.026.357.05.537.07.206.026.41.052.615.072l.585.06.163.015a.587.587,0,0,0,.074,0c.116.01.231.022.347.032.195.017.389.031.583.045l.583.033c.113.007.226.014.339.017.03,0,.059,0,.089,0,.047,0,.093.007.14.009l.568.016c.189.008.376.01.565.016s.376,0,.564,0h.557c.185,0,.37,0,.555-.011s.37-.01.553-.017c.087,0,.173-.007.26-.011h.065c.076,0,.151-.006.227-.011l.546-.032c.181-.013.363-.025.545-.041s.359-.025.539-.044h0c.181-.016.361-.034.541-.053s.363-.037.544-.059.361-.046.541-.071c.07-.007.14-.015.21-.025l.07-.01.26-.038c.18-.028.359-.052.538-.08l.542-.092c.148-.024.295-.051.441-.081.014,0,.029,0,.045-.007a.173.173,0,0,1,.055-.01c.179-.034.358-.07.537-.107s.358-.073.536-.113.362-.079.542-.119c.033-.007.065-.016.1-.023a.777.777,0,0,1,.079-.02l.364-.088c.179-.046.358-.091.537-.14s.357-.094.534-.143c.086-.023.17-.048.256-.074l.1-.029c.069-.016.138-.039.207-.058.187-.055.373-.113.558-.17s.369-.118.553-.179c.115-.035.229-.077.343-.115l.092-.032c.038-.013.076-.026.116-.041.194-.064.386-.134.578-.207s.383-.14.573-.216c.113-.041.223-.089.334-.13.026-.01.053-.019.079-.032s.038-.016.056-.022.068-.028.1-.041c.189-.076.377-.155.564-.233.2-.088.407-.176.609-.267.089-.038.178-.082.266-.122l.14-.066c.065-.028.132-.06.2-.091.2-.091.4-.188.6-.285s.394-.2.591-.3c.04-.022.08-.044.121-.062l.122-.065c.141-.075.284-.147.423-.228.221-.118.441-.243.659-.367.111-.065.222-.134.334-.2.053-.031.107-.059.159-.093s.105-.059.157-.09c.215-.133.428-.267.641-.4.187-.121.373-.245.558-.368l.156-.1c.026-.016.052-.031.078-.05.261-.176.522-.356.778-.544.157-.114.314-.229.471-.346.051-.04.1-.074.155-.114s.091-.065.136-.1c.14-.106.277-.217.416-.326.11-.087.222-.171.332-.26s.241-.2.361-.3c.074-.065.147-.123.219-.184s.161-.132.241-.2c.269-.233.536-.47.8-.712.051-.046.1-.1.15-.144.068-.061.135-.126.2-.19.142-.135.287-.267.428-.4.255-.251.508-.505.756-.766q3.447-3.613,6.893-7.216c-.12.126-.248.244-.371.367q-.29.294-.586.581c-.079.076-.155.157-.234.232s-.152.144-.229.215c-.1.091-.2.175-.3.264q-.344.312-.694.614c-.064.055-.126.114-.191.169-.088.077-.178.151-.268.225-.108.089-.221.172-.329.26-.218.176-.436.351-.658.521-.079.061-.155.126-.235.186s-.142.1-.213.157c-.133.1-.271.189-.4.285-.231.166-.463.332-.7.492-.075.051-.147.106-.222.156-.05.034-.1.068-.152.1-.157.1-.32.2-.478.3-.242.154-.483.31-.729.458-.067.04-.132.085-.2.125l-.127.074c-.218.127-.442.246-.662.369s-.41.234-.619.345c-.063.034-.125.071-.188.105a1.08,1.08,0,0,0-.119.059c-.221.115-.448.219-.672.33-.2.1-.392.2-.593.3-.051.024-.1.044-.156.068s-.086.043-.13.064a1.061,1.061,0,0,0-.123.057c-.268.122-.542.231-.814.346-.234.1-.466.2-.7.3l-.1.041-.07.028c-.29.114-.585.215-.878.322-.256.094-.51.194-.769.282l-.032.012c-.03.009-.059.022-.089.032-.331.111-.669.209-1,.312-.243.075-.483.156-.728.226a.605.605,0,0,0-.068.02c-.05.014-.1.025-.151.039-.386.107-.775.2-1.165.3q-1.689.415-3.429.68c-.246.038-.49.085-.737.118-.031,0-.064.01-.1.014l-.064.007c-.214.028-.431.047-.646.071-.384.044-.766.092-1.153.127h-.016c-.044,0-.089,0-.133.008-.3.025-.593.038-.89.057s-.563.041-.847.054c-.037,0-.075,0-.112.005s-.1,0-.145,0-.121.008-.182.01c-.257.008-.515,0-.773.006s-.523.016-.787.013h-.02c-.073,0-.146-.005-.219-.006-.321,0-.643-.015-.964-.025-.252-.008-.5-.007-.755-.02a.515.515,0,0,1-.067,0c-.083,0-.167-.013-.25-.018-.32-.018-.641-.043-.961-.068-.233-.018-.465-.028-.7-.05l-.077-.008c-.112-.01-.225-.028-.338-.039-.283-.029-.565-.063-.849-.1-.249-.03-.5-.051-.746-.086l-.05-.008c-.141-.02-.283-.047-.425-.069-.3-.045-.6-.095-.9-.146-.085-.014-.169-.026-.254-.041-.285-.05-.569-.1-.854-.158-.327-.063-.654-.132-.981-.2-.177-.038-.353-.069-.53-.109l-.039-.008-.024-.008c-.137-.031-.274-.07-.411-.1q-.517-.123-1.033-.258c-.152-.04-.3-.073-.457-.114l-.109-.031c-.162-.044-.324-.1-.486-.145q-.518-.149-1.035-.309c-.124-.039-.249-.071-.374-.111-.038-.011-.076-.025-.113-.037-.15-.048-.3-.106-.449-.156-.223-.075-.448-.14-.671-.218-.172-.06-.343-.131-.515-.193-.071-.026-.143-.048-.214-.074a.577.577,0,0,1-.1-.034c-.155-.058-.308-.124-.462-.183-.426-.163-.851-.329-1.274-.5l-.068-.027c-.065-.023-.129-.048-.193-.077-.17-.071-.338-.151-.507-.225-.366-.159-.733-.317-1.1-.486-.055-.025-.11-.048-.165-.073s-.114-.055-.173-.081c-.206-.1-.408-.2-.613-.3-.35-.171-.7-.34-1.046-.52-.268-.139-.534-.287-.8-.431-.381-.206-.762-.41-1.139-.627l-.034-.019c-.213-.122-.424-.253-.636-.38-.082-.049-.163-.1-.245-.149-.43-.26-.859-.523-1.284-.8l-.29-.188c-.144-.093-.285-.192-.429-.287-.314-.21-.63-.416-.941-.634l-.139-.1q-.778-.552-1.541-1.127l-.01-.008-.118-.092-.183-.143c-.53-.409-1.057-.828-1.576-1.265-.564-.471-1.111-.953-1.647-1.443-.218-.2-.426-.4-.64-.6-.233-.22-.471-.436-.7-.658l-.2-.2-.01-.011c-.327-.324-.644-.654-.96-.984-.16-.168-.322-.334-.479-.5q-.452-.486-.888-.981c-.063-.072-.13-.141-.193-.213-.087-.1-.17-.2-.256-.3-.036-.042-.07-.086-.107-.128q-.453-.531-.888-1.07c-.164-.2-.323-.406-.483-.61-.228-.292-.457-.583-.677-.879-.041-.055-.085-.109-.126-.164s-.059-.08-.09-.124c-.14-.191-.271-.387-.408-.579-.209-.293-.42-.585-.622-.881-.23-.338-.448-.681-.668-1.023-.151-.235-.308-.467-.454-.7l-.029-.046c-.32-.519-.629-1.038-.927-1.566v0c-.021-.038-.041-.077-.062-.115s-.034-.056-.049-.084c-.076-.136-.142-.274-.217-.41-.179-.328-.361-.655-.531-.986-.025-.047-.051-.1-.075-.149s-.051-.107-.078-.16c-.118-.234-.229-.469-.343-.7s-.236-.472-.346-.709c-.014-.03-.028-.062-.043-.092-.052-.112-.1-.227-.148-.339-.11-.245-.216-.491-.322-.737-.083-.192-.172-.382-.251-.575l0-.009c-.071-.174-.134-.347-.2-.521q-.151-.377-.294-.755c-.055-.146-.117-.293-.171-.439v0c-.078-.214-.146-.431-.221-.646-.094-.27-.189-.539-.277-.809-.029-.088-.062-.174-.09-.262,0-.012-.007-.027-.012-.039-.082-.258-.153-.517-.23-.775s-.162-.528-.235-.793c-.012-.044-.027-.088-.039-.132,0-.015-.009-.03-.012-.045-.1-.378-.193-.757-.286-1.137-.046-.189-.1-.377-.142-.566l-.014-.059q-.191-.843-.348-1.683l-.009-.048c0-.019-.006-.038-.009-.056-.035-.191-.061-.383-.093-.574-.059-.351-.122-.7-.172-1.054,0-.021-.007-.045-.009-.063-.009-.066-.014-.132-.023-.2s-.022-.134-.031-.2c-.024-.183-.036-.366-.058-.549-.044-.376-.085-.753-.118-1.128-.022-.252-.039-.5-.056-.755-.014-.206-.035-.412-.046-.618v-.03c-.008-.164-.008-.327-.015-.49q-.015-.38-.022-.759c0-.143-.012-.288-.013-.431,0-.027,0-.06,0-.09,0-.013,0-.026,0-.039,0-.187.007-.372.008-.558,0-.25,0-.5.011-.75,0-.094,0-.19,0-.284,0-.033,0-.063,0-.093.01-.255.031-.509.047-.764.014-.237.025-.474.043-.709,0-.052.005-.1.009-.156,0-.027,0-.054.007-.081.033-.384.079-.764.123-1.145.017-.145.028-.291.047-.435l0-.044,0-.036c.07-.533.153-1.062.246-1.587.008-.042.016-.084.023-.129v0c.029-.158.065-.313.1-.47.071-.366.141-.732.224-1.1,0-.021.01-.045.015-.063.011-.05.026-.1.038-.148.051-.217.11-.431.165-.647.06-.235.115-.472.179-.705.018-.06.035-.121.051-.181s.046-.146.067-.219c.026-.09.046-.183.073-.273.044-.147.1-.29.144-.436.051-.163.1-.329.151-.492.019-.057.036-.112.055-.166.04-.119.087-.236.129-.355q.126-.36.26-.718c.038-.1.071-.2.11-.3s.071-.184.108-.275c.056-.141.118-.279.176-.419.091-.221.182-.443.277-.662.035-.081.067-.164.1-.245s.07-.152.1-.224c.086-.19.181-.377.271-.565s.185-.4.284-.594c.023-.046.043-.092.066-.138s.051-.1.076-.146c.147-.285.306-.564.46-.846.09-.163.174-.328.266-.49.013-.023.025-.047.038-.07q-2.5,4.323-4.991,8.642c-.107.182-.211.367-.313.552s-.2.37-.3.558-.2.376-.29.564-.187.379-.279.57c-.1.215-.2.436-.3.654-.011.027-.021.048-.033.073-.019.042-.039.085-.057.124-.128.288-.25.575-.369.866s-.234.581-.345.874-.217.59-.32.883c-.028.082-.054.163-.081.245-.011.03-.021.063-.031.091-.041.127-.085.251-.125.378-.077.239-.151.477-.222.719s-.141.48-.206.721-.13.486-.191.727c-.046.187-.09.374-.134.561a.091.091,0,0,1-.006.024c0,.021-.008.039-.013.06q-.073.321-.141.642t-.129.651q-.062.321-.118.651c-.033.2-.066.4-.1.6s-.059.4-.087.605a.181.181,0,0,1,0,.027v.009c-.026.19-.049.379-.071.566-.024.2-.047.406-.067.611s-.037.382-.055.574c-.007.085-.013.17-.019.255-.008.108-.017.215-.024.323-.014.192-.025.385-.035.58-.007.135-.013.273-.019.406v.042c0,.042-.005.087-.006.132-.007.183-.012.369-.017.552s-.006.366-.008.55,0,.366,0,.552,0,.369.008.555.009.36.016.54c0,.162.012.321.019.48v.006c0,.018,0,.042,0,.06.01.183.02.363.031.546s.025.363.039.545.03.36.046.536.035.359.054.536.04.362.061.542.044.359.069.539c0,.03.008.06.012.087l0,.03c.019.141.039.278.059.416.026.18.054.356.082.536s.059.356.09.532.063.356.1.535.069.359.105.538.074.356.113.535c.021.093.042.185.063.278,0,.009,0,.018.005.027l.006.024c.016.069.031.14.048.209.041.179.083.359.128.535s.089.364.136.544.1.361.144.54.1.361.153.543.1.361.159.54c.047.152.1.307.144.462l.007.027c.007.021.014.039.02.063.058.182.118.367.179.552s.123.367.187.548.129.367.195.548.141.384.213.575.146.381.222.572c.064.164.13.325.2.485a.184.184,0,0,0,.012.03.574.574,0,0,0,.022.057q.117.286.239.571c.085.2.172.4.261.6s.179.4.271.595.186.4.281.595.192.4.29.594l.008-.012-.007.012c.044.086.088.172.131.256a.74.74,0,0,0,.035.068c.053.1.1.208.159.312.109.211.221.425.335.635s.229.422.348.632.236.418.358.626c.138.237.277.475.419.706.051.086.1.169.156.255l.02.032a.31.31,0,0,0,.026.039c.078.128.154.252.233.377.147.237.3.465.448.7s.3.462.462.693q.291.426.594.852c.1.139.2.278.306.417.029.042.058.08.088.121.074.1.146.2.221.3q.314.417.638.834c.216.275.436.549.66.827s.464.543.7.814c.082.1.161.192.244.286s.163.2.248.3q.61.69,1.254,1.361c.31.327.634.648.957.968.065.065.129.129.195.2.056.053.108.109.164.165q.674.653,1.379,1.287l.335.3c.112.1.225.2.338.3s.228.2.341.293.229.2.345.293q.5.422,1.013.826c.179.143.361.281.541.421l.263.2c.075.056.149.12.225.176.344.257.693.514,1.043.765.087.058.175.12.262.181l.278.192.515.359c.223.152.451.291.676.437s.422.28.636.413c.086.055.171.114.258.166.3.189.611.366.917.549.182.1.363.218.545.322.044.026.087.055.131.078q.713.4,1.435.784c.089.043.177.1.268.139q.77.408,1.548.773c.056.029.111.052.168.078s.12.057.181.083c.2.1.405.19.61.282.319.144.642.284.964.419.039.017.08.034.119.049.076.032.152.065.228.094l.014.006C400.117,255.213,400.32,255.3,400.521,255.379Z"></path>
  <path class="cls-12" d="M435.177,190.988a39.089,39.089,0,0,0-11.3-6.593,34.883,34.883,0,0,0-11.755-2.258,28.5,28.5,0,0,0-9.767,1.516q-.452.157-.9.33a22.682,22.682,0,0,0-8.381,5.614,21.444,21.444,0,0,0-4.933,8.591,24.569,24.569,0,0,0-1,7.555,28.274,28.274,0,0,0,.228,3.029,32.059,32.059,0,0,0,3.887,11.511,37.936,37.936,0,0,0,8.847,10.592,38.854,38.854,0,0,0,12.133,6.942,34.329,34.329,0,0,0,12.44,1.981,27.188,27.188,0,0,0,10.8-2.5,22.118,22.118,0,0,0,7.963-6.246,21.73,21.73,0,0,0,4.238-8.938,24.985,24.985,0,0,0,.567-5.9h0a28.445,28.445,0,0,0-.468-4.551,32.876,32.876,0,0,0-4.159-10.878A38.142,38.142,0,0,0,435.177,190.988Z"></path>
  <path class="cls-12" d="M442.683,181.953a50.873,50.873,0,0,0-14.7-8.558q-1.992-.745-4.013-1.3a46.081,46.081,0,0,0-11.7-1.7,40.075,40.075,0,0,0-15.084,2.648c-.083.032-.164.071-.247.1a34.43,34.43,0,0,0-12.432,8.415,33.171,33.171,0,0,0-4.58,6.182c-.093.161-.177.327-.266.49-.206.374-.411.749-.6,1.129-.1.2-.19.4-.284.594-.164.343-.325.686-.477,1.034-.1.219-.186.441-.277.662q-.2.5-.393,1-.134.358-.26.718c-.117.336-.228.674-.335,1.013-.046.146-.1.289-.144.436-.027.09-.047.182-.073.273-.107.366-.2.736-.3,1.106-.055.216-.114.43-.165.647-.1.433-.191.87-.276,1.307-.031.157-.068.313-.1.47q-.162.895-.279,1.8c-.019.145-.03.291-.047.435-.054.459-.1.919-.139,1.382-.019.236-.029.473-.043.709-.023.379-.044.759-.055,1.141-.007.249-.009.5-.011.75,0,.182,0,.364,0,.546s0,.381,0,.572q.007.379.022.759.022.568.062,1.138c.017.252.034.5.056.755.033.376.075.752.118,1.128.021.183.034.366.058.549.009.067.022.134.031.2.059.438.13.876.2,1.315.032.191.059.383.093.574q.169.924.38,1.846c.043.189.1.377.142.566.107.438.216.876.337,1.313.074.265.157.529.235.793.107.359.215.719.332,1.077.088.27.183.539.277.809.127.363.256.726.393,1.087q.143.379.294.755.221.554.459,1.1c.106.246.211.492.322.737.172.382.353.762.537,1.141.114.235.225.47.343.7.219.434.45.865.684,1.294.074.136.141.274.217.41.016.028.034.056.049.084q.489.872,1.018,1.73c.146.237.3.469.454.7.22.342.438.685.668,1.023.2.3.413.588.622.881s.411.58.624.867.449.587.677.879q.239.306.483.61.435.54.888,1.07.274.322.555.64.437.494.888.981c.157.169.319.336.479.5.316.33.632.66.96.984.3.294.6.583.909.872.213.2.422.4.64.6.537.489,1.084.971,1.647,1.443q.868.728,1.759,1.408l.118.092c.557.425,1.121.833,1.689,1.231.311.218.627.424.941.634.239.16.478.32.719.476.425.274.854.537,1.284.8.3.184.608.371.915.548.377.217.758.421,1.139.627.267.144.532.292.8.431.347.18.7.349,1.046.52.317.155.633.311.951.458.364.169.731.327,1.1.486.256.111.511.222.768.329.423.175.848.342,1.274.5.258.1.516.2.775.291.172.062.343.133.515.193.223.078.447.143.671.218.311.1.623.207.935.3q.517.161,1.035.309t1.052.29q.516.135,1.033.258t1,.228c.327.071.654.139.981.2.289.056.578.106.867.156l.24.043c.3.051.6.1.9.146.407.06.814.113,1.22.162.283.034.566.069.849.1.371.038.742.067,1.112.1.321.025.641.05.961.068.358.02.715.031,1.072.042.322.01.644.022.964.025.343,0,.684,0,1.025-.008.257,0,.516,0,.773-.006.061,0,.121-.008.182-.01.37-.013.737-.039,1.1-.062.3-.018.594-.032.89-.057.436-.036.869-.086,1.3-.136.215-.025.432-.043.646-.071.3-.039.6-.093.9-.139q1.738-.268,3.429-.68c.388-.1.775-.194,1.159-.3.075-.021.151-.037.225-.059.245-.07.485-.151.728-.226.376-.116.754-.229,1.125-.356.259-.089.513-.188.769-.282.349-.128.7-.253,1.044-.392.237-.095.468-.2.7-.3.357-.152.715-.3,1.067-.467.051-.024.1-.044.156-.068.2-.094.394-.2.593-.3.328-.162.657-.322.979-.494.209-.111.413-.23.619-.345.332-.185.662-.372.987-.568.246-.148.487-.3.729-.458.286-.182.571-.365.852-.556.235-.16.467-.326.7-.492.287-.206.572-.414.853-.628.222-.17.44-.345.658-.521q.4-.321.788-.654.351-.3.694-.614.386-.35.762-.711.3-.286.586-.581a33.123,33.123,0,0,0,8.869-16.362,38.06,38.06,0,0,0,.182-15.1,44.75,44.75,0,0,0-5.62-14.764c-.058-.1-.123-.194-.182-.291A50.1,50.1,0,0,0,442.683,181.953Zm6.918,29.383a30.283,30.283,0,0,1,.5,4.848h0a26.85,26.85,0,0,1-.611,6.332,23.566,23.566,0,0,1-4.6,9.692,23.953,23.953,0,0,1-8.621,6.766,26.814,26.814,0,0,1-2.625,1.071,29.946,29.946,0,0,1-8.9,1.6,36.179,36.179,0,0,1-13.109-2.084,40.693,40.693,0,0,1-12.71-7.27,39.781,39.781,0,0,1-9.274-11.108,33.9,33.9,0,0,1-4.106-12.175,30.125,30.125,0,0,1-.243-3.229,26.424,26.424,0,0,1,1.072-8.124,23.275,23.275,0,0,1,5.357-9.325,24.5,24.5,0,0,1,9.058-6.071,30.044,30.044,0,0,1,11.359-1.972,36.735,36.735,0,0,1,12.378,2.376,40.934,40.934,0,0,1,11.836,6.9,39.991,39.991,0,0,1,8.853,10.28A34.717,34.717,0,0,1,449.6,211.335Z"></path>
  <path class="cls-13" d="M436.359,189.566a40.934,40.934,0,0,0-11.836-6.9,36.735,36.735,0,0,0-12.378-2.376,30.044,30.044,0,0,0-11.359,1.972,24.5,24.5,0,0,0-9.058,6.071,23.275,23.275,0,0,0-5.357,9.325,26.424,26.424,0,0,0-1.072,8.124,30.125,30.125,0,0,0,.243,3.229,33.9,33.9,0,0,0,4.106,12.175,39.781,39.781,0,0,0,9.274,11.108,40.693,40.693,0,0,0,12.71,7.27,36.179,36.179,0,0,0,13.109,2.084,29.946,29.946,0,0,0,8.9-1.6,26.814,26.814,0,0,0,2.625-1.071,23.953,23.953,0,0,0,8.621-6.766,23.566,23.566,0,0,0,4.6-9.692,26.85,26.85,0,0,0,.611-6.332h0a30.283,30.283,0,0,0-.5-4.848,34.717,34.717,0,0,0-4.389-11.49A39.991,39.991,0,0,0,436.359,189.566Zm11.424,22.1a28.445,28.445,0,0,1,.468,4.551h0a24.985,24.985,0,0,1-.567,5.9,21.73,21.73,0,0,1-4.238,8.938,22.118,22.118,0,0,1-7.963,6.246,27.188,27.188,0,0,1-10.8,2.5,34.329,34.329,0,0,1-12.44-1.981,38.854,38.854,0,0,1-12.133-6.942,37.936,37.936,0,0,1-8.847-10.592,32.059,32.059,0,0,1-3.887-11.511,28.274,28.274,0,0,1-.228-3.029,24.569,24.569,0,0,1,1-7.555,21.444,21.444,0,0,1,4.933-8.591,22.682,22.682,0,0,1,8.381-5.614q.444-.173.9-.33a28.5,28.5,0,0,1,9.767-1.516,34.883,34.883,0,0,1,11.755,2.258,39.089,39.089,0,0,1,11.3,6.593,38.142,38.142,0,0,1,8.447,9.8A32.876,32.876,0,0,1,447.782,211.67Z"></path>
  <path class="cls-14" d="M398.626,169.545a140.007,140.007,0,0,0,27.733-13.3c11.323-7.338,17.5-15.1,16.064-21.866-.2-.951-.784-5.119-1.265-5.982,0,.021-.008.044-.01.065.024.1.064.191.085.29,3.146,14.876-30.354,34.559-74.825,43.964s-83.069,4.97-86.215-9.906c-.016-.076-.017-.154-.031-.23a49.042,49.042,0,0,0,1.219,5.857,10.443,10.443,0,0,0,2.585,4.846c6.437,7.129,23.517,10.641,45.558,9.886a223.171,223.171,0,0,0,38.073-4.828A230.163,230.163,0,0,0,398.626,169.545Z"></path>
  <path class="cls-15" d="M414.4,150.232l-50.367,17.08a3.489,3.489,0,0,1-4.359-1.984l-17.709-14.591c-1.03,5.427-3.816,8.656-7.556,9.585l2.5,11.812a.317.317,0,0,1-.621.131l-2.5-11.812c-6.4,1.121-12.986-4.8-15.981-18.966-.151-.715-.279-1.44-.395-2.169a18.561,18.561,0,0,1-4.135,1.487l2.883,13.633a.317.317,0,0,1-.621.131l-2.883-13.633a18.49,18.49,0,0,1-12.865-2.185c-6.743,3.958-12.011,8.085-15.414,12.15-3.374,4.03-4.9,8-4.217,11.679.014.076.015.154.031.23,3.146,14.876,41.745,19.311,86.215,9.906s77.971-29.089,74.825-43.964c-.021-.1-.061-.192-.085-.29-1.253-5.106-6.738-8.955-15.227-11.407a82.194,82.194,0,0,0-15.947-2.71l6.734,31.841A3.508,3.508,0,0,1,414.4,150.232Z"></path>
  <path class="cls-16" d="M323.08,108.28c4-.845,15.22,13.833,18.265,28.229a36.744,36.744,0,0,1,.622,14.227l17.709,14.591a3.484,3.484,0,0,1-.2-.612l-12.345-58.372-6.48,9.216-25.591-17.8,1.694,8.011a18.675,18.675,0,0,1,5.049,3.351A2.587,2.587,0,0,1,323.08,108.28Z"></path>
  <path class="cls-3" d="M347.781,105.418l12.5,59.126a2.68,2.68,0,0,0,1.3,1.774,2.716,2.716,0,0,0,2.187.211l18.75-6.358-4.979-23.542h.005a8.8,8.8,0,0,1,17.284-3.309c.56,2.647,3.876,18.449,4.447,21.169l14.86-5.039a2.682,2.682,0,0,0,1.761-3.092l-13.03-61.609L372.54,70.208Zm34.786-7.911.012.057,1.434,6.78-9.908,2.933-1.656-7.832.011,0a5.148,5.148,0,0,1,10.108-1.935Z"></path>
  <path class="cls-17" d="M384.414,126.605a8.767,8.767,0,0,0-6.869,10.022h-.005l4.979,23.542,16.757-5.683c-.571-2.72-3.887-18.522-4.447-21.169A8.762,8.762,0,0,0,384.414,126.605Z"></path>
  <path class="cls-18" d="M404.533,90.622l-1.195-5.649-.471-.226,13.03,61.609a2.682,2.682,0,0,1-1.761,3.092l-14.86,5.039-16.757,5.683-18.75,6.358a2.716,2.716,0,0,1-2.187-.211,2.68,2.68,0,0,1-1.3-1.774l-12.5-59.126-.651.925,12.345,58.372a3.5,3.5,0,0,0,4.558,2.6l50.367-17.08a3.508,3.508,0,0,0,2.305-4.046l-6.734-31.841-5.035-23.808Z"></path>
  <polygon class="cls-19" points="347.131 106.343 347.781 105.418 372.54 70.208 372.481 70.18 374.218 67.82 374.219 67.82 374.219 67.82 368.111 64.939 366.452 64.157 333.17 48.46 313.157 75.32 312.064 76.786 306.161 84.709 302.796 89.224 315.059 97.755 340.651 115.559 347.131 106.343"></polygon>
  <polygon class="cls-20" points="374.219 67.82 374.218 67.82 372.481 70.18 372.54 70.208 402.867 84.748 403.338 84.974 404.533 90.622 404.938 90.537 417.514 87.877 391.871 75.998 377.064 69.138 374.219 67.82"></polygon>
  <path class="cls-17" d="M372.459,99.441l-.011,0,1.656,7.832,9.908-2.933-1.434-6.78-.012-.057a5.148,5.148,0,0,0-10.108,1.935Z"></path>
  <path class="cls-21" d="M290.938,126.544a18.618,18.618,0,0,0,21.72,14.392L308.716,122.3a.317.317,0,1,1,.621-.131l3.942,18.639a18.561,18.561,0,0,0,4.135-1.487c-1.968-12.4,1.031-26.608,4.389-30.2a18.675,18.675,0,0,0-5.049-3.351,18.591,18.591,0,0,0-25.815,20.778Z"></path>
  <path class="cls-22" d="M309.337,122.166a.317.317,0,1,0-.621.131l3.942,18.639,2.883,13.633a.317.317,0,0,0,.621-.131L313.279,140.8Z"></path>
  <path class="cls-23" d="M341.345,136.509c-3.045-14.4-14.268-29.074-18.265-28.229a2.587,2.587,0,0,0-1.278.838c-3.357,3.592-6.357,17.795-4.389,30.2.116.73.244,1.455.395,2.169,3,14.164,9.58,20.087,15.981,18.966l-4.327-20.459a.317.317,0,1,1,.621-.131l4.327,20.459c3.741-.929,6.527-4.158,7.556-9.585A36.744,36.744,0,0,0,341.345,136.509Z"></path>
  <path class="cls-22" d="M330.083,139.862a.317.317,0,1,0-.621.131l4.327,20.459,2.5,11.812a.317.317,0,0,0,.621-.131l-2.5-11.812Z"></path>
  <path class="cls-7" d="M206.717,405.42l.949-.088c-5.152-55.961,29.378-123.522,29.728-124.2l-.848-.438C236.2,281.375,201.538,349.178,206.717,405.42Z"></path>
  <path class="cls-12" d="M431.854,370.7a9.338,9.338,0,0,0,3.439-6.349c.619-5.22-2.825-10.052-7.59-10.617l-43.6-5.167L410.636,274,323.088,363.7a9.347,9.347,0,0,0-3.439,6.353c-.653,5.511,2.825,10.052,7.59,10.617l43.333,5.135L344.04,460.358Z"></path>
  <path class="cls-4" d="M104.413,113.125c-.914-3.5,1.672-6.987,4.648-8.993,9.155-6.169,21.617-3.64,31.576,1.174,11.764,5.687,22.993,15.8,23.887,28.914.621,9.1-3.614,19.355,1.716,26.744,3.2,4.43,8.813,6.134,13.8,8.3s10.23,5.889,10.608,11.345c.4,5.751-4.889,11.095-3.41,16.667.724,2.726,2.953,4.784,5.3,6.323,4.738,3.106,10.267,4.723,15.281,7.349s9.8,6.745,10.9,12.328c1.291,6.525-2.515,14.255,1.614,19.454,1.366,1.72,3.379,2.766,5.056,4.18,5.922,4.993,6.831,14.461,3.206,21.3s-10.894,11.158-18.428,12.756-15.37.8-22.973-.492c-11.177-1.9-22.345,14.765-32.607,9.89-3.162-1.5-6.375-22.852-9.844-22.476-6.439.7-9.953,7.972-15.679,11.008a5.631,5.631,0,0,1-3.778.772,6.469,6.469,0,0,1-3.058-2.036c-9.875-10.193-11.278-25.945-9.968-40.1s4.748-28.408,2.377-42.439c-2.988-17.685-14.828-32.566-27.8-44.873-2.476-2.349-5.087-4.749-6.374-7.921a15.558,15.558,0,0,1-.971-6.345c.378-11.794,10.675-22.368,22.359-22.961"></path>
  <path class="cls-4" d="M128.438,116.392c-18.109-9.08-40.574-9.694-58.517-1.6-5.125,2.312-10.42,6.179-10.283,11.56.113,4.407,3.927,8.281,4.155,12.689.307,5.949-5.784,10.1-11.463,12.633S40.1,156.792,38.046,162.348c-1,2.7-.73,5.694-.2,8.556,1.013,5.456,2.935,10.779,3.779,16.253s.494,11.341-2.7,15.857c-3.432,4.853-10.042,8.189-10.467,14.071-.635,8.781,12.865,13.938,14.018,22.737a14.045,14.045,0,0,1-1.083,6.653c-2.7,7.294-7.732,15.3-3.562,22.225,2.052,3.407,6.048,5.719,7.473,9.375.89,2.284.635,4.759.946,7.152a17.394,17.394,0,0,0,10.754,13.336,5.97,5.97,0,0,1,2.89,1.75A5.918,5.918,0,0,1,60.5,303.1c.6,5.374,6.6,9.024,12.292,10.231A30.919,30.919,0,0,0,98,307.723c3.691-2.934,7.167-7.009,12.115-6.952,2.774.032,5.341,1.415,7.914,2.472a35.6,35.6,0,0,0,30.409-1.659,6.207,6.207,0,0,0,2.922-2.764c.67-1.68-.16-3.577-.977-5.254l-8.944-18.37c-1.8-3.694-3.641-7.707-2.77-11.589.793-3.531,3.68-6.226,5.384-9.436,4.287-8.075.57-18.112-4.614-26.067s-11.936-15.384-14.273-24.348c-2.371-9.093.152-18.4,1.552-27.533a148.97,148.97,0,0,0,1.153-30.652c-.5-9.212-1.56-18.643,1.027-27.437"></path>
  <path class="cls-5" d="M86.552,391.92,238.46,376.5s26.9-109.083-39.53-132.38C148.672,226.5,86.2,258.459,70.4,278.352S86.552,391.92,86.552,391.92Z"></path>
  <path class="cls-5" d="M155.06,248.714l-32.522,1.407-16.726,57.9s3.2-53.091-9.061-54.244-57.03,24.973-54.729,116.736c2.472,98.482,59.585,120.013,101.1,83.88C190.2,413.425,155.06,248.714,155.06,248.714Z"></path>
  <path class="cls-24" d="M80.519,401.575c-15.426,7.348,25.293-93.55,25.293-93.55l16.726-57.9.586-.025C119.323,268.292,92.254,395.985,80.519,401.575Z"></path>
  <path class="cls-6" d="M249.537,260.286s10.037-9.212,9.875-10.275-1.986-22.9,5.121-26.176c2.172-1,19.777-6.114,23.663-5.023,8.84,2.483,5.744,14.943,8.8,23.482,4.4,12.286-17.2,24.249-17.2,24.249l-8.3,12Z"></path>
  <path class="cls-25" d="M268.627,242.53a14.435,14.435,0,1,1,17.1,11.561A14.617,14.617,0,0,1,268.627,242.53Zm4.673-.961a9.666,9.666,0,1,0,7.447-11.73A9.842,9.842,0,0,0,273.3,241.569Z"></path>
  <path class="cls-25" d="M282.5,210.649l6.336,30.861c3.188,15.535,18.587,25.5,34.394,22.254h0c15.806-3.248,26.032-18.474,22.84-34.006l-6.337-30.863Z"></path>
  <path class="cls-26" d="M282.5,210.644c-.552-2.676,11.815-7.476,27.621-10.72s29.065-3.708,29.612-1.032-11.813,7.484-27.623,10.733S283.056,213.328,282.5,210.644Z"></path>
  <path class="cls-27" d="M286.856,212.283c4.655-2.467,13.672-5.339,24.267-7.511s20.009-3.092,25.258-2.658c-4.651,2.464-13.673,5.333-24.267,7.511S292.1,212.714,286.856,212.283Z"></path>
  <path class="cls-6" d="M268.045,232.548s12.666,11.746,16.275,9.187,2.292-10.306-5.694-16.155-19.362-5.856-19.441,4.634.226,19.8.226,19.8"></path>
  <path class="cls-8" d="M267.708,232.885c3.215,2.972,18.778,16.576,18.986,4.745.122-6.939-6.906-12.883-12.8-15.2-4.883-1.919-11.956-2.131-14.384,3.537a13.249,13.249,0,0,0-.81,5.224c-.028,3.029,0,6.059.034,9.087.038,3.244.094,6.489.2,9.731.02.612.973.615.954,0-.169-5.31-.234-10.625-.238-15.937,0-3.357-.433-7.355,2.22-9.919,2.062-1.993,5.166-2.283,7.875-1.879,6.449.962,13.291,5.951,15.444,12.21.69,2.005,1.145,5.847-1.327,6.969-1.775.806-4.381-.919-5.824-1.785a59.887,59.887,0,0,1-9.655-7.459c-.45-.416-1.126.257-.674.674Z"></path>
  <path class="cls-5" d="M198.213,338.334l54.318-87.852,27.4,22.578s14.172,162.846-32.965,173.262S198.213,338.334,198.213,338.334Z"></path>
  <path class="cls-6" d="M104.1,210.544l11.161,36.386-18.85,6.545s61.666,45.052,70.5,42.955,14.528-54.653,14.528-54.653l-13.907-3.491-24.88-44.578Z"></path>
  <path class="cls-7" d="M184.521,239.919c-.725,12.985-1.193,25.956-4.272,38.65-2.414,9.946-7.828,19.266-18.993,19.673-11.447.418-23.245-9.637-31.86-15.961-11.839-8.693-23.417-17.459-35.805-25.391-3.235-2.073.122-6.983,3.348-4.916,9.791,6.269,19.3,12.813,28.525,19.889,8.872,6.808,18.089,14.376,28.476,18.759,25.419,10.726,23.861-37.1,24.65-51.186.16-1.733,5.921-1.33,5.93.483Z"></path>
  <path class="cls-6" d="M123.085,261.467,165.212,281.5c5.922-.511,14.467-28.594,11.943-33.976L162.42,213.218c-17.382,6.344-33.085,5.738-47.624-7.318a145.451,145.451,0,0,0-11.4-9.316C111.663,221.259,123.085,261.467,123.085,261.467Z"></path>
  <path class="cls-8" d="M109.85,206.383s27.3,24.393,54.226,10.616l3.934,8.981s-9.543,4.334-27.285,4.765c-20.578.506-33.234-14.315-33.234-14.315"></path>
  <path class="cls-6" d="M76.2,169.284s25.223,53.431,44.442,54.405c33.194,1.68,56.393-4.061,53-34.779-2.963-26.829-22.159-56.731-38.91-66.707-25.28-15.056-75.8,1.434-58.532,47.081"></path>
  <path class="cls-9" d="M130.426,173.447a2.693,2.693,0,1,1-3.483-1.543,2.695,2.695,0,0,1,3.483,1.543"></path>
  <path class="cls-9" d="M161.065,160.963a2.693,2.693,0,1,1-3.483-1.543,2.695,2.695,0,0,1,3.483,1.543"></path>
  <path class="cls-8" d="M125.865,197.431a7.249,7.249,0,1,1,5.6-8.588,7.251,7.251,0,0,1-5.6,8.588"></path>
  <path class="cls-3" d="M163.008,193.941c.76,4.445-3.754,10.029-8.777,10.889s-8.653-3.077-9.642-7.737c-.76-4.445,3.721-.637,8.93-1.528C158.543,194.7,162.248,189.5,163.008,193.941Z"></path>
  <path class="cls-8" d="M146,169.588l.217,17.519,5.253-.744a6,6,0,0,0,3.067-1.351l4.112-3.73Z"></path>
  <path class="cls-4" d="M118.737,113.478c2.894,6.494-5.54,15.048-10.084,19.374s-4.2,16.37-8.042,21.452c-7.28,9.624-12.747,16.828-22.513,23.376A6.544,6.544,0,0,1,74.039,179a6.841,6.841,0,0,1-3.026-1.1c-3.459-2.139-5.8-6.206-6.72-10.349a30.692,30.692,0,0,1,.162-12.368c2.238-11.893,8.224-22.5,16.758-29.7A45.044,45.044,0,0,1,112.095,115"></path>
  <g class="cls-28">
    <path class="cls-8" d="M171.2,177.461a7.249,7.249,0,1,1,5.6-8.588,7.251,7.251,0,0,1-5.6,8.588"></path>
  </g>
  <path class="cls-10" d="M123.689,115.49c-4.2,2.846-5.049,8.7-4.522,13.738s2.035,10.123,1.048,15.1c-.849,4.274-3.465,7.982-6.332,11.263a67.89,67.89,0,0,1-25.177,18.03c-4.327,1.78-9.068,3.124-13.654,2.194s-8.862-4.741-8.934-9.42A21.322,21.322,0,0,0,90.455,159.1c4.715-6.617,5.147-15.308,8.268-22.81a33.662,33.662,0,0,1,10.2-13.445c3.15-2.481,7.2-4.452,11.076-3.439"></path>
  <path class="cls-10" d="M114.432,117.788a14.278,14.278,0,0,0,3.88,11.656,11.206,11.206,0,0,0,11.73,2.577c4.076-1.661,7.3-6.072,11.674-5.609,2.943.311,5.1,2.766,7.4,4.629,4.187,3.394,10.107,5.112,15.1,3.075s8.069-8.553,5.381-13.225c-2.145,3.127-6.882,3.247-10.322,1.653s-6.127-4.438-9.313-6.494-7.469-3.26-10.7-1.273c-2.05,1.261-3.363,3.634-5.629,4.445-3.547,1.27-7.006-1.85-10.6-3a10.5,10.5,0,0,0-8.386.93"></path>
  <path class="cls-4" d="M64.425,124.552a12.631,12.631,0,0,0-2-14.894c-4.089-4.024-10.376-4.687-16.11-4.509a19.2,19.2,0,0,0-6.8,1.14c-4,1.661-6.613,5.5-8.8,9.24-.69,1.179-1.377,2.61-.8,3.851s3.008,1.087,2.848-.27c-4.513-3.193-11.022-.909-14.977,2.953-2.9,2.833-5.11,6.778-4.573,10.8s4.7,7.58,8.573,6.378a15.915,15.915,0,0,0-3.725,1.469c-3.8,2.133-6.432,6.483-5.947,10.815s4.455,8.17,8.81,7.962a3.98,3.98,0,0,0-2.2,4.084,10.365,10.365,0,0,0,1.873,4.555c2.548,4.025,6.533,8.166,11.238,7.418,4.377-.7,6.91-5.23,8.668-9.3.569-1.316.417-3.6-.988-3.316.343,1.7,2.269,2.7,4,2.606a11.033,11.033,0,0,0,4.807-1.868c3.493-2.041,7.1-4.186,9.39-7.521s2.854-8.222.188-11.265c1.967,1.163,4.405-.3,6.173-1.747,3.236-2.652,6.5-5.717,7.5-9.779s-1.392-9.189-5.562-9.527Z"></path>
  <path class="cls-10" d="M93.3,131.68a72.307,72.307,0,0,0-28.144,7.256c-4.406,2.158-8.676,4.841-11.749,8.666-6.878,8.562-6.177,21.668-.035,30.772,3.672,5.442,9.295,10.537,8.874,17.088-.425,6.613-6.77,10.962-10.863,16.172a10.429,10.429,0,0,0-2.636,6.209c0,7.307,11.536,10.7,11.2,18-.158,3.424-2.982,6.031-5.5,8.354s-5.137,5.29-4.693,8.689c.319,2.441,2.15,4.362,3.382,6.494,4.183,7.236,1.3,16.338-1.661,24.153l11.7-11.944c1.862-1.9,3.833-4.029,4.056-6.681.414-4.911-5.295-8.735-4.951-13.652.276-3.95,4.208-6.431,6.685-9.52a14.957,14.957,0,0,0-.569-18.772c-1.648-1.818-3.846-3.364-4.458-5.74-.63-2.446.682-5.01,2.438-6.827s3.955-3.152,5.745-4.935a16.07,16.07,0,0,0,3.96-15.676c-1.736-5.771-6.548-10-9.912-15a11.724,11.724,0,0,1-2.189-5.145,12.774,12.774,0,0,1,.829-5.222,62.523,62.523,0,0,1,24.72-32.649"></path>
  <path class="cls-6" d="M125.039,263.535l.6-22.007s-24.181-1.583-26.371-18.467c-2.192-16.913,2.14-23.565,4.992-22.452s1.991,13.525,5.85,18.681c0,0-2.325-16.45.045-21.662,1.862-4.1,6.447-3.336,7.539,3.584,1.771,11.265,6.409,16.18,6.409,16.18s-1.8-10.156,1.4-14.922c3.112-4.645,6.85-3,6.307,7.107-.339,6.316,13.783,4.248,16.954,11.38s3.039,44.23,3.039,44.23Z"></path>
  <path class="cls-8" d="M125.516,263.535l.6-22.007a.486.486,0,0,0-.477-.477c-7.513-.512-16.125-3.222-21.417-8.751-5.15-5.382-5.421-13.489-5-20.54.076-1.259,1.639-13.25,5.187-10.447.922.729,1.113,2.629,1.328,3.7.335,1.665.562,3.351.848,5.025.556,3.26,1.172,6.734,3.11,9.495a.479.479,0,0,0,.872-.368c-.446-3.185-.734-6.4-.9-9.614a57.387,57.387,0,0,1,0-7.144c.152-2.044.394-5.319,2.446-6.46,3.378-1.878,4.8,3.683,5.188,5.844a44.646,44.646,0,0,0,2.528,9.135,22.5,22.5,0,0,0,3.929,6.806c.351.379.872-.03.8-.464-.767-4.43-1.22-10.355,1.211-14.324,1.493-2.436,3.951-3.472,5.029-.154.88,2.708-.18,5.753.751,8.331,1.224,3.388,6.6,4.031,9.5,4.983,2.413.791,5.057,1.79,6.606,3.921a11.227,11.227,0,0,1,1.621,4.651c1.769,9.427,1.74,19.33,1.93,28.889q.1,5.164.114,10.33a3.1,3.1,0,0,0,0,.986c.319.635-.353-.458.4-.173a11.589,11.589,0,0,0-2.964-.183l-23.722-1.463c-.613-.038-.611.916,0,.954l26.764,1.651a.482.482,0,0,0,.477-.477c.044-12.631.047-25.52-1.651-38.052-.325-2.4-.589-5.162-1.9-7.264-1.848-2.955-5.5-4.114-8.648-5.076a33.228,33.228,0,0,1-5.262-1.807c-2.6-1.305-2.452-2.9-2.478-5.557-.022-2.235-.136-7.5-3.3-7.888-3.349-.411-5.137,4.733-5.565,7.142a31.9,31.9,0,0,0,.168,10.833l.8-.464c-3.058-3.3-4.632-8.289-5.621-12.537-.653-2.8-1.9-12.451-7.18-9.4-3.689,2.136-3.095,8.861-3,12.384a106.424,106.424,0,0,0,1.012,11.912l.872-.368c-2.914-4.151-2.909-9.737-3.911-14.54-.373-1.789-1.051-5.044-3.58-4.412-2.224.556-3.27,3.577-3.811,5.491-1.572,5.568-1.225,11.82-.43,17.473,1.171,8.33,7.7,13.575,15.207,16.349a45.636,45.636,0,0,0,9.19,2.309,7.072,7.072,0,0,0,2.231.269c.511-.127-.347-.114-.258-.4a4.345,4.345,0,0,0-.028,1.027l-.569,20.922A.477.477,0,0,0,125.516,263.535Z"></path>
  <path class="cls-5" d="M155.06,248.714l-32.522,1.407-16.726,57.9s-66.09-29.271-63.79,62.491c2.472,98.482,59.585,120.013,101.1,83.88C190.2,413.425,155.06,248.714,155.06,248.714Z"></path>
  <path class="cls-7" d="M87.492,442.922c-6.933-33.884,1.525-79.947,9.841-112.624a607.382,607.382,0,0,1,19.892-63.4l.889.347a606.415,606.415,0,0,0-19.858,63.3c-8.29,32.576-16.724,78.482-9.829,112.186Z"></path>
  <path class="cls-7" d="M141.945,447.065l-.668-.681c26.555-26.036,22.059-141.632,22.01-142.8l.953-.04c.012.292,1.191,29.565-.946,61.7C160.417,408.469,153.234,436,141.945,447.065Z"></path>
  <path class="cls-10" d="M88.856,171.333c-1.82,5.5,1.389,11.056,5.088,15.534s8.13,8.832,9.176,14.36c1.276,6.742-3.054,13.884-9.412,18.252a39.636,39.636,0,0,0-5.331,3.813c-1.539,1.495-2.593,3.565-2.01,5.431a6.438,6.438,0,0,0,2.589,3.05c3.6,2.589,8.146,3.965,12.492,5.519,1.753.627,3.579,1.355,4.6,2.735a7.355,7.355,0,0,1,1.124,3.988c.218,3.152.1,6.489-1.689,9.323-3.062,4.851-10.685,7.866-10.739,13.289-.029,2.946,2.347,5.337,4.575,7.457,4.756,4.527,9.755,10.287,7.709,16.405-1.68,5.023-7.822,8.763-8.084,13.932a7.077,7.077,0,0,0,4.867,6.761c-5.363-1.909-8.819-7.059-8.184-12.194.36-2.907,1.889-5.744,1.728-8.643-.451-8.146-13.195-11.568-14.951-19.523-.913-4.137,1.474-8.454,4.53-11.9,1.7-1.911,3.754-4.089,3.182-6.369a6.038,6.038,0,0,0-2.56-3.083c-4.216-3.086-9.376-5.085-13.682-8.076s-7.859-7.5-7.056-12.4c.857-5.232,6.19-9.036,10.812-12.6s9.3-8.443,8.13-13.542c-.7-3.066-3.381-5.359-5.493-7.833a26.173,26.173,0,0,1-4.1-6.54,13.06,13.06,0,0,1-1.222-7.494c.88-4.851,6.238-8.952,11.832-9.057"></path>
  <path class="cls-8" d="M94.44,182.981s-7.015-1.244-8.712,1.1-2.866,9.3,3.9,16.446,8.838,4.369,9.047-.157-4.239-17.387-4.239-17.387"></path>
  <path class="cls-3" d="M95.709,200.483c3.742,2.214,7.689,8.272,5.26,12.776-2.393,4.437-7.528,1.786-9.347-1.635-1.364-2.564-2.455-7.518.1-9.665.567-.477-.159-1.373-.729-.894-5.473,4.6.394,17.3,7.772,15.622,3.125-.711,3.935-4.113,3.832-6.924a12.444,12.444,0,0,0-6.211-10.215c-.633-.375-1.317.555-.677.934Z"></path>
  <path class="cls-4" d="M87.781,171.381c.619,4.842,6.078,7.12,10.249,9.657a28.192,28.192,0,0,1,5.871,43.409c2.02-7.632,2.768-16.263-1.377-22.981-2.321-3.761-5.929-6.508-9.354-9.3s-6.853-5.862-8.578-9.931-1.247-9.4,2.229-12.128"></path>
</svg>
