<?xml version="1.0" encoding="UTF-8"?>
<svg xmlns="http://www.w3.org/2000/svg" width="80" height="80" viewBox="0 0 80 80" fill="none">
  <path d="M61.06 33.73L55.97 29.13C55.71 28.89 55.36 28.76 55 28.76H54.93C54.54 28.78 54.19 28.95 53.93 29.23L50.32 33.23V23.52C50.32 22.72 49.67 22.07 48.87 22.07H40.67V14.33C40.67 13.59 40.07 13 39.34 13H20.33C19.59 13 19 13.6 19 14.33V60.09H31.2V66.37H50.31V53.16C50.31 49.72 51.57 46.42 53.88 43.87L61.17 35.78C61.71 35.18 61.65 34.26 61.06 33.73ZM31.2 23.52V57.44H27.97L27.86 45.76C27.85 45.03 27.26 44.44 26.52 44.44C26.16 44.45 25.84 44.59 25.58 44.84C25.33 45.09 25.2 45.42 25.2 45.78L25.31 57.44H21.65V15.65H38.01V22.06H32.65C31.85 22.06 31.2 22.71 31.2 23.51V23.52ZM51.72 41.93C48.94 45.01 47.4 49 47.4 53.16V63.47H40.66V50.12C40.66 49.38 40.07 48.79 39.33 48.79C38.59 48.79 38 49.39 38 50.12V63.47H34.09V24.99H40.77V28.67C40.77 29.41 41.37 30 42.1 30C42.83 30 43.43 29.4 43.43 28.67V24.99H47.4V37.03C47.4 37.62 47.77 38.17 48.33 38.38C48.49 38.44 48.67 38.47 48.85 38.47C49.26 38.47 49.65 38.29 49.92 37.99L55.09 32.26L58.04 34.91L51.71 41.92L51.72 41.93Z" fill="#374649"></path>
</svg>
