<?xml version="1.0" encoding="UTF-8"?>
<svg xmlns="http://www.w3.org/2000/svg" id="Calque_1" data-name="Calque 1" viewBox="0 0 500 500">
  <defs>
    <style>.cls-1{fill:#ffede1;}.cls-2{fill:#27c896;}.cls-3{fill:#ff8920;}.cls-4{fill:#ff891f;}.cls-5{fill:#ffad64;}.cls-6{fill:#00d39d;}.cls-7{fill:#fff;}.cls-8{fill:#15915e;}.cls-9{fill:#ffad63;}.cls-10{fill:#a2290f;}.cls-11{fill:#b6503a;}.cls-12{fill:none;stroke:#a2290f;stroke-linecap:round;stroke-linejoin:round;stroke-width:0;}.cls-13{fill:#8c1703;}.cls-14{fill:#2859ff;}.cls-15{fill:#122d32;}.cls-16{fill:#132d32;}.cls-17{fill:#ffc800;}.cls-18{fill:#5091f2;}</style>
  </defs>
  <title>promo-buche-pellet</title>
  <path class="cls-1" d="M101.88,451.4a249.41,249.41,0,0,0,60.981,32.983L143.1,454.868Z"></path>
  <path class="cls-1" d="M467.749,127.118a76.8,76.8,0,0,1-8.044,16.8c-4.661,7.127-8.75,14.648-16.369,19.234a40.192,40.192,0,0,1-11.121,4.593c-.676,8.038-3.26,17.691.241,22.168,5.515,7.075,28.126,3.783,32.442,11.6,4.3,7.787-11.233,23.91-8.24,32.307,2.973,8.308,25.538,11.892,27.125,20.667,1.557,8.626-18.405,19.31-18.278,28.252.126,8.71,20.434,18.833,19.109,27.728s-23.767,13.155-26.427,21.481c-2.733,8.554,13.318,24.178,9.312,32.037-4.088,8-26.806,5.375-32.076,12.562-5.318,7.252,4.884,26.9-1.508,33.225-6.426,6.349-27.179-2.878-34.534,2.426-6.188,4.454-4.76,20.5-8.982,27.969l7.264,11.561a250.075,250.075,0,0,0,70.084-324.611Z"></path>
  <path class="cls-1" d="M22.611,306.128A60.006,60.006,0,0,1,25.426,291.1c2.253-8.227,4.649-11.56,4.649-11.56l.009.01a142.338,142.338,0,0,1,12.259-20.061,318.458,318.458,0,0,1,38.673-44.844,14.652,14.652,0,0,1-2.146-6.978c-1.1-23.172-7.4-48.232-7.4-48.232l70.255,7.593.038,3.059a96.571,96.571,0,0,1,23.451-7.546,6.251,6.251,0,0,1,1.292-1.915c6.426-6.351,27.18,2.878,34.539-2.421s3.938-27.02,12.085-31.172c7.638-3.887,22.962,9.113,32.029,8.231l18.1-38,3.561,1.254c2.465-4.962,4.9-9.505,6.927-12.893-3.451-4.942-8.812-10.716-10.358-15.139-4.564-13.06-7.851-23.741-18.467-27.525-2.533-.9.388-5.331,2.75-6.616C260.631,29.3,271,46.6,278.815,51.78a192.663,192.663,0,0,0,13.061-22.842c1.655-3.255,6.392-5.83,10.024-6.213s10.8,1.511,10.576,5.156c3.5-.75,5.519-3.947,10.193-1.2a8.037,8.037,0,0,1,4.191,7.655c3.969-2.237,10.281-2.321,11.938,7.1,4.672-.849,8.474,2.1,8.821,7.014,3.053,24.652-15.654,46.231-26.966,52.944-1.635,4.275-3.364,8.281-5.181,12.146,3.783-3.373,7.534-5.961,11.094-5.473,9.26,1.27,13.689,22.828,22.36,25.383,2.155.634,4.743.206,7.542-.745-6.453-11.314-10.283-28.287,3.438-48.692,3.1-3.3,6.114-7.047,9.385-10.119,3.66-3.438,8.52-5.709,12.275-9.18a60.329,60.329,0,0,0,13.457-18.373A248.856,248.856,0,0,0,250,0C111.929,0,0,111.929,0,250A249.02,249.02,0,0,0,23.419,355.744C20.9,334.011,21.229,317.844,22.611,306.128Z"></path>
  <path class="cls-1" d="M447.627,96.891q-1.787-2.3-3.627-4.563a14.457,14.457,0,0,0,2.292,5.97A8.458,8.458,0,0,0,447.627,96.891Z"></path>
  <path class="cls-1" d="M412.639,77.853c2.961-2.607,4.371-6.675,6.157-10.122.248-.478.5-.956.75-1.434q-2-1.843-4.031-3.641c-.018.343-.019.687-.043,1.03C415.157,68.281,415.4,73.952,412.639,77.853Z"></path>
  <path class="cls-2" d="M387.293,443.366c-8.1,4.126-24.883-10.788-33.628-7.908-8.648,2.858-12.385,24.534-21.524,26.058-8.978,1.5-20.1-17.671-29.409-17.547-9.071.123-19.607,19.632-28.872,18.365a6.961,6.961,0,0,1-2.381-.809,12.727,12.727,0,0,1-4.638,1.607c2.382,1.6,1.952,5.507-.105,7.5s-5.062,2.589-7.888,3.077c-12.947,2.233-42.471-11.471-45.5-13.89-2.882-2.3-6.427-3.583-9.9-4.825l-3.42-1.223,5.5-43.461,1.126-8.9-37.792-4.332c.877-6.533,1.823-13.122-.895-16.6-5.516-7.07-28.127-3.778-32.442-11.6-4.291-7.787,11.232-23.9,8.24-32.3-2.968-8.3-25.534-11.887-27.126-20.663-1.557-8.629,18.405-19.311,18.279-28.253-.126-8.713-20.434-18.834-19.11-27.727s23.767-13.155,26.433-21.484c1.808-5.669-4.63-14.442-8.012-22a15.5,15.5,0,0,1-4.362,1.156L95.064,221.54a14.528,14.528,0,0,1-14.047-6.89,318.458,318.458,0,0,0-38.673,44.844,142.338,142.338,0,0,0-12.259,20.061l-.009-.01s-2.4,3.333-4.649,11.56a102.516,102.516,0,0,0-2.816,15.023c-1.382,11.717-1.707,27.883.809,49.616a440.574,440.574,0,0,0,9.8,53.068,97.911,97.911,0,0,0,3.105,12.24h0c.706,2.221,1.47,4.483,2.343,7.29,4.15,13.353,18.076,19.257,32.01,20.43l31.2,2.626,41.222,3.469,19.76,29.514a250.314,250.314,0,0,0,234.8-32.652L390.4,440.169A7.64,7.64,0,0,1,387.293,443.366Zm-297-63.6c-2.195-3.308-2.316-7.569-2.778-11.39l-2.34-19.361c-.12-1,1.442-.992,1.562-.005l1.724,14.266c.544,4.5.47,9.629,2.263,13.808,3.422,7.975,14.721,8.13,22.089,9.338.989.162.575,1.669-.41,1.507C105.257,386.755,94.8,386.545,90.3,379.764Z"></path>
  <path class="cls-3" d="M381.567,64.718c-3.755,3.472-8.615,5.742-12.275,9.18-3.271,3.072-6.286,6.823-9.385,10.119-13.721,20.405-9.891,37.378-3.438,48.692,8.766-2.977,19.612-11.124,25.811-8.2,8.324,3.92,5.586,25.737,13.072,30.8,7.55,5.108,28.006-4.7,34.591,1.442,2.419,2.257,2.663,6.359,2.273,11a40.192,40.192,0,0,0,11.121-4.593c7.619-4.586,11.708-12.107,16.369-19.234a76.8,76.8,0,0,0,8.044-16.8c3.952-11.292,6.048-23.4,8.7-34.913,1.355-5.891,3.017-26.417,12.584-24.822-5.715-.953-11.824-.99-16.621,2.316-5.578,3.844-10.187,9.317-14.345,14.558-.6.756-7.48,9.227-10.434,12.635a8.458,8.458,0,0,1-1.335,1.407A14.457,14.457,0,0,1,444,92.328a25.974,25.974,0,0,1-.358-5.7c.551-10.913,7.251-20.285,11.6-30.247,3.415-7.827,5.417-16.2,7.4-24.517,1.288-5.4,2.569-11.1.891-16.466-3.846,8.642-7.848,17.508-14.717,24.044-7.539,7.175-18.081,11.081-24.548,19.212a47.6,47.6,0,0,0-4.723,7.643c-.25.478-.5.955-.75,1.434-1.786,3.448-3.2,7.515-6.157,10.122,2.763-3.9,2.518-9.572,2.833-14.167.023-.343.025-.687.043-1.03a78.826,78.826,0,0,0-.47-13.228c-.522-4.489-.857-8.923-3.542-12.731a36.288,36.288,0,0,0-10.9-10.141,60.34,60.34,0,0,1-5.579,19.788A60.329,60.329,0,0,1,381.567,64.718Z"></path>
  <path class="cls-4" d="M302.216,51.222c-.343,4.093.5,8.715,4.422,10.053a6.875,6.875,0,0,0,6.031-.917,19.631,19.631,0,0,0,2.872-2.4,8.723,8.723,0,0,0-.076,2.1c.24,2.24,1.588,4.771,3.813,5.629,3.081,1.187,5.97-1.626,8.328-4.161a4.333,4.333,0,0,0,5.178,3.625c6.156-.963,10.09-7.685,11.8-12.959.477-1.475-1.732-2.51-2.215-1.018A19.106,19.106,0,0,1,337,60.113c-.892.779-2.637,2.419-3.949,2.447l-1.424.3-1.448-4.173c2.966-4.378,4.993-9.344,8.025-13.678.893-1.277-.979-2.84-1.879-1.553-3.138,4.485-5.189,9.649-8.325,14.131-1.581,1.476-3.652,4.425-5.611,5.22-4.182,1.7-4.621-3.267-4.134-6.185.2-1.174.733-2.373.366-3.339,2.017-4.71,3.728-9.767,6.85-13.867.948-1.245-.927-2.8-1.879-1.553-3.339,4.387-5.157,9.737-7.333,14.751-1.3.945-2.018,2.986-3.117,4.106-3.228,3.289-7.949,2.3-8.406-2.849a16.744,16.744,0,0,1,.552-5.987c2.613-5.36,5.512-10.577,8.123-15.938.688-1.412-1.528-2.429-2.215-1.018-2.606,5.352-5.5,10.561-8.109,15.911-2.732,3.867-10.315,7.237-9.657.034.463-5.066,2.545-10.034,4.336-14.739.555-1.459-1.656-2.487-2.215-1.018-1.7,4.475-7.518,16.077-3.766,20.943C294.456,55.53,299.028,53.759,302.216,51.222Z"></path>
  <path class="cls-5" d="M315.472,113.544c1.817-3.865,3.545-7.871,5.181-12.146,11.313-6.713,30.019-28.292,26.966-52.944-.347-4.919-4.15-7.863-8.821-7.014-1.657-9.422-7.969-9.338-11.938-7.1a8.037,8.037,0,0,0-4.191-7.655c-4.674-2.75-6.689.447-10.193,1.2.225-3.645-6.944-5.538-10.576-5.156s-8.369,2.958-10.024,6.213A192.663,192.663,0,0,1,278.815,51.78C271,46.6,260.631,29.3,247.673,36.35c-2.362,1.285-5.283,5.713-2.75,6.616,10.616,3.784,13.9,14.465,18.467,27.525,1.546,4.423,6.907,10.2,10.358,15.139-2.032,3.388-4.463,7.931-6.927,12.893l46.986,16.545Q314.64,114.287,315.472,113.544ZM295.548,31.119c.559-1.47,2.77-.442,2.215,1.018-1.79,4.7-3.873,9.673-4.336,14.739-.658,7.2,6.926,3.833,9.657-.034,2.61-5.35,5.5-10.559,8.109-15.911.687-1.411,2.9-.394,2.215,1.018-2.611,5.361-5.509,10.579-8.123,15.938a16.744,16.744,0,0,0-.552,5.987c.457,5.147,5.178,6.138,8.406,2.849,1.1-1.119,1.821-3.161,3.117-4.106,2.176-5.014,3.994-10.364,7.333-14.751.952-1.251,2.827.308,1.879,1.553-3.121,4.1-4.832,9.157-6.85,13.867.366.966-.17,2.165-.366,3.339-.487,2.919-.048,7.884,4.134,6.185,1.958-.8,4.03-3.744,5.611-5.22,3.136-4.482,5.187-9.646,8.325-14.131.9-1.287,2.773.276,1.879,1.553-3.032,4.334-5.059,9.3-8.025,13.678l1.448,4.173,1.424-.3c1.312-.029,3.057-1.669,3.949-2.447a19.106,19.106,0,0,0,5.369-8.942c.482-1.492,2.692-.458,2.215,1.018-1.705,5.274-5.639,12-11.8,12.959a4.333,4.333,0,0,1-5.178-3.625c-2.358,2.535-5.247,5.349-8.328,4.161-2.226-.858-3.573-3.389-3.813-5.629a8.723,8.723,0,0,1,.076-2.1,19.631,19.631,0,0,1-2.872,2.4,6.875,6.875,0,0,1-6.031.917c-3.924-1.338-4.765-5.96-4.422-10.053-3.188,2.537-7.761,4.308-10.434.84C288.03,47.2,293.845,35.594,295.548,31.119Z"></path>
  <path class="cls-2" d="M268.286,108.882c8.984-1.5,20.1,17.679,29.409,17.554,5.071-.069,10.6-6.2,16.112-11.367L266.82,98.524l-3.561-1.254-18.1,38a7.429,7.429,0,0,0,1.6-.323C255.41,132.086,259.146,110.413,268.286,108.882Z"></path>
  <path class="cls-2" d="M143.544,200.422c.015.128.013.254.024.382,8.1-1.8,18.155-2.471,21.434-6.95,4.87-6.63-3.237-23.608.215-31.308a96.571,96.571,0,0,0-23.451,7.546l.166,13.276C141.964,185.962,142.737,193.348,143.544,200.422Z"></path>
  <path class="cls-5" d="M132.932,206.418c1.541-3.018,5.732-4.523,10.637-5.614-.011-.128-.01-.253-.024-.382-.807-7.074-1.58-14.459-1.612-17.054l-.166-13.276-.038-3.059L71.474,159.44s6.3,25.06,7.4,48.232A14.628,14.628,0,0,0,95.064,221.54l34.807-3.934a15.5,15.5,0,0,0,4.362-1.156C132.512,212.6,131.579,209.068,132.932,206.418Z"></path>
  <path class="cls-6" d="M25.426,291.1a60.006,60.006,0,0,0-2.816,15.023A102.516,102.516,0,0,1,25.426,291.1Z"></path>
  <path class="cls-7" d="M429.942,156.747c-6.584-6.143-27.041,3.666-34.591-1.442-7.486-5.062-4.747-26.879-13.072-30.8-6.2-2.92-17.046,5.227-25.811,8.2-2.8.95-5.387,1.378-7.542.745-8.671-2.555-13.1-24.113-22.36-25.383-3.561-.488-7.311,2.1-11.094,5.473q-.832.742-1.666,1.526c-5.51,5.17-11.04,11.3-16.112,11.367-9.309.124-20.425-19.05-29.409-17.554-9.139,1.531-12.876,23.2-21.519,26.065a7.429,7.429,0,0,1-1.6.323c-9.067.882-24.391-12.118-32.029-8.231-8.147,4.152-4.726,25.865-12.085,31.172s-28.113-3.93-34.539,2.421a6.251,6.251,0,0,0-1.292,1.915c-3.452,7.7,4.655,24.678-.215,31.308-3.279,4.478-13.331,5.147-21.434,6.95-4.9,1.091-9.1,2.6-10.637,5.614-1.353,2.65-.42,6.184,1.3,10.031,3.382,7.561,9.82,16.334,8.012,22-2.666,8.329-25.113,12.591-26.433,21.484s18.984,19.015,19.11,27.727c.127,8.942-19.836,19.624-18.279,28.253,1.592,8.776,24.157,12.359,27.126,20.663,2.993,8.4-12.531,24.518-8.24,32.3,4.315,7.827,26.926,4.535,32.442,11.6,2.718,3.477,1.771,10.066.895,16.6l37.792,4.332-1.126,8.9c8.863,1.192,9.458-.18,17.286-3.927,7.291-3.49,16.524-4.008,22.872-6.5,5.708-2.24,7.3-7.315,9.833-12.063s.52-12.07,5.853-11.33c10.062,6,4.646,23.646.747,33.047,2.425,3.351,6.9,4.354,10.966,5.091s8.965,1.4,11.029,4.988c3.361,5.835-1.7,13.191-5.833,13.031,3.674,2.1,6.092,4.26,4.857,8.306s-3.9,8.744-8.114,8.432a8.83,8.83,0,0,1-3.547,12.133,6.961,6.961,0,0,0,2.381.809c9.265,1.268,19.8-18.242,28.872-18.365,9.309-.124,20.43,19.05,29.409,17.547,9.139-1.524,12.876-23.2,21.524-26.058,8.745-2.879,25.529,12.034,33.628,7.908a7.64,7.64,0,0,0,3.108-3.2c4.222-7.474,2.793-23.516,8.982-27.969,7.354-5.3,28.107,3.923,34.534-2.426,6.392-6.328-3.81-25.973,1.508-33.225,5.27-7.187,27.987-4.56,32.076-12.562,4.006-7.859-12.045-23.483-9.312-32.037,2.66-8.327,25.108-12.588,26.427-21.481s-18.984-19.017-19.109-27.728c-.127-8.942,19.836-19.626,18.278-28.252-1.587-8.776-24.152-12.359-27.125-20.667-2.993-8.4,12.535-24.52,8.24-32.307-4.316-7.819-26.927-4.528-32.442-11.6-3.5-4.477-.917-14.13-.241-22.168C432.605,163.106,432.362,159,429.942,156.747Zm-64.208,19.984a10.1,10.1,0,0,1-.5,3.933,3.076,3.076,0,0,1-2.26,1.995c-.853.188-1.922.462-3.114.786L362,184.913l-.023.008c3.9,2.286,7.621,4.521,10.194,6.082,3.362,2.039,10.36,5.508,13.815,7.767a3.369,3.369,0,0,1,1.343,1.46c.725,1.438.04,3.157.637,4.628.3.742.746.975.414,1.818-.3.761-1.14,1.157-1.383,1.963a2.8,2.8,0,0,1-.547,1.319c-.51.515-1.154.271-1.606.788-.324.371-.426.928-.778,1.26-.546.515-1.347.319-1.979.633-.282.14-.426.486-.718.6-.941.354-1.581-.533-2.465-.619-.806-.078-1.347.639-2.119.667a5.658,5.658,0,0,1-2.255-.953,1.633,1.633,0,0,1-.672-.533c-2-1.24-3.753-2.684-5.582-3.7-3.148-1.752-6.173-3.6-9.26-5.325-3.939-2.2-12.113-7.431-17.478-10.552l-.31.111-3.728-2.444c-2.562.691-5.125,1.411-7.741,2.073-2.03.513-4.093,1.458-6.347,2.141a1.634,1.634,0,0,1-.787.342,5.657,5.657,0,0,1-2.425.341c-.739-.225-1.078-1.058-1.876-1.189-.877-.144-1.724.548-2.542-.036-.253-.181-.3-.553-.54-.761-.53-.467-1.355-.483-1.75-1.121-.255-.411-.21-.976-.428-1.418-.3-.616-.989-.546-1.349-1.175a2.8,2.8,0,0,1-.189-1.415,3.364,3.364,0,0,0-.541-1.417c-5.1-.406-10.527-.789-13.558-1.157-3.509-.426-7.044-.708-10.621-1.144-2.078-.253-4.343-.116-6.692-.292a1.634,1.634,0,0,1-.857.035,5.658,5.658,0,0,1-2.384-.557c-.608-.477-.624-1.375-1.321-1.786-.766-.451-1.805-.11-2.358-.95-.171-.26-.084-.625-.23-.9-.326-.626-1.089-.939-1.228-1.677-.089-.475.156-.986.112-1.477-.061-.684-.726-.866-.835-1.582a2.8,2.8,0,0,1,.334-1.388c.278-.795-.169-1.609.036-2.4.227-.877.724-.8,1.4-1.226,1.348-.838,1.806-2.631,3.238-3.367a3.369,3.369,0,0,1,1.945-.39c4.122.207,11.822,1.52,15.74,1.85,2.975.25,7.253.627,11.714,1.07-2.083-1.649-4.19-3.282-6.282-4.993-1.621-1.325-3.608-2.42-5.5-3.825a1.634,1.634,0,0,1-.743-.428c-.538-.465-1.479-1.076-1.717-1.745-.259-.728.208-1.5-.161-2.216-.406-.79-1.467-1.058-1.484-2.063-.005-.311.263-.573.289-.887.06-.7-.419-1.376-.141-2.074.179-.449.659-.75.884-1.188.314-.611-.15-1.12.141-1.783.212-.484.651-.7,1.024-.994.66-.523.718-1.45,1.315-2.009.661-.619,1.042-.292,1.842-.285,1.587.013,2.933-1.257,4.537-1.114a3.386,3.386,0,0,1,1.633.564l0-.008c3.336,2.3,9.329,7.71,12.529,10.134,4.922,3.727,14.25,10.875,19.944,15.765l.028-.011.821.749c.572.5,1.112.983,1.579,1.417.065.061.121.129.183.192l.559.51c7.178-2.043,16.355-4.544,21.4-5.482a5.446,5.446,0,0,1,4.984,1.562C364.945,170.666,365.547,173.564,365.734,176.731Zm-5.175-36.369c3.929-.137,11.685-1.071,15.812-1.076a3.369,3.369,0,0,1,1.923.485c1.394.806,1.764,2.619,3.069,3.522.658.455,1.158.407,1.342,1.294.166.8-.32,1.592-.081,2.4a2.8,2.8,0,0,1,.265,1.4c-.144.71-.817.859-.911,1.54-.068.488.152,1.01.04,1.48-.174.73-.952,1.005-1.308,1.615-.159.272-.09.641-.274.892-.593.812-1.615.42-2.4.833-.717.376-.776,1.273-1.407,1.719a5.657,5.657,0,0,1-2.409.439,1.634,1.634,0,0,1-.854-.077c-2.355.06-4.61-.188-6.7-.037-3.594.26-7.139.368-10.664.622-5.451.392-18.564.456-23.793,1a3.076,3.076,0,0,1-2.773-1.183,10.1,10.1,0,0,1-1.709-3.577c-.819-3.065-1.158-6.005-.018-8.461a5.446,5.446,0,0,1,4.24-3.05C338.736,141.214,353.4,140.612,360.559,140.362Zm91,112.207c2.315,3.1,3.792,6.767,5.278,10.282,2.751,6.508,2.538,12.363,2.178,19.23a52.65,52.65,0,0,1-1.353,9.265,61.011,61.011,0,0,1-8.145,19.089h0l-.031.046q-.539.825-1.1,1.628c-.06.084-.123.165-.183.249-.332.465-.666.927-1.011,1.378l-.012-.013a46.929,46.929,0,0,1-5.392,5.985,37.186,37.186,0,0,1-9.965,6.261h0l-.041.017q-.876.387-1.77.741h0c-.555.218-1.116.423-1.68.62-.056.02-.111.042-.167.062v0a36.608,36.608,0,0,1-9.483,2.016,21.79,21.79,0,0,1-4.024-.086c-2.925-.169-5.8-.462-8.636-.831-.006.29-.025.6-.034.891l.006,0q-.043,1.48-.121,3.013v.01h0c-.015.308-.028.609-.045.921a52.657,52.657,0,0,1-1.353,9.265,61.01,61.01,0,0,1-8.145,19.089h0l-.049.072q-.531.811-1.085,1.6c-.076.108-.156.211-.233.318-.316.441-.633.881-.961,1.31h0a47.045,47.045,0,0,1-5.4,5.972,37.186,37.186,0,0,1-9.965,6.261h0l-.042.017q-.875.387-1.769.74h0c-.555.218-1.115.423-1.678.619-.056.02-.112.043-.168.062v0a36.608,36.608,0,0,1-9.483,2.016,21.79,21.79,0,0,1-4.024-.086c-15.408-.889-29.508-5.1-42.912-6.791-1.067-.131-2.126-.256-3.145-.352-19.664-1.853-38.912-4.434-58.2-6.259-29.823-2.821-59.133-4.586-87.911-6.444a17.812,17.812,0,0,1-7.147-2,15.635,15.635,0,0,1-6.655-6.545l-.045-.086.021,0a49.529,49.529,0,0,1-5.508-19.65,117.333,117.333,0,0,1-.3-15.292h0c0-.068.01-.134.014-.2q.069-1.3.178-2.574c.023-.263.052-.524.077-.786.07-.726.144-1.449.235-2.164.053-.415.119-.823.18-1.234.084-.574.163-1.15.262-1.717.173-.984.363-1.96.583-2.921.005-.024.009-.048.014-.072h0a47.367,47.367,0,0,1,2.8-8.532h0l.005-.011q.54-1.227,1.162-2.414c.026-.05.051-.1.077-.151.347-.657.717-1.3,1.1-1.942v-.006a16.021,16.021,0,0,1,1.584-2.413c.058-.082.113-.166.172-.247.04-.055.076-.112.116-.167.094-.128.175-.262.271-.389.4-.528.812-1.036,1.242-1.531.081-.1.151-.2.233-.3l.038,0a28.534,28.534,0,0,1,5.122-4.506l0,0h0a15.236,15.236,0,0,1-4.1-4.892l-.045-.086.021,0a49.528,49.528,0,0,1-5.508-19.65,117.332,117.332,0,0,1-.3-15.292h0c0-.066.01-.13.014-.2q.069-1.3.179-2.581c.022-.262.052-.521.077-.781.07-.726.144-1.451.235-2.167.053-.416.12-.825.18-1.237.084-.573.163-1.148.261-1.714.172-.985.364-1.96.583-2.921.005-.024.009-.048.014-.071h0a47.368,47.368,0,0,1,2.8-8.533h0l.005-.011q.54-1.227,1.162-2.414c.026-.05.051-.1.077-.151q.6-1.148,1.29-2.257c.037-.061.072-.123.11-.184q.688-1.1,1.459-2.168c.04-.055.076-.112.116-.167.094-.128.175-.262.271-.389.4-.528.812-1.037,1.242-1.531.081-.1.151-.2.233-.3l.038,0a31.445,31.445,0,0,1,24.491-10c37.578,1.26,75.817,1.656,114.707,6.712,21.8,2.833,60.128,5.909,81.977,9.681l-.026.04a24.289,24.289,0,0,1,7.863,3.256c3.568,2.23,6.74,3.226,9.35,6.724a44.2,44.2,0,0,1,4.916,9.425c9.506,1.1,18.409,2.258,25.548,3.49l-.026.04a24.288,24.288,0,0,1,7.863,3.256C445.778,248.075,448.95,249.072,451.56,252.569Z"></path>
  <path class="cls-5" d="M275.026,449.391c4.218.312,6.88-4.386,8.114-8.432s-1.184-6.209-4.857-8.306c4.133.16,9.194-7.2,5.833-13.031-2.065-3.584-6.959-4.251-11.029-4.988s-8.541-1.74-10.966-5.091c3.9-9.4,9.315-27.043-.747-33.047-5.332-.74-3.316,6.581-5.853,11.33s-4.125,9.823-9.833,12.063c-6.347,2.491-15.58,3.009-22.872,6.5-7.827,3.746-8.423,5.119-17.286,3.927l-5.5,43.461,3.42,1.223c3.474,1.242,7.018,2.523,9.9,4.825,3.028,2.419,32.552,16.122,45.5,13.89,2.826-.487,5.831-1.079,7.888-3.077s2.487-5.907.105-7.5a12.727,12.727,0,0,0,4.638-1.607A8.83,8.83,0,0,0,275.026,449.391Zm-4.768-26.466c-1.085-.961.538-2.517,1.615-1.563a4.894,4.894,0,0,1,1.227,5.288,7.972,7.972,0,0,1-4.352,4.24c-1.3.622-2.4-1.338-1.1-1.963C269.722,427.938,272.8,425.172,270.259,422.925Zm-3.908,19.836a4.408,4.408,0,0,0,1.552-7.075c-.954-1.085.659-2.651,1.615-1.563a6.672,6.672,0,0,1-2.071,10.6C266.143,445.339,265.041,443.379,266.351,442.761Zm-7.106,20.786a6.228,6.228,0,0,1-4.443,3.382c-1.416.267-1.959-1.914-.535-2.183a4.125,4.125,0,0,0,3.056-2.364C257.952,461.078,259.869,462.253,259.245,463.547Zm2.821-5.38c-1.343.524-1.865-1.665-.535-2.183a3.925,3.925,0,0,0,1.791-5.455,1.125,1.125,0,0,1,1.963-1.1A6.19,6.19,0,0,1,262.066,458.167Z"></path>
  <path class="cls-4" d="M268.749,430.89a7.972,7.972,0,0,0,4.352-4.24,4.894,4.894,0,0,0-1.227-5.288c-1.077-.954-2.7.6-1.615,1.563,2.536,2.247-.537,5.013-2.606,6C266.347,429.552,267.448,431.512,268.749,430.89Z"></path>
  <path class="cls-4" d="M269.518,434.123c-.956-1.088-2.569.478-1.615,1.563a4.408,4.408,0,0,1-1.552,7.075c-1.309.617-.207,2.577,1.1,1.963A6.672,6.672,0,0,0,269.518,434.123Z"></path>
  <path class="cls-4" d="M265.285,449.433a1.125,1.125,0,0,0-1.963,1.1,3.925,3.925,0,0,1-1.791,5.455c-1.331.518-.809,2.707.535,2.183A6.19,6.19,0,0,0,265.285,449.433Z"></path>
  <path class="cls-4" d="M257.323,462.381a4.125,4.125,0,0,1-3.056,2.364c-1.425.269-.881,2.45.535,2.183a6.228,6.228,0,0,0,4.443-3.382C259.869,462.253,257.952,461.078,257.323,462.381Z"></path>
  <path class="cls-8" d="M112.407,387.927c.985.162,1.4-1.345.41-1.507-7.368-1.208-18.667-1.364-22.089-9.338-1.793-4.179-1.719-9.308-2.263-13.808l-1.724-14.266c-.119-.987-1.682-.991-1.562.005l2.34,19.361c.462,3.821.583,8.082,2.778,11.39C94.8,386.545,105.257,386.755,112.407,387.927Z"></path>
  <path class="cls-9" d="M335.967,171.911c-.467-.434-1.007-.916-1.579-1.417l1.762,1.609C336.088,172.039,336.032,171.971,335.967,171.911Z"></path>
  <path class="cls-7" d="M317.66,163.08c0-.309-.939-.986-1.189-.325C316.326,163.139,317.651,164.166,317.66,163.08Z"></path>
  <path class="cls-7" d="M328.156,171.227c-.272-.48-1.22-.65-1.256.29C327.193,171.531,328.6,172.007,328.156,171.227Z"></path>
  <path class="cls-7" d="M326.587,166.043c.019-.469-1.258-.967-1.148-.133C325.5,166.413,326.56,166.694,326.587,166.043Z"></path>
  <path class="cls-7" d="M311.744,159.584c-.272-.48-1.22-.65-1.255.29C310.781,159.889,312.185,160.364,311.744,159.584Z"></path>
  <path class="cls-7" d="M315.472,168.959c.063-.529-.812-1.14-1.082-.4C314.2,169.067,315.364,169.865,315.472,168.959Z"></path>
  <path class="cls-7" d="M306.848,165.484c.292.014,1.7.49,1.255-.29C307.831,164.713,306.883,164.544,306.848,165.484Z"></path>
  <path class="cls-7" d="M321.694,168.38c-.725.533.405,1.057.917.883C323.355,169.01,322.263,167.962,321.694,168.38Z"></path>
  <path class="cls-7" d="M322.007,165.538c.767.067-.015-1.257-.557-1.161C320.521,164.542,321.509,165.495,322.007,165.538Z"></path>
  <path class="cls-7" d="M319.408,160.528c.507-.7-.738-1.1-1.1-.683C317.891,160.326,318.87,161.274,319.408,160.528Z"></path>
  <path class="cls-7" d="M312.608,154.972c.311-.434-.95-1.116-1.14-.37C311.3,155.266,312.288,155.419,312.608,154.972Z"></path>
  <path class="cls-7" d="M309.14,152.766l.021-.089c.148-.323-.2-.975-.605-.62S308.825,152.813,309.14,152.766Z"></path>
  <path class="cls-7" d="M303.92,157.01l.055-.034c.454-.423-.16-1.074-.623-.743A.481.481,0,1,0,303.92,157.01Z"></path>
  <path class="cls-7" d="M302.217,155.62c-.013.014-.027.027-.039.042C302.192,155.648,302.2,155.634,302.217,155.62Z"></path>
  <path class="cls-7" d="M303.53,160.6c-.257.464.373.953.81.7C304.386,160.886,303.809,160.1,303.53,160.6Z"></path>
  <path class="cls-7" d="M301.705,164.573c-.24.872.992.711,1.407.434C303.195,164.431,301.936,163.734,301.705,164.573Z"></path>
  <path class="cls-7" d="M308.644,169.137a.52.52,0,0,0-.1.088l.731.078A.445.445,0,0,0,308.644,169.137Z"></path>
  <path class="cls-3" d="M294.7,160.1c.746,0,1.321.569,2.044.511,1.082-.086,2.24-1.382,3.254-1.846.673-.308,1.223-.46,1.548-1.183.234-.522.147-1.122.437-1.636a1.9,1.9,0,0,1,.2-.283c.012-.015.027-.027.039-.042.523-.595,1.345-.91,1.686-1.67a3.288,3.288,0,0,0-.078-2.239c-.488-1.707,1.617-2.886,0-4.585-1.074-1.129-1.624-2.5-2.763-3.26a3.386,3.386,0,0,0-1.633-.564c-1.6-.144-2.95,1.127-4.537,1.114-.8-.007-1.181-.334-1.842.285-.6.559-.655,1.486-1.315,2.009-.373.3-.812.51-1.024.994-.291.664.174,1.173-.141,1.783-.225.438-.706.739-.884,1.188-.278.7.2,1.37.141,2.074-.027.314-.295.576-.289.887.017,1,1.078,1.273,1.484,2.063.37.72-.1,1.488.161,2.216.238.67,1.18,1.281,1.717,1.745a1.634,1.634,0,0,0,.743.428A6.635,6.635,0,0,0,294.7,160.1Zm-1.6-10.227c.438-1.185.306-2.032,1.279-2.907a3.621,3.621,0,0,1,2.141-.806c.7-.147.791-.405,1.286-.862,1.188-1.1,2.286-.242,3.344.667a3.085,3.085,0,0,1,.987,3.645c-.55,1.086-.769,2.815-1.576,3.718-.786.879-1.869.914-2.382,2.029-.466,1.013-.723,2.209-1.956,2.588-1.906.586-4.381-3.166-4.509-4.788C291.616,151.889,292.689,150.986,293.1,149.871Z"></path>
  <path class="cls-9" d="M296.224,157.943c1.234-.379,1.49-1.575,1.956-2.588.513-1.115,1.6-1.15,2.382-2.029.808-.9,1.026-2.631,1.576-3.718a3.085,3.085,0,0,0-.987-3.645c-1.058-.909-2.156-1.765-3.344-.667-.495.457-.591.714-1.286.862a3.621,3.621,0,0,0-2.141.806c-.973.875-.841,1.723-1.279,2.907-.412,1.115-1.486,2.018-1.386,3.284C291.843,154.777,294.318,158.529,296.224,157.943Zm.542-1.725c-.308.477-1.082.344-.8-.216.245-.487,1.131-.246.856.183Zm4.213-9.22c.409,0,.438.807.158,1.1C300.757,147.893,300.219,147,300.979,147Zm-2.236,4.755a.58.58,0,1,1-1.153-.021A.58.58,0,0,1,298.744,151.752Zm-2.85-4.177c.167-.711.96-.452,1.034.2C296.618,148.224,295.744,148.211,295.894,147.576Zm-2.33,4.884c.44-.414,1.179.311.65.69l-.166.1C293.537,153.768,293.227,152.777,293.564,152.46Z"></path>
  <path class="cls-7" d="M301.137,148.094c.28-.29.251-1.1-.158-1.1C300.219,147,300.757,147.893,301.137,148.094Z"></path>
  <path class="cls-7" d="M298.744,151.752a.579.579,0,0,0-1.153-.021A.579.579,0,1,0,298.744,151.752Z"></path>
  <path class="cls-7" d="M296.928,147.781c-.074-.657-.867-.916-1.034-.2C295.744,148.211,296.618,148.224,296.928,147.781Z"></path>
  <path class="cls-7" d="M295.966,156c-.282.56.492.693.8.216l.055-.034C297.1,155.755,296.211,155.514,295.966,156Z"></path>
  <path class="cls-7" d="M294.048,153.251l.166-.1c.529-.379-.21-1.1-.65-.69C293.227,152.777,293.537,153.768,294.048,153.251Z"></path>
  <path class="cls-9" d="M344.059,191.866c-.055.538-.791.094-.892-.2l.064.011a.371.371,0,0,1,.045-.076l-1.738.62c5.364,3.121,13.538,8.356,17.478,10.552,3.088,1.72,6.112,3.573,9.26,5.325,1.829,1.018,3.58,2.462,5.582,3.7a6.629,6.629,0,0,1-.4-.975c-.28-.692-1.016-1.018-1.229-1.712-.319-1.037.459-2.591.516-3.705a2.437,2.437,0,0,1,.529-1.875c.4-.41.988-.55,1.359-1.009a1.891,1.891,0,0,0,.191-.288c.007-.018.016-.034.024-.052.36-.706.35-1.586.931-2.183a3.288,3.288,0,0,1,2.11-.753c1.766-.176,2.086-2.567,4.262-1.691,1.353.545,2.736.578,3.832,1.217-3.455-2.258-10.453-5.728-13.815-7.767-2.573-1.56-6.291-3.8-10.194-6.082l-18.257,6.516A.422.422,0,0,1,344.059,191.866Zm30.971,2.773c.245-.257.979-.175.8.334s-.8.029-.874-.281Zm-2.1,6.469.011-.064a.487.487,0,0,1,.92.305A.481.481,0,1,1,372.934,201.109Zm-1.308-8.827c.289-.449,1.388.472.764.924C371.835,193.608,371.328,192.744,371.626,192.282Zm-1.885,10.513c-.337.41-1.023,0-.952-.493C369.159,202.1,370.106,202.35,369.741,202.795Zm-2.085-8.01c.547.075,1.054.894.193,1.274C367.729,195.793,366.769,194.663,367.657,194.785ZM365.8,204.808c.5-.289,1.617.623.922,1.148C366,206.5,365.693,205.3,365.8,204.808Zm-1.843-16.8c.467-.731,1.293.282,1.04.77C364.7,189.344,363.459,188.784,363.955,188.009Zm-.17,12.228c.547.075,1.054.894.193,1.274C363.856,201.245,362.9,200.115,363.784,200.237Zm-1.558-9.663c.286-.116,1.262.509.74.986C362.664,191.836,361.22,190.983,362.227,190.574Zm-2.307,10.614c-.105.6-.782.293-.678-.264l-.022.128C359.212,200.375,360.012,200.663,359.919,201.188Zm-.3-13.66c.19.925-1.06.358-1.284-.09C357.995,186.75,359.513,186.989,359.624,187.528Zm-2.056,7.247c.469-.254,1.359.335.772.858C357.935,195.994,356.765,195.21,357.568,194.775Zm-1.756-6c-.228.87-1.132.013-1.158-.527C354.615,187.466,355.991,188.1,355.812,188.778Zm-3.148,2.148c.286-.116,1.262.509.74.986C353.1,192.187,351.658,191.334,352.665,190.926Zm-.6,5.154.235-.222c.3-.335.8.4.466.756S351.7,196.575,352.062,196.079Zm-4-3.116.022-.128c.4-.232,1.043.219.793.679C348.59,194.048,347.884,193.475,348.066,192.963Z"></path>
  <path class="cls-7" d="M362.967,191.56c.522-.476-.454-1.1-.74-.986C361.22,190.983,362.664,191.836,362.967,191.56Z"></path>
  <path class="cls-7" d="M353.4,191.911c.522-.476-.454-1.1-.74-.986C351.658,191.334,353.1,192.187,353.4,191.911Z"></path>
  <path class="cls-7" d="M367.657,194.785c-.888-.122.072,1.008.193,1.274C368.711,195.679,368.2,194.86,367.657,194.785Z"></path>
  <path class="cls-7" d="M358.34,195.633c.588-.523-.3-1.112-.772-.858C356.765,195.21,357.935,195.994,358.34,195.633Z"></path>
  <path class="cls-7" d="M363.784,200.237c-.887-.122.072,1.008.193,1.274C364.838,201.132,364.331,200.313,363.784,200.237Z"></path>
  <path class="cls-7" d="M355.812,188.778c.179-.683-1.2-1.312-1.158-.527C354.681,188.79,355.584,189.648,355.812,188.778Z"></path>
  <path class="cls-7" d="M359.624,187.528c-.11-.539-1.629-.778-1.284-.09C358.563,187.886,359.813,188.453,359.624,187.528Z"></path>
  <path class="cls-7" d="M364.995,188.779c.253-.488-.573-1.5-1.04-.77C363.459,188.784,364.7,189.344,364.995,188.779Z"></path>
  <path class="cls-7" d="M372.39,193.206c.624-.452-.475-1.373-.764-.924S371.835,193.608,372.39,193.206Z"></path>
  <path class="cls-7" d="M375.829,194.974c.18-.509-.554-.591-.8-.334l-.075.053C375.028,195,375.651,195.477,375.829,194.974Z"></path>
  <path class="cls-7" d="M373.865,201.351a.487.487,0,0,0-.92-.305l-.011.064A.481.481,0,1,0,373.865,201.351Z"></path>
  <path class="cls-7" d="M374.83,202.232c.009-.017.016-.035.024-.052C374.845,202.2,374.837,202.214,374.83,202.232Z"></path>
  <path class="cls-7" d="M369.741,202.795c.365-.445-.582-.69-.952-.493C368.718,202.8,369.4,203.2,369.741,202.795Z"></path>
  <path class="cls-7" d="M366.719,205.956c.7-.524-.417-1.437-.922-1.148C365.693,205.3,366,206.5,366.719,205.956Z"></path>
  <path class="cls-7" d="M359.219,201.052l.022-.128c-.1.557.573.861.678.264C360.012,200.663,359.212,200.375,359.219,201.052Z"></path>
  <path class="cls-7" d="M352.763,196.613c.337-.356-.163-1.09-.466-.756l-.235.222C351.7,196.575,352.437,196.957,352.763,196.613Z"></path>
  <path class="cls-7" d="M343.167,191.662c.1.3.837.742.892.2a.422.422,0,0,0-.336-.429l-.447.16a.371.371,0,0,0-.045.076Z"></path>
  <path class="cls-7" d="M348.88,193.515c.251-.46-.393-.911-.793-.679l-.022.128C347.884,193.475,348.59,194.048,348.88,193.515Z"></path>
  <path class="cls-3" d="M377.9,199.244a3.288,3.288,0,0,0-2.11.753c-.581.6-.571,1.477-.931,2.183-.009.017-.015.035-.024.052a1.891,1.891,0,0,1-.191.288c-.371.459-.961.6-1.359,1.009a2.437,2.437,0,0,0-.529,1.875c-.057,1.114-.835,2.668-.516,3.705.213.694.949,1.02,1.229,1.712a6.629,6.629,0,0,0,.4.975,1.633,1.633,0,0,0,.672.533,5.658,5.658,0,0,0,2.255.953c.773-.028,1.314-.745,2.119-.667.884.086,1.525.973,2.465.619.292-.11.436-.456.718-.6.632-.315,1.433-.118,1.979-.633.352-.332.454-.889.778-1.26.452-.517,1.1-.273,1.606-.788a2.8,2.8,0,0,0,.547-1.319c.243-.806,1.084-1.2,1.383-1.963.332-.843-.112-1.076-.414-1.818-.6-1.471.088-3.19-.637-4.628a3.369,3.369,0,0,0-1.343-1.46c-1.1-.639-2.479-.672-3.832-1.217C379.981,196.677,379.661,199.068,377.9,199.244Zm8.181,3.23c-.242.628-.446.813-.327,1.513a3.621,3.621,0,0,1,.04,2.288c-.455,1.227-1.291,1.417-2.231,2.261-.884.794-1.328,2.125-2.542,2.5-1.555.479-5.955-.439-6.113-2.427-.1-1.286.915-1.966,1.684-2.772.848-.888.481-1.907,1.008-2.962.541-1.083,2.068-1.924,2.875-2.836a3.085,3.085,0,0,1,3.753-.426C385.458,200.26,386.658,200.965,386.076,202.474Z"></path>
  <path class="cls-9" d="M384.223,199.611a3.085,3.085,0,0,0-3.753.426c-.807.911-2.333,1.752-2.875,2.836-.527,1.055-.161,2.074-1.008,2.962-.77.807-1.787,1.486-1.684,2.772.158,1.988,4.558,2.906,6.113,2.427,1.213-.374,1.657-1.7,2.542-2.5.94-.844,1.776-1.034,2.231-2.261a3.621,3.621,0,0,0-.04-2.288c-.119-.7.085-.885.327-1.513C386.658,200.965,385.458,200.26,384.223,199.611Zm-.9.541c.277.708-.751.537-1.078.258C382.413,200.043,383.177,199.772,383.325,200.152Zm-7.018,7.315.011-.064c.3-.414.848.321.485.728C376.387,208.6,375.978,207.93,376.307,207.467Zm3.422-3.484a.579.579,0,0,1,.444,1.064A.579.579,0,1,1,379.729,203.983Zm1.252,5.076c-.171.43-1.206.507-.914-.159l.033-.191C380.257,208.078,381.2,208.5,380.981,209.059Zm3.681-3.966c-.535.373-.87-.435-.572-.886C384.729,204.034,385.262,204.675,384.662,205.093Z"></path>
  <path class="cls-7" d="M382.247,200.41c.327.279,1.355.451,1.078-.258C383.177,199.772,382.413,200.043,382.247,200.41Z"></path>
  <path class="cls-7" d="M379.729,203.983a.58.58,0,1,0,.444,1.064A.58.58,0,0,0,379.729,203.983Z"></path>
  <path class="cls-7" d="M384.09,204.207c-.3.451.036,1.259.572.886C385.262,204.675,384.729,204.034,384.09,204.207Z"></path>
  <path class="cls-7" d="M376.318,207.4l-.011.064c-.329.462.08,1.133.5.664C377.166,207.724,376.615,206.99,376.318,207.4Z"></path>
  <path class="cls-7" d="M380.1,208.709l-.033.191c-.292.665.744.588.914.159C381.2,208.5,380.257,208.078,380.1,208.709Z"></path>
  <path class="cls-9" d="M331.95,142.142a5.446,5.446,0,0,0-4.24,3.05c-1.14,2.456-.8,5.4.018,8.461a10.1,10.1,0,0,0,1.709,3.577,3.076,3.076,0,0,0,2.773,1.183c5.229-.542,18.342-.607,23.793-1,3.525-.253,7.071-.362,10.664-.622,2.088-.151,4.344.1,6.7.037a6.633,6.633,0,0,1-.865-.6c-.613-.425-1.407-.294-1.966-.758-.835-.693-1.036-2.419-1.6-3.382-.373-.639-.735-1.08-.585-1.858.109-.561.525-1,.584-1.589a1.893,1.893,0,0,0,0-.345c0-.019-.006-.038-.008-.057-.086-.787-.576-1.518-.418-2.336a3.288,3.288,0,0,1,1.352-1.787c1.381-1.115.338-3.29,2.638-3.75,1.43-.286,2.6-1.017,3.872-1.082-4.127,0-11.883.939-15.812,1.076C353.4,140.612,338.736,141.214,331.95,142.142Zm27.513,11.5c-.247-.157-1.669-.576-.86-.96C359.1,152.448,359.975,152.855,359.463,153.644Zm-7.937-1.827c-.141.523-1.549.509-1.116-.295C350.663,151.054,351.731,151.058,351.526,151.818Zm-19.621,5.376c-.2.581-1.327-.048-1.509-.341C330.666,156.519,332.107,156.614,331.905,157.194Zm-1.553-7.267c.253-.469,1.321-.465,1.116.295C331.327,150.744,329.919,150.73,330.353,149.926Zm4.254-7.253c.254-.4,1.585-.067,1.016.552C335.279,143.6,334.254,143.221,334.607,142.673Zm4.125,3.4c.5-.236,1.372.17.86.96C339.344,146.882,337.923,146.462,338.732,146.078Zm6.922,1.391c.286.853-.94.631-1.258.194C343.934,147.028,345.43,146.8,345.654,147.469Zm-17.182-1.212c.632-.487.889.484.528,1.049C328.574,147.211,327.939,146.667,328.472,146.257Zm1.129,6.969c-.427-.1-1.061-.639-.528-1.049C329.7,151.69,329.961,152.661,329.6,153.226Zm7.058,3.587.059-.026c-.12-.475.6-.672.8-.292C337.766,156.975,336.907,157.006,336.659,156.813Zm4.81-1.6-.052-.119c.208-.413.992-.389,1.035.133C342.5,155.836,341.6,155.743,341.469,155.216Zm5.05.416.075-.315c.07-.446.891-.106.8.377C347.314,156.161,346.489,156.244,346.519,155.632Zm8.66.117.052.119c-.377-.562.45-.759.66-.27C356.131,156.155,355.4,156.272,355.18,155.749Zm-9.821-4.34c-.1.4-1.777.475-1.159-.419C344.375,150.737,345.534,150.725,345.358,151.409Zm18.834,4.45c-.305.851-1.22.011-1.4-.455C363.056,154.885,364.487,155.039,364.193,155.859Zm-.272-4.191c.2-.367,1.128-.681,1.067-.109C364.931,152.086,364.134,152.123,363.921,151.668Zm3.724-3.577a.481.481,0,1,1-.911.308l-.026-.059A.487.487,0,0,1,367.645,148.09Zm-2.7-6.252c.064-.349.723-.683.852-.159s-.654.464-.885.244Zm-2.994.248c-.244.64-1.141.2-1.145-.354C360.8,141.2,362.221,141.366,361.947,142.086ZM358.854,146c.5-.237,1.372.17.86.96C359.466,146.8,358.044,146.386,358.854,146Zm-5.519-3.565c.064.634-1.281.846-1.292-.074C352.034,141.5,353.279,141.89,353.335,142.437ZM352,145.456c.176-.254,1.335-.266,1.159.419C353.061,146.272,351.386,146.349,352,145.456Zm-3.846-1.121c.666.67-.691.881-1.123.629C346.368,144.577,347.77,143.945,348.157,144.335ZM343,142.742c.254-.4,1.585-.067,1.016.552C343.671,143.667,342.646,143.29,343,142.742Z"></path>
  <path class="cls-7" d="M328.472,146.257c-.533.41.1.954.528,1.049C329.361,146.741,329.1,145.77,328.472,146.257Z"></path>
  <path class="cls-7" d="M335.622,143.225c.569-.619-.762-.947-1.016-.552C334.254,143.221,335.279,143.6,335.622,143.225Z"></path>
  <path class="cls-7" d="M353.163,145.875c.176-.685-.983-.673-1.159-.419C351.386,146.349,353.061,146.272,353.163,145.875Z"></path>
  <path class="cls-7" d="M344.2,150.991c-.618.893,1.057.816,1.159.419C345.534,150.725,344.375,150.737,344.2,150.991Z"></path>
  <path class="cls-7" d="M338.732,146.078c-.809.384.612.8.86.96C340.1,146.249,339.231,145.842,338.732,146.078Z"></path>
  <path class="cls-7" d="M344.014,143.294c.57-.619-.762-.947-1.016-.552C342.646,143.29,343.671,143.667,344.014,143.294Z"></path>
  <path class="cls-7" d="M331.468,150.221c.2-.76-.863-.764-1.116-.295C329.919,150.73,331.327,150.744,331.468,150.221Z"></path>
  <path class="cls-7" d="M329.072,152.177c-.533.41.1.954.528,1.049C329.961,152.661,329.7,151.69,329.072,152.177Z"></path>
  <path class="cls-7" d="M359.713,146.961c.512-.789-.361-1.2-.86-.96C358.044,146.386,359.466,146.8,359.713,146.961Z"></path>
  <path class="cls-7" d="M350.41,151.523c-.433.8.975.818,1.116.295C351.731,151.058,350.663,151.054,350.41,151.523Z"></path>
  <path class="cls-7" d="M358.6,152.684c-.809.384.613.8.86.96C359.975,152.855,359.1,152.448,358.6,152.684Z"></path>
  <path class="cls-7" d="M345.654,147.469c-.224-.669-1.72-.441-1.258.194C344.715,148.1,345.941,148.322,345.654,147.469Z"></path>
  <path class="cls-7" d="M347.034,144.964c.433.252,1.789.041,1.123-.629C347.77,143.945,346.368,144.577,347.034,144.964Z"></path>
  <path class="cls-7" d="M353.335,142.437c-.056-.547-1.3-.941-1.292-.074C352.054,143.283,353.4,143.071,353.335,142.437Z"></path>
  <path class="cls-7" d="M361.947,142.086c.274-.72-1.149-.888-1.145-.354C360.806,142.282,361.7,142.726,361.947,142.086Z"></path>
  <path class="cls-7" d="M365.792,141.68c-.128-.524-.787-.19-.852.159l-.034.085C365.138,142.144,365.92,142.2,365.792,141.68Z"></path>
  <path class="cls-7" d="M367.645,148.09a.487.487,0,0,0-.937.249l.026.059A.481.481,0,1,0,367.645,148.09Z"></path>
  <path class="cls-7" d="M368.927,148.241c0,.019,0,.038.008.057C368.933,148.279,368.929,148.261,368.927,148.241Z"></path>
  <path class="cls-7" d="M364.987,151.558c.061-.572-.865-.258-1.067.109C364.134,152.123,364.931,152.086,364.987,151.558Z"></path>
  <path class="cls-7" d="M362.792,155.4c.18.465,1.1,1.306,1.4.455C364.487,155.039,363.056,154.885,362.792,155.4Z"></path>
  <path class="cls-7" d="M355.231,155.868l-.052-.119c.218.523.951.406.712-.151C355.681,155.108,354.855,155.306,355.231,155.868Z"></path>
  <path class="cls-7" d="M346.594,155.317l-.075.315c-.031.613.795.529.879.062C347.485,155.211,346.664,154.871,346.594,155.317Z"></path>
  <path class="cls-7" d="M331.905,157.194c.2-.58-1.24-.674-1.509-.341C330.578,157.146,331.7,157.774,331.905,157.194Z"></path>
  <path class="cls-7" d="M336.718,156.787l-.059.026c.248.194,1.107.162.858-.318C337.32,156.115,336.6,156.312,336.718,156.787Z"></path>
  <path class="cls-7" d="M341.418,155.1l.052.119c.128.528,1.033.62.983.015C342.41,154.708,341.625,154.684,341.418,155.1Z"></path>
  <path class="cls-3" d="M369.861,144.119a3.288,3.288,0,0,0-1.352,1.787c-.158.818.332,1.548.418,2.336,0,.019.007.038.008.057a1.893,1.893,0,0,1,0,.345c-.059.587-.475,1.028-.584,1.589-.151.778.211,1.219.585,1.858.563.963.764,2.689,1.6,3.382.559.464,1.353.333,1.966.758a6.633,6.633,0,0,0,.865.6,1.634,1.634,0,0,0,.854.077,5.657,5.657,0,0,0,2.409-.439c.631-.446.691-1.343,1.407-1.719.787-.413,1.809-.022,2.4-.833.184-.252.115-.62.274-.892.356-.61,1.134-.884,1.308-1.615.112-.47-.107-.992-.04-1.48.094-.68.767-.829.911-1.54a2.8,2.8,0,0,0-.265-1.4c-.238-.808.248-1.6.081-2.4-.184-.887-.684-.838-1.342-1.294-1.305-.9-1.675-2.716-3.069-3.522a3.369,3.369,0,0,0-1.923-.485c-1.267.066-2.442.8-3.872,1.082C370.2,140.829,371.242,143,369.861,144.119Zm8.612-1.783c.141.658.072.924.556,1.445.612.659,1.067.93,1.287,1.892.292,1.276-.3,1.893-.627,3.114-.3,1.149.054,2.505-.756,3.483-1.038,1.253-5.221,2.9-6.443,1.321-.791-1.02-.312-2.146-.111-3.242.222-1.207-.643-1.859-.78-3.03-.141-1.2.675-2.743.85-3.947a3.085,3.085,0,0,1,2.905-2.413C376.744,140.823,378.134,140.756,378.474,142.337Z"></path>
  <path class="cls-9" d="M372.45,143.371c-.175,1.2-.991,2.744-.85,3.947.137,1.172,1,1.823.78,3.03-.2,1.1-.68,2.222.111,3.242,1.222,1.576,5.4-.068,6.443-1.321.81-.978.452-2.334.756-3.483.323-1.221.919-1.838.627-3.114-.22-.962-.675-1.233-1.287-1.892-.484-.521-.414-.787-.556-1.445-.34-1.581-1.73-1.513-3.118-1.378A3.085,3.085,0,0,0,372.45,143.371Zm.59,8.5-.026-.059c.022-.509.885-.2.805.343C373.727,152.771,373.018,152.435,373.04,151.867Zm5.687-6.565c-.243.605-.966.113-.964-.428C378.2,144.38,379,144.625,378.727,145.3Zm-.905,5.335c.093.453-.731,1.085-.852.368l-.077-.178C376.679,150.214,377.7,150.046,377.822,150.638Zm-2.874-2.913a.58.58,0,1,1-.955-.647A.58.58,0,0,1,374.948,147.725ZM374.9,141.9c.62.441-.334.861-.76.807C374.078,142.311,374.568,141.666,374.9,141.9Z"></path>
  <path class="cls-7" d="M374.9,141.9c-.333-.237-.823.408-.76.807C374.567,142.763,375.521,142.344,374.9,141.9Z"></path>
  <path class="cls-7" d="M373.993,147.078a.58.58,0,1,0,.955.647A.58.58,0,0,0,373.993,147.078Z"></path>
  <path class="cls-7" d="M378.727,145.3c.272-.678-.525-.922-.964-.428C377.761,145.416,378.484,145.908,378.727,145.3Z"></path>
  <path class="cls-7" d="M373.014,151.808l.026.059c-.022.567.687.9.779.284C373.9,151.612,373.036,151.3,373.014,151.808Z"></path>
  <path class="cls-7" d="M376.97,151.006c.12.716.944.085.852-.368-.121-.592-1.143-.424-.929.19Z"></path>
  <path class="cls-7" d="M318.479,171.918c.325.389,1.366.063,1.042-.5C319.286,171.01,317.94,171.272,318.479,171.918Z"></path>
  <path class="cls-7" d="M300.829,173.7c.082.4,1.752.561,1.178-.361C301.844,173.081,300.687,173.012,300.829,173.7Z"></path>
  <path class="cls-7" d="M308.353,179.615c.082.4,1.752.561,1.178-.361C309.369,178.991,308.211,178.923,308.353,179.615Z"></path>
  <path class="cls-7" d="M314.327,175.532c.255-.144,1.7-.493.906-.917C314.747,174.355,313.854,174.718,314.327,175.532Z"></path>
  <path class="cls-7" d="M310.094,171.575c.325.389,1.366.063,1.042-.5C310.9,170.667,309.555,170.929,310.094,171.575Z"></path>
  <path class="cls-7" d="M295.139,173.552c-.486-.261-1.378.1-.906.917C294.488,174.324,295.929,173.976,295.139,173.552Z"></path>
  <path class="cls-7" d="M302.173,179.72c.115.53,1.522.584,1.129-.24C303.072,179,302.006,178.952,302.173,179.72Z"></path>
  <path class="cls-7" d="M295.062,180.239c-.486-.261-1.378.1-.906.916C294.41,181.012,295.851,180.663,295.062,180.239Z"></path>
  <path class="cls-7" d="M309.5,175.92c.493-.611-.99-.912-1.247-.255C307.923,176.5,309.158,176.341,309.5,175.92Z"></path>
  <path class="cls-7" d="M305.9,172.412c-.7.636.647.914,1.091.683C307.679,172.741,306.311,172.041,305.9,172.412Z"></path>
  <path class="cls-7" d="M302.12,170.252c.052-.866-1.211-.533-1.294.01C300.73,170.892,302.064,171.17,302.12,170.252Z"></path>
  <path class="cls-7" d="M292.241,169.49c.212.651,1.13.252,1.161-.3C293.433,168.659,292,168.758,292.241,169.49Z"></path>
  <path class="cls-7" d="M289.293,169.182l-.029-.087c-.047-.352-.689-.717-.843-.2S289.051,169.391,289.293,169.182Z"></path>
  <path class="cls-7" d="M286.256,175.207a.481.481,0,1,0,.9.353l.029-.058A.487.487,0,0,0,286.256,175.207Z"></path>
  <path class="cls-7" d="M284.968,175.3c0,.019-.008.038-.011.057C284.962,175.333,284.965,175.315,284.968,175.3Z"></path>
  <path class="cls-7" d="M289.8,178.963c-.184-.377-1.093-.735-1.06-.162C288.771,179.331,289.565,179.407,289.8,178.963Z"></path>
  <path class="cls-7" d="M289.323,183.136c.263.865,1.218.07,1.421-.386C290.506,182.219,289.07,182.3,289.323,183.136Z"></path>
  <path class="cls-7" d="M297.627,183.283c-.266.544.46.7.7.186l-.057.116C298.677,183.042,297.862,182.8,297.627,183.283Z"></path>
  <path class="cls-7" d="M306.106,183.794c.061.47.881.595.881-.019l-.059-.318C306.879,183.008,306.043,183.308,306.106,183.794Z"></path>
  <path class="cls-7" d="M311.875,183.252a.531.531,0,0,0-.807.322.348.348,0,0,0,.3.422c.064-.07.129-.146.194-.233A3.264,3.264,0,0,0,311.875,183.252Z"></path>
  <path class="cls-3" d="M283.009,182.441c.868-.651,1.154-2.365,1.763-3.3.4-.62.787-1.043.675-1.827-.081-.566-.475-1.027-.505-1.616a1.89,1.89,0,0,1,.016-.345c0-.019.008-.038.011-.057.124-.782.65-1.488.532-2.312a3.288,3.288,0,0,0-1.263-1.851c-1.324-1.181-.176-3.3-2.451-3.875-1.414-.356-2.552-1.143-3.814-1.271a3.369,3.369,0,0,0-1.945.39c-1.432.736-1.89,2.529-3.238,3.367-.68.422-1.177.349-1.4,1.226-.205.792.241,1.606-.036,2.4a2.8,2.8,0,0,0-.334,1.388c.109.716.774.9.835,1.582.044.491-.2,1-.112,1.477.138.738.9,1.05,1.228,1.677.145.279.059.644.23.9.552.84,1.592.5,2.358.95.7.411.713,1.309,1.321,1.786a5.658,5.658,0,0,0,2.384.557,1.634,1.634,0,0,0,.857-.035,6.634,6.634,0,0,0,.894-.555C281.641,182.707,282.429,182.876,283.009,182.441Zm-8.233-3.612c-.761-1.016-.337-2.354-.584-3.516-.263-1.235-.827-1.881-.473-3.141.267-.95.735-1.2,1.378-1.826.509-.5.452-.765.626-1.416.417-1.562,1.8-1.427,3.182-1.224a3.085,3.085,0,0,1,2.784,2.552c.116,1.212.856,2.79.656,3.984-.195,1.163-1.091,1.772-.928,2.988.148,1.105.57,2.253-.269,3.233C279.849,181.978,275.752,180.131,274.776,178.829Z"></path>
  <path class="cls-9" d="M281.147,180.464c.84-.98.417-2.128.269-3.233-.163-1.217.733-1.825.928-2.988.2-1.195-.54-2.772-.656-3.984a3.085,3.085,0,0,0-2.784-2.552c-1.38-.2-2.766-.338-3.182,1.224-.174.651-.117.92-.626,1.416-.643.628-1.112.877-1.378,1.826-.354,1.26.21,1.905.473,3.141.248,1.163-.177,2.5.584,3.516C275.752,180.131,279.849,181.978,281.147,180.464Zm-5.823-8.584c-.239-.69.569-.9.984-.38C276.283,172.04,275.537,172.5,275.324,171.88Zm1.561,5.609-.086.174c-.155.71-.947.038-.832-.41C276.117,176.668,277.129,176.886,276.885,177.489Zm3.005,1.472c-.053-.543.824-.812.821-.3l-.029.058C280.676,179.283,279.951,179.585,279.89,178.961Zm-.578-10.289c.344-.22.8.448.72.843C279.6,169.548,278.671,169.082,279.312,168.672Zm.653,5.214a.58.58,0,1,1-.985.6A.58.58,0,0,1,279.965,173.885Z"></path>
  <path class="cls-7" d="M280.032,169.515c.082-.395-.376-1.063-.72-.843C278.671,169.082,279.6,169.548,280.032,169.515Z"></path>
  <path class="cls-7" d="M278.98,174.485a.58.58,0,1,0,.985-.6A.58.58,0,0,0,278.98,174.485Z"></path>
  <path class="cls-7" d="M276.307,171.5c-.414-.516-1.223-.311-.984.38C275.537,172.5,276.283,172.04,276.307,171.5Z"></path>
  <path class="cls-7" d="M280.682,178.716l.029-.058c0-.509-.874-.24-.821.3C279.951,179.585,280.676,179.283,280.682,178.716Z"></path>
  <path class="cls-7" d="M275.966,177.253c-.115.448.677,1.12.832.41l.086-.174C277.129,176.886,276.117,176.668,275.966,177.253Z"></path>
  <path class="cls-3" d="M340.077,189.193c-.86.218-1.719.459-2.577.691l3.728,2.444.31-.111,1.738-.62.447-.16,18.257-6.516.023-.008-2.141-1.468C353.883,185.069,344.494,188.074,340.077,189.193Z"></path>
  <path class="cls-3" d="M316.969,176.536l.866,1.037c4.084-1.091,9.55-2.255,12.554-3.135,1.727-.506,3.911-1.14,6.32-1.826l-.559-.51-1.762-1.609-.821-.749-.028.011Z"></path>
  <path class="cls-9" d="M358.106,167.131c-5.042.938-14.218,3.439-21.4,5.482-2.409.686-4.594,1.32-6.32,1.826-3,.88-8.47,2.044-12.554,3.135l-.866-1.037,16.57-6.78c-5.694-4.89-15.022-12.038-19.944-15.765-3.2-2.423-9.193-7.83-12.529-10.134l0,.008c1.139.761,1.689,2.131,2.763,3.26,1.616,1.7-.489,2.878,0,4.585a3.288,3.288,0,0,1,.078,2.239c-.341.76-1.162,1.075-1.686,1.67-.013.014-.025.028-.039.042a1.9,1.9,0,0,0-.2.283c-.29.514-.2,1.114-.437,1.636-.325.723-.875.876-1.548,1.183-1.014.464-2.172,1.76-3.254,1.846-.724.058-1.3-.507-2.044-.511a6.635,6.635,0,0,1-1.052-.009c1.891,1.4,3.878,2.5,5.5,3.825,2.092,1.71,4.2,3.344,6.282,4.993-4.462-.444-8.74-.82-11.714-1.07-3.918-.33-11.618-1.643-15.74-1.85,1.262.128,2.4.915,3.814,1.271,2.274.572,1.126,2.694,2.451,3.875a3.288,3.288,0,0,1,1.263,1.851c.118.824-.407,1.53-.532,2.312,0,.019-.006.038-.011.057a1.89,1.89,0,0,0-.016.345c.03.589.424,1.05.505,1.616.112.784-.271,1.208-.675,1.827-.609.934-.895,2.648-1.763,3.3-.581.436-1.368.266-2,.661a6.634,6.634,0,0,1-.894.555c2.349.175,4.613.039,6.692.292,3.576.436,7.112.718,10.621,1.144,3.031.368,8.454.751,13.558,1.157a2.424,2.424,0,0,1-.291-.835c-.09-.778.264-.967.673-1.417a.348.348,0,0,1-.3-.422.531.531,0,0,1,.807-.322c.607-1.216.56-2.747,1.493-3.8,1.63-1.833,3.549-.992,5.689-1.255,2.328-.287,2.022,2.106,3.683,2.731a3.288,3.288,0,0,1,1.845,1.271c.407.726.172,1.574.338,2.349,0,.019.008.037.01.057a1.887,1.887,0,0,0,.11.328c.24.539.774.826,1.054,1.325a2.438,2.438,0,0,1,.029,1.948c-.231,1.091.121,2.793-.454,3.713-.384.616-1.18.741-1.628,1.338a6.622,6.622,0,0,1-.633.84c2.254-.684,4.317-1.628,6.347-2.141,2.616-.662,5.18-1.381,7.741-2.073.858-.232,1.717-.473,2.577-.691,4.417-1.119,13.806-4.124,19.785-5.749,1.192-.324,2.261-.6,3.114-.786a3.076,3.076,0,0,0,2.26-1.995,10.1,10.1,0,0,0,.5-3.933c-.187-3.167-.789-6.065-2.644-8.038A5.446,5.446,0,0,0,358.106,167.131ZM287.18,175.5l-.029.058a.481.481,0,1,1-.9-.353A.487.487,0,0,1,287.18,175.5Zm1.241-6.606c.154-.517.8-.152.843.2l.029.087C289.051,169.391,288.268,169.407,288.42,168.9Zm.32,9.906c-.033-.574.877-.215,1.06.162C289.565,179.407,288.771,179.331,288.74,178.8Zm.583,4.334c-.254-.833,1.183-.917,1.421-.386C290.542,183.206,289.587,184,289.323,183.136Zm2.918-13.646c-.238-.732,1.191-.831,1.161-.3C293.372,169.742,292.453,170.141,292.241,169.49Zm1.914,11.666c-.473-.814.419-1.177.906-.916C295.851,180.663,294.41,181.012,294.156,181.156Zm.078-6.687c-.473-.814.419-1.177.906-.917C295.929,173.976,294.488,174.324,294.234,174.469Zm16.255-14.594c.036-.94.984-.771,1.255-.29C312.185,160.364,310.781,159.889,310.489,159.875Zm3.9,8.683c.27-.739,1.145-.128,1.082.4C315.364,169.865,314.2,169.067,314.39,168.558Zm-.063,6.974c-.473-.814.419-1.177.906-.917C316.022,175.039,314.582,175.388,314.327,175.532Zm-4.233-3.957c-.539-.646.807-.908,1.042-.5C311.46,171.638,310.418,171.964,310.094,171.575Zm8.385.343c-.539-.646.807-.908,1.042-.5C319.845,171.981,318.8,172.307,318.479,171.918Zm9.677-.691c.441.78-.963.3-1.256.29C326.936,170.577,327.884,170.747,328.156,171.227Zm-1.569-5.183c-.027.651-1.082.369-1.148-.133C325.329,165.076,326.606,165.574,326.587,166.043Zm-3.975,3.219c-.512.174-1.642-.35-.917-.883C322.263,167.962,323.355,169.01,322.611,169.263Zm-1.161-4.886c.542-.1,1.324,1.228.557,1.161C321.509,165.495,320.521,164.542,321.451,164.377Zm-3.142-4.532c.36-.415,1.606-.021,1.1.683C318.87,161.274,317.891,160.326,318.309,159.845Zm-.649,3.235c-.009,1.086-1.334.059-1.189-.325C316.721,162.094,317.662,162.771,317.66,163.08Zm-9.1-11.023c.407-.355.753.3.605.62l-.021.089C308.825,152.813,308.155,152.407,308.557,152.057Zm2.911,2.545c.19-.746,1.451-.065,1.14.37S311.3,155.266,311.468,154.6Zm-4.62,10.882c.036-.94.984-.771,1.255-.29C308.544,165.974,307.14,165.5,306.848,165.484Zm-5.143-.911c.231-.84,1.49-.142,1.407.434C302.7,165.284,301.465,165.445,301.705,164.573Zm1.647-8.34c.463-.331,1.077.32.623.743l-.055.034A.481.481,0,1,1,303.352,156.233Zm.178,4.366c.279-.5.856.287.81.7C303.9,161.551,303.273,161.063,303.53,160.6Zm5.114,8.538a.445.445,0,0,1,.629.166l-.731-.078A.52.52,0,0,1,308.644,169.137Zm-10.37,14.447.057-.116c-.243.511-.97.359-.7-.186C297.862,182.8,298.677,183.042,298.274,183.584Zm3.846-13.332c-.056.918-1.389.64-1.294.01C300.908,169.719,302.172,169.386,302.12,170.252Zm-1.291,3.452c-.142-.692,1.015-.624,1.178-.361C302.581,174.266,300.911,174.106,300.829,173.7Zm1.344,6.016c-.167-.769.9-.721,1.129-.24C303.7,180.3,302.288,180.25,302.173,179.72Zm3.933,4.074c-.063-.487.773-.786.821-.337l.059.318C306.987,184.389,306.167,184.265,306.106,183.794Zm.89-10.7c-.445.23-1.789-.047-1.091-.683C306.311,172.041,307.679,172.741,307,173.1Zm1.255,2.57c.257-.657,1.74-.356,1.247.255C309.158,176.341,307.923,176.5,308.251,175.665Zm.1,3.95c-.142-.692,1.015-.624,1.178-.361C310.105,180.176,308.436,180.017,308.353,179.615Zm47.4-11.144c.507.409-.347,1.089-.791.843C354.226,168.906,355.386,168.176,355.752,168.471ZM352.906,173c.889.11-.329.955-.514,1.182C351.658,173.594,352.359,172.933,352.906,173Zm-17.3,13.7c-.734-.588-.033-1.249.514-1.181C337.01,185.63,335.792,186.476,335.606,186.7Zm-9.513-2.7a.487.487,0,0,1,.968-.058l-.006.064A.481.481,0,1,1,326.093,184Zm7.689-4.747c.889.11-.329.955-.514,1.182C332.533,179.849,333.234,179.188,333.781,179.255Zm14.026-8.08c.507.409-.348,1.089-.791.843C346.281,171.61,347.442,170.88,347.807,171.175Zm.22,5.111c-.165.515-1.259,1.111-1.255.212C346.775,175.792,348.267,175.538,348.027,176.286Zm-4.617-1.976c.245-.492,1.774-.333,1.264.244C344.343,174.928,342.989,175.155,343.411,174.31Zm-3.3,2.274c.868.654-.747,1.107-.969.762C338.761,176.751,339.865,176.4,340.112,176.583Zm-1.01-2.923c.279.876-1.065,1.1-1.2.476C337.78,173.6,338.838,172.834,339.1,173.66Zm-8.513,2.155c.169.523-.543,1.227-.976.7C329.127,175.914,330.425,175.307,330.589,175.815Zm-3.9,1.4.059.07c-.15.282-.875.579-.917.047S326.523,176.907,326.694,177.218Zm3.013,9.241c-.238-.523.74-.517,1.047-.232C330.694,186.727,329.926,186.942,329.706,186.459Zm2.107,3.833c-.537-.686.773-1.281,1.186-.872C332.975,189.918,332.371,191,331.813,190.292Zm8.51-2.81.012-.129c-.042.565-.775.685-.723.081C339.657,186.9,340.5,186.83,340.323,187.482Zm2.244-5.01c-.433-.657.579-1,.966-.631C344.2,182.468,342.865,182.925,342.566,182.472Zm5.137,2.381c-.234-.431.438-1.012.645-.61l.17.275C348.74,185.09,347.93,185.27,347.7,184.853Zm.589-4.708c-.382-.594.722-.948.969-.762C350.129,180.036,348.514,180.49,348.293,180.145Zm4.889,2.39c.044.541-.785.914-.929.323-.124-.509.614-.779.941-.452Zm4.154-.029c.067-.422.815-.462.85.026l.065.006C358.075,182.8,357.25,183.04,357.335,182.506Zm3.769-7.857c-.433-.657.579-1,.967-.631C362.734,174.644,361.4,175.1,361.1,174.649Zm1.426-3.543c-.52-.423-.582-1.425.172-1.162C363.336,170.165,362.9,170.881,362.53,171.106Zm.352,10.3c-.373-.487.965-1.03,1.326-.8C364.127,180.942,363.256,181.893,362.882,181.405Zm.94-4.491c-.52-.423-.582-1.425.172-1.162C364.628,175.973,364.2,176.689,363.822,176.914Z"></path>
  <path class="cls-7" d="M362.7,169.944c-.753-.263-.692.739-.172,1.162C362.9,170.881,363.336,170.165,362.7,169.944Z"></path>
  <path class="cls-7" d="M354.961,169.314c.443.246,1.3-.434.791-.843C355.386,168.176,354.226,168.906,354.961,169.314Z"></path>
  <path class="cls-7" d="M339.143,177.345c.222.345,1.836-.108.969-.762C339.865,176.4,338.761,176.751,339.143,177.345Z"></path>
  <path class="cls-7" d="M349.261,179.383c-.247-.186-1.351.167-.969.762C348.514,180.49,350.129,180.036,349.261,179.383Z"></path>
  <path class="cls-7" d="M352.906,173c-.548-.068-1.249.593-.514,1.182C352.577,173.956,353.8,173.111,352.906,173Z"></path>
  <path class="cls-7" d="M347.017,172.018c.443.246,1.3-.434.791-.843C347.442,170.88,346.281,171.61,347.017,172.018Z"></path>
  <path class="cls-7" d="M361.1,174.649c.3.452,1.63,0,.967-.631C361.683,173.652,360.671,173.992,361.1,174.649Z"></path>
  <path class="cls-7" d="M363.822,176.914c.375-.225.807-.94.172-1.162C363.24,175.488,363.3,176.491,363.822,176.914Z"></path>
  <path class="cls-7" d="M333.781,179.255c-.548-.068-1.249.593-.514,1.182C333.452,180.211,334.67,179.366,333.781,179.255Z"></path>
  <path class="cls-7" d="M342.566,182.472c.3.453,1.63,0,.966-.631C343.145,181.475,342.133,181.815,342.566,182.472Z"></path>
  <path class="cls-7" d="M335.606,186.7c.185-.226,1.4-1.071.514-1.181C335.573,185.453,334.872,186.113,335.606,186.7Z"></path>
  <path class="cls-7" d="M348.027,176.286c.239-.748-1.252-.494-1.255.212C346.769,177.4,347.863,176.8,348.027,176.286Z"></path>
  <path class="cls-7" d="M344.675,174.553c.51-.577-1.019-.736-1.264-.244C342.989,175.155,344.343,174.928,344.675,174.553Z"></path>
  <path class="cls-7" d="M339.1,173.66c-.263-.826-1.322-.061-1.2.476C338.037,174.758,339.381,174.536,339.1,173.66Z"></path>
  <path class="cls-7" d="M330.589,175.815c-.164-.508-1.462.1-.976.7C330.046,177.042,330.758,176.339,330.589,175.815Z"></path>
  <path class="cls-7" d="M326.752,177.288l-.059-.07c-.171-.311-.9-.421-.858.117S326.6,177.57,326.752,177.288Z"></path>
  <path class="cls-7" d="M327.055,184.009l.006-.064a.487.487,0,0,0-.968.058A.481.481,0,1,0,327.055,184.009Z"></path>
  <path class="cls-7" d="M324.924,184.55c0,.019.006.038.01.057C324.931,184.587,324.928,184.569,324.924,184.55Z"></path>
  <path class="cls-7" d="M329.706,186.459c.22.483.987.267,1.047-.232C330.446,185.942,329.468,185.936,329.706,186.459Z"></path>
  <path class="cls-7" d="M331.813,190.292c.558.712,1.162-.374,1.186-.872C332.586,189.01,331.276,189.606,331.813,190.292Z"></path>
  <path class="cls-7" d="M339.611,187.434c-.052.6.681.484.723-.081l-.012.129C340.5,186.83,339.657,186.9,339.611,187.434Z"></path>
  <path class="cls-7" d="M348.348,184.243c-.207-.4-.879.179-.645.61s1.036.237.815-.335Z"></path>
  <path class="cls-7" d="M362.882,181.405c.374.488,1.245-.463,1.326-.8C363.847,180.375,362.509,180.918,362.882,181.405Z"></path>
  <path class="cls-7" d="M358.25,182.538l-.065-.006c-.035-.488-.783-.449-.85-.026C357.25,183.04,358.075,182.8,358.25,182.538Z"></path>
  <path class="cls-7" d="M352.252,182.858c.144.59.973.218.929-.323l.012-.129C352.866,182.079,352.128,182.349,352.252,182.858Z"></path>
  <path class="cls-3" d="M324.045,193.258c.448-.6,1.244-.722,1.628-1.338.575-.92.223-2.622.454-3.713a2.438,2.438,0,0,0-.029-1.948c-.28-.5-.814-.786-1.054-1.325a1.887,1.887,0,0,1-.11-.328c0-.019-.006-.038-.01-.057-.166-.775.069-1.622-.338-2.349a3.288,3.288,0,0,0-1.845-1.271c-1.661-.624-1.356-3.017-3.683-2.731-2.141.264-4.059-.577-5.689,1.255-.934,1.05-.887,2.582-1.493,3.8a3.264,3.264,0,0,1-.313.511c-.065.087-.13.162-.194.233-.409.45-.763.639-.673,1.417a2.424,2.424,0,0,0,.291.835,3.364,3.364,0,0,1,.541,1.417,2.8,2.8,0,0,0,.189,1.415c.36.629,1.046.559,1.349,1.175.218.442.173,1.007.428,1.418.4.639,1.22.654,1.75,1.121.236.208.287.58.54.761.818.584,1.665-.109,2.542.036.8.132,1.137.964,1.876,1.189a5.657,5.657,0,0,0,2.425-.341,1.634,1.634,0,0,0,.787-.342A6.622,6.622,0,0,0,324.045,193.258Zm-7.354-1.738c-1.076-.673-1.163-2.074-1.813-3.069-.691-1.057-1.45-1.456-1.574-2.758a3.621,3.621,0,0,1,.627-2.2c.3-.646.146-.877.073-1.546-.175-1.607,1.166-1.981,2.527-2.289a3.085,3.085,0,0,1,3.517,1.377c.545,1.088,1.8,2.293,2.049,3.48.238,1.155-.378,2.046.212,3.122.536.977,1.344,1.9.915,3.112C322.559,192.628,318.071,192.383,316.692,191.52Z"></path>
  <path class="cls-9" d="M323.223,190.748c.43-1.217-.378-2.135-.915-3.112-.591-1.076.026-1.966-.212-3.122-.244-1.186-1.5-2.391-2.049-3.48a3.085,3.085,0,0,0-3.517-1.377c-1.36.309-2.7.682-2.527,2.289.073.669.222.9-.073,1.546a3.621,3.621,0,0,0-.627,2.2c.124,1.3.883,1.7,1.574,2.758.65.995.737,2.4,1.813,3.069C318.071,192.383,322.559,192.628,323.223,190.748Zm-1.058-1.527-.006.064c.2.532-.368,1.074-.65.514C321.263,189.312,321.985,188.745,322.165,189.221Zm-4.906-8.81c.242-.33.909.129.976.527C317.846,181.123,316.809,181.024,317.259,180.411Zm2.49,4.627c.782.538-.184,1.489-.7.914A.579.579,0,0,1,319.749,185.038Zm-4.272-.906c.172.513-.359,1.207-.781.709C314.224,184.284,314.9,183.8,315.477,184.132Zm2.681,5.571c.111.718-.87.377-.924-.082-.071-.6.952-.762.942-.111Z"></path>
  <path class="cls-7" d="M318.235,180.938c-.066-.4-.734-.856-.976-.527C316.809,181.024,317.846,181.123,318.235,180.938Z"></path>
  <path class="cls-7" d="M319.046,185.953c.52.574,1.485-.376.7-.914A.579.579,0,0,0,319.046,185.953Z"></path>
  <path class="cls-7" d="M315.477,184.132c-.572-.332-1.252.151-.781.709C315.117,185.34,315.649,184.646,315.477,184.132Z"></path>
  <path class="cls-7" d="M322.159,189.285l.006-.064c-.181-.476-.9.092-.656.579C321.791,190.359,322.359,189.817,322.159,189.285Z"></path>
  <path class="cls-7" d="M317.233,189.621c.054.459,1.036.8.924.082l.017-.193C318.185,188.86,317.162,189.021,317.233,189.621Z"></path>
  <path class="cls-3" d="M449.063,30.362c4.457-7.618,3.211-17.887,8.72-24.783-3.682,1.528-7.438,3.1-10.435,5.729-4.786,4.2-7.623,11.384-7.593,17.725C439.79,36.559,445.508,36.437,449.063,30.362Z"></path>
  <path class="cls-3" d="M461.4,72.168c5.191-3.577,9.734-9.976,10.928-16.269.748-3.94.28-7.9-.191-11.774-3.06,8.415-12.025,13.232-16.165,21.2C452.674,71.676,455.243,76.414,461.4,72.168Z"></path>
  <path class="cls-10" d="M406.015,328.506c2.835.369,5.711.662,8.636.831a20.29,20.29,0,0,1-8.635-3.257C406.033,326.881,406.03,327.689,406.015,328.506Z"></path>
  <path class="cls-10" d="M411.567,252.482c2.439.88,4.778,1.69,6.358,2.09-.907-.794-3.5-3.718-5.641-5.8,6.722-4.724,14.131-7.867,22.062-6.183l.026-.04c-7.139-1.233-16.042-2.39-25.548-3.49l.362.857A31.711,31.711,0,0,1,411.567,252.482Z"></path>
  <path class="cls-11" d="M442.21,245.845a24.288,24.288,0,0,0-7.863-3.256c-7.932-1.684-15.34,1.459-22.062,6.183,2.139,2.082,4.734,5.006,5.641,5.8-1.581-.4-3.919-1.211-6.358-2.09a31.711,31.711,0,0,0-2.381-12.565l-.362-.857a44.2,44.2,0,0,0-4.916-9.425c-2.61-3.5-5.782-4.494-9.35-6.724a24.289,24.289,0,0,0-7.863-3.256c-7.932-1.684-15.34,1.459-22.062,6.183,2.139,2.082,4.734,5.006,5.641,5.8-2.193-.555-5.839-1.9-9.2-3.122-2.8,2.244-5.47,4.672-7.991,7.02-5.853,5.453-9.037,13.328-10.72,20.924-.062.282-.117.566-.177.849,3.19-.3,6.874-.459,8.527.2-1.642.734-6.241,2.194-7.926,2.906a12.419,12.419,0,0,1-1.256.442c-1.294,8.182-1.071,16.632,2.39,24.2a46.015,46.015,0,0,1,8.9-3.169c-2.219,1.873-4.769,4.3-7.162,6.48a55.164,55.164,0,0,0,7.769,10.647c3.22-1.348,6.973-3.481,9.725-3.487-1.177,1.778-4.224,5.185-6.674,6.262A21.086,21.086,0,0,0,367,306.4a134.806,134.806,0,0,1-13.969-1.618c-1.847,1.584-3.63,3.216-5.346,4.813-.132.2-.2.309-.2.309l-.109-.007c-5.74,5.446-8.881,13.234-10.546,20.753-.062.282-.117.566-.177.849,3.19-.3,6.874-.459,8.527.2-1.642.734-6.241,2.194-7.926,2.906a12.419,12.419,0,0,1-1.256.442c-1.294,8.182-1.071,16.632,2.39,24.2a46.017,46.017,0,0,1,8.9-3.169c-2.219,1.873-4.769,4.3-7.162,6.48a55.167,55.167,0,0,0,7.769,10.647c3.22-1.348,6.973-3.481,9.725-3.487-1.177,1.778-4.224,5.185-6.674,6.262a21.085,21.085,0,0,0,10.516,4.615,21.79,21.79,0,0,0,4.024.086,36.608,36.608,0,0,0,9.483-2.016c-.288-1.5-1.537-5.014-1.628-6.551.893.71,4.1,3.815,5.287,5.115a37.186,37.186,0,0,0,9.965-6.261,47.045,47.045,0,0,0,5.4-5.972,26.945,26.945,0,0,1-4.275-5.4c1.335-.246,4.723,1.54,6.6,2.1a61.01,61.01,0,0,0,8.145-19.089,52.657,52.657,0,0,0,1.353-9.265c.016-.312.029-.613.045-.921a39.608,39.608,0,0,1-4.157-.729c.718-1.016,2.445-1.706,4.273-2.292.009-.293.029-.6.034-.891.016-.817.018-1.624,0-2.425a20.29,20.29,0,0,0,8.635,3.257,21.79,21.79,0,0,0,4.024.086,36.608,36.608,0,0,0,9.483-2.016c-.288-1.5-1.537-5.014-1.628-6.551.893.71,4.1,3.815,5.287,5.115a37.186,37.186,0,0,0,9.965-6.261,46.929,46.929,0,0,0,5.392-5.985,26.877,26.877,0,0,1-4.263-5.388c1.335-.246,4.724,1.54,6.6,2.1a61.011,61.011,0,0,0,8.145-19.089,52.65,52.65,0,0,0,1.353-9.265c.36-6.867.573-12.722-2.178-19.23-1.486-3.515-2.962-7.178-5.278-10.282C448.95,249.072,445.778,248.075,442.21,245.845ZM411.53,255.2q-.043,1.485-.121,3.023a39.578,39.578,0,0,1-4.157-.729C407.97,256.479,409.7,255.789,411.53,255.2Zm-9.576-27.678a13.73,13.73,0,0,1,1.617,1.708c-.947.812-3.146,2.789-4.04,3.548C399.579,231.486,401.257,228.85,401.954,227.524Zm-42.106,63.414c-7.26-9.507-10.584-28.824-4.825-39.5,5.692-10.547,22.057-26.284,36.247-23.08,7.566,1.709,8.39,8.2,11.345,15.413,2.722,6.637,3.888,14.945,2.209,22.034-1.781,7.526-7.362,13.178-12.169,19.093-3.979,4.9-10.18,10.915-17.088,11.528C370.564,296.876,362.906,294.943,359.848,290.938ZM399.28,340c-1.781,7.526-7.362,13.178-12.169,19.093-3.979,4.9-10.181,10.915-17.088,11.528-5,.444-12.662-1.488-15.719-5.493-7.26-9.507-10.584-28.824-4.825-39.5a54.8,54.8,0,0,1,18.611-19.147,22.94,22.94,0,0,0,2.933,0,36.6,36.6,0,0,0,9.483-2.016c-.288-1.5-1.537-5.014-1.627-6.551.89.707,4.073,3.788,5.271,5.1.4-.178.822-.338,1.218-.528.119.024.239.039.358.066,7.566,1.709,8.39,8.2,11.345,15.413C399.793,324.606,400.959,332.914,399.28,340Zm-5.292-33.03c.048-1.294,1.726-3.93,2.423-5.256a13.725,13.725,0,0,1,1.617,1.708C397.081,304.237,394.882,306.214,393.988,306.972Zm5.575-1.362c-.1-.156-.19-.315-.29-.47.426-.118.834-.227,1.2-.321C400.179,305.07,399.87,305.341,399.562,305.61Zm6.339,18.043a33.092,33.092,0,0,0-.478-3.653,14.811,14.811,0,0,1,5.384-1.54A24.163,24.163,0,0,1,405.9,323.653Zm53.28-45.516q-.043,1.485-.121,3.023a39.6,39.6,0,0,1-4.157-.729C455.622,279.414,457.352,278.724,459.181,278.137Zm-6.706,10.608c-1.781,7.526-7.362,13.178-12.169,19.093-3.979,4.9-10.181,10.915-17.088,11.528-5,.444-12.662-1.488-15.719-5.493-4-5.234-6.8-13.44-7.549-21.54h-.076l-.426-1.622a26.472,26.472,0,0,1-4.187-5.309c1.335-.246,4.724,1.54,6.6,2.1a61.01,61.01,0,0,0,8.145-19.089c.385-1.637.69-3.272.92-4.892,7.625-7.78,18.313-14.407,27.99-12.221,7.566,1.709,8.39,8.2,11.345,15.413C452.988,273.349,454.154,281.656,452.475,288.745Zm-1.252-36.578c-.947.812-3.146,2.789-4.04,3.548.048-1.294,1.726-3.93,2.423-5.256A13.734,13.734,0,0,1,451.223,252.167Z"></path>
  <path class="cls-10" d="M450.266,266.711c-2.955-7.208-3.779-13.7-11.345-15.413-9.677-2.186-20.365,4.441-27.99,12.221-.23,1.62-.535,3.254-.92,4.892a61.01,61.01,0,0,1-8.145,19.089c-1.88-.558-5.268-2.345-6.6-2.1a26.472,26.472,0,0,0,4.187,5.309l.426,1.622h.076c.752,8.1,3.552,16.306,7.549,21.54,3.058,4,10.716,5.937,15.719,5.493,6.907-.613,13.108-6.631,17.088-11.528,4.807-5.915,10.388-11.567,12.169-19.093C454.154,281.656,452.988,273.349,450.266,266.711Zm-3.7,20.452c-2.251,10.554-13.424,25.559-25.224,27.23-11.334,1.606-15.007-12-15.6-22.116l-.078-2.055c-.03-1.567.012-3.008.111-4.233a32.312,32.312,0,0,1,8.232-18.263c4.759-4.93,14.495-11.174,21.7-10.039,6.548,1.031,8.217,4.427,9.948,10.352A43.837,43.837,0,0,1,446.568,287.164Z"></path>
  <path class="cls-11" d="M445.664,268.04c-1.731-5.926-3.4-9.321-9.948-10.352-7.209-1.135-16.945,5.109-21.7,10.039a32.312,32.312,0,0,0-8.232,18.263c-.1,1.226-.141,2.667-.111,4.233l.078,2.055c.59,10.118,4.263,23.721,15.6,22.116,11.8-1.671,22.972-16.676,25.224-27.23A43.837,43.837,0,0,0,445.664,268.04Zm-6.2,21.464c-3.8,6.626-8.2,16.239-16.6,18.307-8.008,1.972-10.414-6.707-11.1-12.457-.753-6.3-.25-14.342,3.056-19.918,3.441-5.8,12.209-14.007,20.161-11.267,5.013,1.727,5.418,5.02,6.433,9.306C442.892,279.733,442.77,283.738,439.463,289.5Z"></path>
  <path class="cls-10" d="M434.977,264.17c-7.952-2.74-16.72,5.465-20.161,11.267-3.306,5.576-3.809,13.613-3.056,19.918.687,5.75,3.093,14.429,11.1,12.457,8.4-2.068,12.8-11.681,16.6-18.307,3.307-5.767,3.429-9.771,1.947-16.029C440.395,269.189,439.99,265.9,434.977,264.17Zm1.781,20.11c-.7,5.484-7.64,13.663-12.935,15.953-8.462,3.658-7.578-6.527-7.129-11.47.629-6.934,5.659-17.421,14.345-18.014C437.586,270.3,437.272,280.245,436.758,284.28Z"></path>
  <path class="cls-11" d="M431.039,270.749c-8.686.592-13.716,11.08-14.345,18.014-.449,4.943-1.332,15.128,7.129,11.47,5.3-2.289,12.237-10.468,12.935-15.953C437.272,280.245,437.586,270.3,431.039,270.749Zm-6.551,22.2c-7.816.448-.714-14.142,5.22-14.575C436.134,277.906,430.11,292.629,424.488,292.951Z"></path>
  <path class="cls-10" d="M429.709,278.376c-5.935.434-13.036,15.024-5.22,14.575C430.11,292.629,436.134,277.906,429.709,278.376Z"></path>
  <path class="cls-10" d="M399.562,305.61c.308-.269.617-.54.914-.791-.37.094-.778.2-1.2.321C399.372,305.295,399.466,305.453,399.562,305.61Z"></path>
  <path class="cls-10" d="M405.9,323.653a24.163,24.163,0,0,0,4.907-5.193,14.811,14.811,0,0,0-5.384,1.54A33.092,33.092,0,0,1,405.9,323.653Z"></path>
  <path class="cls-10" d="M426.531,320.856c.091,1.537,1.34,5.051,1.628,6.551v0c.056-.019.111-.042.167-.062.564-.2,1.125-.4,1.68-.62h0q.894-.352,1.77-.741l.041-.017h0C430.632,324.671,427.424,321.566,426.531,320.856Z"></path>
  <path class="cls-10" d="M442.913,308.337a26.877,26.877,0,0,0,4.263,5.388l.012.013c.345-.451.68-.913,1.011-1.378.06-.084.123-.165.183-.249q.565-.8,1.1-1.628l.031-.046h0C447.637,309.877,444.248,308.091,442.913,308.337Z"></path>
  <path class="cls-10" d="M447.183,255.715c.894-.758,3.093-2.736,4.04-3.548a13.734,13.734,0,0,0-1.617-1.708C448.909,251.785,447.231,254.421,447.183,255.715Z"></path>
  <path class="cls-10" d="M459.181,278.137c-1.829.587-3.56,1.277-4.278,2.294a39.6,39.6,0,0,0,4.157.729Q459.137,279.621,459.181,278.137Z"></path>
  <path class="cls-10" d="M165.125,282.908A28.534,28.534,0,0,0,160,287.414l.212.01A57.624,57.624,0,0,1,165.125,282.908Z"></path>
  <path class="cls-10" d="M169.26,360.733a17.86,17.86,0,0,1-7.122-1.982,17.812,17.812,0,0,0,7.147,2c28.779,1.858,58.089,3.623,87.911,6.444C227.36,364.369,198.047,362.6,169.26,360.733Z"></path>
  <path class="cls-10" d="M158.49,289.239c-.1.127-.177.261-.271.389.477-.653.988-1.29,1.513-1.919C159.3,288.2,158.886,288.711,158.49,289.239Z"></path>
  <path class="cls-10" d="M158.1,289.795c-.059.082-.114.165-.172.247l.055-.073C158.026,289.912,158.061,289.852,158.1,289.795Z"></path>
  <path class="cls-10" d="M156.345,292.461c-.385.638-.755,1.284-1.1,1.942.343-.652.718-1.288,1.1-1.922C156.344,292.475,156.342,292.468,156.345,292.461Z"></path>
  <path class="cls-11" d="M198.193,298.339l.943.014c-25.178-2.365-43.235-4.537-42.794-5.872-.381.633-.755,1.27-1.1,1.922-.026.05-.051.1-.077.151q-.619,1.188-1.162,2.414l-.005.011h0C168.617,298.4,183.4,298.144,198.193,298.339Z"></path>
  <path class="cls-11" d="M160.214,287.424l-.212-.01-.038,0c-.082.1-.152.2-.233.3-.525.629-1.036,1.266-1.513,1.919-.04.055-.077.112-.116.167s-.076.117-.117.174A33.642,33.642,0,0,1,160.214,287.424Z"></path>
  <path class="cls-11" d="M265.436,303.918c14.25,3.146,32.193,8.311,44.745,4.669a31.134,31.134,0,0,0,3.1-1.094C299.5,306.5,282.771,305.261,265.436,303.918Z"></path>
  <path class="cls-11" d="M169.09,317.687c18.732,2.05,37.771,3.4,56.644,4.269,20.227.933,41.542.4,61.221,2.358,14.6,1.453,23.39,6.867,33.552,16.476-.027-7.309,2.525-19.543,9.376-24.258-13.865-3.078-31.73-.735-46.406-.722-20.8.019-40.744-2.853-61.442-4.266-17.676-1.208-35.706-2.064-53.485-4.119-6-.693-11.7-1.407-17.352-1.913h0c-.005.024-.009.048-.014.072-.22.961-.41,1.937-.583,2.921-.1.567-.178,1.143-.262,1.717-.061.411-.127.82-.18,1.234-.091.715-.165,1.439-.235,2.164-.026.262-.054.523-.077.786q-.109,1.277-.178,2.574c0,.067-.008.134-.011.2A132.528,132.528,0,0,1,169.09,317.687Z"></path>
  <path class="cls-11" d="M151.389,341.214c.056.231.135.44.193.668,8.748-.56,18.495,3.567,27.388,3.216,18.876-.746,38.178.359,57.225.706,18.111.33,34.249,1.823,51.961,6.026,11.273,2.674,31,8.3,41.912,2.99C275.746,334.916,209.46,334.115,151.389,341.214Z"></path>
  <path class="cls-11" d="M329.487,372.211c-4.762-5.474-13-4.811-20.622-5.441-20.16-1.666-39.168-10.178-59.177-11.283-21.473-1.186-42.642-.679-64.163-.849-9.608-.076-20.032-1.85-30.065-2.516l-.021,0,.045.086a15.635,15.635,0,0,0,6.655,6.545,17.86,17.86,0,0,0,7.122,1.982c28.787,1.865,58.1,3.636,87.937,6.459,19.289,1.824,38.538,4.406,58.2,6.259,1.019.1,2.078.221,3.145.352,4.1.5,8.521,1.231,13.125,2.045A12.912,12.912,0,0,0,329.487,372.211Z"></path>
  <path class="cls-10" d="M385.726,302.556c-.119-.027-.239-.042-.358-.066-.4.189-.813.349-1.218.528-1.2-1.309-4.381-4.39-5.271-5.1.091,1.537,1.339,5.051,1.627,6.551a36.6,36.6,0,0,1-9.483,2.016,22.94,22.94,0,0,1-2.933,0,54.8,54.8,0,0,0-18.611,19.147c-5.759,10.671-2.435,29.988,4.825,39.5,3.058,4,10.716,5.937,15.719,5.493,6.907-.613,13.108-6.631,17.088-11.528,4.807-5.915,10.388-11.567,12.169-19.093,1.679-7.089.513-15.4-2.209-22.034C394.116,310.761,393.292,304.266,385.726,302.556Zm7.647,35.865c-2.251,10.554-13.424,25.559-25.224,27.23-13.985,1.981-16.307-19.195-15.564-28.4a32.313,32.313,0,0,1,8.232-18.263c4.759-4.93,14.495-11.174,21.7-10.039,6.548,1.031,8.217,4.427,9.948,10.352A43.836,43.836,0,0,1,393.373,338.421Z"></path>
  <path class="cls-11" d="M382.521,308.945c-7.209-1.135-16.945,5.109-21.7,10.039a32.313,32.313,0,0,0-8.232,18.263c-.744,9.209,1.579,30.386,15.564,28.4,11.8-1.671,22.972-16.676,25.224-27.23a43.836,43.836,0,0,0-.9-19.123C390.738,313.372,389.07,309.977,382.521,308.945Zm3.747,31.816c-3.8,6.626-8.2,16.239-16.6,18.307-8.008,1.972-10.414-6.707-11.1-12.457-.753-6.3-.25-14.342,3.056-19.918,3.441-5.8,12.209-14.007,20.161-11.267,5.013,1.727,5.418,5.02,6.433,9.306C389.7,330.991,389.575,335,386.268,340.762Z"></path>
  <path class="cls-10" d="M381.782,315.427c-7.952-2.74-16.72,5.465-20.161,11.267-3.306,5.576-3.809,13.613-3.056,19.918.687,5.75,3.093,14.429,11.1,12.457,8.4-2.068,12.8-11.681,16.6-18.307,3.307-5.767,3.429-9.771,1.947-16.029C387.2,320.447,386.8,317.154,381.782,315.427Zm1.781,20.111c-.7,5.484-7.64,13.663-12.935,15.953-8.461,3.658-7.578-6.527-7.129-11.47.629-6.934,5.659-17.421,14.345-18.014C384.391,321.559,384.076,331.5,383.563,335.538Z"></path>
  <path class="cls-11" d="M377.844,322.007c-8.686.592-13.716,11.08-14.345,18.014-.449,4.943-1.332,15.128,7.129,11.47,5.3-2.289,12.237-10.468,12.935-15.953C384.076,331.5,384.391,321.559,377.844,322.007Zm-6.551,22.2c-7.816.448-.714-14.142,5.22-14.575C382.939,329.163,376.915,343.886,371.293,344.208Z"></path>
  <path class="cls-10" d="M376.514,329.633c-5.935.434-13.036,15.024-5.22,14.575C376.915,343.886,382.939,329.163,376.514,329.633Z"></path>
  <path class="cls-10" d="M357.614,369.717c-2.752.005-6.505,2.138-9.725,3.487a55.167,55.167,0,0,1-7.769-10.647c2.393-2.178,4.942-4.607,7.162-6.48a46.017,46.017,0,0,0-8.9,3.169c-3.461-7.569-3.684-16.019-2.39-24.2a12.419,12.419,0,0,0,1.256-.442c1.685-.713,6.284-2.172,7.926-2.906-1.653-.655-5.337-.492-8.527-.2.059-.283.114-.568.177-.849,1.666-7.519,4.807-15.307,10.546-20.753-1.3-.088-14.8-1.011-34.093-2.406a31.134,31.134,0,0,1-3.1,1.094c-12.551,3.642-30.494-1.523-44.745-4.669-22.835-1.77-46.718-3.726-66.3-5.565l-.943-.014c-14.789-.195-29.576.061-44.193-1.36a47.367,47.367,0,0,0-2.8,8.532c5.649.506,11.355,1.22,17.352,1.913,17.779,2.055,35.809,2.912,53.485,4.119,20.7,1.413,40.641,4.285,61.442,4.266,14.677-.013,32.541-2.356,46.406.722-6.852,4.715-9.4,16.949-9.376,24.258-10.163-9.609-18.954-15.023-33.552-16.476-19.679-1.958-40.995-1.425-61.221-2.358-18.873-.87-37.912-2.219-56.644-4.269a132.528,132.528,0,0,0-19.435-.507,117.333,117.333,0,0,0,.3,15.292,49.529,49.529,0,0,0,5.508,19.65c10.033.666,20.457,2.439,30.065,2.516,21.521.17,42.69-.336,64.163.849,20.009,1.1,39.017,9.617,59.177,11.283,7.62.629,15.859-.034,20.622,5.441a12.912,12.912,0,0,1,2.182,3.637c-4.6-.813-9.025-1.542-13.125-2.045,13.4,1.686,27.5,5.9,42.912,6.791a21.085,21.085,0,0,1-10.516-4.615C353.389,374.9,356.436,371.5,357.614,369.717Zm-69.457-17.889c-17.712-4.2-33.85-5.7-51.961-6.026-19.047-.347-38.349-1.452-57.225-.706-8.893.352-18.64-3.776-27.388-3.216-.059-.228-.138-.437-.193-.668,58.07-7.1,124.357-6.3,178.679,13.6C319.154,360.129,299.43,354.5,288.157,351.828Z"></path>
  <path class="cls-12" d="M149.666,316.979q.069-1.3.178-2.574"></path>
  <path class="cls-12" d="M150.6,308.5c-.1.567-.178,1.143-.262,1.717"></path>
  <path class="cls-12" d="M149.922,313.619c.07-.726.144-1.449.235-2.164"></path>
  <path class="cls-10" d="M149.652,317.18h0c0-.067.008-.134.011-.2C149.663,317.047,149.656,317.113,149.652,317.18Z"></path>
  <path class="cls-12" d="M150.157,311.455c.053-.415.119-.823.18-1.234"></path>
  <path class="cls-12" d="M150.6,308.5c.173-.984.363-1.96.583-2.921"></path>
  <path class="cls-12" d="M149.845,314.405c.023-.263.052-.524.077-.786"></path>
  <path class="cls-10" d="M373.336,372.113c.091,1.538,1.34,5.051,1.628,6.551v0c.056-.019.112-.042.168-.062.563-.2,1.124-.4,1.678-.619h0q.894-.352,1.769-.74l.042-.017h0C377.437,375.928,374.229,372.823,373.336,372.113Z"></path>
  <path class="cls-10" d="M389.718,359.594a26.945,26.945,0,0,0,4.275,5.4h0c.328-.429.646-.869.961-1.31.077-.107.157-.21.233-.318q.556-.789,1.085-1.6l.049-.072h0C394.441,361.135,391.053,359.348,389.718,359.594Z"></path>
  <path class="cls-10" d="M396.41,301.716c-.7,1.326-2.375,3.962-2.423,5.256.894-.759,3.093-2.736,4.04-3.548A13.725,13.725,0,0,0,396.41,301.716Z"></path>
  <path class="cls-10" d="M401.708,331.689a39.608,39.608,0,0,0,4.157.729h0v-.01q.077-1.535.121-3.013l-.006,0C404.154,329.983,402.426,330.673,401.708,331.689Z"></path>
  <path class="cls-13" d="M199.136,298.353c19.582,1.839,43.465,3.8,66.3,5.565,17.335,1.343,34.061,2.579,47.841,3.575,19.292,1.394,32.8,2.317,34.093,2.406l.109.007s.073-.114.2-.309a43.835,43.835,0,0,1,4-5.032c-9.618-1.634-18.758-3.841-27.6-4.954-1.068-.131-2.128-.256-3.147-.352-19.664-1.853-38.912-4.434-58.2-6.259-29.823-2.821-59.133-4.586-87.911-6.444a17.812,17.812,0,0,1-7.147-2,16.591,16.591,0,0,1-2.554-1.653h0l0,0a57.624,57.624,0,0,0-4.91,4.516,33.642,33.642,0,0,0-2.229,2.545l-.055.073a16.021,16.021,0,0,0-1.584,2.413v.006c0,.007,0,.013,0,.02C155.9,293.816,173.958,295.988,199.136,298.353Z"></path>
  <path class="cls-10" d="M164.033,215.046c-.1.127-.177.261-.271.389.477-.654.988-1.29,1.513-1.92C164.846,214.01,164.43,214.518,164.033,215.046Z"></path>
  <path class="cls-10" d="M191.068,280.445c21.521.17,42.69-.336,64.163.849,20.009,1.1,39.017,9.617,59.177,11.283,7.62.63,15.86-.033,20.622,5.441a12.911,12.911,0,0,1,2.182,3.637c-4.6-.813-9.023-1.542-13.123-2.044,8.837,1.112,17.977,3.32,27.6,4.954a43.835,43.835,0,0,0-4,5.032c1.716-1.6,3.5-3.229,5.346-4.813A134.806,134.806,0,0,0,367,306.4a21.086,21.086,0,0,1-10.516-4.615c2.45-1.076,5.5-4.484,6.674-6.262-2.752.005-6.505,2.138-9.725,3.487a55.164,55.164,0,0,1-7.769-10.647c2.393-2.178,4.942-4.607,7.162-6.48a46.015,46.015,0,0,0-8.9,3.169c-3.461-7.569-3.684-16.019-2.39-24.2a12.419,12.419,0,0,0,1.256-.442c1.685-.713,6.284-2.172,7.926-2.906-1.653-.655-5.337-.492-8.527-.2.059-.283.114-.568.177-.849,1.683-7.6,4.867-15.472,10.72-20.924,2.52-2.348,5.189-4.776,7.991-7.02,3.356,1.223,7,2.567,9.2,3.122-.907-.794-3.5-3.718-5.641-5.8,6.722-4.724,14.131-7.867,22.062-6.183l.026-.04c-21.848-3.772-60.176-6.848-81.977-9.681-38.891-5.056-77.13-5.452-114.707-6.712a31.445,31.445,0,0,0-24.491,10c6.356.3,12.688.653,18.961,1.2,17.892,1.548,36.7,3.233,54.591,3.448,17.281.208,34.535,3.358,52,3.2,19.169-.174,41.178,4.179,60.178,1.185-5.263,2.7-11.461,4.212-17.492,5.276-7.225,1.274-11.907,5.085-18.057,6.869-14.916,4.328-37.448-3.782-52.345-6.16-19.911-3.179-39.586-3.824-59.643-4.087-14.789-.195-29.576.061-44.193-1.36a47.368,47.368,0,0,0-2.8,8.533c5.649.506,11.355,1.22,17.352,1.913,17.779,2.055,35.809,2.912,53.485,4.119,20.7,1.413,40.641,4.285,61.442,4.266,14.677-.013,32.541-2.356,46.406.722-6.852,4.715-9.4,16.948-9.376,24.258-10.163-9.609-18.954-15.023-33.552-16.476-19.679-1.958-40.995-1.425-61.221-2.358-18.873-.87-37.912-2.219-56.644-4.269a132.537,132.537,0,0,0-19.435-.507,117.332,117.332,0,0,0,.3,15.292A49.528,49.528,0,0,0,161,277.93C171.037,278.6,181.461,280.369,191.068,280.445Zm-33.942-12.756c-.059-.228-.138-.437-.193-.668,58.07-7.1,124.357-6.3,178.679,13.6-10.915,5.311-30.639-.315-41.912-2.99-17.712-4.2-33.85-5.7-51.961-6.026-19.047-.347-38.349-1.452-57.225-.706C175.621,271.256,165.875,267.129,157.126,267.689Z"></path>
  <path class="cls-10" d="M174.8,286.54a17.861,17.861,0,0,1-7.122-1.982,17.812,17.812,0,0,0,7.147,2c28.779,1.858,58.089,3.623,87.911,6.444C232.9,290.177,203.591,288.405,174.8,286.54Z"></path>
  <path class="cls-11" d="M203.736,224.147c20.057.263,39.732.909,59.643,4.087,14.9,2.379,37.429,10.489,52.345,6.16,6.15-1.785,10.832-5.6,18.057-6.869,6.031-1.063,12.229-2.578,17.492-5.276-19,2.994-41.009-1.358-60.178-1.185-17.461.158-34.715-2.993-52-3.2-17.894-.215-36.7-1.9-54.591-3.448-6.273-.542-12.6-.9-18.961-1.2l-.038,0c-.082.1-.152.2-.233.3-.525.629-1.036,1.266-1.513,1.92-.04.055-.077.112-.116.167q-.768,1.064-1.459,2.168c-.038.061-.072.123-.11.184q-.682,1.11-1.29,2.257c-.026.05-.051.1-.077.151q-.619,1.188-1.162,2.414l-.005.011h0C174.161,224.207,188.947,223.952,203.736,224.147Z"></path>
  <path class="cls-11" d="M174.634,243.495c18.732,2.05,37.771,3.4,56.644,4.269,20.227.933,41.542.4,61.221,2.358,14.6,1.453,23.39,6.867,33.552,16.476-.027-7.31,2.525-19.543,9.376-24.258-13.865-3.078-31.73-.735-46.406-.722-20.8.019-40.744-2.853-61.442-4.266-17.676-1.207-35.706-2.064-53.485-4.119-6-.693-11.7-1.407-17.352-1.913h0c-.005.024-.009.048-.014.071-.219.962-.411,1.937-.583,2.921-.1.566-.178,1.141-.261,1.714-.06.412-.128.821-.18,1.237-.091.716-.166,1.44-.235,2.167-.025.261-.054.519-.077.781q-.109,1.281-.179,2.581c0,.066-.01.13-.014.2h0A132.537,132.537,0,0,1,174.634,243.495Z"></path>
  <path class="cls-11" d="M184.515,270.9c18.876-.746,38.178.359,57.225.706,18.111.33,34.249,1.823,51.961,6.026,11.273,2.674,31,8.3,41.912,2.99-54.322-19.9-120.609-20.7-178.679-13.6.056.23.135.44.193.668C165.875,267.129,175.621,271.256,184.515,270.9Z"></path>
  <path class="cls-11" d="M174.8,286.54c28.787,1.865,58.1,3.636,87.937,6.459,19.289,1.825,38.538,4.406,58.2,6.259,1.02.1,2.08.221,3.147.352,4.1.5,8.519,1.231,13.123,2.044a12.911,12.911,0,0,0-2.182-3.637c-4.762-5.474-13-4.811-20.622-5.441-20.16-1.666-39.168-10.178-59.177-11.283-21.473-1.186-42.642-.679-64.163-.849-9.608-.076-20.032-1.85-30.065-2.516l-.021,0,.045.086a15.236,15.236,0,0,0,4.1,4.892,16.591,16.591,0,0,0,2.554,1.653A17.861,17.861,0,0,0,174.8,286.54Z"></path>
  <path class="cls-10" d="M375.567,296.431c6.907-.613,13.108-6.631,17.088-11.528,4.807-5.915,10.388-11.568,12.169-19.093,1.679-7.089.513-15.4-2.209-22.034-2.955-7.208-3.779-13.7-11.345-15.413-14.189-3.2-30.555,12.533-36.247,23.08-5.759,10.671-2.435,29.988,4.825,39.5C362.906,294.943,370.564,296.876,375.567,296.431Zm-17.438-33.377a32.312,32.312,0,0,1,8.232-18.262c4.759-4.93,14.495-11.174,21.7-10.039,6.548,1.031,8.217,4.427,9.948,10.352a43.837,43.837,0,0,1,.9,19.123c-2.251,10.554-13.424,25.559-25.224,27.23C359.708,293.44,357.386,272.264,358.129,263.054Z"></path>
  <path class="cls-11" d="M398.917,264.228a43.837,43.837,0,0,0-.9-19.123c-1.731-5.926-3.4-9.321-9.948-10.352-7.209-1.135-16.945,5.109-21.7,10.039a32.312,32.312,0,0,0-8.232,18.262c-.744,9.209,1.579,30.386,15.564,28.4C385.492,289.787,396.665,274.782,398.917,264.228Zm-34.808,8.191c-.753-6.3-.25-14.342,3.056-19.918,3.441-5.8,12.209-14.007,20.161-11.267,5.013,1.727,5.418,5.02,6.433,9.306,1.482,6.258,1.36,10.262-1.947,16.029-3.8,6.626-8.2,16.239-16.6,18.307C367.2,286.848,364.8,278.169,364.109,272.419Z"></path>
  <path class="cls-10" d="M391.812,266.569c3.307-5.767,3.429-9.771,1.947-16.029-1.015-4.287-1.419-7.579-6.433-9.306-7.952-2.74-16.72,5.465-20.161,11.267-3.306,5.576-3.809,13.613-3.056,19.918.687,5.75,3.093,14.429,11.1,12.457C383.61,282.808,388.012,273.2,391.812,266.569Zm-22.769-.742c.629-6.934,5.659-17.421,14.345-18.014,6.547-.447,6.232,9.5,5.719,13.531-.7,5.484-7.64,13.663-12.935,15.953C367.71,280.955,368.593,270.771,369.042,265.828Z"></path>
  <path class="cls-11" d="M389.107,261.345c.513-4.035.828-13.978-5.719-13.531-8.687.592-13.716,11.08-14.345,18.014-.449,4.943-1.332,15.128,7.129,11.47C381.467,275.008,388.408,266.829,389.107,261.345Zm-7.049-5.9c6.425-.47.4,14.253-5.22,14.575C369.021,270.464,376.123,255.874,382.057,255.44Z"></path>
  <path class="cls-10" d="M382.057,255.44c-5.935.434-13.036,15.024-5.22,14.575C382.459,269.693,388.482,254.971,382.057,255.44Z"></path>
  <path class="cls-10" d="M401.954,227.524c-.7,1.326-2.375,3.962-2.423,5.256.894-.758,3.093-2.736,4.04-3.548A13.73,13.73,0,0,0,401.954,227.524Z"></path>
  <path class="cls-10" d="M411.53,255.2c-1.829.587-3.56,1.277-4.278,2.294a39.578,39.578,0,0,0,4.157.729Q411.486,256.686,411.53,255.2Z"></path>
  <path class="cls-14" d="M118.248,81.719c2.683,3.657,34.58,69.037,43.3,65.615s25.284-22.563,22.9-36.441S145.571,68.662,140.59,64.175"></path>
  <path class="cls-5" d="M46.36,101s19.008,69.259,41.814,74.452c39.39,8.966,71.393,8.911,71.025-26.347-.434-41.439-15.9-77.5-32.9-92.215C99.256,33.478,35.247,42.723,46.36,101"></path>
  <path class="cls-15" d="M104.366,109.946a4.274,4.274,0,1,1-5.024-3.366,4.277,4.277,0,0,1,5.024,3.366"></path>
  <path class="cls-15" d="M142.674,100.322a4.274,4.274,0,1,1-5.024-3.366,4.277,4.277,0,0,1,5.024,3.366"></path>
  <polygon class="cls-4" points="124.948 100.902 131.649 129.654 144.293 125.969 124.948 100.902"></polygon>
  <path class="cls-4" d="M103.924,140.314a8.811,8.811,0,1,1,8.5-9.11,8.814,8.814,0,0,1-8.5,9.11"></path>
  <path class="cls-4" d="M72.83,162.441s34.1,25.951,69.22,15.1l.015,10.022s-9.693,4.965-31.026,1.764C86.3,185.617,72.83,162.441,72.83,162.441"></path>
  <path class="cls-7" d="M116.1,152.369c2.506,6.2,15.829,14.44,25.016,10.726s11.118-17.851,8.612-24.051-6.891,2.785-16.308,6.592c-9.05,3.391-19.6.44-17.32,6.733"></path>
  <path class="cls-16" d="M80.779,84.984c.364,10.4-10.289,19.652-10.289,19.652l3.163,18.1.03-.091c.048.4.108.785.16,1.181l1.151,6.59q-3.825.446-7.637.986l-2.2-5.923s-1.806-1.49-7.218-1.092c-7.16-9.02-15.191-19.437-16.56-27.275C37.752,76.375,55.462,74.651,55.462,74.651a9.335,9.335,0,0,1,.362-1.968C62.45,37.7,86.208,55.54,112.516,58.09c3.591.19,4.865-6.033,8.4-5.293,2.595.455,15.64,3.423,17.71,4.106,21.885,7.215,14.523-15.662,14.523-15.662,10.413,1.007,7.627,6.734,7.627,6.734,13.042-2.279,13.393-9.059,13.393-9.059,8.058,10.955-5.177,25.117-13.275,27.313,9.226-.3,14.532-2.539,14.532-2.539S162.468,92.356,80.779,84.984Z"></path>
  <path class="cls-14" d="M71.33,177.7A17.821,17.821,0,0,0,65.3,197.2c2.348,6.871,9.165,10.867,13.662,16.177,8.649,10.213,4.51,20.013-2.869,29.514-1.354,1.744-3.777-.694-2.436-2.42,6.369-8.2,10.046-16.518,2.333-25.309-4.321-4.924-10.069-8.634-13.013-14.671-4.4-9.028-1.121-19.784,6.615-25.746,1.75-1.348,3.471,1.627,1.743,2.959Z"></path>
  <path class="cls-17" d="M80.641,244.693s3.213,2.286,2,5.8-6.036,1.443-6.036,1.443-1.378,6.133-5.59,4.928a4.246,4.246,0,0,1-3.361-4.121s-3.892,1.618-5.26-2.142,1.409-4.477,1.409-4.477-3.894-1.1-2.294-4.729,5.972-1.424,5.972-1.424-1.005-3.941,2.872-4.927a4.271,4.271,0,0,1,5.187,2.584s4.382-1.839,6.954,1.759S80.641,244.693,80.641,244.693Z"></path>
  <path class="cls-14" d="M144.117,50.218c-4.081-6.476-2.4-21.095-14.646-24.011,0,0-21.662-19.988-57.682-15.569C49.716,13.346,1.291,37.66,3.881,66s21.448,46.071,22.74,52.608,10.848,56.967,14.729,58.819,35.691-.991,42.708-16.4c8.638-18.962-12.54-72.752-19.032-81.44,0,0,47.282-21.88,49.1-17.028"></path>
  <path class="cls-18" d="M66.21,81.481l6.767.569s14.152,34.263,18.886,52.258,3.01,34.7-11.12,40.722-33.4,9.47-37.592,5.39S41.7,174.5,41.7,174.5s20.573,1.868,33.926-7.474,7.465-32.019,6.283-36.838S66.21,81.481,66.21,81.481Z"></path>
  <path class="cls-18" d="M65.369,80.987S47.027,94.8,38.411,103s-12.242,14.221-12.175,14.4.583,2.222.583,2.222,5.332-12.68,39.557-36.666C66.376,82.963,67.122,82.339,65.369,80.987Z"></path>
  <path class="cls-18" d="M151.551,57.841s5.016-5.023,2.529-13.667-11.965-18.616-24.058-18.306-56.062,7.866-76.13,31.5c0,0-2.821,2.71,1.293,10.506S66.3,87.814,72.444,86.674,128.933,62.105,151.551,57.841Z"></path>
  <path class="cls-14" d="M175.545,132.643c3.358.577,5.674,2.484,7.677,5.168,1.554,2.083,2.677,4.618,4.522,6.478,2.67,2.691,6.447,3.36,10.086,3.41,10.881.148,21.133-5.648,27.228-14.525,1.188-1.731,4.041-.1,2.841,1.648a36.624,36.624,0,0,1-25.912,15.931c-4.813.551-10.285.374-14.442-2.4-5.092-3.394-6.286-11.414-12.862-12.544-2.079-.357-1.209-3.525.863-3.17Z"></path>
  <path class="cls-17" d="M236.894,129.142s3.213,2.286,2,5.8-6.036,1.443-6.036,1.443-1.378,6.133-5.59,4.928a4.246,4.246,0,0,1-3.361-4.121s-3.892,1.618-5.26-2.142,1.409-4.477,1.409-4.477-3.894-1.1-2.294-4.729,5.972-1.424,5.972-1.424-1.005-3.941,2.872-4.927a4.271,4.271,0,0,1,5.187,2.584s4.382-1.839,6.954,1.759S236.894,129.142,236.894,129.142Z"></path>
</svg>
