<?xml version="1.0" encoding="UTF-8"?>
<svg xmlns="http://www.w3.org/2000/svg" width="80" height="80" viewBox="0 0 80 80" fill="none">
  <path d="M17.86 31.81C19.93 31.81 21.62 30.13 21.62 28.05C21.62 25.97 19.94 24.29 17.86 24.29C15.78 24.29 14.1 25.97 14.1 28.05C14.1 30.13 15.78 31.81 17.86 31.81Z" fill="#374649"></path>
  <path d="M71.48 29.26V21.02C71.48 19.9 70.57 19 69.46 19H32.55C31.43 19 30.53 19.91 30.53 21.02V29.26H38.3V41.38H34.24C33.12 41.38 32.22 42.29 32.22 43.4V57.34H26.76V21.02C26.76 19.9 25.85 19 24.74 19H11.02C9.91 19 9 19.91 9 21.02V60.23H70.51V57.34H70.5V56.19H70.51V50.92C70.51 50.65 70.45 50.38 70.34 50.14L69.78 48.89C70.33 48.7 70.73 48.19 70.73 47.58C70.73 46.81 70.11 46.19 69.34 46.19H68.58L67.46 43.67C66.98 42.59 65.9 41.89 64.72 41.89H57.12C55.94 41.89 54.87 42.6 54.38 43.67L53.26 46.19H52.49C51.72 46.19 51.1 46.81 51.1 47.58C51.1 48.2 51.5 48.71 52.06 48.89L51.5 50.13C51.38 50.38 51.33 50.64 51.33 50.91V55.26C51.33 55.26 51.32 55.33 51.32 55.36V57.33H47.29V43.39C47.29 42.27 46.38 41.37 45.27 41.37H41.21V29.26H71.49H71.48ZM23.83 57.34H11.89V48.55H23.83V57.34ZM23.83 45.65H11.89V42.83H23.83V45.65ZM23.83 39.92H11.89V37.11H23.83V39.92ZM23.83 34.2H11.89V21.91H23.83V34.2ZM38.29 57.34H35.11V44.29H38.29V57.34ZM55.49 57.34C55.56 57.13 55.61 56.91 55.61 56.68V56.2H66.2V56.73C66.2 56.95 66.24 57.15 66.3 57.35H55.49V57.34ZM56.98 54.22V53.58C56.98 53.23 57.26 52.95 57.61 52.95H64.19C64.54 52.95 64.82 53.23 64.82 53.58V54.22H56.98ZM67.31 50.08C67.8 50.08 68.2 50.48 68.2 50.97C68.2 51.46 67.8 51.86 67.31 51.86H65.14V50.97C65.14 50.48 65.54 50.08 66.03 50.08H67.31ZM55.28 47.49L56.6 44.39H65.2L66.52 47.49C66.52 47.49 66.52 47.54 66.52 47.57C66.52 47.62 66.52 47.67 66.53 47.72H55.27C55.27 47.72 55.28 47.62 55.28 47.57C55.28 47.54 55.28 47.52 55.28 47.49ZM55.76 50.09C56.25 50.09 56.65 50.49 56.65 50.98V51.87H54.49C54 51.87 53.6 51.47 53.6 50.98C53.6 50.49 54 50.09 54.49 50.09H55.76ZM44.37 44.28V57.33H41.19V44.28H44.37ZM33.42 26.37V21.91H68.58V26.37H33.42Z" fill="#374649"></path>
</svg>
