<svg xmlns="http://www.w3.org/2000/svg" viewBox="0 0 841.00 589.20" data-guides="{&quot;vertical&quot;:[],&quot;horizontal&quot;:[]}"><defs/><path fill="none" stroke="#ff0000" fill-opacity="1" stroke-width="6" stroke-opacity="1" stroke-linecap="round" stroke-linejoin="round" id="tSvgffbcc02c7b" title="Path 5" d="M6 6C6 6 6 6 13.0547 13.7109C14.2422 17.3359 13.0547 13.7109 14.2422 17.3359C36 45 14.2422 17.3359 36 45C48 56 36 45 48 56C54 64 48 56 54 64C73 84 54 64 73 84C87.5625 94.75 73 84 87.5625 94.75C116.5 113.5469 87.5625 94.75 116.5 113.5469C157.5156 136.25 116.5 113.5469 157.5156 136.25C190 150 157.5156 136.25 190 150C202 153 190 150 202 153C221.0547 162.0469 202 153 221.0547 162.0469C232.1875 165.125 221.0547 162.0469 232.1875 165.125C256 169 232.1875 165.125 256 169C271 174 256 169 271 174C297.5625 177.9531 271 174 297.5625 177.9531C326 186 297.5625 177.9531 326 186C335.4219 187.8203 326 186 335.4219 187.8203C371 188 335.4219 187.8203 371 188C414 197 371 188 414 197C492.25 196.9375 414 197 492.25 196.9375C504 198 492.25 196.9375 504 198C525 198 504 198 525 198C557 194 525 198 557 194C566 194 557 194 566 194C591.6797 190.3906 566 194 591.6797 190.3906C604 187 591.6797 190.3906 604 187C623 185 604 187 623 185C636 181 623 185 636 181C656 179 636 181 656 179C671 175 656 179 671 175C689 172 671 175 689 172C733 158 689 172 733 158C767 142.0625 733 158 767 142.0625C794 124 767 142.0625 794 124C801.0625 117.3125 794 124 801.0625 117.3125C835 95 835 95 835 95"/><path fill="none" stroke="#ff0000" fill-opacity="1" stroke-width="6" stroke-opacity="1" stroke-linecap="round" stroke-linejoin="round" id="tSvg188eeb3016b" title="Path 10" d="M187 156C187 156 187 156 185 159C183.3906 165.1328 185 159 183.3906 165.1328C180 171 183.3906 165.1328 180 171C178 177 180 171 178 177C172.2266 187.3828 178 177 172.2266 187.3828C165.9375 212.9375 172.2266 187.3828 165.9375 212.9375C166.375 250.4375 165.9375 212.9375 166.375 250.4375C167.875 257.5 166.375 250.4375 167.875 257.5C172 268 167.875 257.5 172 268C173 274 172 268 173 274C176 282 173 274 176 282C179.5 303.6875 176 282 179.5 303.6875C182.4375 313.0625 179.5 303.6875 182.4375 313.0625C185 316 182.4375 313.0625 185 316C188 322 185 316 188 322C197 331 188 322 197 331C208.125 337.5 197 331 208.125 337.5C223 349.625 208.125 337.5 223 349.625C229 350 223 349.625 229 350C232 352 229 350 232 352C240 352 232 352 240 352C245 351 240 352 245 351C270 332 270 332 270 332"/><path fill="none" stroke="#ff0000" fill-opacity="1" stroke-width="6" stroke-opacity="1" stroke-linecap="round" stroke-linejoin="round" id="tSvg4dcb764eb5" title="Path 11" d="M79 400C79 400 79 400 83.5703 411.2344C84.3438 415.7344 83.5703 411.2344 84.3438 415.7344C85.8125 464.7188 84.3438 415.7344 85.8125 464.7188C89.3906 480.2969 85.8125 464.7188 89.3906 480.2969C91 500 89.3906 480.2969 91 500C91 544 91 500 91 544C121.2734 543.8438 91 544 121.2734 543.8438C131 543 121.2734 543.8438 131 543C140 541 131 543 140 541C147.9375 541.0625 140 541 147.9375 541.0625C157.6875 537 147.9375 541.0625 157.6875 537C160 535 157.6875 537 160 535C159 533 159 533 159 533"/><path fill="none" stroke="#ff0000" fill-opacity="1" stroke-width="6" stroke-opacity="1" stroke-linecap="round" stroke-linejoin="round" id="tSvg15fd50d01e4" title="Path 12" d="M86 455C86 455 86 455 98.1094 454.8594C104 457 98.1094 454.8594 104 457C108 457 104 457 108 457C128.1406 461.1406 108 457 128.1406 461.1406C151 460 128.1406 461.1406 151 460C163 455 163 455 163 455"/><path fill="none" stroke="#ff0000" fill-opacity="1" stroke-width="6" stroke-opacity="1" stroke-linecap="round" stroke-linejoin="round" id="tSvga04a94caa9" title="Path 13" d="M81 395C81 395 81 395 86 395C113 402 86 395 113 402C169 402 169 402 169 402"/><path fill="none" stroke="#ff0000" fill-opacity="1" stroke-width="6" stroke-opacity="1" stroke-linecap="round" stroke-linejoin="round" id="tSvg6e09afcff0" title="Path 15" d="M330 439C330 439 330 439 328.9063 436.6875C330 444 328.9063 436.6875 330 444C330.1436 465.2676 330 444 330.1436 465.2676C326.25 503.1094 330.1436 465.2676 326.25 503.1094C319 553 326.25 503.1094 319 553C318.6289 577.2637 319 553 318.6289 577.2637C351 571 318.6289 577.2637 351 571C358.8125 568.4375 351 571 358.8125 568.4375C403 566 358.8125 568.4375 403 566C404 565 403 566 404 565C407 565 404 565 407 565C410.4375 562.6875 407 565 410.4375 562.6875C399 555 410.4375 562.6875 399 555C392 553 392 553 392 553"/><path fill="none" stroke="#ff0000" fill-opacity="1" stroke-width="6" stroke-opacity="1" stroke-linecap="round" stroke-linejoin="round" id="tSvg1219c594ded" title="Path 16" d="M314 484C314 484 314 484 329 485C377 485 329 485 377 485C411 479 377 485 411 479C422 478 411 479 422 478C417 474 417 474 417 474"/><path fill="none" stroke="#ff0000" fill-opacity="1" stroke-width="6" stroke-opacity="1" stroke-linecap="round" stroke-linejoin="round" id="tSvg1820f59cde7" title="Path 18" d="M184 525C184 525 184 525 184 522C186 519 184 522 186 519C186 517 186 519 186 517C189.5625 508.4375 186 517 189.5625 508.4375C190 503 189.5625 508.4375 190 503C191.0625 502.625 190 503 191.0625 502.625C191 498 191.0625 502.625 191 498C194 482 191 498 194 482C194 473 194 482 194 473C196 463 194 473 196 463C195.9375 449.9375 196 463 195.9375 449.9375C197.0703 445.5 195.9375 449.9375 197.0703 445.5C197 439 197.0703 445.5 197 439C204.4375 408.9375 197 439 204.4375 408.9375C207.625 402.5 204.4375 408.9375 207.625 402.5C208 398 207.625 402.5 208 398C211.9531 386.9688 208 398 211.9531 386.9688C215 398 211.9531 386.9688 215 398C216 407 215 398 216 407C219.2109 417.9141 216 407 219.2109 417.9141C219 435 219.2109 417.9141 219 435C222.0703 466.1172 219 435 222.0703 466.1172C222 515 222.0703 466.1172 222 515C224 529 222 515 224 529C228.5625 537 224 529 228.5625 537C229 540 228.5625 537 229 540C238.5 520.2109 229 540 238.5 520.2109C242.375 508.9375 238.5 520.2109 242.375 508.9375C248 500 242.375 508.9375 248 500C251 490.3125 248 500 251 490.3125C260 469 251 490.3125 260 469C260.375 464.4375 260 469 260.375 464.4375C263 461 260.375 464.4375 263 461C263.375 457.625 263 461 263.375 457.625C267 449 263.375 457.625 267 449C277 431 267 449 277 431C284 412 284 412 284 412"/><path fill="none" stroke="#ff0000" fill-opacity="1" stroke-width="6" stroke-opacity="1" stroke-linecap="round" stroke-linejoin="round" id="tSvg1151372e903" title="Path 19" d="M325 442C325 442 325 442 336 443C344.5 445.0625 336 443 344.5 445.0625C350 445 344.5 445.0625 350 445C352 446 350 445 352 446C381 447 352 446 381 447C386 446 381 447 386 446C398 446 386 446 398 446C402 445 398 446 402 445C417 445 402 445 417 445C430 443 417 445 430 443C433 441 430 443 433 441C440 439 440 439 440 439"/><path fill="none" stroke="#ff0000" fill-opacity="1" stroke-width="6" stroke-opacity="1" stroke-linecap="round" stroke-linejoin="round" title="Path 20" d="M558 553C558 553 558 553 553 550C551 550 553 550 551 550C550 548 551 550 550 548C548 547 550 548 548 547C528.8828 522.9922 548 547 528.8828 522.9922C523.5625 518.25 528.8828 522.9922 523.5625 518.25C506 494 523.5625 518.25 506 494C498 485 506 494 498 485C500 484 498 485 500 484C505.6328 483.9297 500 484 505.6328 483.9297C519 488 505.6328 483.9297 519 488C530 488 519 488 530 488C544.5 484.5625 530 488 544.5 484.5625C552 480 544.5 484.5625 552 480C559 469 552 480 559 469C560 465 559 469 560 465C560 456 560 465 560 456C558 449 560 456 558 449C548.5469 431.8594 558 449 548.5469 431.8594C540.5625 424.9375 548.5469 431.8594 540.5625 424.9375C523 416 540.5625 424.9375 523 416C514 416 523 416 514 416C509 418 514 416 509 418C502.8125 422.125 509 418 502.8125 422.125C488.7656 436.0938 502.8125 422.125 488.7656 436.0938C487.7188 437.6172 488.7656 436.0938 487.7188 437.6172C488 442 488 442 488 442C488 442 485 443 485 443C485 443 485 443 488.7734 454.6484C490.4375 468.3125 488.7734 454.6484 490.4375 468.3125C494 479 490.4375 468.3125 494 479C494 494 494 479 494 494C496.0625 505.5 494 494 496.0625 505.5C496.1406 517.7422 496.0625 505.5 496.1406 517.7422C493.8594 527.3203 496.1406 517.7422 493.8594 527.3203C494 539 493.8594 527.3203 494 539C492 562 494 539 492 562C491 564 492 562 491 564C491.0625 581.0625 491 564 491.0625 581.0625C490.3438 583.1953 491.0625 581.0625 490.3438 583.1953C488 578 490.3438 583.1953 488 578C487 571 487 571 487 571" id="tSvg565e6d2830"/><path fill="none" stroke="#ff0000" fill-opacity="1" stroke-width="6" stroke-opacity="1" stroke-linecap="round" stroke-linejoin="round" id="tSvg11daadfecae" title="Path 22" d="M649 414C649 414 649 414 649 412C648 412 649 412 648 412C647 410 648 412 647 410C638 402 647 410 638 402C630 398 638 402 630 398C618 397 630 398 618 397C615 398 618 397 615 398C611 401 615 398 611 401C604 412 611 401 604 412C597.3594 425.1406 604 412 597.3594 425.1406C594 435 597.3594 425.1406 594 435C593 441 594 435 593 441C590 446 593 441 590 446C584 465 590 446 584 465C584 479 584 465 584 479C585.7656 486.6563 584 479 585.7656 486.6563C613 531 585.7656 486.6563 613 531C633 558 613 531 633 558C643 567 633 558 643 567C646 568 643 567 646 568C648 570 646 568 648 570C656.0469 570.1406 648 570 656.0469 570.1406C658.5625 569.25 656.0469 570.1406 658.5625 569.25C666 561 658.5625 569.25 666 561C668 553 666 561 668 553C669.0703 511.8906 668 553 669.0703 511.8906C668 502 669.0703 511.8906 668 502C665.375 497.9375 668 502 665.375 497.9375C665 495 665.375 497.9375 665 495C658.875 490 665 495 658.875 490C657.625 487.4375 658.875 490 657.625 487.4375C655 487 657.625 487.4375 655 487C655 486 655 487 655 486C652 485 655 486 652 485C631 485 652 485 631 485C615 488 615 488 615 488"/><path fill="none" stroke="#ff0000" fill-opacity="1" stroke-width="6" stroke-opacity="1" stroke-linecap="round" stroke-linejoin="round" id="tSvgf8097c88b0" title="Path 24" d="M740 407C740 407 740 407 743.2109 412.7031C743 469 743.2109 412.7031 743 469C741 480 743 469 741 480C740 502 741 480 740 502C741 512 740 502 741 512C745 528 741 512 745 528C745 539 745 528 745 539C746 545 745 539 746 545C748 549 746 545 748 549C749 555 748 549 749 555C750 555 749 555 750 555C746 554 746 554 746 554"/><path fill="none" stroke="#ff0000" fill-opacity="1" stroke-width="6" stroke-opacity="1" stroke-linecap="round" stroke-linejoin="round" id="tSvg2025ab99d3" title="Path 25" d="M707 577C707 577 707 577 716.8125 570.5C725.9707 566.377 716.8125 570.5 725.9707 566.377C733 565 725.9707 566.377 733 565C750 558 733 565 750 558C762 555 750 558 762 555C781 547 762 555 781 547C787 546 781 547 787 546C791 544 791 544 791 544"/><path fill="none" stroke="#ff0000" fill-opacity="1" stroke-width="6" stroke-opacity="1" stroke-linecap="round" stroke-linejoin="round" id="tSvg4752d6f62e" title="Path 26" d="M699 416C699 416 699 416 712 416C725 414 712 416 725 414C742 413 725 414 742 413C761.6406 409.1797 742 413 761.6406 409.1797C769.4375 408.625 761.6406 409.1797 769.4375 408.625C788 403 769.4375 408.625 788 403C786 403 786 403 786 403"/></svg>