<svg xmlns="http://www.w3.org/2000/svg" viewBox="0 0 1239.00 454.00" data-guides="{&quot;vertical&quot;:[],&quot;horizontal&quot;:[]}"><defs/><path fill="#000000" fill-opacity="1" stroke="#000000" stroke-opacity="1" stroke-width="6" id="tSvge940a55617" title="Rectangle 1" d="M6 6H1233V448H6Z" style="transform-origin: 619.5px 227px 0px;"/><path fill="none" stroke="#ffffff" fill-opacity="1" stroke-width="6" stroke-opacity="1" stroke-linecap="round" stroke-linejoin="round" id="tSvgfc575a4460" title="Path 42" d="M293 77C293 77 293 77 288 75C274.1309 73.8818 288 75 274.1309 73.8818C236.9844 67.75 274.1309 73.8818 236.9844 67.75C220 66 236.9844 67.75 220 66C199 66 220 66 199 66C192 70 199 66 192 70C180 84 192 70 180 84C166 115 180 84 166 115C166 135 166 115 166 135C168 141 166 135 168 141C175 155 168 141 175 155C189.0938 172.0547 175 155 189.0938 172.0547C198 178 189.0938 172.0547 198 178C238.1328 185.3594 198 178 238.1328 185.3594C258 195 238.1328 185.3594 258 195C263 201 258 195 263 201C264 204 263 201 264 204C270 213 264 204 270 213C272.0625 222.4375 270 213 272.0625 222.4375C272 239 272.0625 222.4375 272 239C263.0469 257.1406 272 239 263.0469 257.1406C252 270 263.0469 257.1406 252 270C246 274 252 270 246 274C244 277 246 274 244 277C235.625 284.0625 244 277 235.625 284.0625C225 289 235.625 284.0625 225 289C211.0625 292.5625 225 289 211.0625 292.5625C178.6406 293.1406 211.0625 292.5625 178.6406 293.1406C165 291 178.6406 293.1406 165 291C140 289 165 291 140 289C111.6875 288.9375 140 289 111.6875 288.9375C110 290 111.6875 288.9375 110 290C113 290 113 290 113 290"/><path fill="none" stroke="#ffffff" fill-opacity="1" stroke-width="6" stroke-opacity="1" stroke-linecap="round" stroke-linejoin="round" id="tSvgb4ca1442de" title="Path 43" d="M330 68C330 68 330 68 331 71C332 98 331 71 332 98C331 110 332 98 331 110C328 127 331 110 328 127C327.9375 154.5 328 127 327.9375 154.5C328.375 163.125 327.9375 154.5 328.375 163.125C331.1406 175.6172 328.375 163.125 331.1406 175.6172C332.0625 225.0625 331.1406 175.6172 332.0625 225.0625C328 256 332.0625 225.0625 328 256C327.9297 272.6094 328 256 327.9297 272.6094C329.0625 284.6875 327.9297 272.6094 329.0625 284.6875C328.75 321.5 329.0625 284.6875 328.75 321.5C324 315 328.75 321.5 324 315C321 307 321 307 321 307"/><path fill="none" stroke="#ffffff" fill-opacity="1" stroke-width="6" stroke-opacity="1" stroke-linecap="round" stroke-linejoin="round" id="tSvg178b440536" title="Path 44" d="M334 173C334 173 334 173 417 172.9375C433 175 417 172.9375 433 175C433 176 433 175 433 176C432 176 432 176 432 176"/><path fill="none" stroke="#ffffff" fill-opacity="1" stroke-width="6" stroke-opacity="1" stroke-linecap="round" stroke-linejoin="round" id="tSvg429137ae2f" title="Path 45" d="M432 81C432 81 432 81 435 86C436.5938 91.4531 435 86 436.5938 91.4531C437.375 100.5 436.5938 91.4531 437.375 100.5C440.625 109.5625 437.375 100.5 440.625 109.5625C442 118 440.625 109.5625 442 118C442.0625 192.4375 442 118 442.0625 192.4375C440 206 442.0625 192.4375 440 206C440 257 440 206 440 257C442 267 440 257 442 267C442 275 442 267 442 275C445 284 442 275 445 284C446 296 445 284 446 296C447 297 446 296 447 297C446.9375 307.5 447 297 446.9375 307.5C448 310 446.9375 307.5 448 310C447.9297 317.6172 448 310 447.9297 317.6172C449 318 447.9297 317.6172 449 318C449 320 449 318 449 320C449 318 449 318 449 318"/><path fill="none" stroke="#ffffff" fill-opacity="1" stroke-width="6" stroke-opacity="1" stroke-linecap="round" stroke-linejoin="round" id="tSvg8458f5f102" title="Path 46" d="M500 78C500 78 500 78 501.0703 85.4531C501.2109 121.2031 501.0703 85.4531 501.2109 121.2031C497.7891 141.625 501.2109 121.2031 497.7891 141.625C498 175 497.7891 141.625 498 175C501 192 498 175 501 192C510 220 501 192 510 220C514.4375 227.2969 510 220 514.4375 227.2969C524 260 514.4375 227.2969 524 260C528 276 524 260 528 276C529 284 528 276 529 284C531 289 529 284 531 289C531.0703 321.2109 531 289 531.0703 321.2109C528.7656 326.8906 531.0703 321.2109 528.7656 326.8906C546.9375 323.2617 528.7656 326.8906 546.9375 323.2617C575 316 546.9375 323.2617 575 316C581 316 575 316 581 316C615 309 581 316 615 309C619 309 615 309 619 309C618.5625 305.9375 619 309 618.5625 305.9375C617 305 617 305 617 305"/><path fill="none" stroke="#ffffff" fill-opacity="1" stroke-width="6" stroke-opacity="1" stroke-linecap="round" stroke-linejoin="round" id="tSvg47ecc999cc" title="Path 47" d="M503 181C503 181 503 181 510 181C538 188 510 181 538 188C550 190 538 188 550 190C559 190 550 190 559 190C564 192 559 190 564 192C582 195 564 192 582 195C611.1406 197.0703 582 195 611.1406 197.0703C622.125 196.9375 611.1406 197.0703 622.125 196.9375C624 198 622.125 196.9375 624 198C622 198 622 198 622 198"/><path fill="none" stroke="#ffffff" fill-opacity="1" stroke-width="6" stroke-opacity="1" stroke-linecap="round" stroke-linejoin="round" id="tSvg1559116796b" title="Path 48" d="M498 84C498 84 498 84 501 84C514.9375 88.25 501 84 514.9375 88.25C542.1094 98.5938 514.9375 88.25 542.1094 98.5938C562 101 542.1094 98.5938 562 101C603.5 100.0625 562 101 603.5 100.0625C606 99 603.5 100.0625 606 99C612 99 606 99 612 99C615 97 612 99 615 97C617 97 615 97 617 97C619.25 94.8828 617 97 619.25 94.8828C627 94 619.25 94.8828 627 94C634 92 634 92 634 92"/><path fill="none" stroke="#ffffff" fill-opacity="1" stroke-width="6" stroke-opacity="1" stroke-linecap="round" stroke-linejoin="round" id="tSvg1056771d43f" title="Path 49" d="M717 94C717 94 717 94 710 158C703 205 710 158 703 205C702.1094 221.5469 703 205 702.1094 221.5469C702 244 702.1094 221.5469 702 244C705 262 702 244 705 262C705 268 705 262 705 268C707 274 705 268 707 274C709 288 707 274 709 288C711 293 709 288 711 293C711.7188 300.75 711 293 711.7188 300.75C723.6406 302.8203 711.7188 300.75 723.6406 302.8203C751.4277 303.8203 723.6406 302.8203 751.4277 303.8203C772.6328 306.1406 751.4277 303.8203 772.6328 306.1406C794 306 772.6328 306.1406 794 306C812.125 303.2578 794 306 812.125 303.2578C803 291 803 291 803 291"/><path fill="none" stroke="#ffffff" fill-opacity="1" stroke-width="6" stroke-opacity="1" stroke-linecap="round" stroke-linejoin="round" id="tSvgbe1c64dbc0" title="Path 50" d="M712 184C712 184 712 184 780.6094 184.0703C808 182 808 182 808 182"/><path fill="none" stroke="#ffffff" fill-opacity="1" stroke-width="6" stroke-opacity="1" stroke-linecap="round" stroke-linejoin="round" id="tSvg10e8db16f2e" title="Path 51" d="M702 87C702 87 702 87 715 90C743 94 715 90 743 94C816 94 743 94 816 94C827.6875 93.0625 816 94 827.6875 93.0625C828 92 827.6875 93.0625 828 92C829 92 829 92 829 92"/><path fill="none" stroke="#ffffff" fill-opacity="1" stroke-width="6" stroke-opacity="1" stroke-linecap="round" stroke-linejoin="round" id="tSvg36ee5753db" title="Path 52" d="M984 104C984 104 984 104 978.3203 98.1797C971.5625 94.4375 978.3203 98.1797 971.5625 94.4375C963 93 971.5625 94.4375 963 93C953 93 963 93 953 93C931.9375 101.375 953 93 931.9375 101.375C923 107 931.9375 101.375 923 107C913.25 110.375 923 107 913.25 110.375C904 119 913.25 110.375 904 119C897 128 904 119 897 128C894 140 897 128 894 140C893.7188 153.2031 894 140 893.7188 153.2031C894.7422 156.9766 893.7188 153.2031 894.7422 156.9766C901 169 894.7422 156.9766 901 169C906 174 901 169 906 174C911 181 906 174 911 181C922 189 911 181 922 189C937 195 922 189 937 195C959 200 937 195 959 200C980.4844 203.4766 959 200 980.4844 203.4766C986 206 980.4844 203.4766 986 206C992.5 211.875 986 206 992.5 211.875C998.2969 220.4219 992.5 211.875 998.2969 220.4219C999.5938 223.9922 998.2969 220.4219 999.5938 223.9922C1001.625 235 999.5938 223.9922 1001.625 235C1003 255 1001.625 235 1003 255C1002.5625 273.1875 1003 255 1002.5625 273.1875C999.5625 287 1002.5625 273.1875 999.5625 287C997 294 999.5625 287 997 294C989 303 997 294 989 303C979 310 989 303 979 310C962 313 979 310 962 313C925.5625 312.5625 962 313 925.5625 312.5625C910 310 925.5625 312.5625 910 310C892 303 910 310 892 303C876 299 892 303 876 299C873 299 873 299 873 299"/><path fill="none" stroke="#ffffff" fill-opacity="1" stroke-width="6" stroke-opacity="1" stroke-linecap="round" stroke-linejoin="round" id="tSvg188ad2b9bfd" title="Path 53" d="M1045 88C1045 88 1045 88 1047 91C1049 100 1047 91 1049 100C1049.0625 117.5625 1049 100 1049.0625 117.5625C1046 133 1049.0625 117.5625 1046 133C1046.0703 186 1046 133 1046.0703 186C1044.9297 193 1046.0703 186 1044.9297 193C1045 203 1044.9297 193 1045 203C1043 211 1045 203 1043 211C1041.9297 221.5313 1043 211 1041.9297 221.5313C1043 259 1041.9297 221.5313 1043 259C1040 275 1043 259 1040 275C1038 279 1040 275 1038 279C1034 294 1038 279 1034 294C1034 297.5469 1034 294 1034 297.5469C1034 286 1034 286 1034 286"/><path fill="none" stroke="#ffffff" fill-opacity="1" stroke-width="6" stroke-opacity="1" stroke-linecap="round" stroke-linejoin="round" id="tSvg12bec9d9434" title="Path 54" d="M1052 168C1052 168 1052 168 1080 168C1093 166 1080 168 1093 166C1151 162 1151 162 1151 162"/><path fill="none" stroke="#ffffff" fill-opacity="1" stroke-width="6" stroke-opacity="1" stroke-linecap="round" stroke-linejoin="round" id="tSvg8df242917d" title="Path 55" d="M1140 103C1140 103 1140 103 1144 106C1148.5625 116.75 1144 106 1148.5625 116.75C1150 128 1148.5625 116.75 1150 128C1150 150 1150 128 1150 150C1152 173 1150 150 1152 173C1155.0703 182.1094 1152 173 1155.0703 182.1094C1155 201 1155.0703 182.1094 1155 201C1152 212 1155 201 1152 212C1150 236 1152 212 1150 236C1149 294 1150 236 1149 294C1148 298 1149 294 1148 298C1146 296 1146 296 1146 296"/></svg>